<?xml version="1.0" encoding="UTF-8" standalone="no"?>
<svg width="150px" height="150px" viewBox="0 0 150 150" version="1.1" xmlns="http://www.w3.org/2000/svg" xmlns:xlink="http://www.w3.org/1999/xlink">
    <!-- Generator: Sketch 42 (36781) - http://www.bohemiancoding.com/sketch -->
    <title>Group 18</title>
    <desc>Created with Sketch.</desc>
    <defs></defs>
    <g id="Symbols" stroke="none" stroke-width="1" fill="none" fill-rule="evenodd">
        <g id="Vision-Module" transform="translate(-415.000000, -2604.000000)">
            <g transform="translate(-150.000000, 169.000000)" id="Group-18">
                <g transform="translate(565.000000, 2435.000000)">
                    <rect id="Rectangle-3-Copy" fill="#DD911A" x="0" y="0" width="150" height="150" rx="4"></rect>
                    <g id="Group-17" transform="translate(23.000000, 50.000000)" fill-rule="nonzero" fill="#704A0D">
                        <g id="Group-Copy">
                            <path d="M14.1461462,43.7491196 L10.5682226,43.7491196 L10.5682226,49.3355482 L36.5751827,49.3355482 L36.5751827,43.7491196 L32.9972591,43.7491196 C32.9956146,43.7403488 32.9945183,43.7315781 32.9934219,43.7233555 L14.1499834,43.7233555 C14.148887,43.7315781 14.1472425,43.7403488 14.1461462,43.7491196 Z" id="Shape"></path>
                            <path d="M46.9663455,3.87503322 L36.7621096,3.87503322 L36.7621096,0 L10.3807475,0 L10.3807475,3.87503322 L0.176511628,3.87503322 L0.176511628,12.3371761 C0.176511628,18.5260465 5.11609635,23.5714286 11.2583721,23.7671262 C12.8519103,27.8998007 16.4703987,31.0468605 20.8837375,31.9694352 L20.8837375,36.0812791 C18.3139037,36.8404983 16.1930233,38.6565947 15.0171927,41.021412 L32.1245681,41.021412 C30.9487375,38.6565947 28.8278571,36.8404983 26.2580233,36.0812791 L26.2580233,31.9694352 C30.6713621,31.0468605 34.2898505,27.8998007 35.8833887,23.7671262 C42.0256645,23.5714286 46.9652492,18.5260465 46.9652492,12.3371761 L46.9652492,3.87503322 L46.9663455,3.87503322 Z M5.15446844,12.3371761 L5.15446844,8.85299003 L10.3807475,8.85299003 L10.3807475,18.6850166 C7.40636213,18.1028571 5.15446844,15.4793023 5.15446844,12.3371761 Z M41.9883887,12.3371761 C41.9883887,15.4793023 39.736495,18.1028571 36.7621096,18.6850166 L36.7621096,8.85244186 L41.9883887,8.85244186 L41.9883887,12.3371761 Z" id="Shape"></path>
                        </g>
                        <g id="Group-Copy" transform="translate(57.000000, 0.000000)">
                            <path d="M14.1461462,43.7491196 L10.5682226,43.7491196 L10.5682226,49.3355482 L36.5751827,49.3355482 L36.5751827,43.7491196 L32.9972591,43.7491196 C32.9956146,43.7403488 32.9945183,43.7315781 32.9934219,43.7233555 L14.1499834,43.7233555 C14.148887,43.7315781 14.1472425,43.7403488 14.1461462,43.7491196 Z" id="Shape"></path>
                            <path d="M46.9663455,3.87503322 L36.7621096,3.87503322 L36.7621096,0 L10.3807475,0 L10.3807475,3.87503322 L0.176511628,3.87503322 L0.176511628,12.3371761 C0.176511628,18.5260465 5.11609635,23.5714286 11.2583721,23.7671262 C12.8519103,27.8998007 16.4703987,31.0468605 20.8837375,31.9694352 L20.8837375,36.0812791 C18.3139037,36.8404983 16.1930233,38.6565947 15.0171927,41.021412 L32.1245681,41.021412 C30.9487375,38.6565947 28.8278571,36.8404983 26.2580233,36.0812791 L26.2580233,31.9694352 C30.6713621,31.0468605 34.2898505,27.8998007 35.8833887,23.7671262 C42.0256645,23.5714286 46.9652492,18.5260465 46.9652492,12.3371761 L46.9652492,3.87503322 L46.9663455,3.87503322 Z M5.15446844,12.3371761 L5.15446844,8.85299003 L10.3807475,8.85299003 L10.3807475,18.6850166 C7.40636213,18.1028571 5.15446844,15.4793023 5.15446844,12.3371761 Z M41.9883887,12.3371761 C41.9883887,15.4793023 39.736495,18.1028571 36.7621096,18.6850166 L36.7621096,8.85244186 L41.9883887,8.85244186 L41.9883887,12.3371761 Z" id="Shape"></path>
                        </g>
                    </g>
                </g>
            </g>
        </g>
    </g>
</svg>