<?xml version="1.0" encoding="UTF-8" standalone="no"?>
<svg width="150px" height="150px" viewBox="0 0 150 150" version="1.1" xmlns="http://www.w3.org/2000/svg" xmlns:xlink="http://www.w3.org/1999/xlink">
    <!-- Generator: Sketch 42 (36781) - http://www.bohemiancoding.com/sketch -->
    <title>Group 19</title>
    <desc>Created with Sketch.</desc>
    <defs></defs>
    <g id="Symbols" stroke="none" stroke-width="1" fill="none" fill-rule="evenodd">
        <g id="Vision-Module" transform="translate(-720.000000, -2604.000000)">
            <g transform="translate(-150.000000, 169.000000)" id="Group-19">
                <g transform="translate(870.000000, 2435.000000)">
                    <rect id="Rectangle-3-Copy-2" fill-opacity="0.122509058" fill="#9D9D9D" x="0" y="0" width="150" height="150" rx="4"></rect>
                    <path d="M66.1461462,71.7491196 L62.5682226,71.7491196 L62.5682226,77.3355482 L88.5751827,77.3355482 L88.5751827,71.7491196 L84.9972591,71.7491196 C84.9956146,71.7403488 84.9945183,71.7315781 84.9934219,71.7233555 L66.1499834,71.7233555 C66.148887,71.7315781 66.1472425,71.7403488 66.1461462,71.7491196 Z" id="Shape" fill-opacity="0.42467731" fill="#4D4D4D" fill-rule="nonzero"></path>
                    <path d="M98.9663455,31.8750332 L88.7621096,31.8750332 L88.7621096,28 L62.3807475,28 L62.3807475,31.8750332 L52.1765116,31.8750332 L52.1765116,40.3371761 C52.1765116,46.5260465 57.1160963,51.5714286 63.2583721,51.7671262 C64.8519103,55.8998007 68.4703987,59.0468605 72.8837375,59.9694352 L72.8837375,64.0812791 C70.3139037,64.8404983 68.1930233,66.6565947 67.0171927,69.021412 L84.1245681,69.021412 C82.9487375,66.6565947 80.8278571,64.8404983 78.2580233,64.0812791 L78.2580233,59.9694352 C82.6713621,59.0468605 86.2898505,55.8998007 87.8833887,51.7671262 C94.0256645,51.5714286 98.9652492,46.5260465 98.9652492,40.3371761 L98.9652492,31.8750332 L98.9663455,31.8750332 Z M57.1544684,40.3371761 L57.1544684,36.85299 L62.3807475,36.85299 L62.3807475,46.6850166 C59.4063621,46.1028571 57.1544684,43.4793023 57.1544684,40.3371761 Z M93.9883887,40.3371761 C93.9883887,43.4793023 91.736495,46.1028571 88.7621096,46.6850166 L88.7621096,36.8524419 L93.9883887,36.8524419 L93.9883887,40.3371761 Z" id="Shape" fill-opacity="0.42467731" fill="#4D4D4D" fill-rule="nonzero"></path>
                    <path d="M106.577924,117.025764 L103,117.025764 L103,122.612193 L129.00696,122.612193 L129.00696,117.025764 L125.429037,117.025764 C125.427392,117.016993 125.426296,117.008223 125.425199,117 L106.581761,117 C106.580664,117.008223 106.57902,117.016993 106.577924,117.025764 Z" id="Shape" fill-opacity="0.42467731" fill="#4D4D4D" fill-rule="nonzero"></path>
                    <path d="M138.789834,77.8750332 L128.585598,77.8750332 L128.585598,74 L102.204236,74 L102.204236,77.8750332 L92,77.8750332 L92,86.3371761 C92,92.5260465 96.9395847,97.5714286 103.08186,97.7671262 C104.675399,101.899801 108.293887,105.04686 112.707226,105.969435 L112.707226,110.081279 C110.137392,110.840498 108.016512,112.656595 106.840681,115.021412 L123.948056,115.021412 C122.772226,112.656595 120.651346,110.840498 118.081512,110.081279 L118.081512,105.969435 C122.49485,105.04686 126.113339,101.899801 127.706877,97.7671262 C133.849153,97.5714286 138.788738,92.5260465 138.788738,86.3371761 L138.788738,77.8750332 L138.789834,77.8750332 Z M96.9779568,86.3371761 L96.9779568,82.85299 L102.204236,82.85299 L102.204236,92.6850166 C99.2298505,92.1028571 96.9779568,89.4793023 96.9779568,86.3371761 Z M133.811877,86.3371761 C133.811877,89.4793023 131.559983,92.1028571 128.585598,92.6850166 L128.585598,82.8524419 L133.811877,82.8524419 L133.811877,86.3371761 Z" id="Shape" fill-opacity="0.42467731" fill="#4D4D4D" fill-rule="nonzero"></path>
                    <path d="M26.5779236,108.025764 L23,108.025764 L23,113.612193 L49.0069601,113.612193 L49.0069601,108.025764 L45.4290365,108.025764 C45.427392,108.016993 45.4262957,108.008223 45.4251993,108 L26.5817608,108 C26.5806645,108.008223 26.5790199,108.016993 26.5779236,108.025764 Z" id="Shape" fill-opacity="0.42467731" fill="#4D4D4D" fill-rule="nonzero"></path>
                    <path d="M58.7898339,68.8750332 L48.585598,68.8750332 L48.585598,65 L22.2042359,65 L22.2042359,68.8750332 L12,68.8750332 L12,77.3371761 C12,83.5260465 16.9395847,88.5714286 23.0818605,88.7671262 C24.6753987,92.8998007 28.293887,96.0468605 32.7072259,96.9694352 L32.7072259,101.081279 C30.137392,101.840498 28.0165116,103.656595 26.8406811,106.021412 L43.9480565,106.021412 C42.7722259,103.656595 40.6513455,101.840498 38.0815116,101.081279 L38.0815116,96.9694352 C42.4948505,96.0468605 46.1133389,92.8998007 47.7068771,88.7671262 C53.8491528,88.5714286 58.7887375,83.5260465 58.7887375,77.3371761 L58.7887375,68.8750332 L58.7898339,68.8750332 Z M16.9779568,77.3371761 L16.9779568,73.85299 L22.2042359,73.85299 L22.2042359,83.6850166 C19.2298505,83.1028571 16.9779568,80.4793023 16.9779568,77.3371761 Z M53.8118771,77.3371761 C53.8118771,80.4793023 51.5599834,83.1028571 48.585598,83.6850166 L48.585598,73.8524419 L53.8118771,73.8524419 L53.8118771,77.3371761 Z" id="Shape" fill-opacity="0.42467731" fill="#4D4D4D" fill-rule="nonzero"></path>
                </g>
            </g>
        </g>
    </g>
</svg>