<?xml version="1.0" encoding="UTF-8" standalone="no"?>
<svg width="150px" height="150px" viewBox="0 0 150 150" version="1.1" xmlns="http://www.w3.org/2000/svg" xmlns:xlink="http://www.w3.org/1999/xlink">
    <!-- Generator: Sketch 42 (36781) - http://www.bohemiancoding.com/sketch -->
    <title>Group 16</title>
    <desc>Created with Sketch.</desc>
    <defs></defs>
    <g id="Symbols" stroke="none" stroke-width="1" fill="none" fill-rule="evenodd">
        <g id="Vision-Module" transform="translate(-113.000000, -2604.000000)">
            <g transform="translate(-150.000000, 169.000000)" id="Group-16">
                <g transform="translate(263.000000, 2435.000000)">
                    <rect id="Rectangle-3" fill="#2A6190" x="0" y="0" width="150" height="150" rx="4"></rect>
                    <path d="M65.1461462,93.7491196 L61.5682226,93.7491196 L61.5682226,99.3355482 L87.5751827,99.3355482 L87.5751827,93.7491196 L83.9972591,93.7491196 C83.9956146,93.7403488 83.9945183,93.7315781 83.9934219,93.7233555 L65.1499834,93.7233555 C65.148887,93.7315781 65.1472425,93.7403488 65.1461462,93.7491196 Z" id="Shape" fill="#113A5C" fill-rule="nonzero"></path>
                    <path d="M97.9663455,53.8750332 L87.7621096,53.8750332 L87.7621096,50 L61.3807475,50 L61.3807475,53.8750332 L51.1765116,53.8750332 L51.1765116,62.3371761 C51.1765116,68.5260465 56.1160963,73.5714286 62.2583721,73.7671262 C63.8519103,77.8998007 67.4703987,81.0468605 71.8837375,81.9694352 L71.8837375,86.0812791 C69.3139037,86.8404983 67.1930233,88.6565947 66.0171927,91.021412 L83.1245681,91.021412 C81.9487375,88.6565947 79.8278571,86.8404983 77.2580233,86.0812791 L77.2580233,81.9694352 C81.6713621,81.0468605 85.2898505,77.8998007 86.8833887,73.7671262 C93.0256645,73.5714286 97.9652492,68.5260465 97.9652492,62.3371761 L97.9652492,53.8750332 L97.9663455,53.8750332 Z M56.1544684,62.3371761 L56.1544684,58.85299 L61.3807475,58.85299 L61.3807475,68.6850166 C58.4063621,68.1028571 56.1544684,65.4793023 56.1544684,62.3371761 Z M92.9883887,62.3371761 C92.9883887,65.4793023 90.736495,68.1028571 87.7621096,68.6850166 L87.7621096,58.8524419 L92.9883887,58.8524419 L92.9883887,62.3371761 Z" id="Shape" fill="#113A5C" fill-rule="nonzero"></path>
                </g>
            </g>
        </g>
    </g>
</svg>