<?xml version="1.0" encoding="UTF-8" standalone="no"?>
<svg width="60px" height="60px" viewBox="0 0 60 60" version="1.1" xmlns="http://www.w3.org/2000/svg" xmlns:xlink="http://www.w3.org/1999/xlink">
    <!-- Generator: Sketch 42 (36781) - http://www.bohemiancoding.com/sketch -->
    <title>Group</title>
    <desc>Created with Sketch.</desc>
    <defs>
        <rect id="path-1" x="0" y="0" width="31" height="73"></rect>
    </defs>
    <g id="About" stroke="none" stroke-width="1" fill="none" fill-rule="evenodd">
        <g id="Artboard-Copy-11" transform="translate(-664.000000, -1507.000000)">
            <g id="Group-9-Copy-3" transform="translate(662.000000, 1503.000000)">
                <g id="Group-8">
                    <g id="Group">
                        <g id="Path">
                            <mask id="mask-2" fill="white">
                                <use xlink:href="#path-1"></use>
                            </mask>
                            <g id="Mask"></g>
                            <path d="M32,64 C48.5686667,64 62,50.5686667 62,34 C62,17.4313333 48.5686667,4 32,4 C15.4313333,4 2,17.4313333 2,34 C2,50.5686667 15.4313333,64 32,64 Z" fill-opacity="0.135473279" fill="#EC6B52" mask="url(#mask-2)"></path>
                        </g>
                        <path d="M32,64 C48.5686667,64 62,50.5686667 62,34 C62,17.4313333 48.5686667,4 32,4 C15.4313333,4 2,17.4313333 2,34 C2,50.5686667 15.4313333,64 32,64 Z M32,6.83666667 C46.978,6.83666667 59.1633333,19.022 59.1633333,34 C59.1633333,48.978 46.978,61.1633333 32,61.1633333 C17.022,61.1633333 4.83666667,48.978 4.83666667,34 C4.83666667,19.022 17.022,6.83666667 32,6.83666667 Z" id="Shape" fill-opacity="0.216174139" fill="#C84630" fill-rule="nonzero"></path>
                        <path d="M18.6553333,51.166 L22.1126667,51.166 L22.1126667,54.5013333 C22.1126667,54.9246667 22.3413333,55.314 22.71,55.5206667 C22.888,55.62 23.0846667,55.67 23.2813333,55.67 C23.4926667,55.67 23.704,55.6126667 23.8913333,55.4986667 L27.996,52.988 L32.1006667,55.4986667 C32.4613333,55.7186667 32.9133333,55.7273333 33.282,55.5206667 C33.6506667,55.3133333 33.8793333,54.924 33.8793333,54.5013333 L33.8793333,51.166 L45.4006667,51.166 C47.4466667,51.166 49.112,49.5013333 49.112,47.4553333 L49.112,44.8566667 L49.112,42.9993333 L49.112,18.844 C49.112,16.4173333 47.138,14.444 44.712,14.444 L18.6553333,14.444 C16.578,14.444 14.888,16.134 14.888,18.2113333 L14.888,42.998 L14.888,44.8 L14.888,47.398 C14.888,49.476 16.578,51.166 18.6553333,51.166 Z M31.5413333,52.4166667 L28.606,50.6213333 C28.2313333,50.3933333 27.7606667,50.3933333 27.3866667,50.6213333 L24.4506667,52.4166667 L24.4506667,46.6613333 L31.5413333,46.6613333 L31.5413333,52.4166667 Z M46.774,44.856 L46.774,47.4546667 C46.774,48.212 46.158,48.8286667 45.4006667,48.8286667 L33.8793333,48.8286667 L33.8793333,46.6613333 L35.0033333,46.6613333 C35.6486667,46.6613333 36.172,46.1386667 36.172,45.4926667 C36.172,44.8466667 35.6486667,44.324 35.0033333,44.324 L20.9886667,44.324 C20.3433333,44.324 19.82,44.8466667 19.82,45.4926667 C19.82,46.1386667 20.3433333,46.6613333 20.9886667,46.6613333 L22.1126667,46.6613333 L22.1126667,48.8286667 L18.6553333,48.8286667 C17.8666667,48.8286667 17.2253333,48.1866667 17.2253333,47.398 L17.2253333,44.8 L17.2253333,42.9986667 C17.2253333,42.21 17.8666667,41.5686667 18.6553333,41.5686667 L45.344,41.5686667 C46.1326667,41.5686667 46.774,42.21 46.774,42.9986667 L46.774,44.856 L46.774,44.856 Z M17.226,18.212 C17.226,17.4233333 17.8673333,16.7813333 18.656,16.7813333 L44.712,16.7813333 C45.8493333,16.7813333 46.774,17.7066667 46.774,18.844 L46.774,39.5146667 C46.3326667,39.3326667 45.8506667,39.2313333 45.344,39.2313333 L18.6553333,39.2313333 C18.1493333,39.2313333 17.6666667,39.3333333 17.2253333,39.5146667 L17.2253333,18.212 L17.226,18.212 Z" id="Shape" fill="#C84630" fill-rule="nonzero"></path>
                        <path d="M24.0226667,29.48 L39.9773333,29.48 C40.6226667,29.48 41.146,28.9573333 41.146,28.3113333 L41.146,21.9213333 C41.146,21.2753333 40.6226667,20.7526667 39.9773333,20.7526667 L24.0226667,20.7526667 C23.3773333,20.7526667 22.854,21.2753333 22.854,21.9213333 L22.854,28.3113333 C22.854,28.9566667 23.3773333,29.48 24.0226667,29.48 Z M25.1913333,23.09 L38.808,23.09 L38.808,27.1426667 L25.1913333,27.1426667 L25.1913333,23.09 Z" id="Shape" fill="#C84630" fill-rule="nonzero"></path>
                    </g>
                </g>
            </g>
        </g>
    </g>
</svg>