<?xml version="1.0" encoding="UTF-8" standalone="no"?>
<svg width="98px" height="95px" viewBox="0 0 98 95" version="1.1" xmlns="http://www.w3.org/2000/svg" xmlns:xlink="http://www.w3.org/1999/xlink">
    <!-- Generator: Sketch 42 (36781) - http://www.bohemiancoding.com/sketch -->
    <title>Group 10</title>
    <desc>Created with Sketch.</desc>
    <defs></defs>
    <g id="About" stroke="none" stroke-width="1" fill="none" fill-rule="evenodd">
        <g id="Artboard-Copy-11" transform="translate(-793.000000, -1281.000000)" fill-rule="nonzero">
            <g id="Group-10" transform="translate(793.000000, 1281.000000)">
                <path d="M50.869802,5.4959743 C50.869802,5.4959743 52.860427,4.6537868 56.4588645,5.8787868 L56.6119895,5.8787868 C56.841677,5.8787868 57.0713645,5.7256618 57.147927,5.4959743 C57.2244895,5.1897243 57.0713645,4.8834743 56.7651145,4.7303493 C52.707302,3.3522243 50.410427,4.3475368 50.3338645,4.3475368 C50.0276145,4.5006618 49.951052,4.8069118 50.0276145,5.1131618 C50.257302,5.4959743 50.563552,5.6490993 50.869802,5.4959743 Z" id="Shape" fill="#4D4D4D"></path>
                <path d="M87.0390625,31.078125 C91.4796875,31.078125 95.078125,27.4796875 95.078125,23.0390625 C95.078125,18.5984375 91.4796875,15 87.0390625,15 C82.5984375,15 79,18.5984375 79,23.0390625 C79,27.4796875 82.5984375,31.078125 87.0390625,31.078125 Z M80.225,23.6515625 L83.2109375,23.6515625 C83.2875,26.1015625 83.8234375,28.16875 84.7421875,29.546875 C82.215625,28.5515625 80.4546875,26.33125 80.225,23.6515625 Z M87.0390625,16.1484375 C88.2640625,16.1484375 89.6421875,18.7515625 89.7953125,22.4265625 L84.2828125,22.4265625 C84.4359375,18.7515625 85.8140625,16.1484375 87.0390625,16.1484375 Z M89.7953125,23.6515625 C89.6421875,27.403125 88.2640625,29.9296875 87.0390625,29.9296875 C85.8140625,29.9296875 84.4359375,27.3265625 84.2828125,23.6515625 L89.7953125,23.6515625 Z M89.4890625,29.4703125 C90.33125,28.16875 90.94375,26.025 91.0203125,23.575 L94.00625,23.575 C93.7,26.33125 91.9390625,28.5515625 89.4890625,29.4703125 Z M93.9296875,22.503125 L90.94375,22.503125 C90.8671875,20.053125 90.33125,17.9859375 89.4125,16.6078125 C91.9390625,17.5265625 93.7,19.746875 93.9296875,22.503125 Z M84.665625,16.6078125 C83.8234375,17.909375 83.2109375,20.053125 83.134375,22.503125 L80.1484375,22.503125 C80.4546875,19.746875 82.215625,17.5265625 84.665625,16.6078125 Z" id="Shape" fill="#959595"></path>
                <path d="M93.225,52.6125 C93.225,52.30625 92.9953125,52 92.6125,52 C92.30625,52 92,52.2296875 92,52.6125 L92,60.26875 C92,60.575 92.2296875,60.88125 92.6125,60.88125 C92.91875,60.88125 93.225,60.6515625 93.225,60.26875 L93.225,52.6125 Z" id="Shape" fill="#959595"></path>
                <path d="M92.6125,62 C92.30625,62 92,62.2296875 92,62.6125 L92,65.0625 C92,65.36875 92.2296875,65.675 92.6125,65.675 C92.91875,65.675 93.225,65.4453125 93.225,65.0625 L93.225,62.6125 C93.225,62.30625 92.91875,62 92.6125,62 Z" id="Shape" fill="#959595"></path>
                <path d="M10.225,17.6125 C10.225,17.30625 9.9953125,17 9.6125,17 C9.30625,17 9,17.2296875 9,17.6125 L9,25.26875 C9,25.575 9.2296875,25.88125 9.6125,25.88125 C9.91875,25.88125 10.225,25.6515625 10.225,25.26875 L10.225,17.6125 Z" id="Shape" fill="#959595"></path>
                <path d="M9.6125,28 C9.30625,28 9,28.2296875 9,28.6125 L9,31.0625 C9,31.36875 9.2296875,31.675 9.6125,31.675 C9.91875,31.675 10.225,31.4453125 10.225,31.0625 L10.225,28.6125 C10.225,28.2296875 9.9953125,28 9.6125,28 Z" id="Shape" fill="#959595"></path>
                <path d="M1.01445313,71.1722656 C0.784765625,70.9425781 0.401953125,70.9425781 0.172265625,71.1722656 C-0.057421875,71.4019531 -0.057421875,71.7847656 0.172265625,72.0144531 L1.47382813,73.3160156 C1.55039062,73.3925781 1.70351563,73.3925781 1.85664062,73.3925781 C2.00976562,73.3925781 2.16289063,73.3160156 2.23945312,73.2394531 C2.46914062,73.0097656 2.46914062,72.6269531 2.23945312,72.3972656 L1.01445313,71.1722656 Z" id="Shape" fill="#959595"></path>
                <path d="M5.1832812,76.0144531 L6.4848437,77.3160156 C6.5614062,77.3925781 6.7145312,77.4691406 6.8676562,77.4691406 C7.0207812,77.4691406 7.1739062,77.3925781 7.2504687,77.3160156 C7.4801562,77.0863281 7.4801562,76.7035156 7.2504687,76.4738281 L5.9489062,75.1722656 C5.7192187,74.9425781 5.3364062,74.9425781 5.1067187,75.1722656 C4.9535937,75.4019531 4.9535937,75.7847656 5.1832812,76.0144531 Z" id="Shape" fill="#959595"></path>
                <path d="M1.47382813,75.1722656 L0.172265625,76.4738281 C-0.057421875,76.7035156 -0.057421875,77.0863281 0.172265625,77.3160156 C0.248828125,77.3925781 0.401953125,77.4691406 0.555078125,77.4691406 C0.708203125,77.4691406 0.861328125,77.3925781 0.937890625,77.3160156 L2.23945312,76.0144531 C2.46914062,75.7847656 2.46914062,75.4019531 2.23945312,75.1722656 C2.08632813,74.9425781 1.70351563,74.9425781 1.47382813,75.1722656 Z" id="Shape" fill="#959595"></path>
                <path d="M4.63164062,73.4691406 C4.78476562,73.4691406 4.93789062,73.3925781 5.01445312,73.3160156 L6.31601562,72.0144531 C6.54570312,71.7847656 6.54570312,71.4019531 6.31601562,71.1722656 C6.08632812,70.9425781 5.70351562,70.9425781 5.47382812,71.1722656 L4.17226562,72.4738281 C3.94257812,72.7035156 3.94257812,73.0863281 4.17226562,73.3160156 C4.32539062,73.4691406 4.47851562,73.4691406 4.63164062,73.4691406 Z" id="Shape" fill="#959595"></path>
                <path d="M82.5503906,4.31601562 C82.6269531,4.39257812 82.7800781,4.46914062 82.9332031,4.46914062 C83.0863281,4.46914062 83.2394531,4.39257812 83.3160156,4.31601562 C83.5457031,4.08632812 83.5457031,3.70351562 83.3160156,3.47382812 L82.0144531,2.17226563 C81.7847656,1.94257813 81.4019531,1.94257813 81.1722656,2.17226563 C80.9425781,2.40195312 80.9425781,2.78476562 81.1722656,3.01445313 L82.5503906,4.31601562 Z" id="Shape" fill="#959595"></path>
                <path d="M86.5503906,8.31601562 C86.6269531,8.39257812 86.7800781,8.46914062 86.9332031,8.46914062 C87.0863281,8.46914062 87.2394531,8.39257812 87.3160156,8.31601562 C87.5457031,8.08632812 87.5457031,7.70351562 87.3160156,7.47382812 L86.0144531,6.17226563 C85.7847656,5.94257812 85.4019531,5.94257812 85.1722656,6.17226563 C84.9425781,6.40195313 84.9425781,6.78476563 85.1722656,7.01445312 L86.5503906,8.31601562 Z" id="Shape" fill="#959595"></path>
                <path d="M81.6316406,8.46914062 C81.7847656,8.46914062 81.9378906,8.39257812 82.0144531,8.31601562 L83.3160156,7.01445312 C83.5457031,6.78476562 83.5457031,6.40195312 83.3160156,6.17226563 C83.0863281,5.94257812 82.7035156,5.94257812 82.4738281,6.17226563 L81.1722656,7.47382812 C80.9425781,7.70351562 80.9425781,8.08632812 81.1722656,8.31601562 C81.3253906,8.39257812 81.4785156,8.46914062 81.6316406,8.46914062 Z" id="Shape" fill="#959595"></path>
                <path d="M85.6316406,4.46914063 C85.7847656,4.46914063 85.9378906,4.39257813 86.0144531,4.31601563 L87.3160156,3.01445313 C87.5457031,2.78476563 87.5457031,2.40195313 87.3160156,2.17226563 C87.0863281,1.94257813 86.7035156,1.94257813 86.4738281,2.17226563 L85.1722656,3.47382813 C84.9425781,3.70351562 84.9425781,4.08632812 85.1722656,4.31601563 C85.4019531,4.39257813 85.5550781,4.46914063 85.6316406,4.46914063 Z" id="Shape" fill="#959595"></path>
                <path d="M30.75625,22.5125 C32.2875,22.5125 33.5125,21.2875 33.5125,19.75625 C33.5125,18.225 32.2875,17 30.75625,17 C29.225,17 28,18.225 28,19.75625 C28,21.2875 29.225,22.5125 30.75625,22.5125 Z M30.75625,18.1484375 C31.675,18.1484375 32.3640625,18.8375 32.3640625,19.75625 C32.3640625,20.675 31.675,21.3640625 30.75625,21.3640625 C29.8375,21.3640625 29.1484375,20.675 29.1484375,19.75625 C29.1484375,18.8375 29.8375,18.1484375 30.75625,18.1484375 Z" id="Shape" fill="#959595"></path>
                <path d="M94.75625,73 C93.225,73 92,74.225 92,75.75625 C92,77.2875 93.225,78.5125 94.75625,78.5125 C96.2875,78.5125 97.5125,77.2875 97.5125,75.75625 C97.5125,74.225 96.2875,73 94.75625,73 Z M94.75625,77.3640625 C93.8375,77.3640625 93.1484375,76.675 93.1484375,75.75625 C93.1484375,74.8375 93.8375,74.1484375 94.75625,74.1484375 C95.675,74.1484375 96.3640625,74.8375 96.3640625,75.75625 C96.3640625,76.675 95.5984375,77.3640625 94.75625,77.3640625 Z" id="Shape" fill="#959595"></path>
                <path d="M12,10.6125 C12,10.91875 12.2296875,11.225 12.6125,11.225 L22.7953125,11.225 C23.1015625,11.225 23.4078125,10.9953125 23.4078125,10.6125 C23.4078125,10.30625 23.178125,10 22.7953125,10 L12.6125,10 C12.30625,10 12,10.30625 12,10.6125 Z" id="Shape" fill="#959595"></path>
                <path d="M6.6125,11.225 L9.9046875,11.225 C10.2109375,11.225 10.5171875,10.9953125 10.5171875,10.6125 C10.5171875,10.30625 10.2875,10 9.9046875,10 L6.6125,10 C6.30625,10 6,10.2296875 6,10.6125 C6,10.91875 6.2296875,11.225 6.6125,11.225 Z" id="Shape" fill="#959595"></path>
                <path d="M6.6125,7.225 L13.65625,7.225 C13.9625,7.225 14.26875,6.9953125 14.26875,6.6125 C14.26875,6.2296875 14.0390625,6 13.65625,6 L6.6125,6 C6.30625,6 6,6.2296875 6,6.6125 C6,6.9953125 6.2296875,7.225 6.6125,7.225 Z" id="Shape" fill="#959595"></path>
                <path d="M16.6125,7.225 L18.909375,7.225 C19.215625,7.225 19.521875,6.9953125 19.521875,6.6125 C19.521875,6.2296875 19.2921875,6 18.909375,6 L16.6125,6 C16.30625,6 16,6.2296875 16,6.6125 C16,6.9953125 16.30625,7.225 16.6125,7.225 Z" id="Shape" fill="#959595"></path>
                <path d="M64,21.6125 C64,21.91875 64.2296875,22.225 64.6125,22.225 L74.7953125,22.225 C75.1015625,22.225 75.4078125,21.9953125 75.4078125,21.6125 C75.4078125,21.30625 75.178125,21 74.7953125,21 L64.6125,21 C64.30625,21.0765625 64,21.30625 64,21.6125 Z" id="Shape" fill="#959595"></path>
                <path d="M57.6125,21 C57.30625,21 57,21.2296875 57,21.6125 C57,21.91875 57.2296875,22.225 57.6125,22.225 L60.9046875,22.225 C61.2109375,22.225 61.5171875,21.9953125 61.5171875,21.6125 C61.5171875,21.30625 61.2875,21 60.9046875,21 L57.6125,21 Z" id="Shape" fill="#959595"></path>
                <path d="M57.6125,17 C57.30625,17 57,17.2296875 57,17.6125 C57,17.91875 57.2296875,18.225 57.6125,18.225 L64.65625,18.225 C64.9625,18.225 65.26875,17.9953125 65.26875,17.6125 C65.26875,17.30625 65.0390625,17 64.65625,17 L57.6125,17 Z" id="Shape" fill="#959595"></path>
                <path d="M67.6125,18.225 L69.909375,18.225 C70.215625,18.225 70.521875,17.9953125 70.521875,17.6125 C70.521875,17.30625 70.2921875,17 69.909375,17 L67.6125,17 C67.30625,17 67,17.2296875 67,17.6125 C67,17.9953125 67.30625,18.225 67.6125,18.225 Z" id="Shape" fill="#959595"></path>
                <path d="M14.4792912,44.5375 L82.5433537,44.5375 C82.8496037,44.5375 83.0792912,44.384375 83.0792912,44.078125 C83.1558537,43.8484375 83.0027287,43.5421875 82.7730412,43.465625 L52.2246037,28.91875 C49.9277287,27.69375 47.1714787,27.69375 44.8746037,28.91875 L14.3261662,43.465625 C14.0964787,43.61875 13.9433537,43.8484375 14.0199162,44.078125 C14.0199162,44.3078125 14.2496037,44.5375 14.4792912,44.5375 Z M45.3339787,29.9140625 C47.3246037,28.91875 49.6980412,28.91875 51.6886662,29.9140625 L79.9402287,43.3890625 L17.0824162,43.3890625 L45.3339787,29.9140625 Z" id="Shape" fill="#4D4D4D"></path>
                <path d="M88.83125,85.3671875 L86.1515625,85.3671875 L86.1515625,83.0703125 C86.1515625,82.840625 86.075,82.6875 85.8453125,82.534375 L84.084375,81.5390625 L84.084375,53.746875 L85.2328125,53.746875 C86.534375,53.746875 87.60625,52.675 87.60625,51.3734375 L87.60625,50.990625 C87.60625,50.53125 87.453125,50.071875 87.2234375,49.765625 L92.1234375,49.765625 C92.4296875,49.765625 92.7359375,49.5359375 92.7359375,49.153125 L92.7359375,44.1765625 C92.7359375,43.946875 92.5828125,43.7171875 92.4296875,43.640625 L53,24.5765625 C51.6984375,23.9640625 50.3203125,23.6578125 48.9421875,23.58125 L48.9421875,23.58125 L48.9421875,12.4796875 C51.3921875,11.5609375 53.8421875,12.096875 56.4453125,12.6328125 C58.053125,13.015625 59.6609375,13.321875 61.3453125,13.321875 C62.5703125,13.321875 63.7953125,13.0921875 65.0203125,12.55625 C65.25,12.4796875 65.3265625,12.25 65.3265625,12.0203125 L65.3265625,2.6796875 C65.3265625,2.45 65.25,2.296875 65.096875,2.2203125 C64.94375,2.14375 64.7140625,2.0671875 64.5609375,2.14375 C61.9578125,3.2921875 59.43125,2.6796875 56.675,2.14375 C54.1484375,1.6078125 51.5453125,0.9953125 48.9421875,1.8375 L48.9421875,0.6125 C48.9421875,0.30625 48.7125,0 48.3296875,0 C48.0234375,0 47.7171875,0.2296875 47.7171875,0.6125 L47.7171875,2.6796875 L47.7171875,12.0203125 L47.7171875,23.428125 L47.7171875,23.428125 C46.3390625,23.5046875 44.9609375,23.8109375 43.659375,24.4234375 L4.30625,43.640625 C4.0765625,43.7171875 4,43.946875 4,44.1765625 L4,49.153125 C4,49.459375 4.2296875,49.765625 4.6125,49.765625 L9.5125,49.765625 C9.2828125,50.1484375 9.1296875,50.53125 9.1296875,50.990625 L9.1296875,51.3734375 C9.1296875,52.675 10.2015625,53.746875 11.503125,53.746875 L12.6515625,53.746875 L12.6515625,81.5390625 L10.890625,82.534375 C10.7375,82.6109375 10.584375,82.840625 10.584375,83.0703125 L10.584375,85.3671875 L7.9046875,85.3671875 C5.7609375,85.3671875 4,87.128125 4,89.271875 L4,94.325 C4,94.63125 4.2296875,94.9375 4.6125,94.9375 L92.2765625,94.9375 C92.5828125,94.9375 92.8890625,94.7078125 92.8890625,94.325 L92.8890625,89.271875 C92.8125,87.0515625 91.0515625,85.3671875 88.83125,85.3671875 Z M85.003125,85.3671875 L75.815625,85.3671875 L75.815625,83.3765625 L77.19375,82.534375 L77.2703125,82.534375 L83.471875,82.534375 L83.5484375,82.534375 L84.9265625,83.3765625 L84.9265625,85.3671875 L85.003125,85.3671875 Z M64.790625,85.3671875 L64.790625,83.0703125 C64.790625,82.840625 64.7140625,82.6875 64.484375,82.534375 L62.7234375,81.5390625 L62.7234375,53.746875 L63.871875,53.746875 C65.1734375,53.746875 66.2453125,52.675 66.2453125,51.3734375 L66.2453125,50.990625 C66.2453125,50.53125 66.0921875,50.071875 65.8625,49.765625 L73.51875,49.765625 C73.2890625,50.1484375 73.1359375,50.53125 73.1359375,50.990625 L73.1359375,51.3734375 C73.1359375,52.675 74.2078125,53.746875 75.509375,53.746875 L76.6578125,53.746875 L76.6578125,81.5390625 L74.896875,82.534375 C74.74375,82.6109375 74.590625,82.840625 74.590625,83.0703125 L74.590625,85.3671875 L64.790625,85.3671875 Z M54.4546875,85.3671875 L54.4546875,83.3765625 L55.8328125,82.534375 L55.909375,82.534375 L62.1109375,82.534375 L62.1875,82.534375 L63.565625,83.3765625 L63.565625,85.3671875 L54.4546875,85.3671875 Z M43.4296875,85.3671875 L43.4296875,83.0703125 C43.4296875,82.840625 43.353125,82.6875 43.1234375,82.534375 L41.3625,81.5390625 L41.3625,53.746875 L42.5109375,53.746875 C43.8125,53.746875 44.884375,52.675 44.884375,51.3734375 L44.884375,50.990625 C44.884375,50.53125 44.73125,50.071875 44.5015625,49.765625 L52.1578125,49.765625 C51.928125,50.1484375 51.775,50.53125 51.775,50.990625 L51.775,51.3734375 C51.775,52.675 52.846875,53.746875 54.1484375,53.746875 L55.296875,53.746875 L55.296875,81.5390625 L53.5359375,82.534375 C53.3828125,82.6109375 53.2296875,82.840625 53.2296875,83.0703125 L53.2296875,85.3671875 L43.4296875,85.3671875 Z M33.09375,85.3671875 L33.09375,83.3765625 L34.471875,82.534375 L34.5484375,82.534375 L40.75,82.534375 L40.8265625,82.534375 L42.2046875,83.3765625 L42.2046875,85.3671875 L33.09375,85.3671875 Z M22.06875,85.3671875 L22.06875,83.0703125 C22.06875,82.840625 21.9921875,82.6875 21.7625,82.534375 L20.0015625,81.5390625 L20.0015625,53.746875 L21.15,53.746875 C22.4515625,53.746875 23.5234375,52.675 23.5234375,51.3734375 L23.5234375,50.990625 C23.5234375,50.53125 23.3703125,50.071875 23.140625,49.765625 L30.796875,49.765625 C30.5671875,50.1484375 30.4140625,50.53125 30.4140625,50.990625 L30.4140625,51.3734375 C30.4140625,52.675 31.4859375,53.746875 32.7875,53.746875 L33.9359375,53.746875 L33.9359375,81.5390625 L32.175,82.534375 C32.021875,82.6109375 31.86875,82.840625 31.86875,83.0703125 L31.86875,85.3671875 L22.06875,85.3671875 Z M13.8,79.5484375 L18.853125,79.5484375 L18.853125,81.4625 L13.8,81.4625 L13.8,79.5484375 Z M43.7359375,50.9140625 L43.7359375,51.296875 C43.7359375,51.9859375 43.2,52.521875 42.5109375,52.521875 L40.75,52.521875 L34.5484375,52.521875 L32.7875,52.521875 C32.0984375,52.521875 31.5625,51.9859375 31.5625,51.296875 L31.5625,50.9140625 C31.5625,50.225 32.0984375,49.6890625 32.7875,49.6890625 L42.434375,49.6890625 C43.2,49.6890625 43.7359375,50.225 43.7359375,50.9140625 Z M35.1609375,79.5484375 L40.2140625,79.5484375 L40.2140625,81.4625 L35.1609375,81.4625 L35.1609375,79.5484375 Z M40.2140625,78.3234375 L35.1609375,78.3234375 L35.1609375,53.746875 L40.2140625,53.746875 L40.2140625,78.3234375 Z M65.096875,50.9140625 L65.096875,51.296875 C65.096875,51.9859375 64.5609375,52.521875 63.871875,52.521875 L62.1109375,52.521875 L55.909375,52.521875 L54.1484375,52.521875 C53.459375,52.521875 52.9234375,51.9859375 52.9234375,51.296875 L52.9234375,50.9140625 C52.9234375,50.225 53.459375,49.6890625 54.1484375,49.6890625 L63.7953125,49.6890625 C64.5609375,49.6890625 65.096875,50.225 65.096875,50.9140625 Z M56.521875,79.5484375 L61.575,79.5484375 L61.575,81.4625 L56.521875,81.4625 L56.521875,79.5484375 Z M61.575,78.3234375 L56.521875,78.3234375 L56.521875,53.746875 L61.575,53.746875 L61.575,78.3234375 Z M77.8828125,79.5484375 L82.9359375,79.5484375 L82.9359375,81.4625 L77.8828125,81.4625 L77.8828125,79.5484375 Z M82.9359375,78.3234375 L77.8828125,78.3234375 L77.8828125,53.746875 L82.9359375,53.746875 L82.9359375,78.3234375 Z M86.534375,50.9140625 L86.534375,51.296875 C86.534375,51.9859375 85.9984375,52.521875 85.309375,52.521875 L83.5484375,52.521875 L77.346875,52.521875 L75.5859375,52.521875 C74.896875,52.521875 74.3609375,51.9859375 74.3609375,51.296875 L74.3609375,50.9140625 C74.3609375,50.225 74.896875,49.6890625 75.5859375,49.6890625 L85.2328125,49.6890625 C85.921875,49.6890625 86.534375,50.225 86.534375,50.9140625 Z M56.4453125,3.2921875 C58.971875,3.828125 61.575,4.440625 64.2546875,3.521875 L64.2546875,11.6375 C61.8046875,12.55625 59.3546875,12.0203125 56.7515625,11.484375 C55.14375,11.1015625 53.5359375,10.7953125 51.8515625,10.7953125 C50.85625,10.7953125 49.9375,10.9484375 48.9421875,11.2546875 L48.9421875,3.0625 C51.3921875,2.14375 53.8421875,2.6796875 56.4453125,3.2921875 Z M5.1484375,44.4828125 L44.3484375,25.571875 C46.9515625,24.346875 49.9375,24.346875 52.540625,25.571875 L91.740625,44.4828125 L91.740625,48.540625 L85.3859375,48.540625 L75.5859375,48.540625 L63.871875,48.540625 L54.225,48.540625 L42.5109375,48.540625 L32.8640625,48.540625 L21.15,48.540625 L11.503125,48.540625 L5.1484375,48.540625 L5.1484375,44.4828125 Z M10.2015625,51.3734375 L10.2015625,50.990625 C10.2015625,50.3015625 10.7375,49.765625 11.4265625,49.765625 L21.0734375,49.765625 C21.7625,49.765625 22.2984375,50.3015625 22.2984375,50.990625 L22.2984375,51.3734375 C22.2984375,52.0625 21.7625,52.5984375 21.0734375,52.5984375 L19.3125,52.5984375 L13.1109375,52.5984375 L11.503125,52.5984375 C10.8140625,52.5984375 10.2015625,52.0625 10.2015625,51.3734375 Z M18.853125,53.746875 L18.853125,78.4 L13.8,78.4 L13.8,53.746875 L18.853125,53.746875 Z M11.7328125,83.3765625 L13.1109375,82.534375 L13.1875,82.534375 L19.3890625,82.534375 L19.465625,82.534375 L20.84375,83.3765625 L20.84375,85.3671875 L11.7328125,85.3671875 L11.7328125,83.3765625 Z M91.6640625,93.7125 L5.1484375,93.7125 L5.1484375,89.1953125 C5.1484375,87.6640625 6.3734375,86.4390625 7.9046875,86.4390625 L88.83125,86.4390625 C90.3625,86.4390625 91.5875,87.6640625 91.5875,89.1953125 L91.5875,93.7125 L91.6640625,93.7125 Z" id="Shape" fill="#4D4D4D"></path>
                <path d="M12.7609375,89 L11.6125,89 C11.30625,89 11,89.2296875 11,89.6125 C11,89.91875 11.2296875,90.225 11.6125,90.225 L12.7609375,90.225 C13.0671875,90.225 13.3734375,89.9953125 13.3734375,89.6125 C13.296875,89.30625 13.0671875,89 12.7609375,89 Z" id="Shape" fill="#4D4D4D"></path>
                <path d="M66.8328125,89 L64.6125,89 C64.30625,89 64,89.2296875 64,89.6125 C64,89.91875 64.2296875,90.225 64.6125,90.225 L66.8328125,90.225 C67.1390625,90.225 67.4453125,89.9953125 67.4453125,89.6125 C67.36875,89.30625 67.1390625,89 66.8328125,89 Z" id="Shape" fill="#4D4D4D"></path>
                <path d="M59.8328125,89 L57.6125,89 C57.30625,89 57,89.2296875 57,89.6125 C57,89.91875 57.2296875,90.225 57.6125,90.225 L59.8328125,90.225 C60.1390625,90.225 60.4453125,89.9953125 60.4453125,89.6125 C60.36875,89.30625 60.1390625,89 59.8328125,89 Z" id="Shape" fill="#4D4D4D"></path>
                <path d="M52.8328125,89 L50.6125,89 C50.30625,89 50,89.2296875 50,89.6125 C50,89.91875 50.2296875,90.225 50.6125,90.225 L52.8328125,90.225 C53.1390625,90.225 53.4453125,89.9953125 53.4453125,89.6125 C53.4453125,89.30625 53.215625,89 52.8328125,89 Z" id="Shape" fill="#4D4D4D"></path>
                <path d="M79.8328125,89 L77.6125,89 C77.30625,89 77,89.2296875 77,89.6125 C77,89.91875 77.2296875,90.225 77.6125,90.225 L79.8328125,90.225 C80.1390625,90.225 80.4453125,89.9953125 80.4453125,89.6125 C80.36875,89.30625 80.1390625,89 79.8328125,89 Z" id="Shape" fill="#4D4D4D"></path>
                <path d="M72.8328125,89 L70.6125,89 C70.30625,89 70,89.2296875 70,89.6125 C70,89.91875 70.2296875,90.225 70.6125,90.225 L72.8328125,90.225 C73.1390625,90.225 73.4453125,89.9953125 73.4453125,89.6125 C73.4453125,89.30625 73.1390625,89 72.8328125,89 Z" id="Shape" fill="#4D4D4D"></path>
                <path d="M18.8328125,89 L16.6125,89 C16.30625,89 16,89.2296875 16,89.6125 C16,89.91875 16.2296875,90.225 16.6125,90.225 L18.8328125,90.225 C19.1390625,90.225 19.4453125,89.9953125 19.4453125,89.6125 C19.36875,89.30625 19.1390625,89 18.8328125,89 Z" id="Shape" fill="#4D4D4D"></path>
                <path d="M25.8328125,89 L23.6125,89 C23.30625,89 23,89.2296875 23,89.6125 C23,89.91875 23.2296875,90.225 23.6125,90.225 L25.8328125,90.225 C26.1390625,90.225 26.4453125,89.9953125 26.4453125,89.6125 C26.4453125,89.30625 26.1390625,89 25.8328125,89 Z" id="Shape" fill="#4D4D4D"></path>
                <path d="M32.8328125,89 L30.6125,89 C30.30625,89 30,89.2296875 30,89.6125 C30,89.91875 30.2296875,90.225 30.6125,90.225 L32.8328125,90.225 C33.1390625,90.225 33.4453125,89.9953125 33.4453125,89.6125 C33.36875,89.30625 33.1390625,89 32.8328125,89 Z" id="Shape" fill="#4D4D4D"></path>
                <path d="M45.8328125,89 L43.6125,89 C43.30625,89 43,89.2296875 43,89.6125 C43,89.91875 43.2296875,90.225 43.6125,90.225 L45.8328125,90.225 C46.1390625,90.225 46.4453125,89.9953125 46.4453125,89.6125 C46.4453125,89.30625 46.1390625,89 45.8328125,89 Z" id="Shape" fill="#4D4D4D"></path>
                <path d="M39.8328125,89 L37.6125,89 C37.30625,89 37,89.2296875 37,89.6125 C37,89.91875 37.2296875,90.225 37.6125,90.225 L39.8328125,90.225 C40.1390625,90.225 40.4453125,89.9953125 40.4453125,89.6125 C40.36875,89.30625 40.1390625,89 39.8328125,89 Z" id="Shape" fill="#4D4D4D"></path>
                <path d="M85.7609375,89 L84.6125,89 C84.30625,89 84,89.2296875 84,89.6125 C84,89.91875 84.2296875,90.225 84.6125,90.225 L85.7609375,90.225 C86.0671875,90.225 86.3734375,89.9953125 86.3734375,89.6125 C86.3734375,89.30625 86.14375,89 85.7609375,89 Z" id="Shape" fill="#4D4D4D"></path>
            </g>
        </g>
    </g>
</svg>