<?xml version="1.0" encoding="UTF-8" standalone="no"?>
<svg width="128px" height="122px" viewBox="0 0 128 122" version="1.1" xmlns="http://www.w3.org/2000/svg" xmlns:xlink="http://www.w3.org/1999/xlink">
    <!-- Generator: Sketch 42 (36781) - http://www.bohemiancoding.com/sketch -->
    <title>Group 11</title>
    <desc>Created with Sketch.</desc>
    <defs></defs>
    <g id="About" stroke="none" stroke-width="1" fill="none" fill-rule="evenodd">
        <g id="Artboard-Copy-11" transform="translate(-775.000000, -1452.000000)" fill-rule="nonzero">
            <g id="Group-7" transform="translate(775.000000, 1452.000000)">
                <g id="Group-11">
                    <path d="M119.8,23.5 C120.2,23.5 120.5,23.2 120.5,22.8 L120.5,10.5 C120.5,10.1 120.2,9.8 119.8,9.8 C119.4,9.8 119.1,10.1 119.1,10.5 L119.1,22.8 C119.1,23.1 119.4,23.5 119.8,23.5 Z" id="Shape" fill="#959595"></path>
                    <path d="M119.8,31.5 C120.2,31.5 120.5,31.2 120.5,30.8 L120.5,26.8 C120.5,26.4 120.2,26.1 119.8,26.1 C119.4,26.1 119.1,26.4 119.1,26.8 L119.1,30.8 C119.1,31.1 119.4,31.5 119.8,31.5 Z" id="Shape" fill="#959595"></path>
                    <path d="M97,98.1 C96.7,97.8 96.2,97.8 96,98.1 C95.7,98.4 95.7,98.9 96,99.1 L97.7,100.8 C97.8,100.9 98,101 98.2,101 C98.4,101 98.6,100.9 98.7,100.8 C99,100.5 99,100 98.7,99.8 L97,98.1 Z" id="Shape" fill="#959595"></path>
                    <path d="M103.5,106.4 C103.7,106.4 103.9,106.3 104,106.2 C104.3,105.9 104.3,105.4 104,105.2 L102.3,103.5 C102,103.2 101.5,103.2 101.3,103.5 C101,103.8 101,104.3 101.3,104.5 L103,106.2 C103.1,106.3 103.3,106.4 103.5,106.4 Z" id="Shape" fill="#959595"></path>
                    <path d="M97.6,103.4 L95.9,105.1 C95.6,105.4 95.6,105.9 95.9,106.1 C96,106.2 96.2,106.3 96.4,106.3 C96.6,106.3 96.8,106.2 96.9,106.1 L98.6,104.4 C98.9,104.1 98.9,103.6 98.6,103.4 C98.3,103.1 97.9,103.1 97.6,103.4 Z" id="Shape" fill="#959595"></path>
                    <path d="M103,98.1 L101.3,99.8 C101,100.1 101,100.6 101.3,100.8 C101.4,100.9 101.6,101 101.8,101 C102,101 102.2,100.9 102.3,100.8 L104,99.1 C104.3,98.8 104.3,98.3 104,98.1 C103.7,97.9 103.3,97.8 103,98.1 Z" id="Shape" fill="#959595"></path>
                    <path d="M21.2,111.5 C20.9,111.2 20.4,111.2 20.2,111.5 C19.9,111.8 19.9,112.3 20.2,112.5 L21.9,114.2 C22,114.3 22.2,114.4 22.4,114.4 C22.6,114.4 22.8,114.3 22.9,114.2 C23.2,113.9 23.2,113.4 22.9,113.2 L21.2,111.5 Z" id="Shape" fill="#959595"></path>
                    <path d="M26.6,116.8 C26.3,116.5 25.8,116.5 25.6,116.8 C25.3,117.1 25.3,117.6 25.6,117.8 L27.3,119.5 C27.4,119.6 27.6,119.7 27.8,119.7 C28,119.7 28.2,119.6 28.3,119.5 C28.6,119.2 28.6,118.7 28.3,118.5 L26.6,116.8 Z" id="Shape" fill="#959595"></path>
                    <path d="M21.8,116.8 L20.1,118.5 C19.8,118.8 19.8,119.3 20.1,119.5 C20.2,119.6 20.4,119.7 20.6,119.7 C20.8,119.7 21,119.6 21.1,119.5 L22.8,117.8 C23.1,117.5 23.1,117 22.8,116.8 C22.6,116.5 22.1,116.5 21.8,116.8 Z" id="Shape" fill="#959595"></path>
                    <path d="M27.2,111.5 L25.5,113.2 C25.2,113.5 25.2,114 25.5,114.2 C25.6,114.3 25.8,114.4 26,114.4 C26.2,114.4 26.4,114.3 26.5,114.2 L28.2,112.5 C28.5,112.2 28.5,111.7 28.2,111.5 C27.9,111.2 27.5,111.2 27.2,111.5 Z" id="Shape" fill="#959595"></path>
                    <path d="M11.9,7.5 C12,7.6 12.2,7.7 12.4,7.7 C12.6,7.7 12.8,7.6 12.9,7.5 C13.2,7.2 13.2,6.7 12.9,6.5 L11.2,4.8 C10.9,4.5 10.4,4.5 10.2,4.8 C9.9,5.1 9.9,5.6 10.2,5.8 L11.9,7.5 Z" id="Shape" fill="#959595"></path>
                    <path d="M17.3,12.8 C17.4,12.9 17.6,13 17.8,13 C18,13 18.2,12.9 18.3,12.8 C18.6,12.5 18.6,12 18.3,11.8 L16.6,10.1 C16.3,9.8 15.8,9.8 15.6,10.1 C15.3,10.4 15.3,10.9 15.6,11.1 L17.3,12.8 Z" id="Shape" fill="#959595"></path>
                    <path d="M10.8,13.1 C11,13.1 11.2,13 11.3,12.9 L13,11.2 C13.3,10.9 13.3,10.4 13,10.2 C12.7,9.9 12.2,9.9 12,10.2 L10.3,11.9 C10,12.2 10,12.7 10.3,12.9 C10.4,13 10.6,13.1 10.8,13.1 Z" id="Shape" fill="#959595"></path>
                    <path d="M16.1,7.7 C16.3,7.7 16.5,7.6 16.6,7.5 L18.3,5.8 C18.6,5.5 18.6,5 18.3,4.8 C18,4.5 17.5,4.5 17.3,4.8 L15.6,6.5 C15.3,6.8 15.3,7.3 15.6,7.5 C15.8,7.6 16,7.7 16.1,7.7 Z" id="Shape" fill="#959595"></path>
                    <path d="M10.8,32.1 L25.4,32.1 C25.8,32.1 26.1,31.8 26.1,31.4 C26.1,31 25.8,30.7 25.4,30.7 L10.8,30.7 C10.4,30.7 10.1,31 10.1,31.4 C10,31.8 10.4,32.1 10.8,32.1 Z" id="Shape" fill="#959595"></path>
                    <path d="M1.2,32.1 L6,32.1 C6.4,32.1 6.7,31.8 6.7,31.4 C6.7,31 6.4,30.7 6,30.7 L1.2,30.7 C0.8,30.7 0.5,31 0.5,31.4 C0.5,31.8 0.8,32.1 1.2,32.1 Z" id="Shape" fill="#959595"></path>
                    <path d="M12.2,36.4 C12.2,36 11.9,35.7 11.5,35.7 L1.2,35.7 C0.8,35.7 0.5,36 0.5,36.4 C0.5,36.8 0.8,37.1 1.2,37.1 L11.4,37.1 C11.8,37.1 12.2,36.8 12.2,36.4 Z" id="Shape" fill="#959595"></path>
                    <path d="M19.8,36.4 C19.8,36 19.5,35.7 19.1,35.7 L15.8,35.7 C15.4,35.7 15.1,36 15.1,36.4 C15.1,36.8 15.4,37.1 15.8,37.1 L19.1,37.1 C19.5,37.1 19.8,36.8 19.8,36.4 Z" id="Shape" fill="#959595"></path>
                    <path d="M117.2,119.8 L102.6,119.8 C102.2,119.8 101.9,120.1 101.9,120.5 C101.9,120.9 102.2,121.2 102.6,121.2 L117.2,121.2 C117.6,121.2 117.9,120.9 117.9,120.5 C118,120.1 117.6,119.8 117.2,119.8 Z" id="Shape" fill="#959595"></path>
                    <path d="M126.8,119.8 L122,119.8 C121.6,119.8 121.3,120.1 121.3,120.5 C121.3,120.9 121.6,121.2 122,121.2 L126.7,121.2 C127.1,121.2 127.4,120.9 127.4,120.5 C127.5,120.1 127.2,119.8 126.8,119.8 Z" id="Shape" fill="#959595"></path>
                    <path d="M116.6,116.2 L126.8,116.2 C127.2,116.2 127.5,115.9 127.5,115.5 C127.5,115.1 127.2,114.8 126.8,114.8 L116.6,114.8 C116.2,114.8 115.9,115.1 115.9,115.5 C115.8,115.9 116.2,116.2 116.6,116.2 Z" id="Shape" fill="#959595"></path>
                    <path d="M108.2,115.5 C108.2,115.9 108.5,116.2 108.9,116.2 L112.2,116.2 C112.6,116.2 112.9,115.9 112.9,115.5 C112.9,115.1 112.6,114.8 112.2,114.8 L108.9,114.8 C108.5,114.8 108.2,115.1 108.2,115.5 Z" id="Shape" fill="#959595"></path>
                    <path d="M82.8,101.9 C82,101.8 81.2,102 80.7,102.5 C79.9,103.2 78.2,103.7 76.7,103.7 C75.2,103.7 73.5,103.2 72.7,102.5 C72.1,102 71.3,101.8 70.6,101.9 C69.8,102 69.1,102.4 68.6,103 C67.5,104.4 67.1,106.4 67.2,108.9 L67.6,115.6 C67.6,116 67.9,116.3 68.3,116.3 L85,116.3 C85.4,116.3 85.7,116 85.7,115.6 L86.1,108.9 C86.3,106.4 85.8,104.4 84.7,103 C84.3,102.3 83.6,101.9 82.8,101.9 Z M84.7,108.8 L84.7,108.8 L84.3,114.8 L69,114.8 L68.6,108.8 C68.5,106.6 68.8,105 69.7,103.9 C69.9,103.6 70.3,103.4 70.7,103.4 C71.1,103.4 71.5,103.5 71.7,103.7 C73,104.8 75.1,105.2 76.7,105.2 C78.3,105.2 80.4,104.7 81.7,103.7 C82,103.5 82.4,103.4 82.7,103.4 C83.1,103.4 83.5,103.6 83.7,103.9 C84.5,105 84.9,106.6 84.7,108.8 Z" id="Shape" fill="#4D4D4D"></path>
                    <path d="M76.7,101.1 C79.8,101.1 82.3,98.4 82.3,95.2 C82.3,91.9 79.8,89.3 76.7,89.3 C73.6,89.3 71.1,92 71.1,95.2 C71.1,98.4 73.6,101.1 76.7,101.1 Z M76.7,90.7 C79,90.7 80.8,92.7 80.8,95.2 C80.8,97.7 78.9,99.7 76.7,99.7 C74.4,99.7 72.6,97.7 72.6,95.2 C72.5,92.7 74.4,90.7 76.7,90.7 Z" id="Shape" fill="#4D4D4D"></path>
                    <path d="M57.2,101.9 C56.4,101.8 55.6,102 55.1,102.5 C54.3,103.2 52.6,103.7 51.1,103.7 C49.6,103.7 47.9,103.2 47.1,102.5 C46.5,102 45.7,101.8 45,101.9 C44.2,102 43.5,102.4 43,103 C41.9,104.4 41.5,106.4 41.6,108.9 L42,115.6 C42,116 42.3,116.3 42.7,116.3 L59.4,116.3 C59.8,116.3 60.1,116 60.1,115.6 L60.5,108.9 C60.7,106.4 60.2,104.4 59.1,103 C58.7,102.3 58,101.9 57.2,101.9 Z M59.1,108.8 L58.7,114.8 L43.4,114.8 L43,108.8 C42.9,106.6 43.2,105 44.1,103.9 C44.3,103.6 44.7,103.4 45.1,103.4 C45.5,103.4 45.9,103.5 46.1,103.7 C47.4,104.8 49.5,105.2 51.1,105.2 C52.7,105.2 54.8,104.7 56.1,103.7 C56.4,103.5 56.8,103.4 57.1,103.4 C57.5,103.4 57.9,103.6 58.1,103.9 C58.9,105 59.2,106.6 59.1,108.8 Z" id="Shape" fill="#4D4D4D"></path>
                    <path d="M51,101.1 C54.1,101.1 56.6,98.4 56.6,95.2 C56.6,91.9 54.1,89.3 51,89.3 C47.9,89.3 45.4,92 45.4,95.2 C45.4,98.4 47.9,101.1 51,101.1 Z M51,90.7 C53.3,90.7 55.1,92.7 55.1,95.2 C55.1,97.7 53.2,99.7 51,99.7 C48.7,99.7 46.9,97.7 46.9,95.2 C46.9,92.7 48.8,90.7 51,90.7 Z" id="Shape" fill="#4D4D4D"></path>
                    <path d="M95.6,13.4 C94.8,13.3 94,13.5 93.5,14 C92.7,14.7 91,15.2 89.5,15.2 C88,15.2 86.3,14.7 85.5,14 C84.9,13.5 84.1,13.3 83.4,13.4 C82.6,13.5 81.9,13.9 81.4,14.5 C80.3,15.9 79.9,17.9 80,20.4 L80.4,27.1 C80.4,27.5 80.7,27.8 81.1,27.8 L97.8,27.8 C98.2,27.8 98.5,27.5 98.5,27.1 L98.9,20.4 C99.1,17.9 98.6,15.9 97.5,14.5 C97.2,13.9 96.4,13.5 95.6,13.4 Z M97.5,20.4 L97.5,20.4 L97.1,26.4 L81.8,26.4 L81.4,20.4 C81.3,18.2 81.6,16.6 82.5,15.5 C82.7,15.2 83.1,15 83.5,15 C83.9,15 84.3,15.1 84.5,15.3 C85.8,16.4 87.9,16.8 89.5,16.8 C91.1,16.8 93.2,16.3 94.5,15.3 C94.8,15.1 95.2,15 95.5,15 C95.9,15 96.3,15.2 96.5,15.5 C97.3,16.5 97.7,18.2 97.5,20.4 Z" id="Shape" fill="#4D4D4D"></path>
                    <path d="M89.5,12.6 C92.6,12.6 95.1,9.9 95.1,6.7 C95.1,3.4 92.6,0.8 89.5,0.8 C86.4,0.8 83.9,3.5 83.9,6.7 C83.9,10 86.4,12.6 89.5,12.6 Z M89.5,2.2 C91.8,2.2 93.6,4.2 93.6,6.7 C93.6,9.2 91.7,11.2 89.5,11.2 C87.2,11.2 85.4,9.2 85.4,6.7 C85.4,4.2 87.2,2.2 89.5,2.2 Z" id="Shape" fill="#4D4D4D"></path>
                    <path d="M54.8,27.1 C54.8,27.5 55.1,27.8 55.5,27.8 L72.2,27.8 C72.6,27.8 72.9,27.5 72.9,27.1 L73.3,20.4 C73.5,17.9 73,15.9 71.9,14.5 C71.4,13.9 70.7,13.5 69.9,13.4 C69.1,13.3 68.3,13.5 67.8,14 C67,14.7 65.3,15.2 63.8,15.2 C62.3,15.2 60.6,14.7 59.8,14 C59.2,13.5 58.4,13.3 57.7,13.4 C56.9,13.5 56.2,13.9 55.7,14.5 C54.6,15.9 54.2,17.9 54.3,20.4 L54.8,27.1 Z M56.9,15.4 C57.1,15.1 57.5,14.9 57.9,14.9 C58.3,14.9 58.7,15 58.9,15.2 C60.2,16.3 62.3,16.7 63.9,16.7 C65.5,16.7 67.6,16.2 68.9,15.2 C69.2,15 69.5,14.9 69.9,14.9 C70.3,14.9 70.7,15.1 70.9,15.4 C71.7,16.5 72.1,18.2 72,20.3 L71.6,26.3 L56.2,26.3 L55.8,20.3 C55.7,18.2 56,16.5 56.9,15.4 Z" id="Shape" fill="#4D4D4D"></path>
                    <path d="M63.8,12.6 C66.9,12.6 69.4,9.9 69.4,6.7 C69.4,3.4 66.9,0.8 63.8,0.8 C60.7,0.8 58.2,3.5 58.2,6.7 C58.2,10 60.8,12.6 63.8,12.6 Z M63.8,2.2 C66.1,2.2 67.9,4.2 67.9,6.7 C67.9,9.2 66,11.2 63.8,11.2 C61.6,11.2 59.7,9.2 59.7,6.7 C59.7,4.2 61.6,2.2 63.8,2.2 Z" id="Shape" fill="#4D4D4D"></path>
                    <path d="M47.3,27.1 L47.7,20.4 C47.9,17.9 47.4,15.9 46.3,14.5 C45.8,13.9 45.1,13.5 44.3,13.4 C43.5,13.3 42.7,13.5 42.2,14 C41.4,14.7 39.7,15.2 38.2,15.2 C36.7,15.2 35,14.7 34.2,14 C33.6,13.5 32.8,13.3 32.1,13.4 C31.3,13.5 30.6,13.9 30.1,14.5 C29,15.9 28.6,17.9 28.7,20.4 L29.1,27.1 C29.1,27.5 29.4,27.8 29.8,27.8 L46.5,27.8 C47,27.8 47.3,27.5 47.3,27.1 Z M46.3,20.4 L46.3,20.4 L45.9,26.4 L30.6,26.4 L30.2,20.4 C30.1,18.2 30.4,16.6 31.3,15.5 C31.5,15.2 31.9,15 32.3,15 C32.7,15 33.1,15.1 33.3,15.3 C34.6,16.4 36.7,16.8 38.3,16.8 C39.9,16.8 42,16.3 43.3,15.3 C43.6,15.1 44,15 44.3,15 C44.7,15 45.1,15.2 45.3,15.5 C46.1,16.5 46.4,18.2 46.3,20.4 Z" id="Shape" fill="#4D4D4D"></path>
                    <path d="M38.2,12.6 C41.3,12.6 43.8,9.9 43.8,6.7 C43.8,3.4 41.3,0.8 38.2,0.8 C35.1,0.8 32.6,3.5 32.6,6.7 C32.6,10 35.1,12.6 38.2,12.6 Z M38.2,2.2 C40.5,2.2 42.3,4.2 42.3,6.7 C42.3,9.2 40.4,11.2 38.2,11.2 C36,11.2 34.1,9.2 34.1,6.7 C34.1,4.2 35.9,2.2 38.2,2.2 Z" id="Shape" fill="#4D4D4D"></path>
                    <path d="M111.1,62.8 C111.3,54.2 108.4,46 102.8,39.6 L107.8,40.3 C108.2,40.4 108.6,40.1 108.6,39.7 C108.7,39.3 108.4,38.9 108,38.9 L101,38 C100.8,38 100.6,38 100.4,38.2 C100.2,38.4 100.2,38.6 100.2,38.8 L100.7,45.9 C100.7,46.3 101.1,46.6 101.4,46.6 L101.5,46.6 C101.9,46.6 102.2,46.2 102.2,45.8 L101.8,40.8 C107.1,46.9 109.9,54.7 109.7,62.9 C109.4,71.5 105.9,79.5 99.6,85.5 C99.3,85.8 99.3,86.2 99.6,86.5 C99.7,86.7 99.9,86.7 100.1,86.7 C100.3,86.7 100.5,86.6 100.6,86.5 C107,80.2 110.8,71.8 111.1,62.8 Z" id="Shape" fill="#959595"></path>
                    <path d="M26.9,86.6 C27.1,86.6 27.3,86.5 27.4,86.4 C27.6,86.2 27.6,86 27.6,85.8 L27.1,78.7 C27.1,78.3 26.7,78 26.3,78 C25.9,78 25.6,78.4 25.6,78.8 L26,83.8 C20.7,77.7 17.9,69.9 18.1,61.7 C18.4,53.1 21.9,45.1 28.2,39.1 C28.5,38.8 28.5,38.4 28.2,38.1 C27.9,37.8 27.5,37.8 27.2,38.1 C20.6,44.3 16.9,52.7 16.6,61.7 C16.4,70.3 19.3,78.5 24.9,84.9 L19.9,84.2 C19.5,84.1 19.1,84.4 19.1,84.8 C19,85.2 19.3,85.6 19.7,85.6 L26.9,86.6 C26.8,86.6 26.8,86.6 26.9,86.6 Z" id="Shape" fill="#959595"></path>
                    <path d="M63.8,36.2 C50.7,36.2 40,46.9 40,60 C40,73.1 50.7,83.8 63.8,83.8 C77,83.9 87.7,73.2 87.7,60 C87.7,46.8 77,36.2 63.8,36.2 Z M83.6,49.6 L79.3,49.6 C77.8,45.3 75.4,41.8 72.4,39.4 C77.2,41.4 81.2,45 83.6,49.6 Z M79.5,60 C79.5,63.2 79,66.3 78.2,69 L71.3,69 C71.7,66.1 71.9,63 71.9,60 C71.9,57 71.7,53.9 71.3,51 L78.2,51 C79,53.8 79.5,56.8 79.5,60 Z M48.2,60 C48.2,56.8 48.7,53.7 49.5,51 L56.4,51 C56,53.9 55.8,57 55.8,60 C55.8,63 56,66.1 56.4,69 L49.5,69 C48.6,66.3 48.2,63.2 48.2,60 Z M69.6,49.6 L58.1,49.6 C59.3,42.3 61.7,37.7 63.9,37.7 C66.1,37.7 68.4,42.3 69.6,49.6 Z M70.4,60 C70.4,63.3 70.2,66.3 69.8,69 L57.8,69 C57.4,66.3 57.2,63.3 57.2,60 C57.2,56.7 57.4,53.7 57.8,51 L69.8,51 C70.2,53.7 70.4,56.8 70.4,60 Z M56.6,49.6 L50,49.6 C52.1,43.9 55.9,39.7 60.5,38.3 C58.6,40.6 57.3,44.7 56.6,49.6 Z M56.6,70.5 C57.4,75.3 58.7,79.5 60.5,81.8 C56,80.4 52.2,76.1 50,70.5 L56.6,70.5 Z M58.1,70.5 L69.7,70.5 C68.5,77.8 66.1,82.4 63.9,82.4 C61.7,82.4 59.3,77.8 58.1,70.5 Z M71.1,70.5 L77.7,70.5 C75.6,76.2 71.8,80.4 67.2,81.8 C69.1,79.5 70.4,75.4 71.1,70.5 Z M71.1,49.6 C70.3,44.8 69,40.6 67.2,38.3 C71.7,39.7 75.5,44 77.7,49.6 L71.1,49.6 L71.1,49.6 Z M55.3,39.4 C52.3,41.8 49.9,45.3 48.4,49.6 L44.1,49.6 C46.5,45 50.5,41.4 55.3,39.4 Z M43.4,51 L48,51 C47.2,53.8 46.7,56.8 46.7,60 C46.7,63.2 47.2,66.2 48,69 L43.4,69 C42.2,66.2 41.5,63.2 41.5,60 C41.5,56.8 42.2,53.8 43.4,51 Z M44.1,70.5 L48.4,70.5 C49.9,74.8 52.3,78.3 55.3,80.7 C50.5,78.7 46.5,75.1 44.1,70.5 Z M72.4,80.7 C75.4,78.3 77.8,74.8 79.3,70.5 L83.6,70.5 C81.2,75.1 77.2,78.7 72.4,80.7 Z M84.3,69.1 L79.7,69.1 C80.5,66.3 81,63.3 81,60.1 C81,56.9 80.5,53.9 79.7,51.1 L84.3,51.1 C85.5,53.9 86.2,56.9 86.2,60.1 C86.2,63.2 85.5,66.3 84.3,69.1 Z" id="Shape" fill="#4D4D4D"></path>
                    <path d="M121.7,65.8 C123.9,65.8 125.6,64 125.6,61.9 C125.6,59.7 123.8,58 121.7,58 C119.5,58 117.8,59.8 117.8,61.9 C117.8,64.1 119.6,65.8 121.7,65.8 Z M121.7,59.5 C123,59.5 124.1,60.6 124.1,61.9 C124.1,63.2 123,64.3 121.7,64.3 C120.4,64.3 119.3,63.2 119.3,61.9 C119.3,60.6 120.4,59.5 121.7,59.5 Z" id="Shape" fill="#959595"></path>
                    <path d="M9.1,98.7 C6.9,98.7 5.2,100.5 5.2,102.6 C5.2,104.8 7,106.5 9.1,106.5 C11.3,106.5 13,104.7 13,102.6 C13,100.4 11.3,98.7 9.1,98.7 Z M9.1,105 C7.8,105 6.7,103.9 6.7,102.6 C6.7,101.3 7.8,100.2 9.1,100.2 C10.4,100.2 11.5,101.3 11.5,102.6 C11.6,103.9 10.5,105 9.1,105 Z" id="Shape" fill="#959595"></path>
                </g>
            </g>
        </g>
    </g>
</svg>