<?xml version="1.0" encoding="UTF-8" standalone="no"?>
<svg width="167px" height="155px" viewBox="0 0 167 155" version="1.1" xmlns="http://www.w3.org/2000/svg" xmlns:xlink="http://www.w3.org/1999/xlink">
    <!-- Generator: Sketch 42 (36781) - http://www.bohemiancoding.com/sketch -->
    <title>Group 7</title>
    <desc>Created with Sketch.</desc>
    <defs>
        <path d="M131.170523,137.162439 L131.170523,53.6624063 C132.226221,53.6624063 133.149957,53.5300766 134.205656,53.3977469 C137.240788,52.8684282 140.143959,51.677461 142.651243,50.2218344 L146.082262,56.1766703 C146.214225,56.4413297 146.610111,56.7059891 146.874036,56.7059891 C147.005998,56.7059891 147.269923,56.7059891 147.401885,56.5736594 C147.929734,56.309 148.061697,55.6473516 147.797772,55.2503625 L144.366752,49.2955266 C150.173093,44.9286469 154,37.9151735 154,30.2400516 C154,22.4326001 150.173093,15.5514563 144.366752,11.1845766 L146.478149,7.61167506 L150.173093,9.86127974 C150.305056,9.99360943 150.437018,9.99360943 150.700943,9.99360943 L150.964867,9.99360943 C151.228792,9.99360943 151.492716,9.72895006 151.624679,9.59662037 C153.472151,6.68536725 152.416452,2.84780631 149.513282,0.995190686 C148.061697,0.0688828737 146.346187,-0.195776501 144.762639,0.201212561 C143.179092,0.598201623 141.727506,1.65683912 140.935733,2.980136 C140.671808,3.37712506 140.80377,4.0387735 141.199657,4.30343287 L144.894602,6.55303756 L142.915167,9.99360943 C139.220223,7.74400475 134.997429,6.42070787 130.378749,6.42070787 C125.760069,6.42070787 121.537275,7.74400475 117.842331,9.99360943 L115.862896,6.55303756 L119.557841,4.30343287 C119.953728,4.0387735 120.217652,3.37712506 119.821765,2.980136 C117.974293,0.0688828737 114.147386,-0.857424938 111.244216,0.862860998 C108.341045,2.71547662 107.417309,6.55303756 109.132819,9.46429068 C109.264781,9.72895006 109.528706,9.86127974 109.792631,9.86127974 L110.056555,9.86127974 C110.188518,9.86127974 110.452442,9.86127974 110.584404,9.72895006 L114.279349,7.47934537 L116.390746,11.0522469 C110.584404,15.4191266 106.757498,22.3002704 106.757498,30.1077219 C106.757498,31.9603375 107.021422,33.9452829 107.417309,35.7978985 C107.813196,37.5181844 108.473008,39.2384704 109.264781,40.8264266 L103.062554,40.8264266 L103.062554,37.3858547 C103.062554,36.856536 102.666667,36.4595469 102.138817,36.4595469 C101.610968,36.4595469 101.215081,36.856536 101.215081,37.3858547 L101.215081,40.8264266 L91.0539846,40.8264266 L91.0539846,37.3858547 C91.0539846,36.856536 90.6580977,36.4595469 90.1302485,36.4595469 C89.6023993,36.4595469 89.2065124,36.856536 89.2065124,37.3858547 L89.2065124,40.8264266 L79.0454156,40.8264266 L79.0454156,37.3858547 C79.0454156,36.856536 78.6495287,36.4595469 78.1216795,36.4595469 C77.5938303,36.4595469 77.1979434,36.856536 77.1979434,37.3858547 L77.1979434,40.8264266 L67.0368466,40.8264266 L67.0368466,37.3858547 C67.0368466,36.856536 66.6409597,36.4595469 66.1131105,36.4595469 C65.5852614,36.4595469 65.1893745,36.856536 65.1893745,37.3858547 L65.1893745,40.8264266 L54.2365039,40.8264266 L54.2365039,37.3858547 C54.2365039,36.856536 53.840617,36.4595469 53.3127678,36.4595469 C52.7849186,36.4595469 52.3890317,36.856536 52.3890317,37.3858547 L52.3890317,40.8264266 L42.2279349,40.8264266 L42.2279349,37.3858547 C42.2279349,36.856536 41.832048,36.4595469 41.3041988,36.4595469 C40.7763496,36.4595469 40.3804627,36.856536 40.3804627,37.3858547 L40.3804627,40.8264266 L30.2193659,40.8264266 L30.2193659,37.3858547 C30.2193659,36.856536 29.823479,36.4595469 29.2956298,36.4595469 C28.7677806,36.4595469 28.3718937,36.856536 28.3718937,37.3858547 L28.3718937,40.8264266 L18.2107969,40.8264266 L18.2107969,37.3858547 C18.2107969,36.856536 17.81491,36.4595469 17.2870608,36.4595469 C16.7592117,36.4595469 16.3633248,36.856536 16.3633248,37.3858547 L16.3633248,40.8264266 L3.56298201,40.8264266 C1.58354756,40.8264266 0,42.4143829 0,44.3993282 L0,137.427098 C0,139.412044 1.58354756,141 3.56298201,141 L128.13539,141 C129.586975,140.603011 131.170523,139.015055 131.170523,137.162439 Z" id="path-1"></path>
    </defs>
    <g id="Symbols" stroke="none" stroke-width="1" fill="none" fill-rule="evenodd">
        <g id="Schedule-a-Demo-Module" transform="translate(-567.000000, -76.000000)">
            <g transform="translate(0.000000, -1.000000)" id="Group-3-Copy">
                <g>
                    <g id="Group-2">
                        <g id="Group-8" transform="translate(283.000000, 77.000000)">
                            <g id="Group-7" transform="translate(284.000000, 0.000000)">
                                <g id="Rectangle-9" transform="translate(13.000000, 0.000000)">
                                    <mask id="mask-2" fill="white">
                                        <use xlink:href="#path-1"></use>
                                    </mask>
                                    <use id="Mask" fill="#FFFFFF" xlink:href="#path-1"></use>
                                    <rect fill="#E9E9E9" mask="url(#mask-2)" x="-18" y="-6" width="88" height="161"></rect>
                                </g>
                                <g id="Group" fill-rule="nonzero">
                                    <path d="M7,57 C7.57142857,57 8,56.5961538 8,56.0576923 L8,43.9423077 C8,43.4038462 7.57142857,43 7,43 C6.42857143,43 6,43.4038462 6,43.9423077 L6,56.0576923 C6,56.5961538 6.42857143,57 7,57 Z" id="Shape" fill="#D2D2D2"></path>
                                    <path d="M7,67 C7.57142857,67 8,66.6086957 8,66.0869565 L8,61.9130435 C8,61.3913043 7.57142857,61 7,61 C6.42857143,61 6,61.3913043 6,61.9130435 L6,66.0869565 C6,66.6086957 6.42857143,67 7,67 Z" id="Shape" fill="#D2D2D2"></path>
                                    <path d="M62.5,25 C64.9428571,25 67,22.9428571 67,20.5 C67,18.0571429 64.9428571,16 62.5,16 C60.0571429,16 58,18.0571429 58,20.5 C58,22.9428571 59.9285714,25 62.5,25 Z M62.5,17.9285714 C63.9142857,17.9285714 65.0714286,19.0857143 65.0714286,20.5 C65.0714286,21.9142857 63.9142857,23.0714286 62.5,23.0714286 C61.0857143,23.0714286 59.9285714,21.9142857 59.9285714,20.5 C59.9285714,19.0857143 61.0857143,17.9285714 62.5,17.9285714 Z" id="Shape" fill="#D2D2D2"></path>
                                    <path d="M154.5,91 C152.057143,91 150,93.0571429 150,95.5 C150,97.9428571 152.057143,100 154.5,100 C156.942857,100 159,97.9428571 159,95.5 C159,93.0571429 156.942857,91 154.5,91 Z M154.5,98.0714286 C153.085714,98.0714286 151.928571,96.9142857 151.928571,95.5 C151.928571,94.0857143 153.085714,92.9285714 154.5,92.9285714 C155.914286,92.9285714 157.071429,94.0857143 157.071429,95.5 C157.071429,96.9142857 155.914286,98.0714286 154.5,98.0714286 Z" id="Shape" fill="#D2D2D2"></path>
                                    <path d="M21.5,145 C19.0571429,145 17,147.057143 17,149.5 C17,151.942857 19.0571429,154 21.5,154 C23.9428571,154 26,151.942857 26,149.5 C26,147.057143 23.9428571,145 21.5,145 Z M21.5,152.071429 C20.0857143,152.071429 18.9285714,150.914286 18.9285714,149.5 C18.9285714,148.085714 20.0857143,146.928571 21.5,146.928571 C22.9142857,146.928571 24.0714286,148.085714 24.0714286,149.5 C24.0714286,150.914286 22.9142857,152.071429 21.5,152.071429 Z" id="Shape" fill="#D2D2D2"></path>
                                    <path d="M16,13.0109794 C16,13.576134 16.4047619,14 16.9444444,14 L32.0555556,14 C32.5952381,14 33,13.576134 33,13.0109794 C33,12.4458247 32.5952381,12.0219587 32.0555556,12.0219587 L16.9444444,12.0219587 C16.4047619,11.8806701 16,12.4458247 16,13.0109794 Z" id="Shape" fill="#D2D2D2"></path>
                                    <path d="M12.0013457,12 L6.97696326,12 C6.41869854,12 6,12.4285714 6,13 C6,13.5714286 6.41869854,14 6.97696326,14 L12.0013457,14 C12.5596104,14 12.978309,13.5714286 12.978309,13 C13.1178751,12.5714286 12.5596104,12 12.0013457,12 Z" id="Shape" fill="#D2D2D2"></path>
                                    <path d="M6.91304348,9 L17.0869565,9 C17.6086957,9 18,8.57142857 18,8 C18,7.42857143 17.6086957,7 17.0869565,7 L6.91304348,7 C6.39130435,7 6,7.42857143 6,8 C6,8.57142857 6.39130435,9 6.91304348,9 Z" id="Shape" fill="#D2D2D2"></path>
                                    <path d="M21.8974359,9 L25.1025641,9 C25.6153846,9 26,8.57142857 26,8 C26,7.42857143 25.6153846,7 25.1025641,7 L21.8974359,7 C21.3846154,7 21,7.42857143 21,8 C21,8.57142857 21.3846154,9 21.8974359,9 Z" id="Shape" fill="#D2D2D2"></path>
                                    <path d="M155,148 C155,147.428571 154.595238,147 154.055556,147 L138.944444,147 C138.404762,147 138,147.428571 138,148 C138,148.571429 138.404762,149 138.944444,149 L154.055556,149 C154.595238,149 155,148.571429 155,148 Z" id="Shape" fill="#D2D2D2"></path>
                                    <path d="M164.02,147 L158.98,147 C158.42,147 158,147.428571 158,148 C158,148.571429 158.42,149 158.98,149 L164.02,149 C164.58,149 165,148.571429 165,148 C165,147.428571 164.58,147 164.02,147 Z" id="Shape" fill="#D2D2D2"></path>
                                    <path d="M163.086957,152 L152.913043,152 C152.391304,152 152,152.428571 152,153 C152,153.571429 152.391304,154 152.913043,154 L163.086957,154 C163.608696,154 164,153.571429 164,153 C164,152.428571 163.608696,152 163.086957,152 Z" id="Shape" fill="#D2D2D2"></path>
                                    <path d="M148.102564,152 L144.897436,152 C144.384615,152 144,152.428571 144,153 C144,153.571429 144.384615,154 144.897436,154 L148.102564,154 C148.615385,154 149,153.571429 149,153 C149,152.428571 148.615385,152 148.102564,152 Z" id="Shape" fill="#D2D2D2"></path>
                                    <path d="M94.3389831,15.7264957 C94.4745763,15.8632479 94.7457627,16 95.0169492,16 C95.2881356,16 95.559322,15.8632479 95.6949153,15.7264957 C96.1016949,15.3162393 96.1016949,14.6324786 95.6949153,14.3589744 L93.6610169,12.3076923 C93.2542373,11.8974359 92.5762712,11.8974359 92.3050847,12.3076923 C91.8983051,12.7179487 91.8983051,13.4017094 92.3050847,13.6752137 L94.3389831,15.7264957 Z" id="Shape" fill="#D2D2D2"></path>
                                    <path d="M101.338983,21.7264957 C101.474576,21.8632479 101.745763,22 102.016949,22 C102.288136,22 102.559322,21.8632479 102.694915,21.7264957 C103.101695,21.3162393 103.101695,20.6324786 102.694915,20.3589744 L100.661017,18.3076923 C100.254237,17.8974359 99.5762712,17.8974359 99.3050847,18.3076923 C98.8983051,18.7179487 98.8983051,19.4017094 99.3050847,19.6752137 L101.338983,21.7264957 Z" id="Shape" fill="#D2D2D2"></path>
                                    <path d="M92.9830508,23 C93.2542373,23 93.5254237,22.8632479 93.6610169,22.7264957 L95.6949153,20.6752137 C96.1016949,20.2649573 96.1016949,19.5811966 95.6949153,19.3076923 C95.2881356,18.8974359 94.6101695,18.8974359 94.3389831,19.3076923 L92.3050847,21.2222222 C91.8983051,21.6324786 91.8983051,22.3162393 92.3050847,22.5897436 C92.5762712,22.8632479 92.7118644,23 92.9830508,23 Z" id="Shape" fill="#D2D2D2"></path>
                                    <path d="M99.9830508,16 C100.254237,16 100.525424,15.8632479 100.661017,15.7264957 L102.694915,13.6752137 C103.101695,13.2649573 103.101695,12.5811966 102.694915,12.3076923 C102.288136,11.8974359 101.610169,11.8974359 101.338983,12.3076923 L99.3050847,14.3589744 C98.8983051,14.7692308 98.8983051,15.4529915 99.3050847,15.7264957 C99.440678,15.8632479 99.7118644,16 99.9830508,16 Z" id="Shape" fill="#D2D2D2"></path>
                                    <path d="M80.6610169,144.307692 C80.2542373,143.897436 79.5762712,143.897436 79.3050847,144.307692 C78.8983051,144.717949 78.8983051,145.401709 79.3050847,145.675214 L81.3389831,147.726496 C81.4745763,147.863248 81.7457627,148 82.0169492,148 C82.2881356,148 82.559322,147.863248 82.6949153,147.726496 C83.1016949,147.316239 83.1016949,146.632479 82.6949153,146.358974 L80.6610169,144.307692 Z" id="Shape" fill="#D2D2D2"></path>
                                    <path d="M87.6610169,151.307692 C87.2542373,150.897436 86.5762712,150.897436 86.3050847,151.307692 C85.8983051,151.717949 85.8983051,152.401709 86.3050847,152.675214 L88.3389831,154.726496 C88.4745763,154.863248 88.7457627,155 89.0169492,155 C89.2881356,155 89.559322,154.863248 89.6949153,154.726496 C90.1016949,154.316239 90.1016949,153.632479 89.6949153,153.358974 L87.6610169,151.307692 Z" id="Shape" fill="#D2D2D2"></path>
                                    <path d="M81.3389831,151.307692 L79.3050847,153.358974 C78.8983051,153.769231 78.8983051,154.452991 79.3050847,154.726496 C79.440678,154.863248 79.7118644,155 79.9830508,155 C80.2542373,155 80.5254237,154.863248 80.6610169,154.726496 L82.6949153,152.675214 C83.1016949,152.264957 83.1016949,151.581197 82.6949153,151.307692 C82.4237288,150.897436 81.7457627,150.897436 81.3389831,151.307692 Z" id="Shape" fill="#D2D2D2"></path>
                                    <path d="M88.3389831,144.210526 L86.3050847,146.315789 C85.8983051,146.736842 85.8983051,147.438596 86.3050847,147.719298 C86.440678,147.859649 86.7118644,148 86.9830508,148 C87.2542373,148 87.5254237,147.859649 87.6610169,147.719298 L89.6949153,145.614035 C90.1016949,145.192982 90.1016949,144.491228 89.6949153,144.210526 C89.2881356,143.929825 88.7457627,143.929825 88.3389831,144.210526 Z" id="Shape" fill="#D2D2D2"></path>
                                    <path d="M1.66101695,111.307692 C1.25423729,110.897436 0.576271186,110.897436 0.305084746,111.307692 C-0.101694915,111.717949 -0.101694915,112.401709 0.305084746,112.675214 L2.33898305,114.726496 C2.47457627,114.863248 2.74576271,115 3.01694915,115 C3.28813559,115 3.55932203,114.863248 3.69491525,114.726496 C4.10169492,114.316239 4.10169492,113.632479 3.69491525,113.358974 L1.66101695,111.307692 Z" id="Shape" fill="#D2D2D2"></path>
                                    <path d="M7.66101695,118.307692 C7.25423729,117.897436 6.57627119,117.897436 6.30508475,118.307692 C5.89830508,118.717949 5.89830508,119.401709 6.30508475,119.675214 L8.33898305,121.726496 C8.47457627,121.863248 8.74576271,122 9.01694915,122 C9.28813559,122 9.55932203,121.863248 9.69491525,121.726496 C10.1016949,121.316239 10.1016949,120.632479 9.69491525,120.358974 L7.66101695,118.307692 Z" id="Shape" fill="#D2D2D2"></path>
                                    <path d="M2.33898305,118.293556 L0.305084746,120.352691 C-0.101694915,120.764519 -0.101694915,121.450897 0.305084746,121.725449 C0.440677966,121.862724 0.711864407,122 0.983050847,122 C1.25423729,122 1.52542373,121.862724 1.66101695,121.725449 L3.69491525,119.803589 C4.10169492,119.391761 4.10169492,118.705383 3.69491525,118.430831 C3.28813559,117.881729 2.74576271,117.881729 2.33898305,118.293556 Z" id="Shape" fill="#D2D2D2"></path>
                                    <path d="M8.33898305,111.293556 L6.30508475,113.352691 C5.89830508,113.764519 5.89830508,114.450897 6.30508475,114.725449 C6.44067797,114.862724 6.71186441,115 6.98305085,115 C7.25423729,115 7.52542373,114.862724 7.66101695,114.725449 L9.69491525,112.803589 C10.1016949,112.391761 10.1016949,111.705383 9.69491525,111.430831 C9.28813559,110.881729 8.74576271,110.881729 8.33898305,111.293556 Z" id="Shape" fill="#D2D2D2"></path>
                                    <path d="M143.300072,32.3390467 L143.69608,32.3390467 L146.336137,37.4853679 C146.46814,37.871342 146.864149,38 147.260157,38 C147.39216,38 147.524163,38 147.656166,37.871342 C148.184177,37.6140259 148.31618,37.0993938 148.052175,36.5847617 L145.412117,31.4384405 C146.072132,30.7951504 146.46814,30.0232022 146.46814,29.122596 L146.46814,28.7366219 L157.424378,23.8476168 C157.952389,23.5903007 158.084392,23.0756686 157.952389,22.5610365 C157.688384,22.0464043 157.160372,21.9177463 156.632361,22.0464043 L145.676123,26.9354095 C145.016109,26.2921193 144.224092,25.9061452 143.300072,25.9061452 C141.452031,25.9061452 140,27.3213836 140,29.122596 C140.132003,30.9238084 141.584034,32.3390467 143.300072,32.3390467 Z M143.300072,27.9646737 C143.828083,27.9646737 144.224092,28.2219898 144.488097,28.7366219 C144.6201,28.8652799 144.6201,28.9939379 144.6201,29.251254 C144.6201,29.7658861 144.356094,30.1518602 143.828083,30.4091763 C143.69608,30.5378343 143.564077,30.5378343 143.300072,30.5378343 C142.640057,30.5378343 141.980043,30.0232022 141.980043,29.251254 C141.980043,28.4793058 142.640057,27.9646737 143.300072,27.9646737 Z" id="Shape" fill="#4D4D4D"></path>
                                    <path d="M144,14 C144.571429,14 145,13.6363636 145,13.1515152 L145,10.8484848 C145,10.3636364 144.571429,10 144,10 C143.428571,10 143,10.3636364 143,10.8484848 L143,13.1515152 C143,13.6363636 143.428571,14 144,14 Z" id="Shape" fill="#4D4D4D"></path>
                                    <path d="M124.863258,31 L127.155492,31 C127.638068,31 128,30.5714286 128,30 C128,29.4285714 127.638068,29 127.155492,29 L124.863258,29 C124.380682,29 124.01875,29.4285714 124.01875,30 C123.898106,30.5714286 124.380682,31 124.863258,31 Z" id="Shape" fill="#4D4D4D"></path>
                                    <path d="M143.989021,45 C143.423866,45 143,45.3636364 143,45.8484848 L143,48.1515152 C143,48.6363636 143.423866,49 143.989021,49 C144.554175,49 144.978041,48.6363636 144.978041,48.1515152 L144.978041,45.8484848 C145.11933,45.3636364 144.554175,45 143.989021,45 Z" id="Shape" fill="#4D4D4D"></path>
                                    <path d="M159.863258,31 L162.155492,31 C162.638068,31 163,30.5714286 163,30 C163,29.4285714 162.638068,29 162.155492,29 L159.863258,29 C159.380682,29 159.01875,29.4285714 159.01875,30 C158.898106,30.5714286 159.380682,31 159.863258,31 Z" id="Shape" fill="#4D4D4D"></path>
                                    <path d="M74.8462171,87.6238916 C74.9767093,87.8746305 75.3681861,88 75.6291706,88 C75.8901551,88 76.0206473,88 76.1511395,87.8746305 L84.6331356,81.606157 C85.0246124,81.355418 85.1551046,80.7285707 84.7636279,80.3524623 C84.5026434,79.9763539 83.8501821,79.8509844 83.4587054,80.2270928 L75.6291706,85.868719 L73.6717869,83.6120685 C73.2803101,83.2359601 72.7583411,83.1105906 72.3668644,83.486699 C71.9753876,83.8628075 71.8448954,84.3642853 72.2363721,84.7403938 L74.8462171,87.6238916 Z" id="Shape" fill="#4D4D4D"></path>
                                    <path d="M93.7432613,117.623892 C93.8750767,117.874631 94.2705229,118 94.5341537,118 C94.7977845,118 94.9295998,118 95.0614152,117.874631 L103.629416,111.606157 C104.024862,111.355418 104.156677,110.728571 103.761231,110.352462 C103.4976,109.976354 102.838523,109.850984 102.443077,110.227093 L94.5341537,115.868719 L92.6887382,113.486699 C92.293292,113.110591 91.7660304,112.985221 91.3705843,113.36133 C90.9751381,113.737438 90.8433227,114.238916 91.2387689,114.615024 L93.7432613,117.623892 Z" id="Shape" fill="#4D4D4D"></path>
                                    <path d="M37.8462171,87.6238916 C37.9767093,87.8746305 38.3681861,88 38.6291706,88 C38.8901551,88 39.0206473,88 39.1511395,87.8746305 L47.6331356,81.606157 C48.0246124,81.355418 48.1551046,80.7285707 47.7636279,80.3524623 C47.5026434,79.9763539 46.8501821,79.8509844 46.4587054,80.2270928 L38.6291706,85.868719 L36.6717869,83.6120685 C36.2803101,83.2359601 35.7583411,83.1105906 35.3668644,83.486699 C34.9753876,83.8628075 34.8448954,84.3642853 35.2363721,84.7403938 L37.8462171,87.6238916 Z" id="Shape" fill="#4D4D4D"></path>
                                    <path d="M144.170523,137.162439 L144.170523,53.6624063 C145.226221,53.6624063 146.149957,53.5300766 147.205656,53.3977469 C150.240788,52.8684282 153.143959,51.677461 155.651243,50.2218344 L159.082262,56.1766703 C159.214225,56.4413297 159.610111,56.7059891 159.874036,56.7059891 C160.005998,56.7059891 160.269923,56.7059891 160.401885,56.5736594 C160.929734,56.309 161.061697,55.6473516 160.797772,55.2503625 L157.366752,49.2955266 C163.173093,44.9286469 167,37.9151735 167,30.2400516 C167,22.4326001 163.173093,15.5514563 157.366752,11.1845766 L159.478149,7.61167506 L163.173093,9.86127974 C163.305056,9.99360943 163.437018,9.99360943 163.700943,9.99360943 L163.964867,9.99360943 C164.228792,9.99360943 164.492716,9.72895006 164.624679,9.59662037 C166.472151,6.68536725 165.416452,2.84780631 162.513282,0.995190686 C161.061697,0.0688828737 159.346187,-0.195776501 157.762639,0.201212561 C156.179092,0.598201623 154.727506,1.65683912 153.935733,2.980136 C153.671808,3.37712506 153.80377,4.0387735 154.199657,4.30343287 L157.894602,6.55303756 L155.915167,9.99360943 C152.220223,7.74400475 147.997429,6.42070787 143.378749,6.42070787 C138.760069,6.42070787 134.537275,7.74400475 130.842331,9.99360943 L128.862896,6.55303756 L132.557841,4.30343287 C132.953728,4.0387735 133.217652,3.37712506 132.821765,2.980136 C130.974293,0.0688828737 127.147386,-0.857424938 124.244216,0.862860998 C121.341045,2.71547662 120.417309,6.55303756 122.132819,9.46429068 C122.264781,9.72895006 122.528706,9.86127974 122.792631,9.86127974 L123.056555,9.86127974 C123.188518,9.86127974 123.452442,9.86127974 123.584404,9.72895006 L127.279349,7.47934537 L129.390746,11.0522469 C123.584404,15.4191266 119.757498,22.3002704 119.757498,30.1077219 C119.757498,31.9603375 120.021422,33.9452829 120.417309,35.7978985 C120.813196,37.5181844 121.473008,39.2384704 122.264781,40.8264266 L116.062554,40.8264266 L116.062554,37.3858547 C116.062554,36.856536 115.666667,36.4595469 115.138817,36.4595469 C114.610968,36.4595469 114.215081,36.856536 114.215081,37.3858547 L114.215081,40.8264266 L104.053985,40.8264266 L104.053985,37.3858547 C104.053985,36.856536 103.658098,36.4595469 103.130249,36.4595469 C102.602399,36.4595469 102.206512,36.856536 102.206512,37.3858547 L102.206512,40.8264266 L92.0454156,40.8264266 L92.0454156,37.3858547 C92.0454156,36.856536 91.6495287,36.4595469 91.1216795,36.4595469 C90.5938303,36.4595469 90.1979434,36.856536 90.1979434,37.3858547 L90.1979434,40.8264266 L80.0368466,40.8264266 L80.0368466,37.3858547 C80.0368466,36.856536 79.6409597,36.4595469 79.1131105,36.4595469 C78.5852614,36.4595469 78.1893745,36.856536 78.1893745,37.3858547 L78.1893745,40.8264266 L67.2365039,40.8264266 L67.2365039,37.3858547 C67.2365039,36.856536 66.840617,36.4595469 66.3127678,36.4595469 C65.7849186,36.4595469 65.3890317,36.856536 65.3890317,37.3858547 L65.3890317,40.8264266 L55.2279349,40.8264266 L55.2279349,37.3858547 C55.2279349,36.856536 54.832048,36.4595469 54.3041988,36.4595469 C53.7763496,36.4595469 53.3804627,36.856536 53.3804627,37.3858547 L53.3804627,40.8264266 L43.2193659,40.8264266 L43.2193659,37.3858547 C43.2193659,36.856536 42.823479,36.4595469 42.2956298,36.4595469 C41.7677806,36.4595469 41.3718937,36.856536 41.3718937,37.3858547 L41.3718937,40.8264266 L31.2107969,40.8264266 L31.2107969,37.3858547 C31.2107969,36.856536 30.81491,36.4595469 30.2870608,36.4595469 C29.7592117,36.4595469 29.3633248,36.856536 29.3633248,37.3858547 L29.3633248,40.8264266 L16.562982,40.8264266 C14.5835476,40.8264266 13,42.4143829 13,44.3993282 L13,137.427098 C13,139.412044 14.5835476,141 16.562982,141 L141.13539,141 C142.586975,140.603011 144.170523,139.015055 144.170523,137.162439 Z M155.915167,2.980136 C156.443016,2.45081725 157.23479,2.05382819 158.026564,1.78916881 C159.082262,1.52450944 160.269923,1.65683912 161.325621,2.31848756 C163.041131,3.37712506 163.832905,5.49440006 163.173093,7.34701568 L155.915167,2.980136 Z M123.188518,7.34701568 C122.528706,5.49440006 123.32048,3.37712506 125.03599,2.31848756 C125.695801,1.9214985 126.487575,1.65683912 127.279349,1.65683912 C128.467009,1.65683912 129.522708,2.05382819 130.314482,2.980136 L123.188518,7.34701568 Z M121.341045,29.9753922 C121.341045,17.9333907 131.106255,8.14099381 143.114824,8.14099381 C155.123393,8.14099381 164.888603,17.9333907 164.888603,29.9753922 C164.888603,40.6940969 157.23479,49.6925157 146.809769,51.5451313 C145.490146,51.8097907 144.302485,51.8097907 143.114824,51.8097907 C133.08569,51.8097907 124.376178,44.9286469 122.000857,35.13625 C121.60497,33.4159641 121.341045,31.6956782 121.341045,29.9753922 Z M15.4515853,137.162439 L15.4515853,44.1346688 C15.4515853,43.208361 16.1113967,42.5467125 17.0351328,42.5467125 L29.8354756,42.5467125 L29.8354756,45.9872844 C29.8354756,46.5166032 30.2313625,46.9135922 30.7592117,46.9135922 C31.2870608,46.9135922 31.6829477,46.5166032 31.6829477,45.9872844 L31.6829477,42.5467125 L41.8440446,42.5467125 L41.8440446,45.9872844 C41.8440446,46.5166032 42.2399314,46.9135922 42.7677806,46.9135922 C43.2956298,46.9135922 43.6915167,46.5166032 43.6915167,45.9872844 L43.6915167,42.5467125 L53.8526135,42.5467125 L53.8526135,45.9872844 C53.8526135,46.5166032 54.2485004,46.9135922 54.7763496,46.9135922 C55.3041988,46.9135922 55.7000857,46.5166032 55.7000857,45.9872844 L55.7000857,42.5467125 L65.8611825,42.5467125 L65.8611825,45.9872844 C65.8611825,46.5166032 66.2570694,46.9135922 66.7849186,46.9135922 C67.3127678,46.9135922 67.7086547,46.5166032 67.7086547,45.9872844 L67.7086547,42.5467125 L77.8697515,42.5467125 L77.8697515,45.9872844 C77.8697515,46.5166032 78.2656384,46.9135922 78.7934876,46.9135922 C79.3213368,46.9135922 79.7172237,46.5166032 79.7172237,45.9872844 L79.7172237,42.5467125 L89.8783205,42.5467125 L89.8783205,45.9872844 C89.8783205,46.5166032 90.2742074,46.9135922 90.8020566,46.9135922 C91.3299057,46.9135922 91.7257926,46.5166032 91.7257926,45.9872844 L91.7257926,42.5467125 L101.886889,42.5467125 L101.886889,45.9872844 C101.886889,46.5166032 102.282776,46.9135922 102.810626,46.9135922 C103.338475,46.9135922 103.734362,46.5166032 103.734362,45.9872844 L103.734362,42.5467125 L113.895458,42.5467125 L113.895458,45.9872844 C113.895458,46.5166032 114.291345,46.9135922 114.819195,46.9135922 C115.347044,46.9135922 115.742931,46.5166032 115.742931,45.9872844 L115.742931,42.5467125 L123.000857,42.5467125 C124.584404,45.0609766 126.563839,47.3105813 128.93916,49.0308672 L125.508141,54.9857032 C125.244216,55.5150219 125.376178,56.0443407 125.904027,56.309 C126.03599,56.4413297 126.167952,56.4413297 126.431877,56.4413297 C126.827763,56.4413297 127.091688,56.309 127.22365,55.912011 L130.65467,49.957175 C134.08569,52.07445 138.044559,53.2654172 142.267352,53.5300766 L142.267352,136.89778 C142.267352,137.824088 141.607541,138.485736 140.683805,138.485736 L17.0351328,138.485736 C16.243359,138.750395 15.4515853,137.956417 15.4515853,137.162439 Z" id="Shape" fill="#4D4D4D"></path>
                                    <path d="M126.054032,60 L107.281191,60 L88.376147,60 L69.6033063,60 L50.8304656,60 L31.9254217,60 C31.3966093,60 31,60.3987342 31,60.9303797 L31,76.2151899 L31,91.5 L31,106.78481 L31,122.06962 C31,122.601266 31.3966093,123 31.9254217,123 L50.6982625,123 L69.4711032,123 L88.2439439,123 L107.016785,123 L126.054032,123 C126.582844,123 126.979453,122.601266 126.979453,122.06962 L126.979453,106.78481 L126.979453,91.5 L126.979453,76.3481013 L126.979453,61.0632911 C127.111656,60.5316456 126.582844,60 126.054032,60 Z M49.7728407,121.006329 L32.8508435,121.006329 L32.8508435,107.71519 L49.7728407,107.71519 L49.7728407,121.006329 Z M49.7728407,105.85443 L32.8508435,105.85443 L32.8508435,92.5632911 L49.7728407,92.5632911 L49.7728407,105.85443 Z M49.7728407,90.5696203 L32.8508435,90.5696203 L32.8508435,77.278481 L49.7728407,77.278481 L49.7728407,90.5696203 Z M49.7728407,75.2848101 L32.8508435,75.2848101 L32.8508435,61.9936709 L49.7728407,61.9936709 L49.7728407,75.2848101 Z M68.6778846,121.006329 L51.7558873,121.006329 L51.7558873,107.71519 L68.6778846,107.71519 L68.6778846,121.006329 L68.6778846,121.006329 Z M68.6778846,105.85443 L51.7558873,105.85443 L51.7558873,92.5632911 L68.6778846,92.5632911 L68.6778846,105.85443 L68.6778846,105.85443 Z M68.6778846,90.5696203 L51.7558873,90.5696203 L51.7558873,77.278481 L68.6778846,77.278481 L68.6778846,90.5696203 L68.6778846,90.5696203 Z M68.6778846,75.2848101 L51.7558873,75.2848101 L51.7558873,61.9936709 L68.6778846,61.9936709 L68.6778846,75.2848101 L68.6778846,75.2848101 Z M87.4507253,121.006329 L70.528728,121.006329 L70.528728,107.71519 L87.4507253,107.71519 L87.4507253,121.006329 Z M87.4507253,105.85443 L70.528728,105.85443 L70.528728,92.5632911 L87.4507253,92.5632911 L87.4507253,105.85443 Z M87.4507253,90.5696203 L70.528728,90.5696203 L70.528728,77.278481 L87.4507253,77.278481 L87.4507253,90.5696203 Z M87.4507253,75.2848101 L70.528728,75.2848101 L70.528728,61.9936709 L87.4507253,61.9936709 L87.4507253,75.2848101 Z M106.355769,121.006329 L89.4337719,121.006329 L89.4337719,107.71519 L106.355769,107.71519 L106.355769,121.006329 Z M106.355769,105.85443 L89.4337719,105.85443 L89.4337719,92.5632911 L106.355769,92.5632911 L106.355769,105.85443 Z M106.355769,90.5696203 L89.4337719,90.5696203 L89.4337719,77.278481 L106.355769,77.278481 L106.355769,90.5696203 Z M106.355769,75.2848101 L89.4337719,75.2848101 L89.4337719,61.9936709 L106.355769,61.9936709 L106.355769,75.2848101 Z M125.12861,121.006329 L108.206613,121.006329 L108.206613,107.71519 L125.12861,107.71519 L125.12861,121.006329 Z M125.12861,105.85443 L108.206613,105.85443 L108.206613,92.5632911 L125.12861,92.5632911 L125.12861,105.85443 Z M125.12861,90.5696203 L108.206613,90.5696203 L108.206613,77.278481 L125.12861,77.278481 L125.12861,90.5696203 Z M125.12861,75.2848101 L108.206613,75.2848101 L108.206613,61.9936709 L125.12861,61.9936709 L125.12861,75.2848101 Z" id="Shape" fill="#4D4D4D"></path>
                                </g>
                            </g>
                        </g>
                    </g>
                </g>
            </g>
        </g>
    </g>
</svg>