<?xml version="1.0" encoding="UTF-8" standalone="no"?>
<svg width="186px" height="149px" viewBox="0 0 186 149" version="1.1" xmlns="http://www.w3.org/2000/svg" xmlns:xlink="http://www.w3.org/1999/xlink">
    <!-- Generator: Sketch 42 (36781) - http://www.bohemiancoding.com/sketch -->
    <title>Group 4</title>
    <desc>Created with Sketch.</desc>
    <defs></defs>
    <g id="About" stroke="none" stroke-width="1" fill="none" fill-rule="evenodd">
        <g id="Artboard-Copy-12" transform="translate(-547.000000, -527.000000)" fill-rule="nonzero">
            <g id="Live-Support-Modal" transform="translate(263.000000, 369.000000)">
                <g id="Group-4" transform="translate(284.000000, 158.000000)">
                    <path d="M176.095128,65.7359671 C178.296313,59.5388357 178.589805,52.8990521 176.975602,46.55437 C175.3614,40.2096879 171.986249,34.6027595 167.143642,30.3237878 C164.061983,27.5203237 160.540087,25.4546132 156.577953,23.9791057 C139.555455,17.7819744 120.918754,26.6350192 114.902181,43.6033551 C109.619337,58.5059805 115.63591,75.0316641 129.283258,82.9994044 C129.430003,83.8847089 128.549529,87.2783761 127.082072,90.3769418 C126.935327,90.6720433 126.935327,90.9671448 127.082072,91.2622463 C127.228818,91.5573478 127.375564,91.7048985 127.669055,91.8524493 C127.815801,91.8524493 128.109292,92 128.256038,92 C129.430003,92 131.044206,91.1146955 134.419356,89.0489851 C136.033559,88.1636806 138.381489,86.6881731 138.821726,86.6881731 C154.67026,89.9342895 170.665538,80.933694 176.095128,65.7359671 Z M133.392136,87.1308254 C132.511662,87.7210283 131.044206,88.4587821 130.016986,89.0489851 C132.511662,82.4092015 131.044206,81.523897 130.457223,81.2287955 C117.543603,73.8512581 111.967268,58.5059805 116.956621,44.4886595 C121.358991,32.0943968 133.098645,24.2742072 145.425282,24.2742072 C148.800432,24.2742072 152.322329,24.8644102 155.697479,26.0448162 C159.366121,27.3727729 162.741272,29.2909326 165.52944,31.9468461 C170.078556,35.9307162 173.30696,41.2425431 174.774417,47.144573 C176.241874,53.0466028 175.948383,59.2437342 173.893943,64.9982133 C168.757844,79.163085 153.936531,87.5734776 139.261964,84.4749119 C138.381489,84.3273612 136.914033,85.0651149 133.392136,87.1308254 Z" id="Shape" fill="#4D4D4D"></path>
                    <path d="M126.163636,48 L163.836364,48 C164.418182,48 165,47.625 165,47 C165,46.5 164.563636,46 163.836364,46 L126.163636,46 C125.581818,46 125,46.375 125,47 C125.145455,47.5 125.581818,48 126.163636,48 Z" id="Shape" fill="#4D4D4D"></path>
                    <path d="M165,56 C165,55.5 164.562044,55 163.832117,55 L126.167883,55 C125.583942,55 125,55.375 125,56 C125,56.5 125.437956,57 126.167883,57 L163.978102,57 C164.562044,57 165,56.5 165,56 Z" id="Shape" fill="#4D4D4D"></path>
                    <path d="M158,65 C158,64.5 157.561404,64 156.830409,64 L134.169591,64 C133.584795,64 133,64.375 133,65 C133,65.625 133.438596,66 134.169591,66 L156.976608,66 C157.415205,66 158,65.5 158,65 Z" id="Shape" fill="#4D4D4D"></path>
                    <path d="M121.160555,137.947012 C120.429275,135.765502 119.844251,133.729425 119.259227,131.693348 C119.112971,130.966178 118.820459,130.384442 118.527947,129.802706 C117.211642,126.457723 115.310314,123.549042 112.823962,121.222097 C110.922634,119.476888 108.87505,118.022548 106.534954,116.859076 C103.463578,115.404735 99.9534337,114.386697 96.2970335,114.095829 C94.3957055,113.950395 92.3481214,113.950395 90.1542813,114.095829 C87.2291611,114.241263 84.157785,114.386697 80.7938968,114.532131 L80.7938968,114.532131 C79.9163608,112.641488 76.8449847,105.660654 80.7938968,95.4802706 C85.327833,91.4081172 88.9842332,85.7361894 91.3243293,79.0462232 L91.6168413,79.0462232 C94.9807295,79.0462232 97.6133376,73.9560316 97.6133376,67.2660654 C97.6133376,61.5941375 95.8582655,57.2311161 93.2256574,55.9222097 L93.2256574,55.4859076 C93.6644254,51.8500564 94.1031934,47.9233371 94.3957055,44.1420519 C95.4194975,27.8534386 91.1780733,25.6719278 82.8414809,23.199549 C82.2564569,23.054115 81.5251769,22.7632469 80.7938968,22.6178129 C74.0661205,20.4363021 67.0458322,20 62.36564,20 C57.6854478,20 50.6651595,20.5817362 43.9373832,22.6178129 C43.2061032,22.9086809 42.6210791,23.054115 41.8897991,23.199549 C33.5532067,25.8173619 29.1655265,27.8534386 30.3355746,44.1420519 C30.6280866,47.9233371 31.0668546,51.7046223 31.5056226,55.4859076 L31.5056226,55.9222097 C28.8730145,57.2311161 27.1179424,61.5941375 27.1179424,67.2660654 C27.1179424,73.9560316 29.7505506,79.0462232 33.1144387,79.0462232 L33.4069507,79.0462232 C35.3082788,85.4453213 38.818423,90.9718151 43.2061032,95.0439684 C47.0087593,105.078918 44.0836392,112.496054 43.0598472,114.386697 L43.0598472,114.386697 C39.988471,114.241263 37.0633509,114.095829 33.9919747,113.950395 C19.8051421,112.932356 8.68968561,119.622322 4.88702944,131.838782 C3.27821337,136.78354 1.66939729,141.873732 0.0605812215,147.54566 C-0.0856747851,147.836528 0.0605812215,148.27283 0.206837228,148.563698 C0.353093235,148.854566 0.791861254,149 1.08437327,149 L122.915627,149 C123.208139,149 123.646907,148.854566 123.793163,148.563698 C123.939419,148.27283 124.085675,147.981962 123.939419,147.54566 L121.160555,137.947012 Z M42.3285671,25.2356257 C42.9135911,25.0901917 43.6448712,24.7993236 44.3761512,24.6538895 C49.4951114,23.054115 55.6378637,22.1815107 62.073128,22.0360767 C68.5083923,22.0360767 74.6511446,22.9086809 79.7701048,24.6538895 C80.5013848,24.9447576 81.0864089,25.0901917 81.8176889,25.2356257 C89.1304892,27.5625705 92.9331454,28.5806088 91.9093533,43.9966178 C91.7630973,45.8872604 91.6168413,47.777903 91.4705853,49.5231116 C90.3005373,45.7418264 88.1066972,41.6696731 84.742809,41.2333709 C79.1850808,40.6516347 64.2669681,40.6516347 63.6819441,40.7970688 C59.5867759,40.6516347 39.403447,39.7790304 36.4783269,43.1240135 C35.0157668,44.723788 33.8457187,47.777903 32.9681827,50.5411499 C32.6756707,48.3596392 32.5294147,46.1781285 32.3831587,43.9966178 C31.2131106,28.5806088 34.8695108,27.5625705 42.3285671,25.2356257 Z M34.8695108,77.3010147 C34.7232548,77.0101466 34.5769988,76.7192785 34.2844868,76.5738444 C34.1382308,76.5738444 33.9919747,76.4284104 33.8457187,76.4284104 C33.6994627,76.4284104 33.5532067,76.4284104 33.4069507,76.5738444 C33.1144387,76.7192785 32.9681827,76.7192785 32.8219267,76.7192785 C31.0668546,76.7192785 29.0192705,72.6471251 29.0192705,67.1206313 C29.0192705,61.8850056 30.7743426,57.9582864 32.5294147,57.6674183 C32.9681827,57.5219842 33.2606947,57.2311161 33.4069507,56.794814 L33.4069507,56.5039459 C33.9919747,53.886133 35.8933028,47.0507328 38.0871429,44.578354 C39.549703,42.8331454 52.2739756,42.3968433 63.5356881,42.9785795 C63.6819441,42.9785795 78.8925688,42.8331454 84.450297,43.4148816 C88.1066972,43.8511838 90.1542813,52.5772266 90.7393053,56.0676437 L90.7393053,56.0676437 L90.7393053,56.2130778 L90.7393053,56.5039459 L90.7393053,56.5039459 L90.7393053,56.6493799 C90.7393053,57.0856821 91.1780733,57.3765502 91.6168413,57.5219842 C93.3719134,57.9582864 95.1269855,61.5941375 95.1269855,66.9751973 C95.1269855,72.5016911 93.0794014,76.5738444 91.3243293,76.5738444 C91.1780733,76.5738444 91.0318173,76.5738444 90.7393053,76.4284104 C90.4467933,76.2829763 90.1542813,76.2829763 89.8617692,76.4284104 C89.5692572,76.5738444 89.4230012,76.8647125 89.2767452,77.1555806 C84.889065,91.4081172 74.0661205,100.570462 62.073128,100.570462 C49.9338795,100.715896 39.257191,91.5535513 34.8695108,77.3010147 Z M46.2774793,97.6617813 C50.9576715,101.006764 56.3691437,102.897407 62.073128,102.897407 C67.6308563,102.897407 72.8960725,101.152198 77.5762647,97.9526494 C74.6511446,108.860203 78.8925688,115.841037 79.1850808,116.131905 C79.1850808,116.131905 79.3313368,116.131905 79.3313368,116.277339 C76.4062166,121.949267 74.3586326,124.276212 71.7260244,127.184893 C71.2872564,127.766629 70.7022324,128.348365 70.1172084,128.930101 L70.9947444,129.657272 L69.9709524,129.075536 C67.7771123,131.547914 64.7057361,133.002255 61.488104,133.002255 C58.2704718,133.002255 55.0528397,131.547914 53.0052556,129.075536 C50.0801355,125.585118 47.3012713,121.222097 44.6686632,116.277339 C44.6686632,116.277339 44.8149192,116.277339 44.8149192,116.131905 C44.9611752,115.695603 49.2025994,108.569335 46.2774793,97.6617813 Z M2.69318934,146.673055 C4.15574941,141.582864 5.61830947,136.928974 7.08086954,132.420519 C10.5910137,121.367531 20.8289342,115.113867 33.9919747,116.131905 C36.7708389,116.277339 39.549703,116.422773 42.4748231,116.568207 C45.2536872,121.949267 48.3250634,126.603157 51.3964395,130.529876 C53.8827916,133.583991 57.5391918,135.183766 61.488104,135.3292 C65.4370162,135.474634 69.0934163,133.729425 71.7260244,130.67531 L71.8722804,130.529876 C72.4573045,129.94814 72.8960725,129.366404 73.4810965,128.784667 C76.2599606,125.730552 78.4538007,123.11274 81.6714329,116.713641 C84.742809,116.568207 87.6679292,116.422773 90.4467933,116.277339 C92.3481214,116.131905 94.3957055,116.131905 96.1507775,116.277339 C99.5146657,116.568207 102.732298,117.440812 105.657418,118.895152 C107.851258,119.913191 109.752586,121.222097 111.361402,122.821871 C113.701498,125.003382 115.45657,127.621195 116.626618,130.67531 C116.91913,131.257046 117.065386,131.838782 117.211642,132.420519 C117.796667,134.456595 118.527947,136.492672 119.112971,138.674183 L121.599323,146.673055 L2.69318934,146.673055 Z" id="Shape" fill="#4D4D4D"></path>
                    <path d="M14,49 C14.5,49 15,48.5648855 15,47.8396947 L15,31.1603053 C15,30.5801527 14.625,30 14,30 C13.375,30 13,30.4351145 13,31.1603053 L13,47.8396947 C13,48.4198473 13.5,49 14,49 Z" id="Shape" fill="#000000" opacity="0.190240205"></path>
                    <path d="M13,58.7924528 C13,59.3962264 13.375,60 14,60 C14.625,60 15,59.5471698 15,58.7924528 L15,53.2075472 C15,52.6037736 14.625,52 14,52 C13.375,52 13,52.6037736 13,53.2075472 L13,58.7924528 Z" id="Shape" fill="#000000" opacity="0.190240205"></path>
                    <path d="M176,112 C176.5,112 177,111.561538 177,110.830769 L177,94.1692308 C177,93.5846154 176.625,93 176,93 C175.5,93 175,93.4384615 175,94.1692308 L175,110.976923 C175.125,111.561538 175.5,112 176,112 Z" id="Shape" fill="#000000" opacity="0.190240205"></path>
                    <path d="M175,121.792453 C175,122.396226 175.375,123 176,123 C176.5,123 177,122.54717 177,121.792453 L177,116.207547 C177,115.603774 176.625,115 176,115 C175.5,115 175,115.45283 175,116.207547 L175,121.792453 Z" id="Shape" fill="#000000" opacity="0.190240205"></path>
                    <path d="M104.171642,10.6992481 C104.320896,10.8496241 104.619403,11 104.91791,11 C105.216418,11 105.514925,10.8496241 105.664179,10.6992481 C106.11194,10.2481203 106.11194,9.4962406 105.664179,9.04511278 L102.977612,6.33834586 C102.529851,5.88721805 101.783582,5.88721805 101.335821,6.33834586 C100.88806,6.78947368 100.88806,7.54135338 101.335821,7.9924812 L104.171642,10.6992481 Z" id="Shape" fill="#000000" opacity="0.190240205"></path>
                    <path d="M113.171642,18.6992481 C113.320896,18.8496241 113.619403,19 113.91791,19 C114.216418,19 114.514925,18.8496241 114.664179,18.6992481 C115.11194,18.2481203 115.11194,17.4962406 114.664179,17.0451128 L111.977612,14.3383459 C111.529851,13.887218 110.783582,13.887218 110.335821,14.3383459 C109.88806,14.7894737 109.88806,15.5413534 110.335821,15.9924812 L113.171642,18.6992481 Z" id="Shape" fill="#000000" opacity="0.190240205"></path>
                    <path d="M103.231343,19 C103.529851,19 103.828358,18.8496241 103.977612,18.6992481 L106.664179,15.9924812 C107.11194,15.5413534 107.11194,14.7894737 106.664179,14.3383459 C106.216418,13.887218 105.470149,13.887218 105.022388,14.3383459 L102.335821,17.0451128 C101.88806,17.4962406 101.88806,18.2481203 102.335821,18.6992481 C102.634328,19 102.932836,19 103.231343,19 Z" id="Shape" fill="#000000" opacity="0.190240205"></path>
                    <path d="M112.115385,11 C112.423077,11 112.730769,10.8496241 112.884615,10.6992481 L115.653846,7.9924812 C116.115385,7.54135338 116.115385,6.78947368 115.653846,6.33834586 C115.192308,5.88721805 114.423077,5.88721805 113.961538,6.33834586 L111.346154,9.04511278 C110.884615,9.4962406 110.884615,10.2481203 111.346154,10.6992481 C111.5,10.8496241 111.807692,11 112.115385,11 Z" id="Shape" fill="#000000" opacity="0.190240205"></path>
                    <path d="M137.103175,104.338346 C136.626984,103.887218 135.833333,103.887218 135.357143,104.338346 C134.880952,104.789474 134.880952,105.541353 135.357143,105.992481 L138.055556,108.699248 C138.214286,108.849624 138.531746,109 138.849206,109 C139.166667,109 139.484127,108.849624 139.642857,108.699248 C140.119048,108.24812 140.119048,107.496241 139.642857,107.045113 L137.103175,104.338346 Z" id="Shape" fill="#000000" opacity="0.190240205"></path>
                    <path d="M146.038462,112.338346 C145.576923,111.887218 144.807692,111.887218 144.346154,112.338346 C143.884615,112.789474 143.884615,113.541353 144.346154,113.992481 L147.115385,116.699248 C147.269231,116.849624 147.576923,117 147.884615,117 C148.192308,117 148.5,116.849624 148.653846,116.699248 C149.115385,116.24812 149.115385,115.496241 148.653846,115.045113 L146.038462,112.338346 Z" id="Shape" fill="#000000" opacity="0.190240205"></path>
                    <path d="M139.055556,112.338346 L136.357143,115.045113 C135.880952,115.496241 135.880952,116.24812 136.357143,116.699248 C136.515873,116.849624 136.833333,117 137.150794,117 C137.468254,117 137.785714,116.849624 137.944444,116.699248 L140.642857,113.992481 C141.119048,113.541353 141.119048,112.789474 140.642857,112.338346 C140.325397,111.887218 139.531746,111.887218 139.055556,112.338346 Z" id="Shape" fill="#000000" opacity="0.190240205"></path>
                    <path d="M147.115385,104.369495 L144.346154,106.993448 C143.884615,107.456498 143.884615,108.228249 144.346154,108.6913 C144.5,108.84565 144.807692,109 145.115385,109 C145.423077,109 145.730769,108.84565 145.884615,108.6913 L148.653846,105.912997 C149.115385,105.449946 149.115385,104.678196 148.653846,104.215145 C148.346154,103.906445 147.576923,103.906445 147.115385,104.369495 Z" id="Shape" fill="#000000" opacity="0.190240205"></path>
                    <path d="M16.6538462,93.0451128 L14.0384615,90.3383459 C13.5769231,89.887218 12.8076923,89.887218 12.3461538,90.3383459 C11.8846154,90.7894737 11.8846154,91.5413534 12.3461538,91.9924812 L15.1153846,94.6992481 C15.2692308,94.8496241 15.5769231,95 15.8846154,95 C16.1923077,95 16.5,94.8496241 16.6538462,94.6992481 C17.1153846,94.2481203 17.1153846,93.4962406 16.6538462,93.0451128 Z" id="Shape" fill="#000000" opacity="0.190240205"></path>
                    <path d="M22.0384615,98.3383459 C21.5769231,97.887218 20.8076923,97.887218 20.3461538,98.3383459 C19.8846154,98.7894737 19.8846154,99.5413534 20.3461538,99.9924812 L23.1153846,102.699248 C23.2692308,102.849624 23.5769231,103 23.8846154,103 C24.1923077,103 24.5,102.849624 24.6538462,102.699248 C25.1153846,102.24812 25.1153846,101.496241 24.6538462,101.045113 L22.0384615,98.3383459 Z" id="Shape" fill="#000000" opacity="0.190240205"></path>
                    <path d="M15.1153846,98.3383459 L12.3461538,101.045113 C11.8846154,101.496241 11.8846154,102.24812 12.3461538,102.699248 C12.5,102.849624 12.8076923,103 13.1153846,103 C13.4230769,103 13.7307692,102.849624 13.8846154,102.699248 L16.6538462,99.9924812 C17.1153846,99.5413534 17.1153846,98.7894737 16.6538462,98.3383459 C16.1923077,97.887218 15.5769231,97.887218 15.1153846,98.3383459 Z" id="Shape" fill="#000000" opacity="0.190240205"></path>
                    <path d="M24.6797636,90.3383459 C24.2305063,89.887218 23.4817441,89.887218 23.0324868,90.3383459 L20.336943,93.0451128 C19.8876857,93.4962406 19.8876857,94.2481203 20.336943,94.6992481 C20.4866954,94.8496241 20.7862003,95 21.0857052,95 C21.38521,95 21.6847149,94.8496241 21.8344673,94.6992481 L24.5300112,91.9924812 C25.1290209,91.5413534 25.1290209,90.7894737 24.6797636,90.3383459 Z" id="Shape" fill="#000000" opacity="0.190240205"></path>
                    <path d="M172.5,15 C175.472973,15 178,12.6216216 178,9.5 C178,6.52702703 175.621622,4 172.5,4 C169.527027,4 167,6.37837838 167,9.5 C167.148649,12.472973 169.527027,15 172.5,15 Z M172.5,6.37837838 C174.283784,6.37837838 175.621622,7.86486486 175.621622,9.5 C175.621622,11.2837838 174.135135,12.6216216 172.5,12.6216216 C170.716216,12.6216216 169.378378,11.1351351 169.378378,9.5 C169.378378,7.71621622 170.864865,6.37837838 172.5,6.37837838 Z" id="Shape" fill="#000000" opacity="0.190240205"></path>
                    <path d="M104.5,104 C107.472973,104 110,101.621622 110,98.5 C110,95.527027 107.621622,93 104.5,93 C101.527027,93 99,95.3783784 99,98.5 C99,101.621622 101.527027,104 104.5,104 Z M104.5,95.3783784 C106.283784,95.3783784 107.621622,96.8648649 107.621622,98.5 C107.621622,100.283784 106.135135,101.621622 104.5,101.621622 C102.716216,101.621622 101.378378,100.135135 101.378378,98.5 C101.378378,96.8648649 102.716216,95.3783784 104.5,95.3783784 Z" id="Shape" fill="#000000" opacity="0.190240205"></path>
                    <path d="M23,8 C23,8.5 23.4480519,9 24.1948052,9 L44.8051948,9 C45.4025974,9 46,8.625 46,8 C46,7.5 45.5519481,7 44.8051948,7 L24.0454545,7 C23.4480519,7.125 23,7.5 23,8 Z" id="Shape" fill="#000000" opacity="0.190240205"></path>
                    <path d="M11.1803279,9 L17.8196721,9 C18.4098361,9 19,8.625 19,8 C19,7.5 18.557377,7 17.8196721,7 L11.1803279,7 C10.5901639,7 10,7.375 10,8 C10.147541,8.5 10.5901639,9 11.1803279,9 Z" id="Shape" fill="#000000" opacity="0.190240205"></path>
                    <path d="M11.1428571,2 L24.8571429,2 C25.4285714,2 26,1.6 26,0.933333333 C26,0.266666667 25.5714286,0 25,0 L11.1428571,0 C10.5714286,0 10,0.4 10,1.06666667 C10,1.73333333 10.5714286,2 11.1428571,2 Z" id="Shape" fill="#000000" opacity="0.190240205"></path>
                    <path d="M31.1914894,2 L35.8085106,2 C36.4042553,2 37,1.6 37,0.933333333 C37,0.266666667 36.4042553,0 35.8085106,0 L31.1914894,0 C30.5957447,0 30,0.4 30,1.06666667 C30,1.73333333 30.5957447,2 31.1914894,2 Z" id="Shape" fill="#000000" opacity="0.190240205"></path>
                    <path d="M173,137 C173,136.5 172.551948,136 171.805195,136 L151.194805,136 C150.597403,136 150,136.375 150,137 C150,137.5 150.448052,138 151.194805,138 L171.805195,138 C172.551948,138 173,137.5 173,137 Z" id="Shape" fill="#000000" opacity="0.190240205"></path>
                    <path d="M177,137 C177,137.5 177.442623,138 178.180328,138 L184.819672,138 C185.409836,138 186,137.625 186,137 C186,136.5 185.557377,136 184.819672,136 L178.180328,136 C177.590164,136.125 177,136.5 177,137 Z" id="Shape" fill="#000000" opacity="0.190240205"></path>
                    <path d="M184.857143,143 L171.142857,143 C170.571429,143 170,143.375 170,144 C170,144.5 170.428571,145 171.142857,145 L184.857143,145 C185.428571,145 186,144.625 186,144 C186,143.375 185.571429,143 184.857143,143 Z" id="Shape" fill="#000000" opacity="0.190240205"></path>
                    <path d="M164.808511,143 L160.191489,143 C159.595745,143 159,143.375 159,144 C159,144.5 159.446809,145 160.191489,145 L164.808511,145 C165.404255,145 166,144.625 166,144 C165.851064,143.375 165.404255,143 164.808511,143 Z" id="Shape" fill="#000000" opacity="0.190240205"></path>
                </g>
            </g>
        </g>
    </g>
</svg>