<?xml version="1.0" encoding="UTF-8" standalone="no"?>
<svg width="128px" height="124px" viewBox="0 0 128 124" version="1.1" xmlns="http://www.w3.org/2000/svg" xmlns:xlink="http://www.w3.org/1999/xlink">
    <!-- Generator: Sketch 42 (36781) - http://www.bohemiancoding.com/sketch -->
    <title>Group 5</title>
    <desc>Created with Sketch.</desc>
    <defs></defs>
    <g id="Symbols" stroke="none" stroke-width="1" fill="none" fill-rule="evenodd">
        <g id="Hotline-Bling-Module" transform="translate(-576.000000, -47.000000)" fill-rule="nonzero">
            <g id="Group-3-Copy">
                <g>
                    <g id="Group-2">
                        <g id="Group-5" transform="translate(576.000000, 47.000000)">
                            <path d="M11.5,36.3 C11.9,36.3 12.3,36 12.3,35.5 L12.3,24.4 C12.3,24 12,23.6 11.5,23.6 C11,23.6 10.7,23.9 10.7,24.4 L10.7,35.5 C10.8,35.9 11.1,36.3 11.5,36.3 Z" id="Shape" fill="#C6C6C6"></path>
                            <path d="M10.8,42.7 C10.8,43.1 11.1,43.5 11.6,43.5 C12.1,43.5 12.4,43.2 12.4,42.7 L12.4,39.1 C12.4,38.7 12.1,38.3 11.6,38.3 C11.1,38.3 10.8,38.6 10.8,39.1 L10.8,42.7 Z" id="Shape" fill="#C6C6C6"></path>
                            <path d="M104.5,13.4 C104.6,13.5 104.8,13.6 105,13.6 C105.2,13.6 105.4,13.5 105.5,13.4 C105.8,13.1 105.8,12.6 105.5,12.3 L104,10.8 C103.7,10.5 103.2,10.5 102.9,10.8 C102.6,11.1 102.6,11.6 102.9,11.9 L104.5,13.4 Z" id="Shape" fill="#C6C6C6"></path>
                            <path d="M109.4,18.3 C109.5,18.4 109.7,18.5 109.9,18.5 C110.1,18.5 110.3,18.4 110.4,18.3 C110.7,18 110.7,17.5 110.4,17.2 L108.9,15.7 C108.6,15.4 108.1,15.4 107.8,15.7 C107.5,16 107.5,16.5 107.8,16.8 L109.4,18.3 Z" id="Shape" fill="#C6C6C6"></path>
                            <path d="M103.6,18.5 C103.8,18.5 104,18.4 104.1,18.3 L105.6,16.8 C105.9,16.5 105.9,16 105.6,15.7 C105.3,15.4 104.8,15.4 104.5,15.7 L103,17.2 C102.7,17.5 102.7,18 103,18.3 C103.2,18.5 103.4,18.5 103.6,18.5 Z" id="Shape" fill="#C6C6C6"></path>
                            <path d="M108.4,13.7 C108.6,13.7 108.8,13.6 108.9,13.5 L110.4,12 C110.7,11.7 110.7,11.2 110.4,10.9 C110.1,10.6 109.6,10.6 109.3,10.9 L107.8,12.4 C107.5,12.7 107.5,13.2 107.8,13.5 C108,13.6 108.2,13.7 108.4,13.7 Z" id="Shape" fill="#C6C6C6"></path>
                            <path d="M108.7,68.2 C108.4,68.5 108.4,69 108.7,69.3 L110.2,70.8 C110.3,70.9 110.5,71 110.7,71 C110.9,71 111.1,70.9 111.2,70.8 C111.5,70.5 111.5,70 111.2,69.7 L109.7,68.2 C109.5,67.9 109,67.9 108.7,68.2 Z" id="Shape" fill="#C6C6C6"></path>
                            <path d="M115.1,75.6 C115.2,75.7 115.4,75.8 115.6,75.8 C115.8,75.8 116,75.7 116.1,75.6 C116.4,75.3 116.4,74.8 116.1,74.5 L114.6,73 C114.3,72.7 113.8,72.7 113.5,73 C113.2,73.3 113.2,73.8 113.5,74.1 L115.1,75.6 Z" id="Shape" fill="#C6C6C6"></path>
                            <path d="M109.8,75.6 L111.3,74.1 C111.6,73.8 111.6,73.3 111.3,73 C111,72.7 110.5,72.7 110.2,73 L108.7,74.5 C108.4,74.8 108.4,75.3 108.7,75.6 C108.8,75.7 109,75.8 109.2,75.8 C109.4,75.8 109.6,75.7 109.8,75.6 Z" id="Shape" fill="#C6C6C6"></path>
                            <path d="M114.1,70.9 C114.3,70.9 114.5,70.8 114.6,70.7 L116.1,69.2 C116.4,68.9 116.4,68.4 116.1,68.1 C115.8,67.8 115.3,67.8 115,68.1 L113.5,69.6 C113.2,69.9 113.2,70.4 113.5,70.7 C113.7,70.9 113.9,70.9 114.1,70.9 Z" id="Shape" fill="#C6C6C6"></path>
                            <path d="M2.7,67.5 C2.8,67.6 3,67.7 3.2,67.7 C3.4,67.7 3.6,67.6 3.7,67.5 C4,67.2 4,66.7 3.7,66.4 L2.2,65 C1.9,64.7 1.4,64.7 1.1,65 C0.8,65.3 0.8,65.8 1.1,66.1 L2.7,67.5 Z" id="Shape" fill="#C6C6C6"></path>
                            <path d="M6.1,70.9 L7.6,72.4 C7.7,72.5 7.9,72.6 8.1,72.6 C8.3,72.6 8.5,72.5 8.6,72.4 C8.9,72.1 8.9,71.6 8.6,71.3 L7.1,69.8 C6.8,69.5 6.3,69.5 6,69.8 C5.8,70.1 5.8,70.6 6.1,70.9 Z" id="Shape" fill="#C6C6C6"></path>
                            <path d="M1.7,72.6 C1.9,72.6 2.1,72.5 2.2,72.4 L3.7,70.9 C4,70.6 4,70.1 3.7,69.8 C3.4,69.5 2.9,69.5 2.6,69.8 L1.1,71.3 C0.8,71.6 0.8,72.1 1.1,72.4 C1.3,72.6 1.5,72.6 1.7,72.6 Z" id="Shape" fill="#C6C6C6"></path>
                            <path d="M6.6,67.8 C6.8,67.8 7,67.7 7.1,67.6 L8.6,66 C8.9,65.7 8.9,65.2 8.6,64.9 C8.3,64.6 7.8,64.6 7.5,64.9 L6,66.4 C5.7,66.7 5.7,67.2 6,67.5 C6.2,67.7 6.4,67.8 6.6,67.8 Z" id="Shape" fill="#C6C6C6"></path>
                            <path d="M101.1,44.5 C103.1,44.5 104.7,42.9 104.7,40.9 C104.7,38.9 103.1,37.3 101.1,37.3 C99.1,37.3 97.5,38.9 97.5,40.9 C97.5,42.8 99.1,44.5 101.1,44.5 Z M101.1,38.8 C102.3,38.8 103.2,39.7 103.2,40.9 C103.2,42.1 102.3,43 101.1,43 C99.9,43 99,42.1 99,40.9 C99,39.7 99.9,38.8 101.1,38.8 Z" id="Shape" fill="#C6C6C6"></path>
                            <path d="M11.5,100.1 C13.5,100.1 15.1,98.5 15.1,96.5 C15.1,94.5 13.5,92.9 11.5,92.9 C9.5,92.9 7.9,94.5 7.9,96.5 C7.9,98.5 9.5,100.1 11.5,100.1 Z M11.5,94.5 C12.7,94.5 13.6,95.4 13.6,96.6 C13.6,97.8 12.7,98.7 11.5,98.7 C10.3,98.7 9.4,97.8 9.4,96.6 C9.4,95.4 10.4,94.5 11.5,94.5 Z" id="Shape" fill="#C6C6C6"></path>
                            <path d="M13.5,4.8 L26.7,4.8 C27.1,4.8 27.5,4.5 27.5,4 C27.5,3.6 27.2,3.2 26.7,3.2 L13.5,3.2 C13.1,3.2 12.7,3.5 12.7,4 C12.7,4.4 13.1,4.8 13.5,4.8 Z" id="Shape" fill="#C6C6C6"></path>
                            <path d="M4.9,4.8 L9.2,4.8 C9.6,4.8 10,4.5 10,4 C10,3.6 9.7,3.2 9.2,3.2 L4.9,3.2 C4.5,3.3 4.1,3.6 4.1,4 C4.1,4.4 4.5,4.8 4.9,4.8 Z" id="Shape" fill="#C6C6C6"></path>
                            <path d="M4.9,9.3 L14.1,9.3 C14.5,9.3 14.9,9 14.9,8.5 C14.9,8 14.6,7.7 14.1,7.7 L4.9,7.7 C4.5,7.7 4.1,8 4.1,8.5 C4.1,9 4.5,9.3 4.9,9.3 Z" id="Shape" fill="#C6C6C6"></path>
                            <path d="M18,7.8 C17.6,7.8 17.2,8.1 17.2,8.6 C17.2,9.1 17.5,9.4 18,9.4 L21,9.4 C21.4,9.4 21.8,9.1 21.8,8.6 C21.8,8.1 21.4,7.8 21,7.8 L18,7.8 Z" id="Shape" fill="#C6C6C6"></path>
                            <path d="M126.7,89.9 L113.5,89.9 C113.1,89.9 112.7,90.2 112.7,90.7 C112.7,91.1 113,91.5 113.5,91.5 L126.7,91.5 C127.1,91.5 127.5,91.2 127.5,90.7 C127.5,90.3 127.2,89.9 126.7,89.9 Z" id="Shape" fill="#C6C6C6"></path>
                            <path d="M104.2,90.7 C104.2,91.1 104.5,91.5 105,91.5 L109.3,91.5 C109.7,91.5 110.1,91.2 110.1,90.7 C110.1,90.3 109.8,89.9 109.3,89.9 L105,89.9 C104.5,89.9 104.2,90.3 104.2,90.7 Z" id="Shape" fill="#C6C6C6"></path>
                            <path d="M105,96 L114.2,96 C114.6,96 115,95.7 115,95.2 C115,94.8 114.7,94.4 114.2,94.4 L105,94.4 C104.6,94.4 104.2,94.7 104.2,95.2 C104.2,95.6 104.5,96 105,96 Z" id="Shape" fill="#C6C6C6"></path>
                            <path d="M121.1,94.5 L118.1,94.5 C117.7,94.5 117.3,94.8 117.3,95.3 C117.3,95.7 117.6,96.1 118.1,96.1 L121.1,96.1 C121.5,96.1 121.9,95.8 121.9,95.3 C121.8,94.8 121.5,94.5 121.1,94.5 Z" id="Shape" fill="#C6C6C6"></path>
                            <g id="Group-4" fill="#4D4D4D">
                                <path d="M71.6,112.6 L86.7,112.6 C87.1,112.6 87.5,112.3 87.5,111.8 C87.5,111.4 87.2,111 86.7,111 L71.6,111 C71.2,111 70.8,111.3 70.8,111.8 C70.9,112.3 71.2,112.6 71.6,112.6 Z" id="Shape"></path>
                                <path d="M116.6,122.9 L116.6,122.8 C115.7,119.9 114.9,117 114,114.2 C111.9,107.5 105.8,103.7 98,104.3 C97.4,104.3 96.7,104.5 95.9,104.6 L92.9,100.2 L92.9,94.5 C95.4,92.3 97.4,89.2 98.6,85.5 L98.6,85.5 C100.5,85.5 102,82.7 102,78.9 C102,75.8 101,73.4 99.6,72.6 L99.6,72.5 C99.9,70.5 100.1,68.4 100.2,66.3 C100.8,57.3 98.4,56.1 93.8,54.7 C93.4,54.6 93.1,54.5 92.7,54.4 C89,53.2 85.2,52.9 82.6,52.9 C81.5,52.9 80.5,53 79.4,53.1 C79.6,45.4 77.5,43.4 73.6,42 C73.9,41.6 74.2,41.1 74.3,40.9 C76,37.9 76.8,34.5 76.6,31 C76.1,21.8 68.9,14.4 59.7,13.8 C54.6,13.5 49.8,15.2 46,18.7 C42.3,22.1 40.2,27 40.2,32 C40.2,34.8 40.8,37.5 42.1,40 C42.1,40 42.1,40.1 42.2,40.1 C42.5,40.5 42.8,41.1 43,41.7 C43.1,41.8 43.1,41.9 43.2,42.1 C39.3,43.5 37.2,45.5 37.4,53.2 C36.4,53.1 35.3,53.1 34.2,53 C31.7,53 27.8,53.3 24.1,54.5 C23.7,54.6 23.4,54.7 23,54.8 C18.4,56.2 16,57.4 16.6,66.4 C16.7,68.5 17,70.6 17.2,72.6 L17.2,72.7 C16,73.5 15,75.9 15,79 C15,82.8 16.5,85.6 18.4,85.6 L18.4,85.6 C19.7,89.3 21.7,92.4 24.1,94.6 L24.1,100.3 L21.1,104.7 C20.3,104.6 19.6,104.4 19.1,104.4 C11.3,103.8 5.2,107.6 3.1,114.3 C2.2,117.1 1.3,120 0.5,122.9 L0.5,123 L0.5,123.1 L0.5,123.1 L0.5,123.3 L0.5,123.4 L0.6,123.5 L0.7,123.6 L0.8,123.7 L0.9,123.8 L0.9,123.8 L1.1,123.8 L1.1,123.8 L18.7,123.8 L49.4,123.8 L67.3,123.8 L98,123.8 L115.6,123.8 L115.6,123.8 L115.8,123.8 L115.8,123.8 C115.9,123.8 115.9,123.8 115.9,123.7 C115.9,123.7 116,123.7 116,123.6 L116.1,123.5 L116.2,123.4 L116.2,123.3 L116.2,123.1 L116.2,123.1 C116.6,123 116.6,123 116.6,122.9 Z M98.1,105.9 C105.1,105.4 110.7,108.7 112.5,114.7 C113.3,117.2 114.1,119.7 114.8,122.3 L98.8,122.3 C97.8,119 96.8,115.7 95.8,112.6 C95.1,110.4 94,108.5 92.7,106.8 C93.4,106.7 94.2,106.5 95,106.4 C96.1,106.2 97.3,105.9 98.1,105.9 Z M91.4,100.6 L91.4,100.7 C91.4,100.8 91.4,100.8 91.5,100.8 C91.5,100.8 91.5,100.8 91.5,100.9 L94.3,104.9 C93.2,105.1 92.2,105.3 91.4,105.3 C87.8,102 82.7,100.3 76.8,100.7 C75.2,100.8 73.6,100.9 71.9,101 C72.1,100.5 72.4,100.1 72.6,99.6 C72.6,99.6 72.6,99.6 72.6,99.5 L72.6,99.3 L72.6,99.2 L72.6,99 L72.6,98.9 L72.6,98.8 L70.6,95.7 L70.6,92.3 C73.8,96.3 78.2,98.5 82.7,98.5 C85.8,98.5 88.8,97.5 91.4,95.6 L91.4,100.6 L91.4,100.6 Z M58.6,115.8 C57.8,115.2 56,113.7 53.7,111.1 L55.4,104.2 L61.9,104.2 L63.5,111 C61.2,113.7 59.3,115.2 58.6,115.8 Z M62,102.7 L55.1,102.7 L53.7,100.2 L63.5,100.2 L62,102.7 Z M64.7,109.5 L63.3,103.6 L65.5,99.9 C65.6,99.7 65.6,99.4 65.5,99.1 C65.4,98.9 65.1,98.7 64.8,98.7 L52.3,98.7 C52,98.7 51.8,98.8 51.6,99.1 C51.5,99.3 51.5,99.6 51.6,99.9 L53.8,103.7 L52.4,109.6 C50.4,107.1 48.1,103.7 45.9,99.4 L47.8,96.5 C47.8,96.5 47.8,96.5 47.8,96.4 C47.8,96.4 47.8,96.3 47.9,96.3 L47.9,96.2 C47.9,96.2 47.9,96.2 47.9,96.1 L47.9,90.1 C51,92.4 54.6,93.7 58.4,93.7 C62.2,93.7 65.8,92.4 68.9,90.1 L68.9,96.1 C68.9,96.1 68.9,96.1 68.9,96.2 L68.9,96.3 C68.9,96.3 68.9,96.4 69,96.4 C69,96.4 69,96.4 69,96.5 L70.9,99.4 C69.2,103.2 67,106.6 64.7,109.5 Z M39.3,64.1 C39.6,64 39.8,63.8 39.9,63.5 L39.9,63.3 C40.3,61.6 41.6,57.1 42.9,55.5 C44,54.2 48.4,54.8 50.9,55.5 C51.2,55.6 51.6,55.4 51.8,55.1 C52,54.8 51.9,54.4 51.6,54.2 C50,52.9 50.2,51.6 50.5,50.7 C55.2,54.8 59.4,54.5 59.5,54.5 C59.6,54.5 69.5,54.4 73.1,54.8 C75.5,55.1 76.8,60.7 77.1,63.1 L77.1,63.1 L77.1,63.3 L77.1,63.3 L77.1,63.3 L77.1,63.4 C77.2,63.7 77.4,63.9 77.7,64 C78.8,64.2 80,66.8 80,70.2 C80,73.8 78.7,76.4 77.6,76.4 C77.5,76.4 77.4,76.4 77.2,76.3 C77,76.2 76.8,76.2 76.6,76.3 C76.4,76.4 76.3,76.6 76.2,76.8 C73.3,86.1 66.4,92.1 58.5,92.1 C50.6,92.1 43.7,86.1 40.8,76.8 C40.7,76.6 40.6,76.4 40.4,76.3 C40.3,76.3 40.2,76.2 40.1,76.2 C40,76.2 39.9,76.2 39.8,76.3 C39.7,76.4 39.6,76.4 39.4,76.4 C38.3,76.4 37,73.7 37,70.2 C37,66.9 38.2,64.3 39.3,64.1 Z M100.6,79 C100.6,82.1 99.5,84.1 98.7,84.1 C98.6,84.1 98.6,84.1 98.4,84 C98.2,83.9 98,83.9 97.8,84 C97.6,84.1 97.5,84.3 97.4,84.5 C95,92.2 89.2,97.2 82.7,97.2 C78.2,97.2 73.9,94.7 70.9,90.4 C70.8,90.3 70.7,90.2 70.6,90.1 L70.6,88.8 L70.6,88.8 C73.6,86.1 76,82.4 77.5,77.9 L77.6,77.9 C79.8,77.9 81.5,74.6 81.5,70.2 C81.5,68.4 81.2,66.7 80.7,65.4 C82.4,65.9 83.5,65.8 83.5,65.8 C83.6,65.8 91.9,65.7 94.8,66.1 C96.6,66.3 97.7,70.7 98.1,72.9 L98.1,72.9 L98.1,72.9 L98.1,73 L98.1,73 L98.1,73.1 C98.2,73.4 98.4,73.6 98.7,73.7 C99.5,74.1 100.6,76 100.6,79 Z M82.7,54.5 C86.2,54.5 89.5,55 92.3,55.9 C92.7,56 93.1,56.1 93.4,56.2 C97.4,57.4 99.3,58 98.8,66.3 C98.8,67.1 98.7,67.8 98.6,68.6 C97.9,66.7 96.8,64.8 95,64.6 C92,64.2 83.8,64.3 83.4,64.3 C83.4,64.3 81.9,64.4 79.9,63.5 C79.8,63.4 79.6,63.4 79.5,63.5 C79.2,63.2 78.9,63 78.6,62.8 L78.6,62.6 C78.9,60.2 79.2,57.7 79.4,55.2 L79.4,54.6 C80.6,54.6 81.6,54.5 82.7,54.5 Z M44.7,41.4 C44.6,41.3 44.6,41.1 44.5,41 C44.2,40.4 43.9,39.8 43.6,39.4 C42.5,37.1 41.9,34.6 41.9,32 C41.9,27.4 43.8,23 47.2,19.8 C50.6,16.6 55.1,15 59.7,15.4 C68.1,16 74.8,22.7 75.2,31.1 C75.4,34.3 74.6,37.4 73.1,40.1 L73,40.2 C72.9,40.4 72.5,41 72.2,41.5 C72.1,41.5 72,41.4 71.8,41.4 C71.4,41.3 70.9,41.1 70.5,41 C69.7,40.7 68.9,40.5 68.1,40.4 C68.7,38.9 69,37.4 69,35.7 C69,30.9 67.3,26.6 63.9,22.9 L63.9,22.9 L63.9,22.9 C63.5,22.4 63,22 62.5,21.5 C62.3,21.3 62.2,21.2 61.9,21 C61.5,20.7 61,20.6 60.5,20.6 C59.7,20.6 59,20.9 58.5,21.4 C58,20.9 57.3,20.6 56.5,20.6 C56,20.6 55.5,20.7 55,21 C54.8,21.1 54.7,21.3 54.5,21.4 C54,21.9 53.5,22.3 53.1,22.8 L53.1,22.8 L53.1,22.8 C49.7,26.5 48,30.8 48,35.6 C48,37.3 48.3,38.8 48.9,40.3 C48.1,40.5 47.3,40.7 46.5,40.9 C46,41 45.6,41.2 45.2,41.3 C45.1,41.3 45,41.4 44.8,41.4 C44.8,41.5 44.8,41.5 44.7,41.4 Z M50.4,40.1 C49.8,38.7 49.5,37.3 49.5,35.7 L49.5,35.4 C49.8,35.1 50.6,34.4 51.7,34.4 C52.6,34.3 53.6,34.7 54.6,35.6 C54.9,35.9 55.4,35.9 55.7,35.5 C56,35.2 56,34.7 55.6,34.4 C54.3,33.2 53,32.7 51.6,32.8 C50.8,32.8 50.2,33.1 49.7,33.4 C50.1,30.6 51.1,27.9 52.9,25.6 C53.1,26.1 53.3,26.7 53.7,27.4 C53.8,27.6 54.1,27.8 54.3,27.8 C54.4,27.8 54.6,27.8 54.7,27.7 C55.1,27.5 55.2,27 55,26.7 C53.9,24.8 54.2,24.1 54.3,24 C54.7,23.5 55.2,23.1 55.6,22.7 C55.7,22.6 55.9,22.5 56,22.4 C56.2,22.3 56.4,22.2 56.7,22.2 C57.3,22.2 57.8,22.6 57.9,23.2 L57.9,23.5 L57.9,28.9 C57.6,28.8 57.4,28.8 57.1,28.8 C56.7,28.8 56,29 55.5,29.8 C55.3,30.1 55.3,30.6 55.7,30.8 C55.8,30.9 56,30.9 56.1,30.9 C56.3,30.9 56.6,30.8 56.7,30.6 C57,30.2 57.2,30.2 57.2,30.2 C57.4,30.2 57.7,30.3 57.9,30.4 L57.9,39.4 C55.7,39.3 53.1,39.5 50.4,40.1 Z M59.3,30.4 C59.5,30.2 59.8,30.1 60.1,30.1 C60.2,30.1 60.4,30.1 60.6,30.5 C60.7,30.7 61,30.8 61.2,30.8 C61.4,30.8 61.5,30.8 61.6,30.7 C61.9,30.5 62,30 61.8,29.7 C61.3,28.9 60.6,28.7 60.2,28.7 C59.9,28.7 59.6,28.7 59.3,28.8 L59.3,23.7 C59.3,23.6 59.4,23.5 59.4,23.4 L59.4,23.1 C59.5,22.5 60,22.1 60.6,22.1 C60.8,22.1 61.1,22.2 61.2,22.2 C61.3,22.3 61.5,22.4 61.6,22.5 C62.1,22.9 62.5,23.4 62.9,23.8 C62.9,23.8 63.3,24.6 62.2,26.5 C62,26.9 62.1,27.3 62.5,27.5 C62.6,27.6 62.8,27.6 62.9,27.6 C63.2,27.6 63.4,27.5 63.5,27.2 C63.9,26.5 64.2,25.9 64.3,25.4 C66,27.8 67.1,30.4 67.5,33.2 C67,32.9 66.3,32.7 65.6,32.6 C64.2,32.5 62.9,33 61.6,34.2 C61.3,34.5 61.3,35 61.5,35.3 C61.8,35.6 62.3,35.6 62.6,35.4 C63.6,34.5 64.5,34.1 65.5,34.2 C66.6,34.3 67.4,35 67.7,35.2 L67.7,35.5 C67.7,37.1 67.4,38.5 66.8,39.9 C64,39.4 61.4,39.2 59.4,39.1 L59.4,30.4 L59.3,30.4 Z M45.7,42.9 C46.1,42.8 46.6,42.6 47,42.5 C50.4,41.4 54.3,40.8 58.5,40.8 C62.7,40.8 66.7,41.4 70.1,42.5 C70.6,42.6 71,42.8 71.4,42.9 C71.6,43 71.8,43 72.1,43.1 L72.2,43.2 C72.3,43.3 72.4,43.3 72.6,43.3 L72.7,43.3 C76.7,44.6 78.6,46 78,55.2 C77.9,56.4 77.8,57.5 77.7,58.7 C76.9,56.2 75.5,53.6 73.3,53.4 C69.6,52.9 59.9,53 59.5,53 C59.5,53 55.3,53.3 50.9,48.9 C50.7,48.7 50.5,48.7 50.3,48.7 C50.1,48.7 49.9,48.8 49.8,49 C49.1,49.9 48.4,51.8 49.3,53.6 C46.9,53.2 43.3,52.9 41.9,54.6 C41,55.6 40.2,57.6 39.6,59.3 C39.4,57.9 39.3,56.5 39.2,55.2 C38.5,45.1 40.9,44.4 45.7,42.9 Z M23.7,56.2 C24.1,56.1 24.4,56 24.8,55.9 C27.6,55 30.9,54.5 34.4,54.5 C35.5,54.5 36.6,54.6 37.6,54.7 L37.6,55.3 C37.8,57.8 38.1,60.3 38.4,62.7 L38.4,62.9 C38.1,63.1 37.8,63.3 37.5,63.6 L37.1,63.6 C35.1,64.5 33.6,64.4 33.6,64.4 C33.3,64.4 25.1,64.3 22.1,64.7 C20.4,64.9 19.2,66.8 18.5,68.7 C18.4,67.9 18.3,67.1 18.3,66.4 C17.8,58 19.6,57.5 23.7,56.2 Z M19.7,84.5 C19.6,84.3 19.5,84.1 19.3,84 C19.1,83.9 18.9,83.9 18.7,84 C18.6,84 18.5,84.1 18.4,84.1 C17.6,84.1 16.5,82.1 16.5,79 C16.5,76 17.5,74.1 18.3,74 C18.6,73.9 18.8,73.7 18.9,73.4 L18.9,73.3 L18.9,73.3 L18.9,73.2 L18.9,73.1 L18.9,73.1 C19.2,70.8 20.4,66.5 22.2,66.3 C24.3,66.1 29.1,66 31.7,66 L33.5,66 C33.6,66 34.7,66.1 36.3,65.6 C35.8,66.9 35.5,68.6 35.5,70.4 C35.5,74.8 37.2,78.1 39.4,78.1 L39.5,78.1 C41,82.6 43.4,86.3 46.4,89 L46.4,89 L46.4,90.3 C46.3,90.4 46.1,90.4 46.1,90.6 C43.1,94.9 38.8,97.4 34.3,97.4 C27.9,97.2 22.1,92.2 19.7,84.5 Z M34.4,98.7 C39,98.7 43.3,96.4 46.6,92.5 L46.6,95.9 L44.6,99 L44.6,99.1 C44.6,99.1 44.6,99.2 44.5,99.2 L44.5,99.3 L44.5,99.4 L44.5,99.5 L44.5,99.6 C44.7,100.1 45,100.5 45.2,101 C43.6,100.9 42,100.8 40.3,100.7 C34.4,100.2 29.3,101.9 25.7,105.3 C25,105.2 23.9,105.1 22.8,104.9 L25.6,100.9 C25.6,100.9 25.6,100.9 25.6,100.8 C25.6,100.8 25.6,100.7 25.7,100.7 L25.7,100.6 C25.7,100.6 25.7,100.6 25.7,100.5 L25.7,95.8 C28.3,97.6 31.2,98.7 34.4,98.7 Z M4.6,114.7 C6.5,108.7 12,105.4 19,105.9 C19.8,105.9 21,106.2 22.1,106.4 C22.9,106.5 23.6,106.7 24.4,106.8 C23,108.4 22,110.4 21.3,112.6 C20.3,115.8 19.3,119 18.3,122.3 L2.3,122.3 C3,119.7 3.8,117.2 4.6,114.7 Z M49.6,122.3 L19.9,122.3 C20.8,119.1 21.8,116 22.8,113 C25.1,105.8 31.7,101.7 40.3,102.4 C42.2,102.5 44.2,102.6 46.1,102.7 C52,113.1 58,117.2 58.2,117.4 L58.3,117.4 L58.4,117.4 C58.5,117.4 58.6,117.5 58.7,117.5 L58.7,117.5 L58.7,117.5 C58.8,117.5 58.9,117.5 59,117.4 L59.1,117.4 L59.2,117.4 C59.3,117.3 61.8,115.6 65.1,111.7 C67.4,109 69.4,106 71.3,102.7 C73.2,102.6 75.2,102.5 77.1,102.4 C85.6,101.7 92.3,105.8 94.5,113.1 C95.5,116.1 96.4,119.2 97.4,122.4 L67.5,122.4 L49.6,122.4 L49.6,122.3 Z" id="Shape"></path>
                                <path d="M80.6,31.6 C80.2,31.6 79.8,31.9 79.8,32.3 C79.8,32.7 80.1,33.1 80.5,33.1 L89.7,33.2 L89.7,33.2 C90.1,33.2 90.5,32.9 90.5,32.5 C90.5,32.1 90.2,31.7 89.8,31.7 L80.6,31.6 L80.6,31.6 Z" id="Shape"></path>
                                <path d="M58.6,10.9 C59,10.9 59.4,10.6 59.4,10.1 L59.4,1 C59.4,0.6 59.1,0.2 58.6,0.2 C58.2,0.2 57.8,0.5 57.8,1 L57.8,10.2 C57.8,10.6 58.1,10.9 58.6,10.9 Z" id="Shape"></path>
                                <path d="M46.7,13.6 C46.8,13.8 47.1,14 47.3,14 C47.4,14 47.6,14 47.7,13.9 C48.1,13.7 48.2,13.2 48,12.9 L43.3,5 C43.1,4.6 42.6,4.5 42.3,4.7 C41.9,4.9 41.8,5.4 42,5.7 L46.7,13.6 Z" id="Shape"></path>
                                <path d="M31,17.4 L39,21.9 C39.1,22 39.2,22 39.4,22 C39.7,22 39.9,21.9 40.1,21.6 C40.3,21.2 40.2,20.8 39.8,20.6 L31.8,16.1 C31.4,15.9 31,16 30.8,16.4 C30.5,16.8 30.7,17.2 31,17.4 Z" id="Shape"></path>
                                <path d="M36.5,31.6 L27.3,31.7 C26.9,31.7 26.5,32 26.6,32.5 C26.6,32.9 26.9,33.2 27.4,33.2 L27.4,33.2 L36.6,33.1 C37,33.1 37.4,32.8 37.3,32.3 C37.3,31.9 36.9,31.6 36.5,31.6 L36.5,31.6 Z" id="Shape"></path>
                                <path d="M77.7,22.1 C77.8,22.1 78,22.1 78.1,22 L86.1,17.5 C86.5,17.3 86.6,16.8 86.4,16.5 C86.2,16.1 85.7,16 85.4,16.2 L77.4,20.7 C77,20.9 76.9,21.4 77.1,21.7 C77.2,22 77.5,22.1 77.7,22.1 Z" id="Shape"></path>
                                <path d="M69.4,13.9 C69.5,14 69.7,14 69.8,14 C70.1,14 70.3,13.9 70.4,13.6 L75.1,5.7 C75.3,5.3 75.2,4.9 74.8,4.7 C74.4,4.5 74,4.6 73.8,5 L69.1,12.9 C68.9,13.2 69.1,13.7 69.4,13.9 Z" id="Shape"></path>
                            </g>
                        </g>
                    </g>
                </g>
            </g>
        </g>
    </g>
</svg>