<?xml version="1.0" encoding="UTF-8" standalone="no"?>
<svg width="306px" height="187px" viewBox="0 0 306 187" version="1.1" xmlns="http://www.w3.org/2000/svg" xmlns:xlink="http://www.w3.org/1999/xlink">
    <!-- Generator: Sketch 42 (36781) - http://www.bohemiancoding.com/sketch -->
    <title>Page 1</title>
    <desc>Created with Sketch.</desc>
    <defs></defs>
    <g id="Home" stroke="none" stroke-width="1" fill="none" fill-rule="evenodd">
        <g id="Artboard-Copy-44" transform="translate(-560.000000, -2142.000000)">
            <g id="Industry-Leading-Module" transform="translate(234.000000, 1831.000000)">
                <g id="Group-16" transform="translate(327.000000, 311.000000)">
                    <g id="Page-1">
                        <path d="M106,139.089109 L199,139.089109 L199,48 L106,48 L106,139.089109 Z M107.746095,137.359905 L197.248264,137.359905 L197.248264,49.7292041 L107.746095,49.7292041 L107.746095,137.359905 Z" id="Fill-1" fill="#4D4D4D"></path>
                        <g id="Group-6" transform="translate(133.352941, 77.148515)" fill="#4D4D4D">
                            <path d="M14.1544997,13.7851668 C13.1266522,12.460204 11.4277306,11.4476535 9.40884546,11.4476535 C6.18372601,11.4476535 4.05724252,13.9943715 4.05724252,16.8562912 C4.05724252,19.7879458 6.36211278,22.2649289 9.58440069,22.2649289 C11.2861538,22.2649289 13.0218853,21.4281103 14.1544997,19.9274155 L14.1544997,13.7851668 Z M9.12286033,25.4057882 C7.63630395,25.4057882 6.07612765,24.9873788 4.94351327,24.3235027 C2.42910935,22.8590701 0.69337781,20.1366202 0.69337781,16.8562912 C0.69337781,13.5759622 2.46308778,10.8200395 4.98032324,9.3528175 C6.11293761,8.68894138 7.49472716,8.30679421 9.05207193,8.30679421 C10.9293803,8.30679421 12.7387317,8.8646733 14.2620981,10.1561634 L14.2620981,8.65546864 L17.5211959,8.65546864 L17.5211959,24.3597649 C17.5211959,26.8032753 17.2012324,28.4434398 16.5273268,29.7349299 C15.1823473,32.2816479 12.6311334,33.7823426 9.33522552,33.7823426 C5.01430167,33.7823426 2.28753255,31.6177718 1.22287503,29.9776073 L3.70330052,27.7098288 C4.90953484,29.2802584 6.46687961,30.6414834 9.19364873,30.6414834 C11.0030002,30.6414834 12.4187682,29.9776073 13.2342505,28.7558521 C13.8345361,27.8492985 14.1544997,26.5940706 14.1544997,24.5327074 L14.1544997,23.6261539 C12.8095201,24.7781742 11.107767,25.4057882 9.12286033,25.4057882 L9.12286033,25.4057882 Z" id="Fill-2"></path>
                            <path d="M25.8481769,10.0858706 C26.768426,9.31878687 28.4333692,8.30623633 30.7382394,8.30623633 C33.181855,8.30623633 35.3762953,9.4219945 36.7948948,11.2016288 C37.8567208,12.529381 38.423028,14.2030183 38.423028,17.0314652 L38.423028,25.0565558 L35.0591633,25.0565558 L35.0591633,16.8557333 C35.0591633,14.7608973 34.6684113,13.7846089 34.0681257,13.0509979 C33.2866218,12.0747095 32.0124306,11.4470956 30.6306411,11.4470956 C28.4333692,11.4470956 26.8392144,12.5991159 25.8481769,13.7846089 L25.8481769,25.0565558 L22.4814806,25.0565558 L22.4814806,0.278356305 L25.8481769,0.278356305 L25.8481769,10.0858706 Z" id="Fill-4"></path>
                        </g>
                        <g id="Group-10">
                            <g>
                                <polygon id="Fill-1" fill="#4D4D4D" points="106 139.804688 198.912636 139.804688 198.912636 48.0002815 106 48.0002815"></polygon>
                                <g id="Group-6" transform="translate(133.187166, 76.870395)" fill="#FEFEFE">
                                    <path d="M13.8900888,13.7559957 C12.8670888,12.4186419 11.1761797,11.3966221 9.16681604,11.3966221 C5.95690695,11.3966221 3.84045241,13.9671568 3.84045241,16.8558409 C3.84045241,19.814912 6.13445241,22.3150596 9.34154332,22.3150596 C11.0352706,22.3150596 12.762816,21.4704151 13.8900888,19.955686 L13.8900888,13.7559957 Z M8.88217968,25.4852918 C7.40263422,25.4852918 5.84981604,25.0629696 4.72254332,24.392885 C2.21999786,22.9147572 0.492452406,20.1668472 0.492452406,16.8558409 C0.492452406,13.5448346 2.25381604,10.7631388 4.75917968,9.2821955 C5.88645241,8.61211089 7.26172513,8.22638992 8.81172513,8.22638992 C10.6801797,8.22638992 12.4809979,8.78948623 13.9971797,10.0930542 L13.9971797,8.57832511 L17.240907,8.57832511 L17.240907,24.4294862 C17.240907,26.8958481 16.9224524,28.5513512 16.2517251,29.8549192 C14.9130888,32.4254538 12.373907,33.9401829 9.09354332,33.9401829 C4.79299786,33.9401829 2.07908877,31.7553692 1.01945241,30.0998661 L3.48817968,27.8108796 C4.68872513,29.3959957 6.23872513,30.7699507 8.95263422,30.7699507 C10.7534524,30.7699507 12.1625433,30.0998661 12.9741797,28.8666851 C13.5716342,27.9516536 13.8900888,26.6846869 13.8900888,24.6040461 L13.8900888,23.6890146 C12.5514524,24.8518085 10.8577251,25.4852918 8.88217968,25.4852918 L8.88217968,25.4852918 Z" id="Fill-2"></path>
                                    <path d="M25.528616,10.0221041 C26.4445251,9.24784662 28.101616,8.22582682 30.395616,8.22582682 C32.827707,8.22582682 35.0117979,9.35201944 36.423707,11.1482967 C37.4805251,12.4884659 38.0441615,14.1777548 38.0441615,17.0326531 L38.0441615,25.1327935 L34.6961615,25.1327935 L34.6961615,16.8552778 C34.6961615,14.7408511 34.3072524,13.7554326 33.7097979,13.0149609 C32.9319797,12.0295424 31.6637979,11.396059 30.2885251,11.396059 C28.101616,11.396059 26.5149797,12.5588529 25.528616,13.7554326 L25.528616,25.1327935 L22.1777979,25.1327935 L22.1777979,0.122870927 L25.528616,0.122870927 L25.528616,10.0221041 Z" id="Fill-4"></path>
                                </g>
                                <polyline id="Path-5" stroke="#4D4D4D" stroke-dasharray="3" transform="translate(49.926360, 155.088119) scale(1, -1) translate(-49.926360, -155.088119) " points="95.8527199 186.176238 4 186.176238 4 124"></polyline>
                                <polyline id="Path-5-Copy" stroke="#4D4D4D" stroke-dasharray="3" points="208 124 299.85272 124 299.85272 186.176238"></polyline>
                                <polyline id="Path-5-Copy" stroke="#4D4D4D" stroke-dasharray="3" transform="translate(253.926360, 31.088119) scale(-1, 1) translate(-253.926360, -31.088119) " points="299.85272 62.1762381 208 62.1762381 208 4.54747351e-13"></polyline>
                                <circle id="Oval" stroke="#4D4D4D" stroke-width="2" fill="#FFFFFF" cx="299.5" cy="5.5" r="4.5"></circle>
                                <circle id="Oval-Copy" stroke="#4D4D4D" stroke-width="2" fill="#FFFFFF" cx="299.5" cy="181.5" r="4.5"></circle>
                                <circle id="Oval" stroke="#4D4D4D" stroke-width="2" fill="#FFFFFF" cx="4.5" cy="5.5" r="4.5"></circle>
                                <circle id="Oval-Copy-2" stroke="#4D4D4D" stroke-width="2" fill="#FFFFFF" cx="4.5" cy="181.5" r="4.5"></circle>
                            </g>
                        </g>
                        <polyline id="Path-5" stroke="#4D4D4D" stroke-dasharray="3" points="95.8527199 62.1762381 4 62.1762381 4 13"></polyline>
                    </g>
                </g>
            </g>
        </g>
    </g>
</svg>