<?xml version="1.0" encoding="UTF-8" standalone="no"?>
<svg width="86px" height="87px" viewBox="0 0 86 87" version="1.1" xmlns="http://www.w3.org/2000/svg" xmlns:xlink="http://www.w3.org/1999/xlink">
    <!-- Generator: Sketch 42 (36781) - http://www.bohemiancoding.com/sketch -->
    <title>Group 9</title>
    <desc>Created with Sketch.</desc>
    <defs>
        <path d="M58.5210526,67.425 L58.5210526,67.35 C57.7793409,64.8 57.0376292,62.25 56.2217464,59.85 C54.4416383,54 49.1754853,50.7 42.50008,51.225 L41.5358548,51.3 C40.6458008,51.375 39.829918,51.45 38.8656927,51.45 C38.4206657,50.475 36.8630712,46.725 38.8656927,41.475 C39.0140351,41.325 39.1623774,41.175 39.3107198,41.025 L48.1370889,41.025 C48.2112601,41.025 48.2854313,41.025 48.3596024,40.95 L48.4337736,40.95 C48.5079448,40.95 48.5079448,40.875 48.5079448,40.875 C48.5079448,40.875 48.5079448,40.875 48.5821159,40.8 C48.5821159,40.8 48.6562871,40.725 48.6562871,40.65 C48.6562871,40.65 48.6562871,40.65 48.6562871,40.575 L48.6562871,40.575 L49.6205123,37.875 C50.6589087,37.725 51.6231339,37.275 52.5131879,36.675 C54.1449536,35.55 55.18335,33.9 55.5542059,31.95 C55.9250617,30 55.4800347,28.05 54.3674671,26.475 C53.3290708,24.975 51.9198186,24 50.2138817,23.55 C50.2880528,22.8 50.362224,22.05 50.362224,21.225 C50.362224,9.525 40.9424855,0 29.3717831,0 C17.8010806,0 8.30717097,9.6 8.30717097,21.3 C8.30717097,22.125 8.38134214,22.875 8.45551331,23.625 C6.74957641,24.075 5.26615303,25.05 4.22775665,26.55 C3.11518911,28.125 2.6701621,30.15 3.04101794,32.025 C3.70855847,35.55 6.74957641,38.025 10.1614502,38.025 C10.6064772,38.025 11.0515042,37.95 11.4965313,37.875 C11.6448736,37.875 11.7932159,37.8 11.8673871,37.65 C11.9415583,37.5 12.0157294,37.35 11.9415583,37.2 L9.56808085,23.925 L9.56808085,23.85 C9.41973851,23.025 9.34556734,22.125 9.34556734,21.15 C9.34556734,10.2 18.3202788,1.2 29.2976119,1.2 C40.274945,1.2 49.1754853,10.2 49.1754853,21.375 C49.1754853,22.275 49.1013141,23.175 49.027143,24 C49.027143,24 49.027143,24 49.027143,24.075 L46.6536655,37.425 C46.6536655,37.575 46.6536655,37.725 46.7278367,37.875 C46.8020079,38.025 46.9503502,38.1 47.0986925,38.1 C47.5437196,38.175 47.9887466,38.25 48.4337736,38.25 L48.4337736,38.25 L47.7662331,40.05 L40.1266026,40.05 C41.3133413,38.475 42.2775665,36.6 42.9451071,34.5 L43.0192782,34.5 C44.651044,34.5 45.8377827,32.1 45.8377827,28.8 C45.8377827,26.1 45.0218998,23.925 43.7609899,23.325 L43.7609899,23.175 C43.9835034,21.375 44.2060169,19.575 44.3543593,17.7 C44.8735575,9.825 42.7967647,8.85 38.8656927,7.575 C38.5690081,7.5 38.2723234,7.35 37.9014675,7.275 C34.7121073,6.225 31.3744046,6 29.2234407,6 C26.9983057,6 23.7347742,6.225 20.5454139,7.275 C20.2487292,7.35 19.8778734,7.5 19.5811887,7.575 C15.6501167,8.775 13.573324,9.825 14.0925222,17.7 C14.2408645,19.5 14.463378,21.375 14.6858915,23.1 L14.6858915,23.25 C13.4249817,23.85 12.6090988,26.025 12.6090988,28.725 C12.6090988,32.025 13.9441798,34.5 15.5759456,34.35 C16.4659996,37.125 17.949423,39.525 19.6553599,41.4 C21.5838103,46.65 20.1003869,50.475 19.5811887,51.45 C18.6169635,51.375 17.8010806,51.375 16.9110266,51.3 L16.0951438,51.225 C9.41973851,50.7 4.15358548,54 2.29930625,59.775 C1.55759456,62.25 0.741711694,64.725 0,67.275 L0,67.35 L0,67.425 L0,67.425 L0,67.575 L0,67.65 L0.0741711694,67.725 L0.148342339,67.8 L0.222513508,67.875 L0.296684677,67.95 L0.296684677,67.95 L0.445027016,67.95 L57.9276833,67.95 L58.0760256,67.95 L58.0760256,67.95 C58.0760256,67.95 58.1501968,67.95 58.1501968,67.875 C58.1501968,67.875 58.224368,67.875 58.224368,67.8 L58.2985391,67.725 L58.3727103,67.65 L58.3727103,67.575 L58.3727103,67.425 L58.3727103,67.425 L58.5210526,67.425 Z" id="path-1"></path>
        <path d="M31.7596491,14.4 L28.8929825,14.1 C28.5912281,12.3 27.8368421,10.5 26.7807018,9 L28.5912281,6.825 C28.7421053,6.6 28.7421053,6.3 28.5912281,6.075 L26.554386,4.05 C26.3280702,3.825 26.0263158,3.825 25.8,4.05 L23.6122807,5.85 C22.1035088,4.8 20.2929825,4.05 18.4824561,3.75 L18.1807018,0.9 C18.1807018,0.6 17.8789474,0.375 17.6526316,0.375 L14.7859649,0.375 C14.4842105,0.375 14.2578947,0.6 14.2578947,0.9 L13.9561404,3.75 C11.9947368,4.05 10.2596491,4.725 8.75087719,5.85 L6.4877193,4.05 C6.26140351,3.9 5.95964912,3.9 5.73333333,4.05 L3.69649123,6.075 C3.47017544,6.3 3.47017544,6.6 3.69649123,6.825 L5.50701754,9 C4.45087719,10.5 3.69649123,12.3 3.39473684,14.1 L0.528070175,14.4 C0.226315789,14.4 0,14.7 0,14.925 L0,17.775 C0,18.075 0.226315789,18.3 0.528070175,18.3 L3.39473684,18.6 C3.69649123,20.4 4.45087719,22.2 5.50701754,23.7 L3.69649123,25.875 C3.54561404,26.1 3.54561404,26.4 3.69649123,26.625 L5.73333333,28.65 C5.95964912,28.875 6.26140351,28.875 6.4877193,28.65 L8.6754386,26.85 C10.1842105,27.9 11.9947368,28.65 13.8052632,28.95 L14.1070175,31.8 C14.1070175,32.1 14.4087719,32.325 14.6350877,32.325 L17.5017544,32.325 C17.8035088,32.325 18.0298246,32.1 18.0298246,31.8 L18.3315789,28.95 C20.1421053,28.65 21.9526316,27.9 23.4614035,26.85 L25.6491228,28.65 C25.8754386,28.8 26.177193,28.8 26.4035088,28.65 L28.4403509,26.625 C28.6666667,26.4 28.6666667,26.1 28.4403509,25.875 L26.6298246,23.7 C27.6859649,22.2 28.4403509,20.4 28.7421053,18.6 L31.6087719,18.3 C31.9105263,18.3 32.1368421,18 32.1368421,17.775 L32.1368421,15 C32.2122807,14.7 32.0614035,14.475 31.7596491,14.4 Z" id="path-3"></path>
        <path d="M4.0245614,5.8 L2.21403509,4 C2.06315789,3.85 1.9122807,3.775 1.68596491,3.85 C1.53508772,3.925 1.38421053,4 1.30877193,4.225 C0.478947368,6.325 1.00701754,8.725 2.59122807,10.3 C2.96842105,10.675 3.42105263,10.975 3.87368421,11.2 C4.40175439,19.375 4.47719298,27.925 4.25087719,36.625 C4.25087719,38.125 5.45789474,39.325 6.96666667,39.325 C8.4754386,39.325 9.68245614,38.125 9.68245614,36.55 C9.38070175,27.85 9.53157895,19.225 10.0596491,11.05 L10.0596491,10.825 C10.2859649,10.675 10.5122807,10.45 10.7385965,10.225 C11.7947368,9.175 12.3982456,7.75 12.3982456,6.175 C12.3982456,4.675 11.7947368,3.25 10.7385965,2.125 C9.15438596,0.55 6.81578947,0.025 4.77894737,0.775 C4.62807018,0.85 4.47719298,1 4.40175439,1.15 C4.32631579,1.3 4.40175439,1.525 4.55263158,1.675 L6.36315789,3.475 L6.2122807,5.575 L4.0245614,5.8 Z" id="path-5"></path>
    </defs>
    <g id="Home" stroke="none" stroke-width="1" fill="none" fill-rule="evenodd">
        <g id="Artboard-Copy-44" transform="translate(-818.000000, -2337.000000)">
            <g id="Industry-Leading-Module" transform="translate(234.000000, 1831.000000)">
                <g id="Group-9" transform="translate(584.000000, 506.000000)">
                    <g id="Rectangle-12" transform="translate(1.000000, 18.000000)">
                        <mask id="mask-2" fill="white">
                            <use xlink:href="#path-1"></use>
                        </mask>
                        <use id="Mask" fill="#FFFFFF" xlink:href="#path-1"></use>
                        <rect fill="#E9E9E9" mask="url(#mask-2)" x="-2" y="-13" width="31" height="91"></rect>
                    </g>
                    <g id="Rectangle-13" transform="translate(53.000000, 0.000000)">
                        <mask id="mask-4" fill="white">
                            <use xlink:href="#path-3"></use>
                        </mask>
                        <use id="Mask" fill="#FFFFFF" xlink:href="#path-3"></use>
                        <rect fill="#E9E9E9" mask="url(#mask-4)" x="-7" y="-2" width="23" height="40"></rect>
                    </g>
                    <g id="Rectangle-14" transform="translate(69.000000, 47.000000)">
                        <mask id="mask-6" fill="white">
                            <use xlink:href="#path-5"></use>
                        </mask>
                        <use id="Mask" fill="#FFFFFF" xlink:href="#path-5"></use>
                        <rect fill="#E9E9E9" mask="url(#mask-6)" x="-1" y="-3" width="8" height="49"></rect>
                    </g>
                    <path d="M59.9736842,85.725 L59.9736842,85.65 C59.2192982,83.1 58.4649123,80.55 57.6350877,78.15 C55.8245614,72.3 50.4684211,69 43.6789474,69.525 L42.6982456,69.6 C41.7929825,69.675 40.9631579,69.75 39.9824561,69.75 C39.5298246,68.775 37.945614,65.025 39.9824561,59.775 C40.1333333,59.625 40.2842105,59.475 40.4350877,59.325 L49.4122807,59.325 C49.4877193,59.325 49.5631579,59.325 49.6385965,59.25 L49.7140351,59.25 C49.7894737,59.25 49.7894737,59.175 49.7894737,59.175 C49.7894737,59.175 49.7894737,59.175 49.8649123,59.1 C49.8649123,59.1 49.9403509,59.025 49.9403509,58.95 C49.9403509,58.95 49.9403509,58.95 49.9403509,58.875 L49.9403509,58.875 L50.9210526,56.175 C51.977193,56.025 52.9578947,55.575 53.8631579,54.975 C55.522807,53.85 56.5789474,52.2 56.9561404,50.25 C57.3333333,48.3 56.8807018,46.35 55.7491228,44.775 C54.6929825,43.275 53.2596491,42.3 51.5245614,41.85 C51.6,41.1 51.6754386,40.35 51.6754386,39.525 C51.6754386,27.825 42.0947368,18.3 30.3263158,18.3 C18.5578947,18.3 8.90175439,27.9 8.90175439,39.6 C8.90175439,40.425 8.97719298,41.175 9.05263158,41.925 C7.31754386,42.375 5.80877193,43.35 4.75263158,44.85 C3.62105263,46.425 3.16842105,48.45 3.54561404,50.325 C4.2245614,53.85 7.31754386,56.325 10.7877193,56.325 C11.2403509,56.325 11.6929825,56.25 12.145614,56.175 C12.2964912,56.175 12.4473684,56.1 12.522807,55.95 C12.5982456,55.8 12.6736842,55.65 12.5982456,55.5 L10.1842105,42.225 L10.1842105,42.15 C10.0333333,41.325 9.95789474,40.425 9.95789474,39.45 C9.95789474,28.5 19.0859649,19.5 30.2508772,19.5 C41.4157895,19.5 50.4684211,28.5 50.4684211,39.675 C50.4684211,40.575 50.3929825,41.475 50.3175439,42.3 C50.3175439,42.3 50.3175439,42.3 50.3175439,42.375 L47.9035088,55.725 C47.9035088,55.875 47.9035088,56.025 47.9789474,56.175 C48.054386,56.325 48.2052632,56.4 48.3561404,56.4 C48.8087719,56.475 49.2614035,56.55 49.7140351,56.55 L49.7140351,56.55 L49.0350877,58.35 L41.2649123,58.35 C42.4719298,56.775 43.4526316,54.9 44.1315789,52.8 L44.2070175,52.8 C45.8666667,52.8 47.0736842,50.4 47.0736842,47.1 C47.0736842,44.4 46.2438596,42.225 44.9614035,41.625 L44.9614035,41.475 C45.1877193,39.675 45.4140351,37.875 45.5649123,36 C46.0929825,28.125 43.9807018,27.15 39.9824561,25.875 C39.6807018,25.8 39.3789474,25.65 39.0017544,25.575 C35.7578947,24.525 32.3631579,24.3 30.1754386,24.3 C27.9122807,24.3 24.5929825,24.525 21.3491228,25.575 C21.0473684,25.65 20.6701754,25.8 20.3684211,25.875 C16.3701754,27.075 14.2578947,28.125 14.7859649,36 C14.9368421,37.8 15.1631579,39.675 15.3894737,41.4 L15.3894737,41.55 C14.1070175,42.15 13.277193,44.325 13.277193,47.025 C13.277193,50.325 14.6350877,52.8 16.2947368,52.65 C17.2,55.425 18.7087719,57.825 20.4438596,59.7 C22.4052632,64.95 20.8964912,68.775 20.3684211,69.75 C19.3877193,69.675 18.5578947,69.675 17.6526316,69.6 L16.822807,69.525 C10.0333333,69 4.67719298,72.3 2.79122807,78.075 C2.03684211,80.55 1.20701754,83.025 0.452631579,85.575 L0.452631579,85.65 L0.452631579,85.725 L0.452631579,85.725 L0.452631579,85.875 L0.452631579,85.95 L0.528070175,86.025 L0.603508772,86.1 L0.678947368,86.175 L0.754385965,86.25 L0.754385965,86.25 L0.905263158,86.25 L59.3701754,86.25 L59.5210526,86.25 L59.5210526,86.25 C59.5210526,86.25 59.5964912,86.25 59.5964912,86.175 C59.5964912,86.175 59.6719298,86.175 59.6719298,86.1 L59.7473684,86.025 L59.822807,85.95 L59.822807,85.875 L59.822807,85.725 L59.822807,85.725 L59.9736842,85.725 Z M4.67719298,50.175 C4.3754386,48.525 4.75263158,46.875 5.65789474,45.525 C6.4877193,44.325 7.77017544,43.425 9.12807018,43.05 L11.3912281,55.275 C8.22280702,55.575 5.20526316,53.4 4.67719298,50.175 Z M49.0350877,55.275 L51.2982456,43.05 C52.7315789,43.425 53.9385965,44.325 54.7684211,45.525 C55.7491228,46.875 56.0508772,48.525 55.7491228,50.175 C55.4473684,51.825 54.5421053,53.25 53.1842105,54.225 C51.977193,55.05 50.4684211,55.425 49.0350877,55.275 Z M20.745614,26.925 C21.0473684,26.85 21.4245614,26.7 21.7263158,26.625 C24.2157895,25.8 27.1578947,25.425 30.2508772,25.425 C33.3438596,25.425 36.2859649,25.875 38.7754386,26.625 C39.077193,26.7 39.454386,26.85 39.7561404,26.925 C43.3017544,27.975 45.0368421,28.575 44.5842105,35.925 C44.5087719,36.825 44.4333333,37.725 44.3578947,38.55 C43.754386,36.75 42.7736842,34.875 41.1140351,34.725 C38.4736842,34.425 31.3070175,34.5 30.9298246,34.5 C30.9298246,34.5 27.8368421,34.725 24.5929825,31.5 C24.4421053,31.425 24.3666667,31.35 24.1403509,31.35 C23.9894737,31.35 23.8385965,31.425 23.7631579,31.575 C23.2350877,32.25 22.7070175,33.6 23.3859649,34.95 C21.6508772,34.65 18.9350877,34.425 17.954386,35.625 C17.2754386,36.375 16.7473684,37.8 16.2947368,39.075 C16.1438596,38.025 16.0684211,36.975 15.9929825,35.925 C15.4649123,28.5 17.2,27.975 20.745614,26.925 Z M16.8982456,51.525 C16.822807,51.525 16.7473684,51.45 16.6719298,51.45 C16.5964912,51.45 16.5210526,51.45 16.445614,51.525 C16.3701754,51.6 16.2947368,51.6 16.1438596,51.6 C15.3140351,51.6 14.3333333,49.65 14.3333333,47.025 C14.3333333,44.625 15.0877193,42.9 15.9175439,42.525 L15.9175439,42.525 C16.1438596,42.525 16.3701754,42.375 16.445614,42.075 C16.7473684,40.875 17.6526316,37.425 18.7087719,36.3 C19.5385965,35.4 22.7824561,35.775 24.5929825,36.3 C24.8192982,36.375 25.1210526,36.225 25.1964912,36 C25.3473684,35.775 25.2719298,35.475 25.045614,35.325 C23.8385965,34.425 23.9894737,33.375 24.2157895,32.775 C27.6859649,35.775 30.7789474,35.55 30.854386,35.55 C30.9298246,35.55 38.2473684,35.475 40.8877193,35.775 C42.6982456,36 43.6789474,40.5 43.9052632,42.075 C43.9052632,42.375 44.2070175,42.525 44.4333333,42.525 C45.1877193,42.825 46.0175439,44.625 46.0175439,47.025 C46.0175439,49.65 45.0368421,51.6 44.2070175,51.6 C44.1315789,51.6 44.0561404,51.6 43.9052632,51.525 C43.754386,51.45 43.6035088,51.45 43.4526316,51.525 C43.3017544,51.6 43.2263158,51.675 43.1508772,51.825 C42.3964912,54.3 41.1894737,56.475 39.7561404,58.2 L33.7210526,58.2 C33.4947368,57.6 32.9666667,57.075 32.2122807,57.075 L27.9122807,57.075 C27.0824561,57.075 26.3280702,57.75 26.3280702,58.65 L26.3280702,58.8 C26.3280702,59.625 27.0070175,60.375 27.9122807,60.375 L32.2122807,60.375 C32.8912281,60.375 33.4947368,59.925 33.7210526,59.25 L38.7,59.25 C36.2859649,61.65 33.2684211,63 30.1,63 C26.7807018,63 23.6877193,61.575 21.2736842,59.1 L21.2736842,59.1 C21.1982456,58.95 21.122807,58.875 20.9719298,58.8 C19.3122807,57 17.8789474,54.6 17.0491228,51.825 C17.1245614,51.675 16.9736842,51.6 16.8982456,51.525 Z M32.8157895,58.875 C32.8157895,59.1 32.5894737,59.325 32.3631579,59.325 L28.0631579,59.325 C27.8368421,59.325 27.6105263,59.1 27.6105263,58.875 L27.6105263,58.725 C27.6105263,58.5 27.8368421,58.275 28.0631579,58.275 L32.3631579,58.275 C32.5894737,58.275 32.8157895,58.5 32.8157895,58.725 L32.8157895,58.875 Z M22.0280702,61.2 C24.4421053,63.075 27.2333333,64.2 30.2508772,64.2 C33.1929825,64.2 35.9842105,63.15 38.3982456,61.275 C37.0403509,66.6 38.9263158,70.05 39.2280702,70.575 C39.2280702,70.65 39.3035088,70.725 39.3789474,70.725 C38.0964912,72.825 36.5877193,74.775 35.0035088,76.5 L33.7964912,71.55 L35.3807018,68.85 C35.4561404,68.7 35.4561404,68.475 35.3807018,68.325 C35.3052632,68.175 35.0789474,68.025 34.9280702,68.025 L25.6491228,68.025 C25.422807,68.025 25.2719298,68.1 25.1964912,68.325 C25.1210526,68.475 25.1210526,68.7 25.1964912,68.85 L26.8561404,71.625 L25.6491228,76.575 C24.2157895,75.075 22.6315789,73.125 21.122807,70.65 L21.1982456,70.575 C21.4245614,70.05 23.3105263,66.525 22.0280702,61.2 Z M30.1754386,80.55 C29.5719298,80.175 28.2140351,79.2 26.4035088,77.475 C26.4789474,77.4 26.4789474,77.325 26.4789474,77.25 L27.7614035,72 L32.5140351,72 L33.7964912,77.25 C33.7964912,77.325 33.8719298,77.4 33.8719298,77.4 C32.2122807,79.2 30.7789474,80.175 30.1754386,80.55 Z M32.7403509,70.875 L27.6859649,70.875 L26.6298246,69.075 L33.8719298,69.075 L32.7403509,70.875 Z M3.84736842,78.45 C5.50701754,73.125 10.4105263,70.2 16.7473684,70.65 L17.577193,70.725 C18.4070175,70.8 19.1614035,70.8 19.9912281,70.875 C24.5929825,78.6 29.7982456,81.6 30.0245614,81.675 C30.1,81.75 30.1754386,81.75 30.3263158,81.75 L30.3263158,81.75 L30.3263158,81.75 C30.4017544,81.75 30.477193,81.75 30.6280702,81.675 L30.6280702,81.675 L30.6280702,81.675 C30.7035088,81.6 32.5140351,80.55 35.0035088,78.15 C37.1157895,76.05 39.0017544,73.575 40.6614035,70.875 C41.4912281,70.8 42.1701754,70.8 42.9245614,70.725 L43.9052632,70.65 C50.1666667,70.2 55.0701754,73.125 56.7298246,78.45 C57.4087719,80.625 58.1631579,82.95 58.8421053,85.275 L1.73508772,85.275 C2.41403509,82.95 3.09298246,80.625 3.84736842,78.45 Z" id="Shape" stroke="#4D4D4D" stroke-width="0.5" fill="#4D4D4D" fill-rule="nonzero"></path>
                    <path d="M73.0245614,52.8 L71.2140351,51 C71.0631579,50.85 70.9122807,50.775 70.6859649,50.85 C70.5350877,50.925 70.3842105,51 70.3087719,51.225 C69.4789474,53.325 70.0070175,55.725 71.5912281,57.3 C71.9684211,57.675 72.4210526,57.975 72.8736842,58.2 C73.4017544,66.375 73.477193,74.925 73.2508772,83.625 C73.2508772,85.125 74.4578947,86.325 75.9666667,86.325 C77.4754386,86.325 78.6824561,85.125 78.6824561,83.55 C78.3807018,74.85 78.5315789,66.225 79.0596491,58.05 L79.0596491,57.825 C79.2859649,57.675 79.5122807,57.45 79.7385965,57.225 C80.7947368,56.175 81.3982456,54.75 81.3982456,53.175 C81.3982456,51.675 80.7947368,50.25 79.7385965,49.125 C78.154386,47.55 75.8157895,47.025 73.7789474,47.775 C73.6280702,47.85 73.477193,48 73.4017544,48.15 C73.3263158,48.3 73.4017544,48.525 73.5526316,48.675 L75.3631579,50.475 L75.2122807,52.575 L73.0245614,52.8 Z M77.5508772,83.625 C77.5508772,84.525 76.7964912,85.2 75.9666667,85.2 C75.0614035,85.2 74.3824561,84.45 74.3824561,83.625 C74.6842105,75.15 74.5333333,66.75 74.0052632,58.65 C74.5333333,58.8 75.1368421,58.875 75.6649123,58.875 C76.4192982,58.875 77.1736842,58.725 77.9280702,58.425 C77.4,66.6 77.2491228,75.075 77.5508772,83.625 Z M76.2684211,49.95 L74.9859649,48.675 C76.4192982,48.45 77.8526316,48.975 78.9087719,49.95 C79.8140351,50.85 80.2666667,51.975 80.2666667,53.175 C80.2666667,54.375 79.8140351,55.575 78.9087719,56.4 C77.0982456,58.2 74.1561404,58.2 72.345614,56.4 C71.2894737,55.35 70.8368421,53.775 71.0631579,52.35 L72.4210526,53.7 C72.5719298,53.85 72.722807,53.85 72.8736842,53.85 L75.6649123,53.625 C75.9666667,53.625 76.1175439,53.4 76.1929825,53.1 L76.4192982,50.325 C76.4192982,50.25 76.3438596,50.1 76.2684211,49.95 Z" id="Shape" stroke="#4D4D4D" stroke-width="0.4" fill="#4D4D4D" fill-rule="nonzero"></path>
                    <path d="M84.8684211,14.4 L82.0017544,14.1 C81.7,12.3 80.945614,10.5 79.8894737,9 L81.7,6.825 C81.8508772,6.6 81.8508772,6.3 81.7,6.075 L79.6631579,4.05 C79.4368421,3.825 79.1350877,3.825 78.9087719,4.05 L76.7210526,5.85 C75.2122807,4.8 73.4017544,4.05 71.5912281,3.75 L71.2894737,0.9 C71.2894737,0.6 70.9877193,0.375 70.7614035,0.375 L67.8947368,0.375 C67.5929825,0.375 67.3666667,0.6 67.3666667,0.9 L67.0649123,3.75 C65.1035088,4.05 63.3684211,4.725 61.8596491,5.85 L59.5964912,4.05 C59.3701754,3.9 59.0684211,3.9 58.8421053,4.05 L56.8052632,6.075 C56.5789474,6.3 56.5789474,6.6 56.8052632,6.825 L58.6157895,9 C57.5596491,10.5 56.8052632,12.3 56.5035088,14.1 L53.6368421,14.4 C53.3350877,14.4 53.1087719,14.7 53.1087719,14.925 L53.1087719,17.775 C53.1087719,18.075 53.3350877,18.3 53.6368421,18.3 L56.5035088,18.6 C56.8052632,20.4 57.5596491,22.2 58.6157895,23.7 L56.8052632,25.875 C56.654386,26.1 56.654386,26.4 56.8052632,26.625 L58.8421053,28.65 C59.0684211,28.875 59.3701754,28.875 59.5964912,28.65 L61.7842105,26.85 C63.2929825,27.9 65.1035088,28.65 66.9140351,28.95 L67.2157895,31.8 C67.2157895,32.1 67.5175439,32.325 67.7438596,32.325 L70.6105263,32.325 C70.9122807,32.325 71.1385965,32.1 71.1385965,31.8 L71.4403509,28.95 C73.2508772,28.65 75.0614035,27.9 76.5701754,26.85 L78.7578947,28.65 C78.9842105,28.8 79.2859649,28.8 79.5122807,28.65 L81.5491228,26.625 C81.7754386,26.4 81.7754386,26.1 81.5491228,25.875 L79.7385965,23.7 C80.7947368,22.2 81.5491228,20.4 81.8508772,18.6 L84.7175439,18.3 C85.0192982,18.3 85.245614,18 85.245614,17.775 L85.245614,15 C85.3210526,14.7 85.1701754,14.475 84.8684211,14.4 Z M84.2649123,17.325 L81.4736842,17.625 C81.2473684,17.625 81.0210526,17.85 80.945614,18.075 C80.6438596,20.025 79.8894737,21.9 78.6824561,23.475 C78.5315789,23.7 78.5315789,23.925 78.6824561,24.15 L80.4175439,26.325 L79.1350877,27.6 L76.9473684,25.875 C76.7210526,25.725 76.4947368,25.725 76.2684211,25.875 C74.6842105,27.075 72.7982456,27.825 70.8368421,28.125 C70.6105263,28.125 70.3842105,28.35 70.3842105,28.65 L70.0824561,31.425 L68.2719298,31.425 L68.045614,28.5 C68.045614,28.275 67.8192982,28.05 67.5929825,27.975 C65.6315789,27.675 63.745614,26.925 62.1614035,25.725 C61.9350877,25.575 61.7087719,25.575 61.4824561,25.725 L59.2947368,27.45 L58.0122807,26.25 L59.7473684,24.075 C59.8982456,23.85 59.8982456,23.625 59.7473684,23.4 C58.5403509,21.825 57.7859649,19.95 57.4842105,18 C57.4842105,17.775 57.2578947,17.55 56.9561404,17.55 L54.1649123,17.25 L54.1649123,15.45 L56.9561404,15.15 C57.1824561,15.15 57.4087719,14.925 57.4842105,14.7 C57.7859649,12.75 58.5403509,10.875 59.7473684,9.3 C59.8982456,9.075 59.8982456,8.85 59.7473684,8.625 L58.0122807,6.45 L59.2947368,5.175 L61.4824561,6.9 C61.7087719,7.05 61.9350877,7.05 62.1614035,6.9 C63.745614,5.7 65.6315789,4.95 67.5929825,4.65 C67.8192982,4.65 68.045614,4.425 68.045614,4.125 L68.3473684,1.5 L70.1578947,1.5 L70.4596491,4.275 C70.4596491,4.5 70.6859649,4.725 70.9122807,4.8 C72.8736842,5.1 74.7596491,5.85 76.3438596,7.05 C76.5701754,7.2 76.7964912,7.2 77.022807,7.05 L79.2105263,5.325 L80.4929825,6.6 L78.7578947,8.775 C78.6070175,9 78.6070175,9.225 78.7578947,9.45 C79.9649123,11.025 80.7192982,12.9 81.0210526,14.85 C81.0210526,15.075 81.2473684,15.3 81.5491228,15.3 L84.3403509,15.6 L84.3403509,17.325 L84.2649123,17.325 Z" id="Shape" stroke="#4D4D4D" stroke-width="0.4" fill="#4D4D4D" fill-rule="nonzero"></path>
                    <path d="M69.2526316,7.2 C64.122807,7.2 59.9736842,11.325 59.9736842,16.425 C59.9736842,21.525 64.122807,25.65 69.2526316,25.65 C74.3824561,25.65 78.5315789,21.525 78.5315789,16.425 C78.5315789,11.325 74.3824561,7.2 69.2526316,7.2 Z M69.2526316,24.525 C64.7263158,24.525 61.1052632,20.925 61.1052632,16.425 C61.1052632,11.925 64.7263158,8.325 69.2526316,8.325 C73.7789474,8.325 77.4,11.925 77.4,16.425 C77.4,20.85 73.7035088,24.525 69.2526316,24.525 Z" id="Shape" fill="#4D4D4D" fill-rule="nonzero"></path>
                </g>
            </g>
        </g>
    </g>
</svg>