<?xml version="1.0" encoding="UTF-8" standalone="no"?>
<svg width="107px" height="78px" viewBox="0 0 107 78" version="1.1" xmlns="http://www.w3.org/2000/svg" xmlns:xlink="http://www.w3.org/1999/xlink">
    <!-- Generator: Sketch 42 (36781) - http://www.bohemiancoding.com/sketch -->
    <title>Group 3</title>
    <desc>Created with Sketch.</desc>
    <defs>
        <polygon id="path-1" points="2 74.985481 2 62.4313933 22.0717949 43.0771747 29.4666667 50.4003925 50.5948718 30 80.7025641 59.2928713 89.6820513 50.4003925 105 65.5699152 105 75"></polygon>
        <filter x="-50%" y="-50%" width="200%" height="200%" filterUnits="objectBoundingBox" id="filter-2">
            <feOffset dx="70" dy="0" in="SourceAlpha" result="shadowOffsetInner1"></feOffset>
            <feComposite in="shadowOffsetInner1" in2="SourceAlpha" operator="arithmetic" k2="-1" k3="1" result="shadowInnerInner1"></feComposite>
            <feColorMatrix values="0 0 0 0 0.913903061   0 0 0 0 0.913903061   0 0 0 0 0.913903061  0 0 0 1 0" type="matrix" in="shadowInnerInner1"></feColorMatrix>
        </filter>
    </defs>
    <g id="Home" stroke="none" stroke-width="1" fill="none" fill-rule="evenodd">
        <g id="Artboard-Copy-44" transform="translate(-511.000000, -2055.000000)">
            <g id="Industry-Leading-Module" transform="translate(234.000000, 1831.000000)">
                <g id="Group-3" transform="translate(277.000000, 224.000000)">
                    <g id="Path-3">
                        <use fill="#FFFFFF" fill-rule="evenodd" xlink:href="#path-1"></use>
                        <use fill="black" fill-opacity="1" filter="url(#filter-2)" xlink:href="#path-1"></use>
                    </g>
                    <polygon id="Path-4" fill="#FFFFFF" points="22 30 22 22.5 24.5925926 21 28.7407407 22 32.3703704 23 34.962963 23.5 33.9259259 26 36 30 34.4444444 31 30.8148148 30.5 26.1481481 29.5"></polygon>
                    <polygon id="Path-4" fill="#FFFFFF" points="50 12.6 50 2.1 53.5185185 0 59.1481481 1.4 64.0740741 2.8 67.5925926 3.5 66.1851852 7 69 12.6 66.8888889 14 61.962963 13.3 55.6296296 11.9"></polygon>
                    <polygon id="Path-4" fill="#FFFFFF" points="90 37 90 29.5 92.5925926 28 96.7407407 29 100.37037 30 102.962963 30.5 101.925926 33 104 37 102.444444 38 98.8148148 37.5 94.1481481 36.5"></polygon>
                    <path d="M53.5541207,38.9955887 C53.2047755,38.6477289 52.6225334,38.6477289 52.3896366,38.9955887 C52.1567398,39.3434485 52.0402914,39.9232149 52.3896366,40.1551214 L62.9864423,50.706869 C63.1028907,50.8228222 63.3357875,50.9387755 63.5686843,50.9387755 C63.8015812,50.9387755 64.034478,50.8228222 64.1509264,50.706869 C64.5002716,50.3590092 64.5002716,49.7792428 64.1509264,49.5473363 L53.5541207,38.9955887 Z" id="Shape" fill="#4D4D4D" fill-rule="nonzero"></path>
                    <path d="M14.5473541,54.9143353 L6.64938942,62.8106197 C6.3009498,63.1589852 6.3009498,63.7395943 6.64938942,63.971838 C6.76553596,64.0879598 6.99782904,64.2040816 7.23012212,64.2040816 C7.4624152,64.2040816 7.69470828,64.0879598 7.81085482,63.971838 L15.7088195,56.0755536 C16.0572592,55.7271881 16.0572592,55.146579 15.7088195,54.9143353 C15.4765265,54.5659699 14.8957938,54.5659699 14.5473541,54.9143353 Z" id="Shape" fill="#4D4D4D" fill-rule="nonzero"></path>
                    <path d="M91.273116,50.8167433 L91.273116,38.2000419 C93.4462854,37.2824636 95.7338322,37.85595 98.0213789,38.4294364 C99.6226617,38.8882256 101.109567,39.2323174 102.825227,39.2323174 C104.083378,39.2323174 105.227151,39.0029229 106.485302,38.3147392 C106.714057,38.2000419 106.828434,37.9706473 106.942811,37.7412527 C106.942811,37.5118582 106.942811,37.1677663 106.714057,37.053069 C105.684661,35.9060962 104.197755,34.3003342 103.511491,33.3827559 C104.197755,32.6945722 105.455906,31.3182047 106.828434,29.5977455 C107.057189,29.2536536 107.057189,28.7948645 106.828434,28.5654699 C106.599679,28.221378 106.14217,28.221378 105.799038,28.3360753 C103.511491,29.5977455 101.109567,28.9095617 98.5932656,28.221378 C95.8482095,27.5331943 93.1031534,26.7303133 90.1293426,28.3360753 C89.9005879,28.4507726 89.6718332,28.7948645 89.6718332,29.1389563 L89.6718332,29.3683509 L89.6718332,37.6265554 L89.6718332,50.4726514 L80.7504009,59.4190397 L51.1266702,29.82714 L51.1266702,13.5401255 C54.100481,12.2784553 57.0742918,12.966639 60.16248,13.76952 C62.1068947,14.3430065 64.1656868,14.8017956 66.2244789,14.8017956 C67.7113843,14.8017956 69.312667,14.4577037 70.9139498,13.6548227 C71.1427044,13.5401255 71.2570818,13.3107309 71.3714591,13.0813363 C71.3714591,12.8519417 71.3714591,12.5078499 71.1427044,12.3931526 C69.655799,10.7873906 67.7113843,8.60814218 66.7963656,7.46116932 C67.7113843,6.54359104 69.4270444,4.70843447 71.1427044,2.41448875 C71.3714591,2.0703969 71.3714591,1.61160775 71.1427044,1.38221318 C70.9139498,1.03812132 70.4564404,1.03812132 70.1133084,1.15281861 C67.0251203,2.75858061 63.9369321,1.95569961 60.6199893,1.03812132 C57.1886692,0.120543039 53.5285943,-0.797035246 49.8685195,1.15281861 C49.6397648,1.2675159 49.4110102,1.61160775 49.4110102,1.95569961 L49.4110102,2.29979147 L49.4110102,12.966639 L49.4110102,29.82714 L29.2805986,50.1285596 L22.303581,43.1320252 L22.303581,30.630021 C24.4767504,29.7124427 26.7642972,30.2859292 29.0518439,30.8594156 C30.6531267,31.3182047 32.1400321,31.6622966 33.8556921,31.6622966 C35.1138429,31.6622966 36.2576162,31.432902 37.515767,30.7447183 C37.7445216,30.630021 37.858899,30.4006265 37.9732763,30.1712319 C37.9732763,29.9418373 37.9732763,29.5977455 37.7445216,29.4830482 C36.7151256,28.3360753 35.2282202,26.7303133 34.5419562,25.812735 C35.2282202,25.1245513 36.4863709,23.7481839 37.858899,22.0277246 C38.0876537,21.6836327 38.0876537,21.2248436 37.858899,20.995449 C37.6301443,20.6513572 37.172635,20.6513572 36.8295029,20.7660545 C34.5419562,22.0277246 32.1400321,21.3395409 29.6237306,20.6513572 C26.8786745,19.9631735 24.1336184,19.1602925 21.1598076,20.7660545 C20.9310529,20.8807517 20.7022982,21.2248436 20.7022982,21.5689355 L20.7022982,21.79833 L20.7022982,30.0565346 L20.7022982,43.0173279 C18.6435061,44.8524844 7.20577231,55.8634239 1.83003741,61.7129854 C0.68626403,62.9746556 0,64.6951149 0,66.4155741 L0,76.0501461 C0,77.197119 0.915018707,78 1.94441475,78 L104.998397,78 C106.14217,78 106.942811,77.0824217 106.942811,76.0501461 L106.942811,69.5124009 C106.942811,67.6772443 106.256547,65.8420877 104.884019,64.5804176 L91.273116,50.8167433 Z M98.0213789,29.9418373 C99.8514164,30.4006265 101.681454,30.8594156 103.625869,30.7447183 C102.482095,32.0063885 101.681454,32.8092695 101.681454,32.8092695 C101.338322,33.1533613 101.338322,33.6121505 101.681454,33.9562423 C101.681454,33.9562423 103.282737,35.7913989 104.655265,37.3971609 C102.71085,37.9706473 100.652058,37.5118582 98.4788883,36.9383717 C96.8776056,36.4795826 95.3907002,36.1354907 93.6750401,36.1354907 C92.8743987,36.1354907 92.0737573,36.250188 91.1587386,36.4795826 L91.1587386,29.7124427 C93.4462854,28.6801672 95.6194548,29.2536536 98.0213789,29.9418373 Z M60.2768573,2.75858061 C62.7931587,3.44676432 65.4238375,4.13494804 68.0545163,3.67615889 C66.4532336,5.62601275 65.0807055,6.77298561 65.0807055,6.88768289 C64.7375735,7.23177475 64.7375735,7.69056389 65.0807055,8.03465575 C65.0807055,8.03465575 67.3682523,10.6726933 69.1982897,12.6225472 C66.4532336,13.6548227 63.5938001,12.8519417 60.7343666,12.0490607 C58.7899519,11.4755743 56.7311598,11.0167852 54.6723677,11.0167852 C53.5285943,11.0167852 52.384821,11.1314825 51.2410476,11.5902716 L51.2410476,2.41448875 C54.100481,1.15281861 57.0742918,1.95569961 60.2768573,2.75858061 Z M29.0518439,22.3718165 C30.8818813,22.8306056 32.7119188,23.2893947 34.6563335,23.1746975 C33.5125601,24.4363676 32.7119188,25.2392486 32.7119188,25.2392486 C32.3687867,25.5833405 32.3687867,26.0421296 32.7119188,26.3862215 C32.7119188,26.3862215 34.3132015,28.221378 35.6857296,29.82714 C33.7413148,30.4006265 31.6825227,29.9418373 29.5093533,29.3683509 C27.9080706,28.9095617 26.4211652,28.5654699 24.7055051,28.5654699 C23.9048637,28.5654699 23.1042223,28.6801672 22.1892036,28.9095617 L22.1892036,22.1424219 C24.4767504,21.2248436 26.6499198,21.79833 29.0518439,22.3718165 Z M105.341529,76.0501461 C105.341529,76.1648434 105.227151,76.394238 104.998397,76.394238 L1.94441475,76.394238 C1.83003741,76.394238 1.60128274,76.2795407 1.60128274,76.0501461 L1.60128274,66.4155741 C1.60128274,65.0392067 2.05879209,63.8922339 2.9738108,62.8599583 C8.12079102,57.2397913 18.7578835,47.1464302 21.3885623,44.6230899 L32.7119188,55.9781212 C33.0550508,56.322213 33.6269375,56.322213 33.8556921,55.9781212 C34.0844468,55.6340293 34.1988242,55.0605429 33.8556921,54.8311483 L30.424372,51.3902297 L50.3260289,31.432902 L83.838589,65.0392067 C83.9529663,65.153904 84.181721,65.2686013 84.4104757,65.2686013 C84.6392304,65.2686013 84.867985,65.153904 84.9823624,65.0392067 C85.3254944,64.6951149 85.3254944,64.1216284 84.9823624,63.8922339 L81.7797969,60.6807099 L90.1293426,52.307808 L103.740246,65.956785 C104.769642,66.9890606 105.227151,68.2507307 105.227151,69.7417954 L105.341529,76.0501461 L105.341529,76.0501461 Z" id="Shape" fill="#4D4D4D" fill-rule="nonzero"></path>
                </g>
            </g>
        </g>
    </g>
</svg>