<?xml version="1.0" encoding="UTF-8" standalone="no"?>
<svg width="69px" height="91px" viewBox="0 0 69 91" version="1.1" xmlns="http://www.w3.org/2000/svg" xmlns:xlink="http://www.w3.org/1999/xlink">
    <!-- Generator: Sketch 42 (36781) - http://www.bohemiancoding.com/sketch -->
    <title>Group 7</title>
    <desc>Created with Sketch.</desc>
    <defs>
        <rect id="path-1" x="0" y="0" width="69" height="91"></rect>
    </defs>
    <g id="Home" stroke="none" stroke-width="1" fill="none" fill-rule="evenodd">
        <g id="Artboard-Copy-44" transform="translate(-529.000000, -2335.000000)">
            <g id="Industry-Leading-Module" transform="translate(234.000000, 1831.000000)">
                <g id="Group-7" transform="translate(295.000000, 504.000000)">
                    <g id="Rectangle-11">
                        <mask id="mask-2" fill="white">
                            <use xlink:href="#path-1"></use>
                        </mask>
                        <use id="Mask" fill="#FFFFFF" xlink:href="#path-1"></use>
                        <rect fill="#E9E9E9" mask="url(#mask-2)" x="-8" y="-12" width="43" height="141"></rect>
                    </g>
                    <path d="M0,3.99807366 C0,1.78999855 1.79250151,0 4.00797464,0 L64.9920254,0 C67.2055686,0 69,1.79730375 69,3.99807366 L69,87.0019263 C69,89.2100015 67.2074985,91 64.9920254,91 L4.00797464,91 C1.79443137,91 0,89.2026962 0,87.0019263 L0,3.99807366 Z M2.76,4.73927053 L2.76,86.2607295 C2.76,87.3672235 3.65752365,88.27 4.76467518,88.27 L64.2353248,88.27 C65.3426268,88.27 66.24,87.3704189 66.24,86.2607295 L66.24,4.73927053 C66.24,3.63277648 65.3424764,2.73 64.2353248,2.73 L4.76467518,2.73 C3.65737324,2.73 2.76,3.62958106 2.76,4.73927053 Z M21,13 C21,12.4477153 21.4492188,12 22.0087752,12 L59.9912248,12 C60.548356,12 61,12.4438648 61,13 C61,13.5522847 60.5507812,14 59.9912248,14 L22.0087752,14 C21.451644,14 21,13.5561352 21,13 Z M20.72,62.87 C20.72,62.3177153 21.1692188,61.87 21.7287752,61.87 L59.7112248,61.87 C60.268356,61.87 60.72,62.3138648 60.72,62.87 C60.72,63.4222847 60.2707813,63.87 59.7112248,63.87 L21.7287752,63.87 C21.171644,63.87 20.72,63.4261352 20.72,62.87 Z M20.72,75.87 C20.72,75.3177153 21.1692188,74.87 21.7287752,74.87 L59.7112248,74.87 C60.268356,74.87 60.72,75.3138648 60.72,75.87 C60.72,76.4222847 60.2707813,76.87 59.7112248,76.87 L21.7287752,76.87 C21.171644,76.87 20.72,76.4261352 20.72,75.87 Z M17.1207651,71.1676527 C17.4591622,70.8793143 17.7975593,70.9754271 17.9667579,71.3598783 C18.2205557,71.6482167 18.1359564,72.1287808 17.8821586,72.3210064 L11.0296174,78.1838872 C10.9450182,78.28 10.8604189,78.28 10.6912203,78.28 C10.5220218,78.28 10.268224,78.1838872 10.1836247,77.9916616 L8.15324213,75.2043904 C7.89944431,74.916052 7.98404359,74.5316008 8.23784141,74.2432624 C8.49163923,73.954924 8.83003632,74.0510368 9.08383414,74.3393752 L10.7758196,76.6460824 L17.1207651,71.1676527 Z M17.1207651,58.1676527 C17.4591622,57.8793143 17.7975593,57.9754271 17.9667579,58.3598783 C18.2205557,58.6482167 18.1359564,59.1287808 17.8821586,59.3210064 L11.0296174,65.1838872 C10.9450182,65.28 10.8604189,65.28 10.6912203,65.28 C10.5220218,65.28 10.268224,65.1838872 10.1836247,64.9916616 L8.15324213,62.2043904 C7.89944431,61.916052 7.98404359,61.5316008 8.23784141,61.2432624 C8.49163923,60.954924 8.83003632,61.0510368 9.08383414,61.3393752 L10.7758196,63.6460824 L17.1207651,58.1676527 Z M21,26 C21,25.4477153 21.4492188,25 22.0087752,25 L59.9912248,25 C60.548356,25 61,25.4438648 61,26 C61,26.5522847 60.5507812,27 59.9912248,27 L22.0087752,27 C21.451644,27 21,26.5561352 21,26 Z M21,49 C21,48.4477153 21.4492188,48 22.0087752,48 L59.9912248,48 C60.548356,48 61,48.4438648 61,49 C61,49.5522847 60.5507812,50 59.9912248,50 L22.0087752,50 C21.451644,50 21,49.5561352 21,49 Z M21,37 C21,36.4477153 21.4492188,36 22.0087752,36 L59.9912248,36 C60.548356,36 61,36.4438648 61,37 C61,37.5522847 60.5507812,38 59.9912248,38 L22.0087752,38 C21.451644,38 21,37.5561352 21,37 Z M17.4007651,32.8676527 C17.7391622,32.5793143 18.0775593,32.6754271 18.2467579,33.0598783 C18.5005557,33.3482167 18.4159564,33.8287808 18.1621586,34.0210064 L11.3096174,39.8838872 C11.2250182,39.98 11.1404189,39.98 10.9712203,39.98 C10.8020218,39.98 10.548224,39.8838872 10.4636247,39.6916616 L8.43324213,36.9043904 C8.17944431,36.616052 8.26404359,36.2316008 8.51784141,35.9432624 C8.77163923,35.654924 9.11003632,35.7510368 9.36383414,36.0393752 L11.0558196,38.3460824 L17.4007651,32.8676527 Z M17.4007651,44.6976527 C17.7391622,44.4093143 18.0775593,44.5054271 18.2467579,44.8898783 C18.5005557,45.1782167 18.4159564,45.6587808 18.1621586,45.8510064 L11.3096174,51.7138872 C11.2250182,51.81 11.1404189,51.81 10.9712203,51.81 C10.8020218,51.81 10.548224,51.7138872 10.4636247,51.5216616 L8.43324213,48.7343904 C8.17944431,48.446052 8.26404359,48.0616008 8.51784141,47.7732624 C8.77163923,47.484924 9.11003632,47.5810368 9.36383414,47.8693752 L11.0558196,50.1760824 L17.4007651,44.6976527 Z M17.4007651,21.0376527 C17.7391622,20.7493143 18.0775593,20.8454271 18.2467579,21.2298783 C18.5005557,21.5182167 18.4159564,21.9987808 18.1621586,22.1910064 L11.3096174,28.0538872 C11.2250182,28.15 11.1404189,28.15 10.9712203,28.15 C10.8020218,28.15 10.548224,28.0538872 10.4636247,27.8616616 L8.43324213,25.0743904 C8.17944431,24.786052 8.26404359,24.4016008 8.51784141,24.1132624 C8.77163923,23.824924 9.11003632,23.9210368 9.36383414,24.2093752 L11.0558196,26.5160824 L17.4007651,21.0376527 Z M17.4007651,8.29765275 C17.7391622,8.00931434 18.0775593,8.10542714 18.2467579,8.48987835 C18.5005557,8.77821675 18.4159564,9.25878075 18.1621586,9.45100635 L11.3096174,15.3138872 C11.2250182,15.41 11.1404189,15.41 10.9712203,15.41 C10.8020218,15.41 10.548224,15.3138872 10.4636247,15.1216616 L8.43324213,12.3343904 C8.17944431,12.046052 8.26404359,11.6616008 8.51784141,11.3732624 C8.77163923,11.084924 9.11003632,11.1810368 9.36383414,11.4693752 L11.0558196,13.7760824 L17.4007651,8.29765275 Z" id="Combined-Shape" fill="#4D4D4D" fill-rule="nonzero"></path>
                </g>
            </g>
        </g>
    </g>
</svg>