<?xml version="1.0" encoding="UTF-8" standalone="no"?>
<svg width="98px" height="81px" viewBox="0 0 98 81" version="1.1" xmlns="http://www.w3.org/2000/svg" xmlns:xlink="http://www.w3.org/1999/xlink">
    <!-- Generator: Sketch 42 (36781) - http://www.bohemiancoding.com/sketch -->
    <title>Group 6</title>
    <desc>Created with Sketch.</desc>
    <defs>
        <path d="M0.626262353,43.9997907 C0.643533343,45.1044758 1.54326947,46 2.64931015,46 L54.520559,46 C56.7296919,46 58.5205479,44.2131522 58.5205479,42.0571429 L58.5205479,42.0571429 L63.7552126,42.0571429 C65.9611861,42.0571429 67.7494809,40.2698161 67.7494809,38.0661344 L67.7494809,13.1359137 L93.9909406,13.1359137 C95.1005139,13.1359137 96.0000009,12.2473702 96.0000009,11.1305356 L96.0000009,3.31966375 C96.0000009,2.21212404 95.1050624,1.31428571 93.9986116,1.31428571 L50.0013893,1.31428571 C48.8960525,1.31428571 48,2.2014037 48,3.31290769 L48,5.31152966 L42.0819666,5.31152966 C42.0819666,5.31152966 41.4246575,6.57142857 38.7945205,3.94285714 C38.0132889,3.16209051 37.3584636,1.86314062 36.8219178,1.31428571 C36.285372,0.765430806 34.7256177,0 32.8767123,0 L13.8441022,2.72208861e-17 C11.640221,1.21872058e-17 9.85362227,1.78685286 9.85362227,3.94286831 L9.85362227,3.94286831 L-7.27595761e-12,3.94286831 L0.626262353,43.9997907 Z" id="path-1"></path>
        <path d="M96.1625,47.8151347 C97.125,47.8151347 98,47.0255269 98,45.9727166 L98,36.0587529 C98,35.0936768 97.2125,34.2163349 96.1625,34.2163349 L50.05,34.2163349 C49.0875,34.2163349 48.2125,35.0059426 48.2125,36.0587529 L48.2125,38.6030445 L42.9625,38.6030445 C42.9625,38.6030445 41.5625,38.6907787 40.6875,37.6379684 C40.3375,37.1992974 39.9875,36.7606265 39.55,36.2342213 C39.025,35.5323478 38.4125,34.9182084 38.0625,34.3918033 C37.45,33.6021956 36.4875,33.0757904 35.525,33.0757904 L12.775,33.0757904 C11.025,33.0757904 9.625,34.4795375 9.625,36.2342213 L9.625,37.5502342 L3.15,37.5502342 C1.4,37.5502342 -7.10542736e-15,38.9539813 -7.10542736e-15,40.7086651 L-7.10542736e-15,78.1711651 C-7.10542736e-15,79.6626464 1.225,80.8909251 2.7125,80.8909251 L57.1375,80.8909251 C58.625,80.8909251 59.85,79.6626464 59.85,78.1711651 L59.85,76.4164813 L66.7625,76.4164813 C68.25,76.4164813 69.475,75.1882026 69.475,73.6967213 L69.475,47.8151347 L96.1625,47.8151347 Z M49.6125,36.0587529 C49.6125,35.7955504 49.875,35.5323478 50.1375,35.5323478 L96.1625,35.5323478 C96.425,35.5323478 96.6875,35.7955504 96.6875,36.0587529 L96.6875,46.0604508 C96.6875,46.3236534 96.425,46.586856 96.1625,46.586856 L59.15,46.586856 L50.05,46.586856 C49.7875,46.586856 49.525,46.3236534 49.525,46.0604508 L49.525,43.6916276 L49.525,36.0587529 L49.6125,36.0587529 Z M10.9375,36.2342213 C10.9375,35.181411 11.725,34.3918033 12.775,34.3918033 L35.7,34.3918033 C36.3125,34.3918033 36.8375,34.6550059 37.1875,35.181411 C37.625,35.7078162 38.15,36.4096897 38.675,37.1115632 C39.025,37.5502342 39.4625,37.9889052 39.8125,38.4275761 C40.8625,39.8313232 42.4375,39.9190574 42.9625,39.9190574 L43.1375,39.9190574 L48.3,39.9190574 L48.3,43.0774883 L33.5125,43.0774883 C33.425,43.0774883 32.1125,43.1652225 31.2375,42.1124122 C30.8875,41.6737412 30.5375,41.2350703 30.1,40.7963993 C29.575,40.18226 28.9625,39.4803864 28.6125,38.9539813 C28,38.1643735 27.0375,37.6379684 26.075,37.6379684 L10.9375,37.6379684 L10.9375,36.2342213 Z M58.5375,78.0834309 C58.5375,78.8730386 57.925,79.487178 57.1375,79.487178 L2.7125,79.487178 C1.925,79.487178 1.3125,78.8730386 1.3125,78.0834309 L1.3125,40.7086651 C1.3125,39.6558548 2.1,38.8662471 3.15,38.8662471 L26.075,38.8662471 C26.6875,38.8662471 27.2125,39.1294496 27.5625,39.6558548 C28,40.2699941 28.525,40.8841335 29.1375,41.586007 C29.4875,42.024678 29.925,42.4633489 30.1875,42.9020199 C31.5,44.5689696 33.5125,44.3935012 33.5125,44.3935012 L48.3,44.3935012 L48.3,46.148185 C48.3,47.1132611 49.0875,47.990603 50.1375,47.990603 L58.625,47.990603 L58.625,78.0834309 L58.5375,78.0834309 Z M68.1625,73.6967213 C68.1625,74.486329 67.55,75.1004684 66.7625,75.1004684 L59.85,75.1004684 L59.85,47.9028689 L68.1625,47.9028689 L68.1625,73.6967213 Z" id="path-3"></path>
        <filter x="-50%" y="-50%" width="200%" height="200%" filterUnits="objectBoundingBox" id="filter-4">
            <feOffset dx="0" dy="0" in="SourceAlpha" result="shadowOffsetInner1"></feOffset>
            <feComposite in="shadowOffsetInner1" in2="SourceAlpha" operator="arithmetic" k2="-1" k3="1" result="shadowInnerInner1"></feComposite>
            <feColorMatrix values="0 0 0 0 0   0 0 0 0 0   0 0 0 0 0  0 0 0 0.5 0" type="matrix" in="shadowInnerInner1"></feColorMatrix>
        </filter>
    </defs>
    <g id="Home" stroke="none" stroke-width="1" fill="none" fill-rule="evenodd">
        <g id="Artboard-Copy-44" transform="translate(-814.000000, -2055.000000)">
            <g id="Industry-Leading-Module" transform="translate(234.000000, 1831.000000)">
                <g id="Group-6" transform="translate(580.000000, 224.000000)">
                    <rect id="Rectangle-5" fill="#FFFFFF" x="49" y="18" width="49" height="12"></rect>
                    <rect id="Rectangle-5" fill="#FFFFFF" x="49" y="0" width="49" height="12"></rect>
                    <g id="Rectangle-7" transform="translate(1.000000, 34.000000)">
                        <mask id="mask-2" fill="white">
                            <use xlink:href="#path-1"></use>
                        </mask>
                        <use id="Mask" fill="#FFFFFF" xlink:href="#path-1"></use>
                        <rect fill="#E9E9E9" mask="url(#mask-2)" x="-15.1232877" y="-21.0285714" width="49.9726027" height="92"></rect>
                    </g>
                    <g id="Group-4" fill-rule="nonzero">
                        <path d="M50.05,13.5110656 L96.1625,13.5110656 C97.125,13.5110656 97.9125,12.7214578 97.9125,11.7563817 L97.9125,1.75468384 C97.9125,0.789607728 97.125,0 96.1625,0 L50.05,0 C49.0875,0 48.3,0.789607728 48.3,1.75468384 L48.3,11.7563817 C48.3,12.7214578 49.0875,13.5110656 50.05,13.5110656 Z M49.6125,1.75468384 C49.6125,1.49148126 49.875,1.22827869 50.1375,1.22827869 L96.25,1.22827869 C96.5125,1.22827869 96.775,1.49148126 96.775,1.75468384 L96.775,11.7563817 C96.775,12.0195843 96.5125,12.2827869 96.25,12.2827869 L50.05,12.2827869 C49.7875,12.2827869 49.525,12.0195843 49.525,11.7563817 L49.525,1.75468384 L49.6125,1.75468384 Z" id="Shape" fill="#4D4D4D"></path>
                        <path d="M55.7375,10.3526347 C57.75,10.3526347 59.325,8.7734192 59.325,6.75553279 C59.325,4.73764637 57.75,3.15843091 55.7375,3.15843091 C53.725,3.15843091 52.15,4.73764637 52.15,6.75553279 C52.15,8.7734192 53.8125,10.3526347 55.7375,10.3526347 Z M55.7375,4.3867096 C57.05,4.3867096 58.0125,5.43951991 58.0125,6.66779859 C58.0125,7.89607728 56.9625,8.94888759 55.7375,8.94888759 C54.425,8.94888759 53.4625,7.89607728 53.4625,6.66779859 C53.4625,5.43951991 54.5125,4.3867096 55.7375,4.3867096 Z" id="Shape" fill="#4D4D4D"></path>
                        <path d="M64.1375,10.3526347 C65.625,10.3526347 66.9375,9.12435597 66.9375,7.54514052 C66.9375,6.05365925 65.7125,4.73764637 64.1375,4.73764637 C62.65,4.73764637 61.3375,5.96592506 61.3375,7.54514052 C61.3375,9.12435597 62.5625,10.3526347 64.1375,10.3526347 Z M64.1375,6.05365925 C64.925,6.05365925 65.625,6.75553279 65.625,7.54514052 C65.625,8.33474824 64.925,9.03662178 64.1375,9.03662178 C63.35,9.03662178 62.65,8.33474824 62.65,7.54514052 C62.65,6.75553279 63.2625,6.05365925 64.1375,6.05365925 Z" id="Shape" fill="#4D4D4D"></path>
                        <path d="M71.1375,9.21209016 L92.925,9.21209016 C93.275,9.21209016 93.5375,8.94888759 93.5375,8.59795082 C93.5375,8.24701405 93.275,7.98381148 92.925,7.98381148 L71.1375,7.98381148 C70.7875,7.98381148 70.525,8.24701405 70.525,8.59795082 C70.525,8.94888759 70.7875,9.21209016 71.1375,9.21209016 Z" id="Shape" fill="#4D4D4D"></path>
                        <path d="M76.3,5.5272541 L92.925,5.5272541 C93.275,5.5272541 93.5375,5.26405152 93.5375,4.91311475 C93.5375,4.56217799 93.275,4.29897541 92.925,4.29897541 L76.3,4.29897541 C75.95,4.29897541 75.6875,4.56217799 75.6875,4.91311475 C75.6875,5.26405152 75.95,5.5272541 76.3,5.5272541 Z" id="Shape" fill="#4D4D4D"></path>
                        <path d="M50.05,30.7069672 L96.1625,30.7069672 C97.125,30.7069672 97.9125,29.9173595 97.9125,28.9522834 L97.9125,18.8628513 C97.9125,17.8977752 97.125,17.1081674 96.1625,17.1081674 L50.05,17.1081674 C49.0875,17.1081674 48.3,17.8977752 48.3,18.8628513 L48.3,28.8645492 C48.3,29.9173595 49.0875,30.7069672 50.05,30.7069672 Z M49.6125,18.8628513 C49.6125,18.5996487 49.875,18.3364461 50.1375,18.3364461 L96.25,18.3364461 C96.5125,18.3364461 96.775,18.5996487 96.775,18.8628513 L96.775,28.8645492 C96.775,29.1277518 96.5125,29.3909543 96.25,29.3909543 L50.05,29.3909543 C49.7875,29.3909543 49.525,29.1277518 49.525,28.8645492 L49.525,18.8628513 L49.6125,18.8628513 Z" id="Shape" fill="#4D4D4D"></path>
                        <path d="M55.7375,27.4608021 C57.75,27.4608021 59.325,25.8815867 59.325,23.8637002 C59.325,21.8458138 57.75,20.2665984 55.7375,20.2665984 C53.725,20.2665984 52.15,21.8458138 52.15,23.8637002 C52.15,25.8815867 53.8125,27.4608021 55.7375,27.4608021 Z M55.7375,21.5826112 C57.05,21.5826112 58.0125,22.6354215 58.0125,23.8637002 C58.0125,25.1797131 56.9625,26.1447892 55.7375,26.1447892 C54.425,26.1447892 53.4625,25.0919789 53.4625,23.8637002 C53.4625,22.6354215 54.5125,21.5826112 55.7375,21.5826112 Z" id="Shape" fill="#4D4D4D"></path>
                        <path d="M64.1375,27.4608021 C65.625,27.4608021 66.9375,26.2325234 66.9375,24.653308 C66.9375,23.1618267 65.7125,21.8458138 64.1375,21.8458138 C62.65,21.8458138 61.3375,23.0740925 61.3375,24.653308 C61.3375,26.2325234 62.5625,27.4608021 64.1375,27.4608021 Z M64.1375,23.2495609 C64.925,23.2495609 65.625,23.9514344 65.625,24.7410422 C65.625,25.5306499 64.925,26.2325234 64.1375,26.2325234 C63.35,26.2325234 62.65,25.5306499 62.65,24.7410422 C62.65,23.9514344 63.2625,23.2495609 64.1375,23.2495609 Z" id="Shape" fill="#4D4D4D"></path>
                        <path d="M71.1375,26.4079918 L92.925,26.4079918 C93.275,26.4079918 93.5375,26.1447892 93.5375,25.7938525 C93.5375,25.4429157 93.275,25.1797131 92.925,25.1797131 L71.1375,25.1797131 C70.7875,25.1797131 70.525,25.4429157 70.525,25.7938525 C70.525,26.057055 70.7875,26.4079918 71.1375,26.4079918 Z" id="Shape" fill="#4D4D4D"></path>
                        <path d="M76.3,22.7231557 L92.925,22.7231557 C93.275,22.7231557 93.5375,22.4599532 93.5375,22.1090164 C93.5375,21.7580796 93.275,21.494877 92.925,21.494877 L76.3,21.494877 C75.95,21.494877 75.6875,21.7580796 75.6875,22.1090164 C75.6875,22.4599532 75.95,22.7231557 76.3,22.7231557 Z" id="Shape" fill="#4D4D4D"></path>
                        <g id="Shape">
                            <use fill="#4D4D4D" fill-rule="evenodd" xlink:href="#path-3"></use>
                            <use fill="black" fill-opacity="1" filter="url(#filter-4)" xlink:href="#path-3"></use>
                        </g>
                        <path d="M64.1375,44.6567037 C65.625,44.6567037 66.9375,43.4284251 66.9375,41.8492096 C66.9375,40.3577283 65.7125,39.0417155 64.1375,39.0417155 C62.65,39.0417155 61.425,40.2699941 61.425,41.8492096 C61.3375,43.4284251 62.5625,44.6567037 64.1375,44.6567037 Z M64.1375,40.3577283 C64.925,40.3577283 65.625,41.0596019 65.625,41.8492096 C65.625,42.6388173 64.925,43.3406909 64.1375,43.3406909 C63.35,43.3406909 62.65,42.6388173 62.65,41.8492096 C62.65,41.0596019 63.2625,40.3577283 64.1375,40.3577283 Z" id="Shape" fill="#4D4D4D"></path>
                        <path d="M71.1375,43.5161593 L92.925,43.5161593 C93.275,43.5161593 93.5375,43.2529567 93.5375,42.9020199 C93.5375,42.5510831 93.275,42.2878806 92.925,42.2878806 L71.1375,42.2878806 C70.7875,42.2878806 70.525,42.5510831 70.525,42.9020199 C70.525,43.2529567 70.7875,43.5161593 71.1375,43.5161593 Z" id="Shape" fill="#4D4D4D"></path>
                        <path d="M23.7125,61.7648712 C22.3125,60.7997951 20.475,60.6243267 18.9,61.3262002 C18.025,61.677137 16.975,61.677137 16.1,61.3262002 C14.525,60.6243267 12.6875,60.7997951 11.2875,61.7648712 C9.975,62.6422131 9.275,64.0459602 9.3625,65.6251756 L9.7125,71.5033665 C9.7125,71.8543033 9.975,72.1175059 10.325,72.1175059 L24.675,72.1175059 C25.025,72.1175059 25.2875,71.8543033 25.2875,71.5033665 L25.6375,65.800644 L25.6375,65.6251756 C25.725,64.0459602 25.025,62.6422131 23.7125,61.7648712 Z M24.4125,65.7129098 L24.4125,65.7129098 L24.0625,70.801493 L10.9375,70.801493 L10.5875,65.7129098 L10.5875,65.5374415 C10.5,64.396897 11.025,63.4318208 11.9875,62.7299473 C13.0375,62.0280738 14.35,61.9403396 15.575,62.4667447 C16.7125,62.9931499 18.2875,62.9931499 19.425,62.4667447 C20.5625,61.9403396 21.9625,62.0280738 23.0125,62.7299473 C23.975,63.3440867 24.4125,64.396897 24.4125,65.5374415 L24.4125,65.7129098 Z" id="Shape" fill="#4D4D4D"></path>
                        <path d="M13.0375,54.3074649 C13.0375,56.9394906 15.05,59.0451112 17.5,59.0451112 C19.95,59.0451112 21.9625,56.9394906 21.9625,54.3074649 C21.9625,51.6754391 19.95,49.5698185 17.5,49.5698185 C15.05,49.5698185 13.0375,51.6754391 13.0375,54.3074649 Z M17.5,50.8858314 C19.25,50.8858314 20.7375,52.4650468 20.7375,54.3951991 C20.7375,56.3253513 19.3375,57.9045667 17.5,57.9045667 C15.75,57.9045667 14.2625,56.3253513 14.2625,54.3951991 C14.2625,52.4650468 15.75,50.8858314 17.5,50.8858314 Z" id="Shape" fill="#4D4D4D"></path>
                        <path d="M33.775,52.2018443 C33.775,52.552781 34.0375,52.8159836 34.3875,52.8159836 L51.3625,52.8159836 C51.7125,52.8159836 51.975,52.552781 51.975,52.2018443 C51.975,51.8509075 51.7125,51.5877049 51.3625,51.5877049 L34.475,51.5877049 C34.125,51.5877049 33.775,51.8509075 33.775,52.2018443 Z" id="Shape" fill="#4D4D4D"></path>
                        <path d="M51.45,57.9923009 L34.475,57.9923009 C34.125,57.9923009 33.8625,58.2555035 33.8625,58.6064403 C33.8625,58.957377 34.125,59.2205796 34.475,59.2205796 L51.45,59.2205796 C51.8,59.2205796 52.0625,58.957377 52.0625,58.6064403 C52.0625,58.2555035 51.8,57.9923009 51.45,57.9923009 Z" id="Shape" fill="#4D4D4D"></path>
                        <path d="M51.45,64.396897 L34.475,64.396897 C34.125,64.396897 33.8625,64.6600995 33.8625,65.0110363 C33.8625,65.3619731 34.125,65.6251756 34.475,65.6251756 L51.45,65.6251756 C51.8,65.6251756 52.0625,65.3619731 52.0625,65.0110363 C52.0625,64.7478337 51.8,64.396897 51.45,64.396897 Z" id="Shape" fill="#4D4D4D"></path>
                        <path d="M46.2,70.801493 L34.475,70.801493 C34.125,70.801493 33.8625,71.0646956 33.8625,71.4156323 C33.8625,71.7665691 34.125,72.0297717 34.475,72.0297717 L46.2,72.0297717 C46.55,72.0297717 46.8125,71.7665691 46.8125,71.4156323 C46.8125,71.1524297 46.55,70.801493 46.2,70.801493 Z" id="Shape" fill="#4D4D4D"></path>
                        <path d="M17.325,44.2180328 C17.325,43.867096 17.0625,43.6038934 16.7125,43.6038934 L5.775,43.6038934 C5.425,43.6038934 5.1625,43.867096 5.1625,44.2180328 C5.1625,44.5689696 5.425,44.8321721 5.775,44.8321721 L16.7125,44.8321721 C16.975,44.8321721 17.325,44.5689696 17.325,44.2180328 Z" id="Shape" fill="#4D4D4D"></path>
                        <path d="M54.1625,44.2180328 C54.6875,44.4812354 55.2125,44.6567037 55.825,44.6567037 C56.35,44.6567037 56.9625,44.5689696 57.4,44.305767 L57.4875,44.305767 C58.7125,43.6916276 59.4125,42.4633489 59.4125,41.0596019 C59.4125,40.2699941 59.15,39.4803864 58.7125,38.8662471 C58.0125,37.9889052 56.9625,37.4625 55.825,37.4625 C54.6875,37.4625 53.6375,37.9889052 52.9375,38.8662471 C52.5,39.4803864 52.2375,40.2699941 52.2375,41.0596019 C52.15,42.3756148 52.9375,43.6038934 54.1625,44.2180328 Z M53.9,39.6558548 C54.3375,39.0417155 55.0375,38.7785129 55.7375,38.7785129 C56.4375,38.7785129 57.1375,39.1294496 57.575,39.743589 C57.8375,40.18226 58.0125,40.6209309 58.0125,41.1473361 C58.0125,42.024678 57.575,42.7265515 56.7875,43.1652225 C56.7875,43.1652225 56.7875,43.1652225 56.7,43.1652225 C56.0875,43.5161593 55.2125,43.5161593 54.6,43.1652225 C53.8125,42.7265515 53.375,41.9369438 53.375,41.0596019 C53.4625,40.5331967 53.6375,40.0067916 53.9,39.6558548 Z" id="Shape" fill="#4D4D4D"></path>
                    </g>
                </g>
            </g>
        </g>
    </g>
</svg>