<?xml version="1.0" encoding="UTF-8" standalone="no"?>
<svg width="128px" height="147px" viewBox="0 0 128 147" version="1.1" xmlns="http://www.w3.org/2000/svg" xmlns:xlink="http://www.w3.org/1999/xlink">
    <!-- Generator: Sketch 42 (36781) - http://www.bohemiancoding.com/sketch -->
    <title>Group 15</title>
    <desc>Created with Sketch.</desc>
    <defs>
        <rect id="path-1" x="0" y="0" width="69" height="91"></rect>
    </defs>
    <g id="Symbols" stroke="none" stroke-width="1" fill="none" fill-rule="evenodd">
        <g id="Vision-Module" transform="translate(-641.000000, -2040.000000)">
            <g transform="translate(383.000000, 191.000000)" id="Group-15">
                <g transform="translate(258.000000, 1848.000000)">
                    <g id="Group-12" transform="translate(26.000000, 31.000000)">
                        <mask id="mask-2" fill="white">
                            <use xlink:href="#path-1"></use>
                        </mask>
                        <use id="Mask" fill="#FFFFFF" xlink:href="#path-1"></use>
                        <rect id="Rectangle-7" fill-opacity="0.114470109" fill="#2A6190" mask="url(#mask-2)" x="-30" y="-53" width="67" height="177"></rect>
                        <path d="M0,3.99807366 C0,1.78999855 1.79250151,0 4.00797464,0 L64.9920254,0 C67.2055686,0 69,1.79730375 69,3.99807366 L69,87.0019263 C69,89.2100015 67.2074985,91 64.9920254,91 L4.00797464,91 C1.79443137,91 0,89.2026962 0,87.0019263 L0,3.99807366 Z M2.76,4.73927053 L2.76,86.2607295 C2.76,87.3672235 3.65752365,88.27 4.76467518,88.27 L64.2353248,88.27 C65.3426268,88.27 66.24,87.3704189 66.24,86.2607295 L66.24,4.73927053 C66.24,3.63277648 65.3424764,2.73 64.2353248,2.73 L4.76467518,2.73 C3.65737324,2.73 2.76,3.62958106 2.76,4.73927053 Z M21,13 C21,12.4477153 21.4492188,12 22.0087752,12 L59.9912248,12 C60.548356,12 61,12.4438648 61,13 C61,13.5522847 60.5507812,14 59.9912248,14 L22.0087752,14 C21.451644,14 21,13.5561352 21,13 Z M20.72,62.87 C20.72,62.3177153 21.1692188,61.87 21.7287752,61.87 L59.7112248,61.87 C60.268356,61.87 60.72,62.3138648 60.72,62.87 C60.72,63.4222847 60.2707813,63.87 59.7112248,63.87 L21.7287752,63.87 C21.171644,63.87 20.72,63.4261352 20.72,62.87 Z M20.72,75.87 C20.72,75.3177153 21.1692188,74.87 21.7287752,74.87 L59.7112248,74.87 C60.268356,74.87 60.72,75.3138648 60.72,75.87 C60.72,76.4222847 60.2707813,76.87 59.7112248,76.87 L21.7287752,76.87 C21.171644,76.87 20.72,76.4261352 20.72,75.87 Z M17.1207651,71.1676527 C17.4591622,70.8793143 17.7975593,70.9754271 17.9667579,71.3598783 C18.2205557,71.6482167 18.1359564,72.1287808 17.8821586,72.3210064 L11.0296174,78.1838872 C10.9450182,78.28 10.8604189,78.28 10.6912203,78.28 C10.5220218,78.28 10.268224,78.1838872 10.1836247,77.9916616 L8.15324213,75.2043904 C7.89944431,74.916052 7.98404359,74.5316008 8.23784141,74.2432624 C8.49163923,73.954924 8.83003632,74.0510368 9.08383414,74.3393752 L10.7758196,76.6460824 L17.1207651,71.1676527 Z M17.1207651,58.1676527 C17.4591622,57.8793143 17.7975593,57.9754271 17.9667579,58.3598783 C18.2205557,58.6482167 18.1359564,59.1287808 17.8821586,59.3210064 L11.0296174,65.1838872 C10.9450182,65.28 10.8604189,65.28 10.6912203,65.28 C10.5220218,65.28 10.268224,65.1838872 10.1836247,64.9916616 L8.15324213,62.2043904 C7.89944431,61.916052 7.98404359,61.5316008 8.23784141,61.2432624 C8.49163923,60.954924 8.83003632,61.0510368 9.08383414,61.3393752 L10.7758196,63.6460824 L17.1207651,58.1676527 Z M21,26 C21,25.4477153 21.4492188,25 22.0087752,25 L59.9912248,25 C60.548356,25 61,25.4438648 61,26 C61,26.5522847 60.5507812,27 59.9912248,27 L22.0087752,27 C21.451644,27 21,26.5561352 21,26 Z M21,49 C21,48.4477153 21.4492188,48 22.0087752,48 L59.9912248,48 C60.548356,48 61,48.4438648 61,49 C61,49.5522847 60.5507812,50 59.9912248,50 L22.0087752,50 C21.451644,50 21,49.5561352 21,49 Z M21,37 C21,36.4477153 21.4492188,36 22.0087752,36 L59.9912248,36 C60.548356,36 61,36.4438648 61,37 C61,37.5522847 60.5507812,38 59.9912248,38 L22.0087752,38 C21.451644,38 21,37.5561352 21,37 Z M17.4007651,32.8676527 C17.7391622,32.5793143 18.0775593,32.6754271 18.2467579,33.0598783 C18.5005557,33.3482167 18.4159564,33.8287808 18.1621586,34.0210064 L11.3096174,39.8838872 C11.2250182,39.98 11.1404189,39.98 10.9712203,39.98 C10.8020218,39.98 10.548224,39.8838872 10.4636247,39.6916616 L8.43324213,36.9043904 C8.17944431,36.616052 8.26404359,36.2316008 8.51784141,35.9432624 C8.77163923,35.654924 9.11003632,35.7510368 9.36383414,36.0393752 L11.0558196,38.3460824 L17.4007651,32.8676527 Z M17.4007651,44.6976527 C17.7391622,44.4093143 18.0775593,44.5054271 18.2467579,44.8898783 C18.5005557,45.1782167 18.4159564,45.6587808 18.1621586,45.8510064 L11.3096174,51.7138872 C11.2250182,51.81 11.1404189,51.81 10.9712203,51.81 C10.8020218,51.81 10.548224,51.7138872 10.4636247,51.5216616 L8.43324213,48.7343904 C8.17944431,48.446052 8.26404359,48.0616008 8.51784141,47.7732624 C8.77163923,47.484924 9.11003632,47.5810368 9.36383414,47.8693752 L11.0558196,50.1760824 L17.4007651,44.6976527 Z M17.4007651,21.0376527 C17.7391622,20.7493143 18.0775593,20.8454271 18.2467579,21.2298783 C18.5005557,21.5182167 18.4159564,21.9987808 18.1621586,22.1910064 L11.3096174,28.0538872 C11.2250182,28.15 11.1404189,28.15 10.9712203,28.15 C10.8020218,28.15 10.548224,28.0538872 10.4636247,27.8616616 L8.43324213,25.0743904 C8.17944431,24.786052 8.26404359,24.4016008 8.51784141,24.1132624 C8.77163923,23.824924 9.11003632,23.9210368 9.36383414,24.2093752 L11.0558196,26.5160824 L17.4007651,21.0376527 Z M17.4007651,8.29765275 C17.7391622,8.00931434 18.0775593,8.10542714 18.2467579,8.48987835 C18.5005557,8.77821675 18.4159564,9.25878075 18.1621586,9.45100635 L11.3096174,15.3138872 C11.2250182,15.41 11.1404189,15.41 10.9712203,15.41 C10.8020218,15.41 10.548224,15.3138872 10.4636247,15.1216616 L8.43324213,12.3343904 C8.17944431,12.046052 8.26404359,11.6616008 8.51784141,11.3732624 C8.77163923,11.084924 9.11003632,11.1810368 9.36383414,11.4693752 L11.0558196,13.7760824 L17.4007651,8.29765275 Z" id="Combined-Shape" fill="#2A6190" fill-rule="nonzero" mask="url(#mask-2)"></path>
                    </g>
                    <g id="Group-13" fill-rule="nonzero" fill="#959595">
                        <path d="M123.7,56.9 C123.3,56.9 123,57.2 123,57.6 L123,68 C123,68.4 123.3,68.7 123.7,68.7 C124.1,68.7 124.4,68.4 124.4,68 L124.4,57.6 C124.5,57.2 124.1,56.9 123.7,56.9 Z" id="Shape"></path>
                        <path d="M123.7,70.7 C123.3,70.7 123,71 123,71.4 L123,74.8 C123,75.2 123.3,75.5 123.7,75.5 C124.1,75.5 124.4,75.2 124.4,74.8 L124.4,71.4 C124.5,71 124.1,70.7 123.7,70.7 Z" id="Shape"></path>
                        <path d="M1.2,92.9 C0.8,92.9 0.5,93.2 0.5,93.6 L0.5,104 C0.5,104.4 0.8,104.7 1.2,104.7 C1.6,104.7 2,104.4 2,104 L2,93.6 C2,93.2 1.6,92.9 1.2,92.9 Z" id="Shape"></path>
                        <path d="M1.2,106.7 C0.8,106.7 0.5,107 0.5,107.4 L0.5,110.8 C0.5,111.2 0.8,111.5 1.2,111.5 C1.6,111.5 1.9,111.2 1.9,110.8 L1.9,107.4 C2,107 1.6,106.7 1.2,106.7 Z" id="Shape"></path>
                        <path d="M106.3,13.4 C108.2,13.4 109.7,11.9 109.7,10 C109.7,8.1 108.2,6.6 106.3,6.6 C104.4,6.6 102.9,8.1 102.9,10 C102.9,11.9 104.4,13.4 106.3,13.4 Z M106.3,8.1 C107.3,8.1 108.2,9 108.2,10 C108.2,11 107.3,11.9 106.3,11.9 C105.3,11.9 104.4,11 104.4,10 C104.4,9 105.2,8.1 106.3,8.1 Z" id="Shape"></path>
                        <path d="M98.7,140.6 C96.8,140.6 95.3,142.1 95.3,144 C95.3,145.9 96.8,147.4 98.7,147.4 C100.6,147.4 102.1,145.9 102.1,144 C102.1,142.1 100.5,140.6 98.7,140.6 Z M98.7,145.9 C97.7,145.9 96.8,145 96.8,144 C96.8,143 97.7,142.1 98.7,142.1 C99.7,142.1 100.6,143 100.6,144 C100.6,145 99.7,145.9 98.7,145.9 Z" id="Shape"></path>
                        <path d="M62.3,10 C62.3,10.4 62.6,10.7 63,10.7 L75.5,10.7 C75.9,10.7 76.2,10.4 76.2,10 C76.2,9.6 75.9,9.3 75.5,9.3 L63,9.3 C62.6,9.3 62.3,9.6 62.3,10 Z" id="Shape"></path>
                        <path d="M54.9,10.8 L58.9,10.8 C59.3,10.8 59.6,10.5 59.6,10.1 C59.6,9.7 59.3,9.4 58.9,9.4 L54.9,9.4 C54.5,9.4 54.2,9.7 54.2,10.1 C54.2,10.4 54.5,10.8 54.9,10.8 Z" id="Shape"></path>
                        <path d="M54.9,6.5 L63.6,6.5 C64,6.5 64.3,6.2 64.3,5.8 C64.3,5.4 64,5.1 63.6,5.1 L54.9,5.1 C54.5,5.1 54.2,5.4 54.2,5.8 C54.2,6.2 54.5,6.5 54.9,6.5 Z" id="Shape"></path>
                        <path d="M67.3,6.5 L70.1,6.5 C70.5,6.5 70.8,6.2 70.8,5.8 C70.8,5.4 70.5,5.1 70.1,5.1 L67.3,5.1 C66.9,5.1 66.6,5.4 66.6,5.8 C66.6,6.2 66.9,6.5 67.3,6.5 Z" id="Shape"></path>
                        <path d="M28.4,138.6 L15.9,138.6 C15.5,138.6 15.2,138.9 15.2,139.3 C15.2,139.7 15.5,140 15.9,140 L28.4,140 C28.8,140 29.1,139.7 29.1,139.3 C29.1,138.9 28.8,138.6 28.4,138.6 Z" id="Shape"></path>
                        <path d="M11.8,138.6 L7.8,138.6 C7.4,138.6 7.1,138.9 7.1,139.3 C7.1,139.7 7.4,140 7.8,140 L11.8,140 C12.2,140 12.5,139.7 12.5,139.3 C12.6,138.9 12.2,138.6 11.8,138.6 Z" id="Shape"></path>
                        <path d="M7.8,135.8 L16.5,135.8 C16.9,135.8 17.2,135.5 17.2,135.1 C17.2,134.7 16.9,134.4 16.5,134.4 L7.8,134.4 C7.4,134.4 7.1,134.7 7.1,135.1 C7.1,135.5 7.4,135.8 7.8,135.8 Z" id="Shape"></path>
                        <path d="M23,135.8 C23.4,135.8 23.7,135.5 23.7,135.1 C23.7,134.7 23.4,134.4 23,134.4 L20.2,134.4 C19.8,134.4 19.5,134.7 19.5,135.1 C19.5,135.5 19.8,135.8 20.2,135.8 L23,135.8 Z" id="Shape"></path>
                        <path d="M4.5,3.6 C4.6,3.7 4.8,3.8 5,3.8 C5.2,3.8 5.4,3.7 5.5,3.6 C5.8,3.3 5.8,2.8 5.5,2.6 L4.1,1.2 C3.8,0.9 3.3,0.9 3.1,1.2 C2.8,1.5 2.8,2 3.1,2.2 L4.5,3.6 Z" id="Shape"></path>
                        <path d="M9.1,8.2 C9.2,8.3 9.4,8.4 9.6,8.4 C9.8,8.4 10,8.3 10.1,8.2 C10.4,7.9 10.4,7.4 10.1,7.2 L8.7,5.8 C8.4,5.5 7.9,5.5 7.7,5.8 C7.4,6.1 7.4,6.6 7.7,6.8 L9.1,8.2 Z" id="Shape"></path>
                        <path d="M5.5,5.7 C5.2,5.4 4.7,5.4 4.5,5.7 L3,7.2 C2.7,7.5 2.7,8 3,8.2 C3.1,8.3 3.3,8.4 3.5,8.4 C3.7,8.4 3.9,8.3 4,8.2 L5.4,6.8 C5.8,6.5 5.8,6 5.5,5.7 Z" id="Shape"></path>
                        <path d="M8.2,3.8 C8.4,3.8 8.6,3.7 8.7,3.6 L10.1,2.2 C10.4,1.9 10.4,1.4 10.1,1.2 C9.8,0.9 9.3,0.9 9.1,1.2 L7.7,2.6 C7.4,2.9 7.4,3.4 7.7,3.6 C7.8,3.7 8,3.8 8.2,3.8 Z" id="Shape"></path>
                        <path d="M121.2,121.1 C120.9,120.8 120.4,120.8 120.2,121.1 C119.9,121.4 119.9,121.9 120.2,122.1 L121.6,123.5 C121.7,123.6 121.9,123.7 122.1,123.7 C122.3,123.7 122.5,123.6 122.6,123.5 C122.9,123.2 122.9,122.7 122.6,122.5 L121.2,121.1 Z" id="Shape"></path>
                        <path d="M125.9,125.8 C125.6,125.5 125.1,125.5 124.9,125.8 C124.6,126.1 124.6,126.6 124.9,126.8 L126.3,128.2 C126.4,128.3 126.6,128.4 126.8,128.4 C127,128.4 127.2,128.3 127.3,128.2 C127.6,127.9 127.6,127.4 127.3,127.2 L125.9,125.8 Z" id="Shape"></path>
                        <path d="M121.6,125.8 L120.2,127.2 C119.9,127.5 119.9,128 120.2,128.2 C120.3,128.3 120.5,128.4 120.7,128.4 C120.9,128.4 121.1,128.3 121.2,128.2 L122.6,126.8 C122.9,126.5 122.9,126 122.6,125.8 C122.4,125.5 121.9,125.5 121.6,125.8 Z" id="Shape"></path>
                        <path d="M125.3,123.8 C125.5,123.8 125.7,123.7 125.8,123.6 L127.2,122.2 C127.5,121.9 127.5,121.4 127.2,121.2 C126.9,120.9 126.4,120.9 126.2,121.2 L124.8,122.6 C124.5,122.9 124.5,123.4 124.8,123.6 C125,123.7 125.1,123.8 125.3,123.8 Z" id="Shape"></path>
                    </g>
                </g>
            </g>
        </g>
    </g>
</svg>