<?xml version="1.0" encoding="UTF-8" standalone="no"?>
<svg width="120px" height="128px" viewBox="0 0 120 128" version="1.1" xmlns="http://www.w3.org/2000/svg" xmlns:xlink="http://www.w3.org/1999/xlink">
    <!-- Generator: Sketch 42 (36781) - http://www.bohemiancoding.com/sketch -->
    <title>Group</title>
    <desc>Created with Sketch.</desc>
    <defs></defs>
    <g id="Symbols" stroke="none" stroke-width="1" fill="none" fill-rule="evenodd">
        <g id="Mystery-Shopper-Module" transform="translate(-250.000000, -819.000000)" fill-rule="nonzero">
            <g id="Group">
                <g transform="translate(250.000000, 819.000000)">
                    <path d="M118.5,30.2 L106,30.2 C105.6,30.2 105.2,30.5 105.2,31 L105.2,126.8 C105.2,127.2 105.5,127.6 106,127.6 L118.5,127.6 C118.9,127.6 119.3,127.3 119.3,126.8 L119.3,30.9 C119.3,30.5 118.9,30.2 118.5,30.2 Z M106.7,126 L106.7,31.7 L117.7,31.7 L117.7,38.1 L112.3,38.1 C111.9,38.1 111.5,38.4 111.5,38.9 C111.5,39.3 111.8,39.7 112.3,39.7 L117.7,39.7 L117.7,46 L113.9,46 C113.5,46 113.1,46.3 113.1,46.8 C113.1,47.3 113.4,47.6 113.9,47.6 L117.7,47.6 L117.7,54.2 L112.3,54.2 C111.9,54.2 111.5,54.5 111.5,55 C111.5,55.4 111.8,55.8 112.3,55.8 L117.7,55.8 L117.7,62 L113.9,62 C113.5,62 113.1,62.3 113.1,62.8 C113.1,63.3 113.4,63.6 113.9,63.6 L117.7,63.6 L117.7,70.2 L112.3,70.2 C111.9,70.2 111.5,70.5 111.5,71 C111.5,71.4 111.8,71.8 112.3,71.8 L117.7,71.8 L117.7,78 L113.9,78 C113.5,78 113.1,78.3 113.1,78.8 C113.1,79.2 113.4,79.6 113.9,79.6 L117.7,79.6 L117.7,86.2 L112.3,86.2 C111.9,86.2 111.5,86.5 111.5,87 C111.5,87.4 111.8,87.8 112.3,87.8 L117.7,87.8 L117.7,94.2 L113.9,94.2 C113.5,94.2 113.1,94.5 113.1,95 C113.1,95.5 113.4,95.8 113.9,95.8 L117.7,95.8 L117.7,102.4 L112.3,102.4 C111.9,102.4 111.5,102.7 111.5,103.2 C111.5,103.6 111.8,104 112.3,104 L117.7,104 L117.7,110.4 L113.9,110.4 C113.5,110.4 113.1,110.7 113.1,111.2 C113.1,111.6 113.4,112 113.9,112 L117.7,112 L117.7,118.6 L112.3,118.6 C111.9,118.6 111.5,118.9 111.5,119.4 C111.5,119.8 111.8,120.2 112.3,120.2 L117.7,120.2 L117.7,126.7 L106.7,126.7 L106.7,126 Z" id="Shape" fill="#EC6B52"></path>
                    <path d="M89.4,41.8 L89.4,97 C89.4,99.9 91.8,102.3 94.7,102.3 L95,102.3 C97.9,102.3 100.3,99.9 100.3,97 L100.3,93.1 L100.3,93.1 L100.3,93.1 L100.3,87.8 L100.3,87.8 L100.3,87.8 L100.3,41.8 L100.3,41.6 L100.3,41.1 L95.6,30.6 C95.4,30.1 94.5,30.1 94.2,30.6 L89.5,41.1 C89.4,41.3 89.4,41.4 89.5,41.6 C89.4,41.7 89.4,41.7 89.4,41.8 Z M90.9,88.5 L98.7,88.5 L98.7,92.3 L90.9,92.3 L90.9,88.5 Z M98.8,87 L91,87 L91,42.5 L98.8,42.5 L98.8,87 Z M95,100.7 L94.7,100.7 C92.6,100.7 90.9,99 90.9,96.9 L90.9,93.8 L98.7,93.8 L98.7,97 C98.8,99.1 97.1,100.7 95,100.7 Z M94.9,32.8 L98.6,41 L91.3,41 L94.9,32.8 Z" id="Shape" fill="#EC6B52"></path>
                    <path d="M94.9,78.5 C95.3,78.5 95.7,78.2 95.7,77.7 L95.7,73.7 C95.7,73.3 95.4,72.9 94.9,72.9 C94.5,72.9 94.1,73.2 94.1,73.7 L94.1,77.7 C94.1,78.2 94.4,78.5 94.9,78.5 Z" id="Shape" fill="#EC6B52"></path>
                    <path d="M94.9,68.5 C95.3,68.5 95.7,68.2 95.7,67.7 L95.7,63.7 C95.7,63.3 95.4,62.9 94.9,62.9 C94.5,62.9 94.1,63.2 94.1,63.7 L94.1,67.7 C94.1,68.1 94.4,68.5 94.9,68.5 Z" id="Shape" fill="#EC6B52"></path>
                    <path d="M94.9,58.4 C95.3,58.4 95.7,58.1 95.7,57.6 L95.7,53.6 C95.7,53.2 95.4,52.8 94.9,52.8 C94.5,52.8 94.1,53.1 94.1,53.6 L94.1,57.6 C94.1,58.1 94.4,58.4 94.9,58.4 Z" id="Shape" fill="#EC6B52"></path>
                    <path d="M17.9,50.2 L18.1,50.2 C18.4,50.2 18.7,50 18.8,49.7 C18.9,49.3 18.7,48.9 18.3,48.7 C17.5,48.4 16.8,48.1 16,47.8 C15.6,47.6 15.2,47.8 15,48.2 C14.8,48.6 15,49 15.4,49.2 C16.3,49.6 17.1,49.9 17.9,50.2 Z" id="Shape" fill="#EC6B52"></path>
                    <path d="M1.5,25.8 C1.9,25.8 2.2,25.5 2.3,25.1 C2.4,23.4 2.6,21.7 3,20.1 C3.1,19.7 2.9,19.3 2.5,19.2 C2,19 1.6,19.3 1.5,19.7 C1.1,21.4 0.8,23.2 0.7,25 C0.7,25.4 1,25.7 1.5,25.8 L1.5,25.8 Z" id="Shape" fill="#EC6B52"></path>
                    <path d="M12.2,6.4 C12.3,6.4 12.5,6.4 12.6,6.3 C14,5.3 15.5,4.5 17,3.9 C17.4,3.7 17.6,3.3 17.4,2.9 C17.2,2.5 16.8,2.3 16.4,2.5 C14.8,3.1 13.2,4 11.8,5 C11.5,5.2 11.4,5.7 11.6,6 C11.7,6.3 12,6.4 12.2,6.4 Z" id="Shape" fill="#EC6B52"></path>
                    <path d="M3.6,36.9 C3.7,36.9 3.8,36.9 3.9,36.8 C4.3,36.6 4.4,36.2 4.3,35.8 C3.6,34.3 3.1,32.6 2.7,31 C2.6,30.6 2.2,30.3 1.8,30.4 C1.4,30.5 1.1,30.9 1.2,31.3 C1.6,33 2.1,34.8 2.9,36.4 C3.1,36.8 3.3,36.9 3.6,36.9 Z" id="Shape" fill="#EC6B52"></path>
                    <path d="M4.2,14.7 C4.3,14.8 4.4,14.8 4.6,14.8 C4.9,14.8 5.1,14.7 5.3,14.4 C6.1,12.9 7.1,11.5 8.2,10.3 C8.5,10 8.4,9.5 8.1,9.2 C7.7,8.9 7.2,9 7,9.3 C5.8,10.7 4.8,12.1 3.9,13.7 C3.7,14.1 3.8,14.5 4.2,14.7 Z" id="Shape" fill="#EC6B52"></path>
                    <path d="M22.8,2.2 L22.9,2.2 C24.6,2 26.3,1.9 27.9,2 C28.3,2 28.7,1.7 28.7,1.3 C28.7,0.9 28.4,0.5 28,0.5 C26.2,0.4 24.4,0.4 22.6,0.7 C22.3,0.8 22,1.2 22,1.6 C22.1,2 22.4,2.2 22.8,2.2 Z" id="Shape" fill="#EC6B52"></path>
                    <path d="M33.9,3.2 C35.5,3.7 37,4.4 38.5,5.3 C38.6,5.4 38.8,5.4 38.9,5.4 C39.2,5.4 39.4,5.3 39.5,5 C39.7,4.6 39.6,4.2 39.2,4 C37.7,3.1 36,2.3 34.3,1.8 C33.9,1.7 33.5,1.9 33.3,2.3 C33.3,2.7 33.5,3.1 33.9,3.2 Z" id="Shape" fill="#EC6B52"></path>
                    <path d="M10.6,46 C10.8,46 11,45.9 11.2,45.7 C11.5,45.4 11.4,44.9 11.1,44.6 C9.8,43.5 8.6,42.3 7.5,41 C7.2,40.7 6.8,40.6 6.4,40.9 C6.1,41.2 6,41.6 6.3,42 C7.4,43.4 8.7,44.7 10.1,45.8 C10.2,45.9 10.4,46 10.6,46 Z" id="Shape" fill="#EC6B52"></path>
                    <path d="M46.4,13 C46.5,13.2 46.8,13.3 47,13.3 C47.1,13.3 47.3,13.3 47.4,13.2 C47.7,13 47.8,12.5 47.6,12.2 C46.6,10.7 45.5,9.3 44.2,8 C43.9,7.7 43.4,7.7 43.1,8 C42.8,8.3 42.8,8.8 43.1,9.1 C44.4,10.2 45.5,11.6 46.4,13 Z" id="Shape" fill="#EC6B52"></path>
                    <path d="M49.7,20.8 C49.8,21.2 50.1,21.4 50.4,21.4 L50.6,21.4 C51,21.3 51.3,20.9 51.2,20.5 C51,19.7 50.8,18.8 50.5,18 C50.4,17.6 49.9,17.4 49.5,17.5 C49.1,17.6 48.9,18.1 49,18.5 C49.3,19.2 49.5,20 49.7,20.8 Z" id="Shape" fill="#EC6B52"></path>
                    <path d="M73.5,116.6 L88.3,116.6 C88.7,116.6 89.1,116.3 89.1,115.8 C89.1,115.4 88.8,115 88.3,115 L73.5,115 C73.1,115 72.7,115.3 72.7,115.8 C72.8,116.2 73.1,116.6 73.5,116.6 Z" id="Shape" fill="#EC6B52"></path>
                    <path d="M100.3,126.6 L100.3,126.5 C99.3,123.1 98.3,119.7 97.2,116.4 C94.8,108.6 87.6,104.2 78.6,104.9 C77,105 75.4,105.1 73.8,105.2 C74,104.8 74.3,104.3 74.5,103.9 C74.5,103.9 74.5,103.9 74.5,103.8 L74.5,103.6 L74.5,103.5 L74.5,103.3 L74.5,103.2 L74.5,103.1 L72.5,100.1 L72.5,93.3 C75.4,90.7 77.8,87 79.3,82.7 L79.4,82.7 C81.6,82.7 83.3,79.4 83.3,75.1 C83.3,71.5 82.2,68.6 80.5,67.8 L80.5,67.6 C80.8,65.2 81.1,62.8 81.3,60.4 C82,49.9 79.2,48.5 73.9,46.9 C73.5,46.8 73.1,46.6 72.6,46.5 C68.3,45.1 63.8,44.8 60.8,44.8 C57.8,44.8 53.4,45.1 49,46.5 C48.6,46.6 48.1,46.8 47.7,46.9 C42.3,48.6 39.6,49.9 40.3,60.4 C40.5,62.8 40.8,65.3 41.1,67.6 L41.1,67.8 C39.4,68.6 38.3,71.5 38.3,75.1 C38.3,79.5 40.1,82.8 42.3,82.7 C43.8,87.1 46.1,90.7 49.1,93.3 L49.1,100.1 L47.1,103.1 L47.1,103.2 C47.1,103.2 47.1,103.3 47,103.3 L47,103.4 L47,103.5 L47,103.6 L47,103.7 C47.2,104.2 47.5,104.6 47.7,105 C46.1,104.9 44.5,104.8 43,104.7 C33.9,104 26.8,108.4 24.4,116.2 C23.4,119.5 22.3,122.9 21.3,126.3 L21.3,126.4 L21.3,126.5 L21.3,126.5 L21.3,126.7 L21.3,126.8 L21.4,126.9 L21.5,127 L21.6,127.1 L21.7,127.2 L21.7,127.2 L21.9,127.2 L21.9,127.2 L99.6,127.2 L99.6,127.2 L99.8,127.2 L99.8,127.2 C99.8,127.2 99.9,127.2 99.9,127.1 C99.9,127.1 100,127.1 100,127 L100.1,126.9 L100.2,126.8 L100.2,126.7 L100.2,126.5 L100.2,126.5 C100.3,126.7 100.3,126.7 100.3,126.6 Z M48.1,48.3 C48.5,48.2 49,48 49.4,47.9 C52.7,46.8 56.6,46.3 60.7,46.3 C64.8,46.3 68.7,46.9 72,47.9 C72.5,48 72.9,48.2 73.3,48.3 C78,49.7 80.3,50.5 79.7,60.3 C79.6,61.4 79.5,62.5 79.4,63.6 C78.6,61.2 77.3,58.7 75.1,58.5 C71.5,58.1 62,58.2 61.6,58.2 C61.6,58.2 57.5,58.5 53.2,54.2 C53,54 52.8,54 52.6,54 C52.4,54 52.2,54.1 52.1,54.3 C51.4,55.2 50.7,57 51.6,58.8 C49.3,58.4 45.7,58.2 44.4,59.8 C43.5,60.8 42.8,62.6 42.2,64.3 C42.1,63 41.9,61.7 41.8,60.3 C41.1,50.4 43.5,49.7 48.1,48.3 Z M43.4,81.6 C43.3,81.4 43.2,81.2 43,81.1 C42.9,81.1 42.8,81 42.7,81 C42.6,81 42.5,81 42.4,81.1 C42.3,81.2 42.2,81.2 42.1,81.2 C41.1,81.2 39.7,78.9 39.7,75.1 C39.7,71.8 40.8,69.3 41.9,69.1 C42.2,69 42.4,68.8 42.5,68.5 L42.5,68.3 C42.9,66.6 44.1,62.2 45.4,60.7 C46.4,59.5 50.6,60 53.2,60.7 C53.5,60.8 53.9,60.6 54.1,60.3 C54.3,60 54.2,59.6 53.9,59.4 C52.4,58.2 52.5,56.8 52.8,56 C57.4,60 61.5,59.7 61.6,59.7 C61.7,59.7 71.4,59.6 74.9,60 C77.2,60.3 78.5,65.8 78.8,68.1 L78.8,68.1 L78.8,68.2 L78.8,68.4 L78.8,68.4 L78.8,68.5 C78.9,68.8 79.1,69 79.4,69.1 C80.5,69.3 81.6,71.8 81.6,75.1 C81.6,78.9 80.2,81.2 79.2,81.2 C79.1,81.2 79,81.2 78.9,81.1 C78.7,81 78.5,81 78.3,81.1 C78.1,81.2 78,81.4 77.9,81.6 C75.1,90.7 68.3,96.6 60.6,96.6 C53,96.5 46.2,90.7 43.4,81.6 Z M60.7,98 C64.4,98 67.9,96.7 71,94.5 L71,100.3 C71,100.3 71,100.3 71,100.4 L71,100.5 C71,100.5 71,100.6 71.1,100.6 C71.1,100.6 71.1,100.6 71.1,100.7 L73,103.5 C71.1,107.2 69,110.5 66.7,113.4 L65.3,107.6 L67.4,104 C67.5,103.8 67.5,103.5 67.4,103.2 C67.3,103 67,102.8 66.7,102.8 L54.7,102.8 C54.4,102.8 54.2,102.9 54,103.2 C53.9,103.4 53.9,103.7 54,104 L56.2,107.7 L54.8,113.5 C52.8,111 50.6,107.7 48.5,103.5 L50.4,100.6 C50.4,100.6 50.4,100.6 50.4,100.5 C50.4,100.5 50.4,100.4 50.5,100.4 L50.5,100.3 C50.5,100.3 50.5,100.3 50.5,100.2 L50.5,94.4 C53.5,96.8 57,98 60.7,98 Z M60.7,119.7 C59.9,119.1 58.2,117.6 56,115.1 L57.6,108.4 L64,108.4 L65.6,115 C63.3,117.5 61.5,119.1 60.7,119.7 Z M64.1,106.9 L57.4,106.9 L56,104.5 L65.5,104.5 L64.1,106.9 Z M25.7,116.9 C27.9,109.8 34.4,105.8 42.8,106.5 C44.7,106.6 46.6,106.7 48.5,106.8 C54.2,117 60.1,121 60.4,121.2 L60.5,121.2 L60.6,121.2 C60.7,121.2 60.8,121.3 60.9,121.3 L60.9,121.3 L60.9,121.3 C61,121.3 61.1,121.3 61.2,121.2 L61.3,121.2 L61.4,121.2 C61.5,121.1 63.9,119.5 67.2,115.6 C69.4,113 71.4,110 73.3,106.8 C75.2,106.7 77.1,106.6 79,106.5 C87.3,105.9 93.9,109.8 96.1,116.9 C97,119.9 98,122.9 98.9,126 L22.9,126 C23.8,122.9 24.8,119.9 25.7,116.9 Z" id="Shape" fill="#EC6B52"></path>
                    <path d="M60.7,13.2 C61.1,13.2 61.5,12.9 61.5,12.4 L61.5,1.6 C61.5,1.2 61.2,0.8 60.7,0.8 C60.3,0.8 59.9,1.1 59.9,1.6 L59.9,12.5 C60,12.9 60.3,13.2 60.7,13.2 Z" id="Shape" fill="#959595"></path>
                    <path d="M60.7,20.3 C61.1,20.3 61.5,20 61.5,19.5 L61.5,16 C61.5,15.6 61.2,15.2 60.7,15.2 C60.3,15.2 59.9,15.5 59.9,16 L59.9,19.5 C60,20 60.3,20.3 60.7,20.3 Z" id="Shape" fill="#959595"></path>
                    <path d="M29.9,77.8 C29.9,77.4 29.6,77 29.1,77 C28.6,77 28.3,77.3 28.3,77.8 L28.3,88.7 C28.3,89.1 28.6,89.5 29.1,89.5 C29.6,89.5 29.9,89.2 29.9,88.7 L29.9,77.8 Z" id="Shape" fill="#959595"></path>
                    <path d="M29.2,91.5 C28.8,91.5 28.4,91.8 28.4,92.3 L28.4,95.8 C28.4,96.2 28.7,96.6 29.2,96.6 C29.7,96.6 30,96.3 30,95.8 L30,92.3 C29.9,91.9 29.6,91.5 29.2,91.5 Z" id="Shape" fill="#959595"></path>
                    <path d="M53.9,33.1 C54,33.2 54.2,33.3 54.4,33.3 C54.6,33.3 54.8,33.2 54.9,33.1 C55.2,32.8 55.2,32.3 54.9,32 L53.4,30.5 C53.1,30.2 52.6,30.2 52.3,30.5 C52,30.8 52,31.3 52.3,31.6 L53.9,33.1 Z" id="Shape" fill="#959595"></path>
                    <path d="M58.7,37.9 C58.8,38 59,38.1 59.2,38.1 C59.4,38.1 59.6,38 59.7,37.9 C60,37.6 60,37.1 59.7,36.8 L58.2,35.3 C57.9,35 57.4,35 57.1,35.3 C56.8,35.6 56.8,36.1 57.1,36.4 L58.7,37.9 Z" id="Shape" fill="#959595"></path>
                    <path d="M53,38.1 C53.2,38.1 53.4,38 53.5,37.9 L55,36.4 C55.3,36.1 55.3,35.6 55,35.3 C54.7,35 54.2,35 53.9,35.3 L52.4,36.8 C52.1,37.1 52.1,37.6 52.4,37.9 C52.6,38 52.8,38.1 53,38.1 Z" id="Shape" fill="#959595"></path>
                    <path d="M57.8,33.3 C58,33.3 58.2,33.2 58.3,33.1 L59.8,31.6 C60.1,31.3 60.1,30.8 59.8,30.5 C59.5,30.2 59,30.2 58.7,30.5 L57.2,32 C56.9,32.3 56.9,32.8 57.2,33.1 C57.4,33.2 57.6,33.3 57.8,33.3 Z" id="Shape" fill="#959595"></path>
                    <path d="M74.9,7.8 C75,7.9 75.2,8 75.4,8 C75.6,8 75.8,7.9 75.9,7.8 C76.2,7.5 76.2,7 75.9,6.7 L74.4,5.2 C74.1,4.9 73.6,4.9 73.3,5.2 C73,5.5 73,6 73.3,6.3 L74.9,7.8 Z" id="Shape" fill="#959595"></path>
                    <path d="M79.7,12.5 C79.8,12.6 80,12.7 80.2,12.7 C80.4,12.7 80.6,12.6 80.7,12.5 C81,12.2 81,11.7 80.7,11.4 L79.3,10 C79,9.7 78.5,9.7 78.2,10 C77.9,10.3 77.9,10.8 78.2,11.1 L79.7,12.5 Z" id="Shape" fill="#959595"></path>
                    <path d="M74,12.8 C74.2,12.8 74.4,12.7 74.5,12.6 L76,11.1 C76.3,10.8 76.3,10.3 76,10 C75.7,9.7 75.2,9.7 74.9,10 L73.4,11.5 C73.1,11.8 73.1,12.3 73.4,12.6 C73.6,12.7 73.8,12.8 74,12.8 Z" id="Shape" fill="#959595"></path>
                    <path d="M78.7,8 C78.9,8 79.1,7.9 79.2,7.8 L80.7,6.3 C81,6 81,5.5 80.7,5.2 C80.4,4.9 79.9,4.9 79.6,5.2 L78.1,6.7 C77.8,7 77.8,7.5 78.1,7.8 C78.3,7.9 78.5,8 78.7,8 Z" id="Shape" fill="#959595"></path>
                    <path d="M8.8,70.4 L7.3,69 C7,68.7 6.5,68.7 6.2,69 C5.9,69.3 5.9,69.8 6.2,70.1 L7.7,71.6 C7.8,71.7 8,71.8 8.2,71.8 C8.4,71.8 8.6,71.7 8.7,71.6 C9.1,71.2 9.1,70.7 8.8,70.4 Z" id="Shape" fill="#959595"></path>
                    <path d="M12.1,73.7 C11.8,73.4 11.3,73.4 11,73.7 C10.7,74 10.7,74.5 11,74.8 L12.5,76.3 C12.6,76.4 12.8,76.5 13,76.5 C13.2,76.5 13.4,76.4 13.5,76.3 C13.8,76 13.8,75.5 13.5,75.2 L12.1,73.7 Z" id="Shape" fill="#959595"></path>
                    <path d="M8.8,74.8 C9.1,74.5 9.1,74 8.8,73.7 C8.5,73.4 8,73.4 7.7,73.7 L6.2,75.2 C5.9,75.5 5.9,76 6.2,76.3 C6.3,76.4 6.5,76.5 6.7,76.5 C6.9,76.5 7.1,76.4 7.2,76.3 L8.8,74.8 Z" id="Shape" fill="#959595"></path>
                    <path d="M13.6,69 C13.3,68.7 12.8,68.7 12.5,69 L11,70.4 C10.7,70.7 10.7,71.2 11,71.5 C11.1,71.6 11.3,71.7 11.5,71.7 C11.7,71.7 11.9,71.6 12,71.5 L13.5,70 C13.9,69.7 13.9,69.3 13.6,69 Z" id="Shape" fill="#959595"></path>
                    <path d="M78.2,27.4 C76.2,27.4 74.7,29 74.7,30.9 C74.7,32.9 76.3,34.4 78.2,34.4 C80.2,34.4 81.7,32.8 81.7,30.9 C81.8,29 80.2,27.4 78.2,27.4 Z M78.2,33 C77.1,33 76.2,32.1 76.2,31 C76.2,29.9 77.1,29 78.2,29 C79.3,29 80.2,29.9 80.2,31 C80.3,32 79.3,33 78.2,33 Z" id="Shape" fill="#959595"></path>
                    <path d="M77.5,95.8 C77.5,97.8 79.1,99.3 81,99.3 C83,99.3 84.5,97.7 84.5,95.8 C84.5,93.8 82.9,92.3 81,92.3 C79.1,92.3 77.5,93.8 77.5,95.8 Z M83,95.8 C83,96.9 82.1,97.8 81,97.8 C79.9,97.8 79,96.9 79,95.8 C79,94.7 79.9,93.8 81,93.8 C82.1,93.8 83,94.7 83,95.8 Z" id="Shape" fill="#959595"></path>
                    <path d="M31.6,59.4 C31.6,57.1 29.8,55.3 27.5,55.3 C25.2,55.3 23.4,57.1 23.4,59.4 C23.4,61.7 25.2,63.5 27.5,63.5 C29.8,63.5 31.6,61.7 31.6,59.4 Z M27.5,62 C26.1,62 24.9,60.8 24.9,59.4 C24.9,58 26.1,56.8 27.5,56.8 C28.9,56.8 30.1,58 30.1,59.4 C30.1,60.8 29,62 27.5,62 Z" id="Shape" fill="#959595"></path>
                    <path d="M101.9,9.8 L114.8,9.8 C115.2,9.8 115.6,9.5 115.6,9 C115.6,8.5 115.3,8.2 114.8,8.2 L101.9,8.2 C101.5,8.2 101.1,8.5 101.1,9 C101.1,9.5 101.5,9.8 101.9,9.8 Z" id="Shape" fill="#959595"></path>
                    <path d="M93.5,9.8 L97.7,9.8 C98.1,9.8 98.5,9.5 98.5,9 C98.5,8.5 98.2,8.2 97.7,8.2 L93.5,8.2 C93.1,8.2 92.7,8.5 92.7,9 C92.7,9.5 93,9.8 93.5,9.8 Z" id="Shape" fill="#959595"></path>
                    <path d="M102.5,12.7 L93.5,12.7 C93.1,12.7 92.7,13 92.7,13.5 C92.7,14 93,14.3 93.5,14.3 L102.5,14.3 C102.9,14.3 103.3,14 103.3,13.5 C103.3,13 102.9,12.7 102.5,12.7 Z" id="Shape" fill="#959595"></path>
                    <path d="M106.3,12.7 C105.9,12.7 105.5,13 105.5,13.5 C105.5,14 105.8,14.3 106.3,14.3 L109.2,14.3 C109.6,14.3 110,14 110,13.5 C110,13 109.7,12.7 109.2,12.7 L106.3,12.7 Z" id="Shape" fill="#959595"></path>
                    <path d="M10.8,104.5 L23.7,104.5 C24.1,104.5 24.5,104.2 24.5,103.7 C24.5,103.2 24.2,102.9 23.7,102.9 L10.8,102.9 C10.4,102.9 10,103.2 10,103.7 C10,104.2 10.4,104.5 10.8,104.5 Z" id="Shape" fill="#959595"></path>
                    <path d="M2.4,103 C2,103 1.6,103.3 1.6,103.8 C1.6,104.3 1.9,104.6 2.4,104.6 L6.6,104.6 C7,104.6 7.4,104.3 7.4,103.8 C7.4,103.3 7,103 6.6,103 L2.4,103 Z" id="Shape" fill="#959595"></path>
                    <path d="M11.4,107.4 L2.4,107.4 C2,107.4 1.6,107.7 1.6,108.2 C1.6,108.6 1.9,109 2.4,109 L11.4,109 C11.8,109 12.2,108.7 12.2,108.2 C12.1,107.7 11.8,107.4 11.4,107.4 Z" id="Shape" fill="#959595"></path>
                    <path d="M18.2,107.4 L15.3,107.4 C14.9,107.4 14.5,107.7 14.5,108.2 C14.5,108.6 14.8,109 15.3,109 L18.2,109 C18.6,109 19,108.7 19,108.2 C18.9,107.7 18.6,107.4 18.2,107.4 Z" id="Shape" fill="#959595"></path>
                    <path d="M6.5,25.7 C6.5,27.3 6.7,28.8 7.1,30.3 C9.2,39.1 17,45.2 26.1,45.2 C27.2,45.2 28.3,45.1 29.4,44.9 C38.8,43.3 45.6,35.2 45.6,25.7 C45.6,14.9 36.9,6.2 26.1,6.2 C15.2,6.2 6.5,14.9 6.5,25.7 Z M44,25.7 C44,34.5 37.7,42 29.1,43.4 C28.1,43.6 27,43.7 26,43.7 C17.7,43.7 10.5,38 8.5,29.9 C8.2,28.5 8,27.1 8,25.6 C8,15.7 16.1,7.6 26,7.6 C35.9,7.7 44,15.7 44,25.7 Z" id="Shape" fill="#EC6B52"></path>
                    <path d="M26,23.4 C24.7,23.4 23.7,24.4 23.7,25.7 C23.7,27 24.7,28 26,28 L26.3,28 L28.6,32.7 C28.7,33 29,33.1 29.3,33.1 C29.4,33.1 29.5,33.1 29.6,33 C30,32.8 30.1,32.4 29.9,32 L27.6,27.3 C27.7,27.2 27.7,27.1 27.8,27.1 C27.8,27 27.9,27 27.9,26.9 C28,26.8 28,26.6 28.1,26.5 C28.1,26.4 28.2,26.4 28.2,26.3 C28.3,26.1 28.3,25.9 28.3,25.6 L28.3,25.4 L37.6,21.1 C38,20.9 38.1,20.5 38,20.1 C37.8,19.7 37.4,19.6 37,19.7 L27.7,24 C27.2,23.6 26.6,23.4 26,23.4 Z M25.1,25.7 C25.1,25.3 25.4,24.9 25.9,24.9 L25.7,25 L25.7,25 C25.3,25.2 25.2,25.6 25.4,26 L25.5,26.2 C25.2,26.1 25.1,25.9 25.1,25.7 Z" id="Shape" fill="#EC6B52"></path>
                    <path d="M25.2,10.1 L25.2,12.2 C25.2,12.6 25.5,13 26,13 C26.4,13 26.8,12.7 26.8,12.2 L26.8,10.1 C26.8,9.7 26.5,9.3 26,9.3 C25.6,9.3 25.2,9.6 25.2,10.1 Z" id="Shape" fill="#EC6B52"></path>
                    <path d="M12.4,24.9 L10.3,24.9 C9.9,24.9 9.5,25.2 9.5,25.7 C9.5,26.1 9.8,26.5 10.3,26.5 L12.4,26.5 C12.8,26.5 13.2,26.2 13.2,25.7 C13.2,25.3 12.9,24.9 12.4,24.9 Z" id="Shape" fill="#EC6B52"></path>
                    <path d="M26,38.4 C25.6,38.4 25.2,38.7 25.2,39.2 L25.2,41.3 C25.2,41.7 25.5,42.1 26,42.1 C26.4,42.1 26.8,41.8 26.8,41.3 L26.8,39.2 C26.7,38.8 26.4,38.4 26,38.4 Z" id="Shape" fill="#EC6B52"></path>
                    <path d="M39.5,26.4 L41.6,26.4 C42,26.4 42.4,26.1 42.4,25.6 C42.4,25.2 42.1,24.8 41.6,24.8 L39.5,24.8 C39.1,24.8 38.7,25.1 38.7,25.6 C38.7,26.1 39.1,26.4 39.5,26.4 Z" id="Shape" fill="#EC6B52"></path>
                </g>
            </g>
        </g>
    </g>
</svg>