<?xml version="1.0" encoding="UTF-8" standalone="no"?>
<svg width="126px" height="128px" viewBox="0 0 126 128" version="1.1" xmlns="http://www.w3.org/2000/svg" xmlns:xlink="http://www.w3.org/1999/xlink">
    <!-- Generator: Sketch 42 (36781) - http://www.bohemiancoding.com/sketch -->
    <title>Group</title>
    <desc>Created with Sketch.</desc>
    <defs>
        <path d="M81.4,62.5 C82.5,62.5 83.4,61.6 83.4,60.5 L83.4,58.2 L96.3,58.2 C104.9,58.2 111.9,51.2 111.9,42.6 C111.9,41.7 111.8,40.8 111.7,40 L111.6,39.5 C110.1,32.3 103.7,27.1 96.3,27.1 L93.7,27.1 C93.3,18.9 86.5,12.4 78.3,12.4 C74.7,12.4 71.2,13.7 68.5,15.9 C66.4,6.6 58.3,0 48.8,0 C38,0 29.1,8.5 28.5,19.2 C26,18.1 23.4,17.6 20.6,17.6 C9.4,17.6 0.3,26.7 0.3,37.9 C0.3,49.1 9.4,58.2 20.6,58.2 L28.7,58.2 L28.7,60.5 C28.7,61.6 29.6,62.5 30.7,62.5 L55.3,62.5 L55.3,69 L30.8,69 C29.7,69 28.8,69.9 28.8,71 L28.8,82 C28.8,83.1 29.7,84 30.8,84 L55.4,84 L55.4,90.5 L30.8,90.5 C29.7,90.5 28.8,91.4 28.8,92.5 L28.8,103.4 C28.8,104.5 29.7,105.4 30.8,105.4 L55.4,105.4 L55.4,111.9 L34.3,111.9 C33.9,111.9 33.6,112.2 33.6,112.6 C33.6,113 33.9,113.3 34.3,113.3 L78,113.3 C78.4,113.3 78.7,113 78.7,112.6 C78.7,112.2 78.4,111.9 78,111.9 L56.9,111.9 L56.9,105.4 L81.5,105.4 C82.6,105.4 83.5,104.5 83.5,103.4 L83.5,92.6 C83.5,91.5 82.6,90.6 81.5,90.6 L56.9,90.6 L56.9,84.1 L81.5,84.1 C82.6,84.1 83.5,83.2 83.5,82.1 L83.5,71.1 C83.5,70 82.6,69.1 81.5,69.1 L56.9,69.1 L56.9,62.6 L81.4,62.6 L81.4,62.5 Z" id="path-1"></path>
    </defs>
    <g id="Symbols" stroke="none" stroke-width="1" fill="none" fill-rule="evenodd">
        <g id="Visto-Module" transform="translate(-934.000000, -466.000000)">
            <g id="Group">
                <g transform="translate(934.000000, 466.000000)">
                    <g id="Group-2" opacity="0.300000012" fill-rule="nonzero" fill="#000000">
                        <path d="M1.2,60.7 C0.8,60.7 0.5,61 0.5,61.4 L0.5,72.6 C0.5,73 0.8,73.3 1.2,73.3 C1.6,73.3 2,73 2,72.6 L2,61.4 C2,61 1.7,60.7 1.2,60.7 Z" id="Shape"></path>
                        <path d="M1.2,75.5 C0.8,75.5 0.5,75.8 0.5,76.2 L0.5,79.8 C0.5,80.2 0.8,80.5 1.2,80.5 C1.6,80.5 2,80.3 2,79.9 L2,76.3 C2,75.9 1.7,75.5 1.2,75.5 Z" id="Shape"></path>
                        <path d="M99.2,81.3 C98.8,81.3 98.5,81.6 98.5,82 L98.5,93.2 C98.5,93.6 98.8,93.9 99.2,93.9 C99.6,93.9 99.9,93.6 99.9,93.2 L99.9,82.1 C100,81.7 99.6,81.3 99.2,81.3 Z" id="Shape"></path>
                        <path d="M99.2,96.2 C98.8,96.2 98.5,96.5 98.5,96.9 L98.5,100.5 C98.5,100.9 98.8,101.2 99.2,101.2 C99.6,101.2 99.9,100.9 99.9,100.5 L99.9,96.9 C100,96.5 99.6,96.2 99.2,96.2 Z" id="Shape"></path>
                        <path d="M116.3,7.5 C116.4,7.6 116.6,7.7 116.8,7.7 C117,7.7 117.2,7.6 117.3,7.5 C117.6,7.2 117.6,6.7 117.3,6.5 L115.8,5 C115.5,4.7 115,4.7 114.8,5 C114.5,5.3 114.5,5.8 114.8,6 L116.3,7.5 Z" id="Shape"></path>
                        <path d="M121.2,12.4 C121.3,12.5 121.5,12.6 121.7,12.6 C121.9,12.6 122.1,12.5 122.2,12.4 C122.5,12.1 122.5,11.6 122.2,11.4 L120.7,9.9 C120.4,9.6 119.9,9.6 119.7,9.9 C119.4,10.2 119.4,10.7 119.7,10.9 L121.2,12.4 Z" id="Shape"></path>
                        <path d="M115.3,12.6 C115.5,12.6 115.7,12.5 115.8,12.4 L117.3,10.9 C117.6,10.6 117.6,10.1 117.3,9.9 C117,9.6 116.5,9.6 116.3,9.9 L114.8,11.4 C114.5,11.7 114.5,12.2 114.8,12.4 C114.9,12.5 115.1,12.6 115.3,12.6 Z" id="Shape"></path>
                        <path d="M120.2,7.7 C120.4,7.7 120.6,7.6 120.7,7.5 L122.2,6 C122.5,5.7 122.5,5.2 122.2,5 C121.9,4.7 121.4,4.7 121.2,5 L119.7,6.5 C119.4,6.8 119.4,7.3 119.7,7.5 C119.8,7.6 120,7.7 120.2,7.7 Z" id="Shape"></path>
                        <path d="M13.3,89.5 C13,89.2 12.5,89.2 12.3,89.5 C12,89.8 12,90.3 12.3,90.5 L13.8,92 C13.9,92.1 14.1,92.2 14.3,92.2 C14.5,92.2 14.7,92.1 14.8,92 C15.1,91.7 15.1,91.2 14.8,91 L13.3,89.5 Z" id="Shape"></path>
                        <path d="M18.2,94.4 C17.9,94.1 17.4,94.1 17.2,94.4 C16.9,94.7 16.9,95.2 17.2,95.4 L18.7,96.9 C18.8,97 19,97.1 19.2,97.1 C19.4,97.1 19.6,97 19.7,96.9 C20,96.6 20,96.1 19.7,95.9 L18.2,94.4 Z" id="Shape"></path>
                        <path d="M13.8,94.4 L12.3,96 C12,96.3 12,96.8 12.3,97 C12.4,97.1 12.6,97.2 12.8,97.2 C13,97.2 13.2,97.1 13.3,97 L14.8,95.5 C15.1,95.2 15.1,94.7 14.8,94.5 C14.5,94.2 14.1,94.2 13.8,94.4 Z" id="Shape"></path>
                        <path d="M18.7,89.5 L17.2,91 C16.9,91.3 16.9,91.8 17.2,92 C17.3,92.1 17.5,92.2 17.7,92.2 C17.9,92.2 18.1,92.1 18.2,92 L19.7,90.5 C20,90.2 20,89.7 19.7,89.5 C19.4,89.2 19,89.2 18.7,89.5 Z" id="Shape"></path>
                        <path d="M93.3,119.8 C93,119.5 92.5,119.5 92.3,119.8 C92,120.1 92,120.6 92.3,120.8 L93.8,122.3 C93.9,122.4 94.1,122.5 94.3,122.5 C94.5,122.5 94.7,122.4 94.8,122.3 C95.1,122 95.1,121.5 94.8,121.3 L93.3,119.8 Z" id="Shape"></path>
                        <path d="M98.2,124.7 C97.9,124.4 97.4,124.4 97.2,124.7 C97,125 96.9,125.5 97.2,125.7 L98.7,127.2 C98.8,127.3 99,127.4 99.2,127.4 C99.4,127.4 99.6,127.3 99.7,127.2 C100,126.9 100,126.4 99.7,126.2 L98.2,124.7 Z" id="Shape"></path>
                        <path d="M93.8,124.7 L92.3,126.2 C92,126.5 92,127 92.3,127.2 C92.4,127.3 92.6,127.4 92.8,127.4 C93,127.4 93.2,127.3 93.3,127.2 L94.8,125.7 C95.1,125.4 95.1,124.9 94.8,124.7 C94.5,124.5 94.1,124.4 93.8,124.7 Z" id="Shape"></path>
                        <path d="M98.7,119.8 L97.2,121.3 C96.9,121.6 96.9,122.1 97.2,122.3 C97.3,122.4 97.5,122.5 97.7,122.5 C97.9,122.5 98.1,122.4 98.2,122.3 L99.7,120.8 C100,120.5 100,120 99.7,119.8 C99.4,119.6 99,119.5 98.7,119.8 Z" id="Shape"></path>
                        <path d="M80,9.4 C82,9.4 83.6,7.8 83.6,5.8 C83.6,3.8 82,2.2 80,2.2 C78,2.2 76.4,3.8 76.4,5.8 C76.4,7.8 78.1,9.4 80,9.4 Z M80,3.7 C81.2,3.7 82.1,4.7 82.1,5.8 C82.1,7 81.1,7.9 80,7.9 C78.8,7.9 77.9,6.9 77.9,5.8 C77.9,4.6 78.9,3.7 80,3.7 Z" id="Shape"></path>
                        <path d="M113.2,70.6 C113.2,72.6 114.8,74.2 116.8,74.2 C118.8,74.2 120.4,72.6 120.4,70.6 C120.4,68.6 118.8,67 116.8,67 C114.8,67 113.2,68.7 113.2,70.6 Z M118.9,70.6 C118.9,71.8 117.9,72.7 116.8,72.7 C115.6,72.7 114.7,71.7 114.7,70.6 C114.7,69.4 115.7,68.5 116.8,68.5 C118,68.5 118.9,69.5 118.9,70.6 Z" id="Shape"></path>
                        <path d="M28.9,119.6 C26.9,119.6 25.3,121.2 25.3,123.2 C25.3,125.2 26.9,126.8 28.9,126.8 C30.9,126.8 32.5,125.2 32.5,123.2 C32.5,121.2 30.9,119.6 28.9,119.6 Z M28.9,125.3 C27.7,125.3 26.8,124.3 26.8,123.2 C26.8,122 27.8,121.1 28.9,121.1 C30.1,121.1 31,122.1 31,123.2 C31,124.4 30,125.3 28.9,125.3 Z" id="Shape"></path>
                        <path d="M116.1,109.2 L102.8,109.2 C102.4,109.2 102.1,109.5 102.1,109.9 C102.1,110.3 102.4,110.6 102.8,110.6 L116.1,110.6 C116.5,110.6 116.8,110.3 116.8,109.9 C116.8,109.5 116.5,109.2 116.1,109.2 Z" id="Shape"></path>
                        <path d="M124.8,109.2 L120.5,109.2 C120.1,109.2 119.8,109.5 119.8,109.9 C119.8,110.3 120.1,110.6 120.5,110.6 L124.8,110.6 C125.2,110.6 125.5,110.3 125.5,109.9 C125.5,109.5 125.2,109.2 124.8,109.2 Z" id="Shape"></path>
                        <path d="M114.7,105.3 C114.7,105.7 115,106 115.4,106 L124.7,106 C125.1,106 125.4,105.7 125.4,105.3 C125.4,104.9 125.1,104.6 124.7,104.6 L115.4,104.6 C115.1,104.6 114.7,104.9 114.7,105.3 Z" id="Shape"></path>
                        <path d="M108.5,104.6 C108.1,104.6 107.8,104.9 107.8,105.3 C107.8,105.7 108.1,106 108.5,106 L111.5,106 C111.9,106 112.2,105.7 112.2,105.3 C112.2,104.9 111.9,104.6 111.5,104.6 L108.5,104.6 Z" id="Shape"></path>
                        <path d="M9.9,2 L23.2,2 C23.6,2 23.9,1.7 23.9,1.3 C23.9,0.9 23.6,0.6 23.2,0.6 L9.9,0.6 C9.5,0.6 9.2,0.9 9.2,1.3 C9.2,1.7 9.5,2 9.9,2 Z" id="Shape"></path>
                        <path d="M1.2,2 L5.5,2 C6,2 6.3,1.6 6.3,1.2 C6.3,0.8 6,0.5 5.5,0.5 L1.2,0.5 C0.8,0.5 0.5,0.8 0.5,1.2 C0.5,1.6 0.8,2 1.2,2 Z" id="Shape"></path>
                        <path d="M1.2,6.5 L10.5,6.5 C10.9,6.5 11.2,6.2 11.2,5.8 C11.2,5.4 10.9,5.1 10.5,5.1 L1.2,5.1 C0.8,5.1 0.5,5.4 0.5,5.8 C0.5,6.2 0.8,6.5 1.2,6.5 Z" id="Shape"></path>
                        <path d="M14.5,5.1 C14.1,5.1 13.8,5.4 13.8,5.8 C13.8,6.2 14.1,6.5 14.5,6.5 L17.5,6.5 C17.9,6.5 18.2,6.2 18.2,5.8 C18.2,5.4 17.9,5.1 17.5,5.1 L14.5,5.1 Z" id="Shape"></path>
                    </g>
                    <g id="Rectangle" transform="translate(6.000000, 4.000000)">
                        <mask id="mask-2" fill="white">
                            <use xlink:href="#path-1"></use>
                        </mask>
                        <use id="Mask" fill="#FFFFFF" xlink:href="#path-1"></use>
                        <rect fill-opacity="0.174932065" fill="#3CACA0" mask="url(#mask-2)" x="-4" y="-16" width="60" height="146"></rect>
                    </g>
                    <path d="M87.4,66.5 C88.5,66.5 89.4,65.6 89.4,64.5 L89.4,62.2 L102.3,62.2 C110.9,62.2 117.9,55.2 117.9,46.6 C117.9,45.7 117.8,44.8 117.7,44 L117.6,43.5 C116.1,36.3 109.7,31.1 102.3,31.1 L99.7,31.1 C99.3,22.9 92.5,16.4 84.3,16.4 C80.7,16.4 77.2,17.7 74.5,19.9 C72.4,10.6 64.3,4 54.8,4 C44,4 35.1,12.5 34.5,23.2 C32,22.1 29.4,21.6 26.6,21.6 C15.4,21.6 6.3,30.7 6.3,41.9 C6.3,53.1 15.4,62.2 26.6,62.2 L34.7,62.2 L34.7,64.5 C34.7,65.6 35.6,66.5 36.7,66.5 L61.3,66.5 L61.3,73 L36.8,73 C35.7,73 34.8,73.9 34.8,75 L34.8,86 C34.8,87.1 35.7,88 36.8,88 L61.4,88 L61.4,94.5 L36.8,94.5 C35.7,94.5 34.8,95.4 34.8,96.5 L34.8,107.4 C34.8,108.5 35.7,109.4 36.8,109.4 L61.4,109.4 L61.4,115.9 L40.3,115.9 C39.9,115.9 39.6,116.2 39.6,116.6 C39.6,117 39.9,117.3 40.3,117.3 L84,117.3 C84.4,117.3 84.7,117 84.7,116.6 C84.7,116.2 84.4,115.9 84,115.9 L62.9,115.9 L62.9,109.4 L87.5,109.4 C88.6,109.4 89.5,108.5 89.5,107.4 L89.5,96.6 C89.5,95.5 88.6,94.6 87.5,94.6 L62.9,94.6 L62.9,88.1 L87.5,88.1 C88.6,88.1 89.5,87.2 89.5,86.1 L89.5,75.1 C89.5,74 88.6,73.1 87.5,73.1 L62.9,73.1 L62.9,66.6 L87.4,66.6 L87.4,66.5 Z M88,96.6 L88,107.5 C88,107.8 87.7,108.1 87.4,108.1 L36.8,108.1 C36.5,108.1 36.2,107.8 36.2,107.5 L36.2,96.6 C36.2,96.3 36.5,96 36.8,96 L87.4,96 C87.8,96.1 88,96.3 88,96.6 Z M88,75.1 L88,86 C88,86.3 87.7,86.6 87.4,86.6 L36.8,86.6 C36.5,86.6 36.2,86.3 36.2,86 L36.2,75.1 C36.2,74.8 36.5,74.5 36.8,74.5 L87.4,74.5 C87.8,74.5 88,74.8 88,75.1 Z M26.6,60.7 C16.2,60.7 7.8,52.3 7.8,41.9 C7.8,31.5 16.3,23 26.6,23 C29.3,23 32,23.6 34.4,24.7 C34.4,26.7 34.8,28.7 35.4,30.6 C35.5,30.9 35.8,31.1 36.1,31.1 L36.3,31.1 C36.7,31 36.9,30.6 36.8,30.2 C36.2,28.3 35.9,26.3 35.9,24.3 C35.9,13.9 44.3,5.5 54.7,5.5 C63.9,5.5 71.6,12 73.2,21 C71.9,22.3 70.9,23.8 70.1,25.6 C69.9,26 70.1,26.4 70.5,26.6 C70.9,26.8 71.3,26.6 71.5,26.2 C73.7,21.1 78.8,17.9 84.3,17.9 C92,17.9 98.3,24.2 98.3,31.9 C98.3,32.3 98.6,32.6 99,32.6 L99.2,32.6 L102.2,32.6 C108.9,32.6 114.7,37.3 116,43.8 L116.1,44.3 C116.2,45.1 116.3,45.9 116.3,46.7 C116.3,54.5 110,60.8 102.2,60.8 L89.5,60.8 L89.5,53.7 C89.5,52.6 88.6,51.7 87.5,51.7 L36.8,51.7 C35.7,51.7 34.8,52.6 34.8,53.7 L34.8,60.8 L26.6,60.8 L26.6,60.7 Z M36.2,64.5 L36.2,61.5 L36.2,61.5 L36.2,61.5 L36.2,53.7 C36.2,53.4 36.5,53.1 36.8,53.1 L87.4,53.1 C87.7,53.1 88,53.4 88,53.7 L88,64.6 C88,64.9 87.7,65.2 87.4,65.2 L36.8,65.2 C36.5,65.1 36.2,64.8 36.2,64.5 Z" id="Shape" fill="#3CACA0" fill-rule="nonzero"></path>
                    <path d="M43,55 C40.8,55 39,56.8 39,59 C39,61.2 40.8,63 43,63 C45.2,63 47,61.2 47,59 C47,56.8 45.2,55 43,55 Z M43,61.5 C41.6,61.5 40.5,60.4 40.5,59 C40.5,57.6 41.6,56.5 43,56.5 C44.4,56.5 45.5,57.6 45.5,59 C45.6,60.4 44.4,61.5 43,61.5 Z" id="Shape" fill="#3CACA0" fill-rule="nonzero"></path>
                    <path d="M52.2,56.9 C50.5,56.9 49.1,58.3 49.1,60 C49.1,61.7 50.5,63.1 52.2,63.1 C53.9,63.1 55.3,61.7 55.3,60 C55.3,58.3 53.9,56.9 52.2,56.9 Z M52.2,61.5 C51.3,61.5 50.6,60.8 50.6,59.9 C50.6,59 51.3,58.3 52.2,58.3 C53.1,58.3 53.8,59 53.8,59.9 C53.8,60.8 53.1,61.5 52.2,61.5 Z" id="Shape" fill="#3CACA0" fill-rule="nonzero"></path>
                    <path d="M84.7,61 C84.7,60.6 84.4,60.3 84,60.3 L60,60.3 C59.6,60.3 59.3,60.6 59.3,61 C59.3,61.4 59.6,61.7 60,61.7 L84,61.7 C84.4,61.8 84.7,61.4 84.7,61 Z" id="Shape" fill="#3CACA0" fill-rule="nonzero"></path>
                    <path d="M65.6,57.7 L84,57.7 C84.4,57.7 84.7,57.4 84.7,57 C84.7,56.6 84.4,56.3 84,56.3 L65.6,56.3 C65.2,56.3 64.9,56.6 64.9,57 C64.9,57.4 65.2,57.7 65.6,57.7 Z" id="Shape" fill="#3CACA0" fill-rule="nonzero"></path>
                    <path d="M43,76.6 C40.8,76.6 39,78.4 39,80.6 C39,82.8 40.8,84.6 43,84.6 C45.2,84.6 47,82.8 47,80.6 C47,78.4 45.2,76.6 43,76.6 Z M43,83.1 C41.6,83.1 40.5,82 40.5,80.6 C40.5,79.2 41.6,78.1 43,78.1 C44.4,78.1 45.5,79.2 45.5,80.6 C45.6,81.9 44.4,83.1 43,83.1 Z" id="Shape" fill="#3CACA0" fill-rule="nonzero"></path>
                    <path d="M52.2,78.4 C50.5,78.4 49.1,79.8 49.1,81.5 C49.1,83.2 50.5,84.6 52.2,84.6 C53.9,84.6 55.3,83.2 55.3,81.5 C55.3,79.8 53.9,78.4 52.2,78.4 Z M52.2,83.1 C51.3,83.1 50.6,82.4 50.6,81.5 C50.6,80.6 51.3,79.9 52.2,79.9 C53.1,79.9 53.8,80.6 53.8,81.5 C53.8,82.4 53.1,83.1 52.2,83.1 Z" id="Shape" fill="#3CACA0" fill-rule="nonzero"></path>
                    <path d="M84,81.8 L60,81.8 C59.6,81.8 59.3,82.1 59.3,82.5 C59.3,82.9 59.6,83.2 60,83.2 L84,83.2 C84.4,83.2 84.7,82.9 84.7,82.5 C84.7,82.2 84.4,81.8 84,81.8 Z" id="Shape" fill="#3CACA0" fill-rule="nonzero"></path>
                    <path d="M65.6,79.3 L84,79.3 C84.4,79.3 84.7,79 84.7,78.6 C84.7,78.2 84.4,77.9 84,77.9 L65.6,77.9 C65.2,77.9 64.9,78.2 64.9,78.6 C64.9,78.9 65.2,79.3 65.6,79.3 Z" id="Shape" fill="#3CACA0" fill-rule="nonzero"></path>
                    <path d="M43,98.1 C40.8,98.1 39,99.9 39,102.1 C39,104.3 40.8,106.1 43,106.1 C45.2,106.1 47,104.3 47,102.1 C47,99.9 45.2,98.1 43,98.1 Z M43,104.6 C41.6,104.6 40.5,103.5 40.5,102.1 C40.5,100.7 41.6,99.6 43,99.6 C44.4,99.6 45.5,100.7 45.5,102.1 C45.6,103.5 44.4,104.6 43,104.6 Z" id="Shape" fill="#3CACA0" fill-rule="nonzero"></path>
                    <path d="M52.2,99.9 C50.5,99.9 49.1,101.3 49.1,103 C49.1,104.7 50.5,106.1 52.2,106.1 C53.9,106.1 55.3,104.7 55.3,103 C55.3,101.3 53.9,99.9 52.2,99.9 Z M52.2,104.6 C51.3,104.6 50.6,103.9 50.6,103 C50.6,102.1 51.3,101.4 52.2,101.4 C53.1,101.4 53.8,102.1 53.8,103 C53.8,103.9 53.1,104.6 52.2,104.6 Z" id="Shape" fill="#3CACA0" fill-rule="nonzero"></path>
                    <path d="M84,103.4 L60,103.4 C59.6,103.4 59.3,103.7 59.3,104.1 C59.3,104.5 59.6,104.8 60,104.8 L84,104.8 C84.4,104.8 84.7,104.5 84.7,104.1 C84.7,103.7 84.4,103.4 84,103.4 Z" id="Shape" fill="#3CACA0" fill-rule="nonzero"></path>
                    <path d="M65.6,100.8 L84,100.8 C84.4,100.8 84.7,100.5 84.7,100.1 C84.7,99.7 84.4,99.4 84,99.4 L65.6,99.4 C65.2,99.4 64.9,99.7 64.9,100.1 C64.9,100.5 65.2,100.8 65.6,100.8 Z" id="Shape" fill="#3CACA0" fill-rule="nonzero"></path>
                    <path d="M41.3,25.9 L41.4,25.9 C41.8,25.8 42.1,25.4 42,25 C41.3,21.5 42.3,18 44.8,15.4 C47.6,12.4 51.8,10.8 56.2,11.3 C56.6,11.3 57,11 57,10.6 C57,10.2 56.7,9.8 56.3,9.8 C51.5,9.3 46.8,11 43.7,14.4 C40.9,17.4 39.8,21.3 40.6,25.3 C40.7,25.6 41,25.9 41.3,25.9 Z" id="Shape" fill="#3CACA0" fill-rule="nonzero"></path>
                </g>
            </g>
        </g>
    </g>
</svg>