<?xml version="1.0" encoding="UTF-8" standalone="no"?>
<svg width="124px" height="128px" viewBox="0 0 124 128" version="1.1" xmlns="http://www.w3.org/2000/svg" xmlns:xlink="http://www.w3.org/1999/xlink">
    <!-- Generator: Sketch 42 (36781) - http://www.bohemiancoding.com/sketch -->
    <title>Group</title>
    <desc>Created with Sketch.</desc>
    <defs></defs>
    <g id="Symbols" stroke="none" stroke-width="1" fill="none" fill-rule="evenodd">
        <g id="Visto-Module" transform="translate(-253.000000, -1118.000000)" fill-rule="nonzero">
            <g id="Group">
                <g transform="translate(253.000000, 1118.000000)">
                    <path d="M121.8,81.3 C122.2,81.3 122.6,81 122.6,80.5 L122.6,69.1 C122.6,68.7 122.3,68.3 121.8,68.3 C121.4,68.3 121,68.6 121,69.1 L121,80.6 C121,81 121.4,81.3 121.8,81.3 Z" id="Shape" fill="#959595"></path>
                    <path d="M121.8,88.9 C122.2,88.9 122.6,88.6 122.6,88.1 L122.6,84.4 C122.6,84 122.3,83.6 121.8,83.6 C121.4,83.6 121,83.9 121,84.4 L121,88.1 C121,88.5 121.4,88.9 121.8,88.9 Z" id="Shape" fill="#959595"></path>
                    <path d="M5,51.2 C4.7,50.9 4.2,50.9 3.9,51.2 C3.6,51.5 3.6,52 3.9,52.3 L5.5,53.9 C5.7,54 5.9,54.1 6,54.1 C6.2,54.1 6.4,54 6.5,53.9 C6.8,53.6 6.8,53.1 6.5,52.8 L5,51.2 Z" id="Shape" fill="#959595"></path>
                    <path d="M10.1,56.4 C9.8,56.1 9.3,56.1 9,56.4 C8.7,56.7 8.7,57.2 9,57.5 L10.6,59.1 C10.7,59.2 10.9,59.3 11.1,59.3 C11.3,59.3 11.5,59.2 11.6,59.1 C11.9,58.8 11.9,58.3 11.6,58 L10.1,56.4 Z" id="Shape" fill="#959595"></path>
                    <path d="M5.5,56.4 L3.9,58 C3.6,58.3 3.6,58.8 3.9,59.1 C4,59.2 4.2,59.3 4.4,59.3 C4.6,59.3 4.8,59.2 4.9,59.1 L6.5,57.5 C6.8,57.2 6.8,56.7 6.5,56.4 C6.3,56.1 5.8,56.1 5.5,56.4 Z" id="Shape" fill="#959595"></path>
                    <path d="M11.7,51.2 C11.4,50.9 10.9,50.9 10.6,51.2 L9,52.8 C8.7,53.1 8.7,53.6 9,53.9 C9.1,54 9.3,54.1 9.5,54.1 C9.7,54.1 9.9,54 10,53.9 L11.6,52.3 C12,52 12,51.5 11.7,51.2 Z" id="Shape" fill="#959595"></path>
                    <path d="M103.9,3.4 C104,3.5 104.2,3.6 104.4,3.6 C104.6,3.6 104.8,3.5 104.9,3.4 C105.2,3.1 105.2,2.6 104.9,2.3 L103.3,0.7 C103,0.4 102.5,0.4 102.2,0.7 C101.9,1 101.9,1.5 102.2,1.8 L103.9,3.4 Z" id="Shape" fill="#959595"></path>
                    <path d="M109,8.5 C109.1,8.6 109.3,8.7 109.5,8.7 C109.7,8.7 109.9,8.6 110,8.5 C110.3,8.2 110.3,7.7 110,7.4 L108.4,5.8 C108.1,5.5 107.6,5.5 107.3,5.8 C107,6.1 107,6.6 107.3,6.9 L109,8.5 Z" id="Shape" fill="#959595"></path>
                    <path d="M102.8,8.7 C103,8.7 103.2,8.6 103.3,8.5 L104.9,6.9 C105.2,6.6 105.2,6.1 104.9,5.8 C104.6,5.5 104.1,5.5 103.8,5.8 L102.2,7.4 C101.9,7.7 101.9,8.2 102.2,8.5 C102.4,8.6 102.6,8.7 102.8,8.7 Z" id="Shape" fill="#959595"></path>
                    <path d="M107.9,3.6 C108.1,3.6 108.3,3.5 108.4,3.4 L110,1.8 C110.3,1.5 110.3,1 110,0.7 C109.7,0.4 109.2,0.4 108.9,0.7 L107.3,2.3 C107,2.6 107,3.1 107.3,3.4 C107.6,3.5 107.7,3.6 107.9,3.6 Z" id="Shape" fill="#959595"></path>
                    <path d="M116.4,108.5 C116.1,108.2 115.6,108.2 115.3,108.5 C115,108.8 115,109.3 115.3,109.6 L116.9,111.2 C117,111.3 117.2,111.4 117.4,111.4 C117.6,111.4 117.8,111.3 117.9,111.2 C118.2,110.9 118.2,110.4 117.9,110.1 L116.4,108.5 Z" id="Shape" fill="#959595"></path>
                    <path d="M121.5,113.6 C121.2,113.3 120.7,113.3 120.4,113.6 C120.1,113.9 120.1,114.4 120.4,114.7 L122,116.3 C122.1,116.4 122.3,116.5 122.5,116.5 C122.7,116.5 122.9,116.4 123,116.3 C123.3,116 123.3,115.5 123,115.2 L121.5,113.6 Z" id="Shape" fill="#959595"></path>
                    <path d="M116.9,113.6 L115.3,115.2 C115,115.5 115,116 115.3,116.3 C115.4,116.4 115.6,116.5 115.8,116.5 C116,116.5 116.2,116.4 116.3,116.3 L117.9,114.7 C118.2,114.4 118.2,113.9 117.9,113.6 C117.7,113.3 117.2,113.3 116.9,113.6 Z" id="Shape" fill="#959595"></path>
                    <path d="M121,111.4 C121.2,111.4 121.4,111.3 121.5,111.2 L123.1,109.6 C123.4,109.3 123.4,108.8 123.1,108.5 C122.8,108.2 122.3,108.2 122,108.5 L120.4,110.1 C120.1,110.4 120.1,110.9 120.4,111.2 C120.6,111.3 120.8,111.4 121,111.4 Z" id="Shape" fill="#959595"></path>
                    <path d="M115.9,25.1 C117.8,25.1 119.3,23.6 119.3,21.7 C119.3,19.8 117.8,18.3 115.9,18.3 C114,18.3 112.5,19.8 112.5,21.7 C112.4,23.5 114,25.1 115.9,25.1 Z M115.9,19.7 C117,19.7 117.8,20.6 117.8,21.6 C117.8,22.7 116.9,23.5 115.9,23.5 C114.8,23.5 114,22.6 114,21.6 C113.9,20.5 114.8,19.7 115.9,19.7 Z" id="Shape" fill="#959595"></path>
                    <path d="M10.3,108.2 C8.4,108.2 6.9,109.7 6.9,111.6 C6.9,113.5 8.4,115 10.3,115 C12.2,115 13.7,113.5 13.7,111.6 C13.8,109.7 12.2,108.2 10.3,108.2 Z M10.3,113.5 C9.2,113.5 8.4,112.6 8.4,111.6 C8.4,110.5 9.3,109.7 10.3,109.7 C11.4,109.7 12.2,110.6 12.2,111.6 C12.3,112.7 11.4,113.5 10.3,113.5 Z" id="Shape" fill="#959595"></path>
                    <path d="M14.7,7.1 C14.7,6.7 14.4,6.3 13.9,6.3 L1.4,6.3 C1,6.3 0.7,6.7 0.7,7.1 C0.7,7.5 1,7.9 1.5,7.9 L14,7.9 C14.3,7.8 14.7,7.5 14.7,7.1 Z" id="Shape" fill="#959595"></path>
                    <path d="M18,7.8 L22,7.8 C22.4,7.8 22.8,7.5 22.8,7 C22.8,6.6 22.5,6.2 22,6.2 L18,6.2 C17.6,6.2 17.2,6.5 17.2,7 C17.3,7.5 17.6,7.8 18,7.8 Z" id="Shape" fill="#959595"></path>
                    <path d="M22.1,12.1 C22.5,12.1 22.9,11.8 22.9,11.3 C22.9,10.9 22.6,10.5 22.1,10.5 L13.4,10.5 C13,10.5 12.6,10.8 12.6,11.3 C12.6,11.7 12.9,12.1 13.4,12.1 L22.1,12.1 Z" id="Shape" fill="#959595"></path>
                    <path d="M10.4,11.4 C10.4,11 10.1,10.6 9.6,10.6 L6.8,10.6 C6.4,10.6 6,11 6,11.4 C6,11.8 6.3,12.2 6.8,12.2 L9.6,12.2 C10,12.1 10.4,11.8 10.4,11.4 Z" id="Shape" fill="#959595"></path>
                    <path d="M99.9,121.8 C99.9,121.4 99.6,121 99.1,121 L86.6,121 C86.2,121 85.8,121.3 85.8,121.8 C85.8,122.2 86.1,122.6 86.6,122.6 L99.1,122.6 C99.5,122.5 99.9,122.2 99.9,121.8 Z" id="Shape" fill="#959595"></path>
                    <path d="M107.3,122.5 C107.7,122.5 108.1,122.2 108.1,121.7 C108.1,121.3 107.8,120.9 107.3,120.9 L103.3,120.9 C102.9,120.9 102.5,121.2 102.5,121.7 C102.5,122.1 102.8,122.5 103.3,122.5 L107.3,122.5 Z" id="Shape" fill="#959595"></path>
                    <path d="M107.3,125.3 L98.6,125.3 C98.2,125.3 97.8,125.6 97.8,126.1 C97.8,126.5 98.1,126.9 98.6,126.9 L107.3,126.9 C107.7,126.9 108.1,126.6 108.1,126.1 C108,125.7 107.7,125.3 107.3,125.3 Z" id="Shape" fill="#959595"></path>
                    <path d="M94.8,125.3 L92,125.3 C91.6,125.3 91.2,125.6 91.2,126.1 C91.2,126.5 91.5,126.9 92,126.9 L94.8,126.9 C95.2,126.9 95.6,126.6 95.6,126.1 C95.6,125.7 95.2,125.3 94.8,125.3 Z" id="Shape" fill="#959595"></path>
                    <path d="M40,120.9 L27.5,120.9 C27.1,120.9 26.7,121.2 26.7,121.7 C26.7,122.1 27,122.5 27.5,122.5 L40,122.5 C40.4,122.5 40.8,122.2 40.8,121.7 C40.8,121.3 40.4,120.9 40,120.9 Z" id="Shape" fill="#959595"></path>
                    <path d="M23.4,120.9 L19.4,120.9 C19,120.9 18.6,121.2 18.6,121.7 C18.6,122.1 18.9,122.5 19.4,122.5 L23.4,122.5 C23.8,122.5 24.2,122.2 24.2,121.7 C24.2,121.3 23.8,120.9 23.4,120.9 Z" id="Shape" fill="#959595"></path>
                    <path d="M19.4,116.6 C19,116.6 18.6,116.9 18.6,117.4 C18.6,117.8 18.9,118.2 19.4,118.2 L28.1,118.2 C28.5,118.2 28.9,117.9 28.9,117.4 C28.9,117 28.6,116.6 28.1,116.6 L19.4,116.6 Z" id="Shape" fill="#959595"></path>
                    <path d="M31.8,116.6 C31.4,116.6 31,116.9 31,117.4 C31,117.8 31.3,118.2 31.8,118.2 L34.6,118.2 C35,118.2 35.4,117.9 35.4,117.4 C35.4,117 35.1,116.6 34.6,116.6 L31.8,116.6 Z" id="Shape" fill="#959595"></path>
                    <path d="M99.9,80.8 C99.8,81.2 100.1,81.6 100.5,81.7 L111.6,84 L111.8,84 C112.1,84 112.5,83.8 112.5,83.4 C112.6,83 112.3,82.6 111.9,82.5 L100.8,80.2 C100.4,80.2 100,80.4 99.9,80.8 Z" id="Shape" fill="#06ACA1"></path>
                    <path d="M63.5,24.2 C63.9,24.2 64.3,23.9 64.3,23.4 L64.3,4.6 C64.3,4.2 64,3.8 63.5,3.8 C63.1,3.8 62.7,4.1 62.7,4.6 L62.7,23.4 C62.7,23.8 63.1,24.2 63.5,24.2 Z" id="Shape" fill="#06ACA1"></path>
                    <path d="M39.9,30.1 C40,30.3 40.3,30.5 40.5,30.5 C40.6,30.5 40.8,30.5 40.9,30.4 C41.3,30.2 41.4,29.7 41.2,29.4 L31.6,13.2 C31.4,12.8 30.9,12.7 30.6,12.9 C30.2,13.1 30.1,13.6 30.3,13.9 L39.9,30.1 Z" id="Shape" fill="#06ACA1"></path>
                    <path d="M24.2,47.1 C24.5,47.1 24.7,47 24.9,46.7 C25.1,46.3 25,45.9 24.6,45.7 L8.2,36.4 C7.8,36.2 7.4,36.3 7.2,36.7 C7,37.1 7.1,37.5 7.5,37.7 L23.8,47 C23.9,47 24.1,47.1 24.2,47.1 Z" id="Shape" fill="#06ACA1"></path>
                    <path d="M31.6,90.9 C31.4,90.5 30.9,90.4 30.6,90.6 L14.3,100.1 C13.9,100.3 13.8,100.8 14,101.1 C14.1,101.3 14.4,101.5 14.7,101.5 C14.8,101.5 15,101.5 15.1,101.4 L31.3,92 C31.7,91.8 31.8,91.3 31.6,90.9 Z" id="Shape" fill="#06ACA1"></path>
                    <path d="M112.6,100.2 L96.4,90.7 C96,90.5 95.6,90.6 95.4,91 C95.2,91.4 95.3,91.8 95.7,92 L111.9,101.5 C112,101.6 112.2,101.6 112.3,101.6 C112.6,101.6 112.8,101.5 113,101.2 C113.1,100.9 113,100.4 112.6,100.2 Z" id="Shape" fill="#06ACA1"></path>
                    <path d="M118.8,36.5 L102.4,45.7 C102,45.9 101.9,46.4 102.1,46.7 C102.2,46.9 102.5,47.1 102.8,47.1 C102.9,47.1 103.1,47.1 103.2,47 L119.6,37.8 C120,37.6 120.1,37.1 119.9,36.8 C119.7,36.4 119.2,36.3 118.8,36.5 Z" id="Shape" fill="#06ACA1"></path>
                    <path d="M86.2,30.4 C86.3,30.5 86.5,30.5 86.6,30.5 C86.9,30.5 87.1,30.4 87.2,30.1 L96.8,13.9 C97,13.5 96.9,13.1 96.5,12.9 C96.1,12.7 95.7,12.8 95.5,13.2 L85.9,29.4 C85.7,29.7 85.8,30.2 86.2,30.4 Z" id="Shape" fill="#06ACA1"></path>
                    <path d="M52.1,24.7 C52.2,25 52.5,25.2 52.8,25.2 L53,25.2 C53.4,25.1 53.6,24.7 53.5,24.3 L50.1,13.5 C50,13.1 49.6,12.9 49.2,13 C48.8,13.1 48.6,13.5 48.7,13.9 L52.1,24.7 Z" id="Shape" fill="#06ACA1"></path>
                    <path d="M31.6,36.3 C31.7,36.4 31.9,36.5 32.1,36.5 C32.3,36.5 32.5,36.4 32.7,36.3 C33,36 33,35.5 32.7,35.2 L24.4,27.6 C24.1,27.3 23.6,27.3 23.3,27.6 C23,27.9 23,28.4 23.3,28.7 L31.6,36.3 Z" id="Shape" fill="#06ACA1"></path>
                    <path d="M14.4,83.1 C14.5,83.4 14.8,83.6 15.1,83.6 L15.3,83.6 L26.1,80.2 C26.5,80.1 26.7,79.7 26.6,79.3 C26.5,78.9 26,78.7 25.7,78.8 L14.9,82.2 C14.5,82.3 14.3,82.7 14.4,83.1 Z" id="Shape" fill="#06ACA1"></path>
                    <path d="M37.8,99.5 C37.5,99.2 37,99.2 36.7,99.6 L29.1,108 C28.8,108.3 28.8,108.8 29.2,109.1 C29.3,109.2 29.5,109.3 29.7,109.3 C29.9,109.3 30.1,109.2 30.3,109.1 L37.9,100.7 C38.1,100.3 38.1,99.8 37.8,99.5 Z" id="Shape" fill="#06ACA1"></path>
                    <path d="M88,100.7 C87.7,101 87.7,101.5 88.1,101.8 L96.5,109.4 C96.6,109.5 96.8,109.6 97,109.6 C97.2,109.6 97.4,109.5 97.6,109.4 C97.9,109.1 97.9,108.6 97.5,108.3 L89.1,100.7 C88.8,100.4 88.3,100.4 88,100.7 Z" id="Shape" fill="#06ACA1"></path>
                    <path d="M103,28 L95.5,36.4 C95.2,36.7 95.2,37.2 95.6,37.5 C95.7,37.6 95.9,37.7 96.1,37.7 C96.3,37.7 96.5,37.6 96.7,37.4 L104.2,29 C104.5,28.7 104.5,28.2 104.1,27.9 C103.7,27.6 103.2,27.7 103,28 Z" id="Shape" fill="#06ACA1"></path>
                    <path d="M75.6,25.6 L75.8,25.6 C76.1,25.6 76.5,25.4 76.5,25 L78.8,14 C78.9,13.6 78.6,13.2 78.2,13.1 C77.8,13 77.4,13.3 77.3,13.7 L75,24.7 C74.9,25.1 75.2,25.5 75.6,25.6 Z" id="Shape" fill="#06ACA1"></path>
                    <path d="M94.7,67.8 L94.9,67.8 L95.1,67.8 C95.2,67.8 95.3,67.8 95.4,67.7 L108.2,62 C108.5,61.9 108.6,61.6 108.6,61.3 C108.6,61 108.4,60.7 108.2,60.6 L95.4,54.9 C95.2,54.8 95.1,54.8 94.9,54.9 L94.7,54.9 L80.5,54.9 L80.5,54 L80.5,53.7 C80.5,51.4 78.7,49.6 76.4,49.6 L75.8,49.6 C74.8,49.6 73.8,50 73.1,50.6 C72.8,48.7 71.2,47.3 69.2,47.3 L68.3,47.3 C67.1,47.3 66.1,47.8 65.3,48.7 C64.6,47.4 63.2,46.5 61.6,46.5 L61.2,46.5 C59.9,46.5 58.7,47.1 57.9,48.1 C57.2,46.8 55.8,46 54.3,46 L53.9,46 C51.6,46 49.7,47.9 49.7,50.2 L49.7,51.7 C49.4,51.7 49.2,51.8 48.9,51.9 C48.8,51.9 48.7,52 48.6,52 C48.1,52.2 47.7,52.5 47.3,52.8 C47.2,52.9 47.1,53 47.1,53.1 C46.7,53.6 46.4,54.3 46.3,54.9 L27.4,54.9 C23.8,54.9 20.9,57.8 20.9,61.4 C20.9,65 23.8,67.9 27.4,67.9 L33.9,67.9 L33.9,67.9 L33.9,67.9 L46.5,67.9 L46.5,75.2 C46.5,79.6 49,83.7 52.9,85.7 C54,99.3 54,113.2 52.9,126.8 L52.8,127.6 L75,127.6 L74.9,126.8 C73.8,113.2 73.8,99.4 74.9,85.7 C78.3,83.6 80.5,79.8 80.5,76 L80.5,67.9 L94.7,67.9 L94.7,67.8 Z M95.5,66.1 L95.5,56.6 L106.1,61.3 L95.5,66.1 Z M94,56.4 L94,66.3 L80.5,66.3 L80.5,59.7 L80.5,56.4 L94,56.4 Z M75.9,51.1 L76.5,51.1 C77.9,51.1 79.1,52.3 79.1,53.7 L79.1,54 L79.1,59.6 C79.1,61 77.9,62.2 76.5,62.2 L75.9,62.2 C74.5,62.2 73.3,61 73.3,59.6 L73.3,53.7 C73.3,52.3 74.4,51.1 75.9,51.1 Z M66,51.2 C66,49.9 67.1,48.8 68.4,48.8 L69.3,48.8 C70.6,48.8 71.7,49.9 71.7,51.2 L71.7,53.7 L71.7,59.6 L71.7,59.6 C71.7,61 70.5,62.2 69.1,62.2 L68.5,62.2 C67.1,62.2 65.9,61 65.9,59.6 L65.9,51.2 L66,51.2 Z M61.4,47.9 L61.8,47.9 C63.3,47.9 64.5,49.1 64.5,50.6 L64.5,59.4 C64.5,61 63.2,62.3 61.6,62.3 C60.4,62.3 59.3,61.5 58.9,60.4 L59.4,60.4 C61.7,60.4 63.6,58.5 63.6,56.2 L63.6,55.8 C63.6,53.5 61.7,51.6 59.4,51.6 L58.7,51.6 L58.7,50.7 C58.7,49.2 59.9,47.9 61.4,47.9 Z M55.3,60.4 L57,60.4 C56.7,61.2 56.1,61.8 55.3,62.1 L55.3,60.4 Z M51.4,50.2 C51.4,48.7 52.6,47.5 54.1,47.5 L54.5,47.5 C56,47.5 57.2,48.7 57.2,50.2 L57.2,50.7 L57.2,51.6 L51.4,51.6 L51.4,50.2 L51.4,50.2 Z M22.4,61.3 C22.4,58.6 24.6,56.3 27.4,56.3 L33.1,56.3 L33.1,66.2 L27.4,66.2 C24.6,66.3 22.4,64.1 22.4,61.3 Z M34.6,66.3 L34.6,56.4 L46.4,56.4 L46.4,57.4 L46.4,66.4 L34.6,66.4 L34.6,66.3 Z M73.8,84.5 C73.6,84.6 73.5,84.9 73.4,85.1 L73.4,85.1 C72.3,98.7 72.3,112.4 73.3,126 L54.3,126 C55.3,112.5 55.3,98.8 54.2,85.2 C54.3,84.9 54.1,84.5 53.8,84.4 C50.2,82.7 47.9,79 47.9,75 L47.9,57.3 L47.9,55.4 C47.9,54.9 48.1,54.4 48.4,54 C48.4,53.9 48.5,53.9 48.6,53.8 C48.8,53.6 49.1,53.4 49.4,53.3 C49.4,53.3 49.5,53.3 49.6,53.2 C49.9,53.1 50.2,53.1 50.5,53.1 L57.2,53.1 L58.7,53.1 L59.4,53.1 C60.9,53.1 62.1,54.3 62.1,55.8 L62.1,56.2 C62.1,57.7 60.9,58.9 59.4,58.9 L57.1,58.9 L54.5,58.9 C54.1,58.9 53.7,59.2 53.7,59.7 L53.7,59.8 L53.7,60 L53.7,68.9 C53.7,69.1 53.8,69.4 54,69.5 C54.2,69.6 54.5,69.7 54.7,69.6 C54.8,69.5 58.4,68.3 60.8,73 C63.7,78.6 65,80.4 66.9,81.5 C67,81.6 67.1,81.6 67.3,81.6 C67.6,81.6 67.8,81.5 68,81.2 C68.2,80.8 68.1,80.4 67.7,80.2 C66.2,79.3 64.9,77.5 62.2,72.4 C60,68.2 56.8,67.9 55.2,68 L55.2,63.8 C56.3,63.5 57.2,62.9 57.8,62 C58.6,63.2 59.9,64 61.4,64 C62.9,64 64.2,63.3 65,62.1 C65.7,63.2 67,63.9 68.4,63.9 L69,63.9 C70.4,63.9 71.6,63.2 72.4,62.1 C73.1,63.2 74.4,63.9 75.8,63.9 L76.4,63.9 C77.4,63.9 78.3,63.5 79,62.9 L79,76 C79,79.3 76.9,82.8 73.8,84.5 Z" id="Shape" fill="#06ACA1"></path>
                </g>
            </g>
        </g>
    </g>
</svg>