<?xml version="1.0" encoding="UTF-8" standalone="no"?>
<svg width="128px" height="124px" viewBox="0 0 128 124" version="1.1" xmlns="http://www.w3.org/2000/svg" xmlns:xlink="http://www.w3.org/1999/xlink">
    <!-- Generator: Sketch 42 (36781) - http://www.bohemiancoding.com/sketch -->
    <title>Group</title>
    <desc>Created with Sketch.</desc>
    <defs></defs>
    <g id="Symbols" stroke="none" stroke-width="1" fill="none" fill-rule="evenodd">
        <g id="Visto-Module" transform="translate(-250.000000, -1465.000000)" fill-rule="nonzero">
            <g id="Group">
                <g transform="translate(250.000000, 1465.000000)">
                    <path d="M120.6,14.6 C121,14.6 121.4,14.3 121.4,13.8 L121.4,3.7 C121.4,3.3 121.1,2.9 120.6,2.9 C120.2,2.9 119.8,3.2 119.8,3.7 L119.8,13.9 C119.8,14.3 120.1,14.6 120.6,14.6 Z" id="Shape" fill="#959595"></path>
                    <path d="M120.6,21.2 C121,21.2 121.4,20.9 121.4,20.4 L121.4,17.1 C121.4,16.7 121.1,16.3 120.6,16.3 C120.2,16.3 119.8,16.6 119.8,17.1 L119.8,20.4 C119.8,20.9 120.1,21.2 120.6,21.2 Z" id="Shape" fill="#959595"></path>
                    <path d="M104.9,3.7 C105,3.8 105.2,3.9 105.4,3.9 C105.6,3.9 105.8,3.8 105.9,3.7 C106.2,3.4 106.2,2.9 105.9,2.6 L104.4,1 C104.1,0.7 103.6,0.7 103.3,1 C103,1.3 103,1.8 103.3,2.1 L104.9,3.7 Z" id="Shape" fill="#959595"></path>
                    <path d="M109.9,8.7 C110,8.8 110.2,8.9 110.4,8.9 C110.6,8.9 110.8,8.8 110.9,8.7 C111.2,8.4 111.2,7.9 110.9,7.6 L109.4,6.1 C109.1,5.8 108.6,5.8 108.3,6.1 C108,6.4 108,6.9 108.3,7.2 L109.9,8.7 Z" id="Shape" fill="#959595"></path>
                    <path d="M103.9,8.9 C104.1,8.9 104.3,8.8 104.4,8.7 L105.9,7.2 C106.2,6.9 106.2,6.4 105.9,6.1 C105.6,5.8 105.1,5.8 104.8,6.1 L103.3,7.6 C103,7.9 103,8.4 103.3,8.7 C103.5,8.8 103.7,8.9 103.9,8.9 Z" id="Shape" fill="#959595"></path>
                    <path d="M108.9,3.9 C109.1,3.9 109.3,3.8 109.4,3.7 L110.9,2.2 C111.2,1.9 111.2,1.4 110.9,1.1 C110.6,0.8 110.1,0.8 109.8,1.1 L108.3,2.6 C108,2.9 108,3.4 108.3,3.7 C108.5,3.8 108.7,3.9 108.9,3.9 Z" id="Shape" fill="#959595"></path>
                    <path d="M122.3,101.6 L120.8,100.1 C120.5,99.8 120,99.8 119.7,100.1 C119.4,100.4 119.4,100.9 119.7,101.2 L121.2,102.7 C121.3,102.8 121.5,102.9 121.7,102.9 C121.9,102.9 122.1,102.8 122.2,102.7 C122.6,102.3 122.6,101.9 122.3,101.6 Z" id="Shape" fill="#959595"></path>
                    <path d="M125.7,105 C125.4,104.7 124.9,104.7 124.6,105 C124.3,105.3 124.3,105.8 124.6,106.1 L126.1,107.6 C126.2,107.7 126.4,107.8 126.6,107.8 C126.8,107.8 127,107.7 127.1,107.6 C127.4,107.3 127.4,106.8 127.1,106.5 L125.7,105 Z" id="Shape" fill="#959595"></path>
                    <path d="M121.2,105 L119.7,106.5 C119.4,106.8 119.4,107.3 119.7,107.6 C119.8,107.7 120,107.8 120.2,107.8 C120.4,107.8 120.6,107.7 120.7,107.6 L122.2,106.1 C122.5,105.8 122.5,105.3 122.2,105 C122,104.7 121.5,104.7 121.2,105 Z" id="Shape" fill="#959595"></path>
                    <path d="M124.7,102.6 C124.8,102.7 125,102.8 125.2,102.8 C125.4,102.8 125.6,102.7 125.7,102.6 L127.2,101.1 C127.5,100.8 127.5,100.3 127.2,100 C126.9,99.7 126.4,99.7 126.1,100 L124.6,101.5 C124.4,101.9 124.4,102.3 124.7,102.6 Z" id="Shape" fill="#959595"></path>
                    <path d="M1.8,98.3 C1.5,98 1,98 0.7,98.3 C0.4,98.6 0.4,99.1 0.7,99.4 L2.2,100.9 C2.3,101 2.5,101.1 2.7,101.1 C2.9,101.1 3.1,101 3.2,100.9 C3.5,100.6 3.5,100.1 3.2,99.8 L1.8,98.3 Z" id="Shape" fill="#959595"></path>
                    <path d="M6.8,103.3 C6.5,103 6,103 5.7,103.3 C5.4,103.6 5.4,104.1 5.7,104.4 L7.2,105.9 C7.3,106 7.5,106.1 7.7,106.1 C7.9,106.1 8.1,106 8.2,105.9 C8.5,105.6 8.5,105.1 8.2,104.8 L6.8,103.3 Z" id="Shape" fill="#959595"></path>
                    <path d="M2.3,103.3 L0.8,104.8 C0.5,105.1 0.5,105.6 0.8,105.9 C0.9,106 1.1,106.1 1.3,106.1 C1.5,106.1 1.7,106 1.8,105.9 L3.3,104.4 C3.6,104.1 3.6,103.6 3.3,103.3 C3,103 2.6,103 2.3,103.3 Z" id="Shape" fill="#959595"></path>
                    <path d="M7.3,98.3 L5.8,99.8 C5.5,100.1 5.5,100.6 5.8,100.9 C5.9,101 6.1,101.1 6.3,101.1 C6.5,101.1 6.7,101 6.8,100.9 L8.3,99.4 C8.6,99.1 8.6,98.6 8.3,98.3 C8.1,98 7.6,98 7.3,98.3 Z" id="Shape" fill="#959595"></path>
                    <path d="M11.7,23 C11.7,20.8 9.9,19 7.7,19 C5.5,19 3.7,20.8 3.7,23 C3.7,25.2 5.5,27 7.7,27 C9.9,27 11.7,25.2 11.7,23 Z M5.3,23 C5.3,21.6 6.4,20.5 7.8,20.5 C9.2,20.5 10.3,21.6 10.3,23 C10.3,24.4 9.2,25.5 7.8,25.5 C6.4,25.4 5.3,24.3 5.3,23 Z" id="Shape" fill="#959595"></path>
                    <path d="M22.4,113.7 C20.2,113.7 18.4,115.5 18.4,117.7 C18.4,119.9 20.2,121.7 22.4,121.7 C24.6,121.7 26.4,119.9 26.4,117.7 C26.4,115.4 24.6,113.7 22.4,113.7 Z M22.4,120.1 C21,120.1 19.9,119 19.9,117.6 C19.9,116.2 21,115.1 22.4,115.1 C23.8,115.1 24.9,116.2 24.9,117.6 C24.9,119 23.8,120.1 22.4,120.1 Z" id="Shape" fill="#959595"></path>
                    <path d="M16.5,2.3 C16.9,2.3 17.3,2 17.3,1.5 C17.3,1 17,0.7 16.5,0.7 L4.2,0.7 C3.8,0.7 3.4,1 3.4,1.5 C3.4,2 3.7,2.3 4.2,2.3 L16.5,2.3 Z" id="Shape" fill="#959595"></path>
                    <path d="M20.5,2.3 L24.5,2.3 C24.9,2.3 25.3,2 25.3,1.5 C25.3,1 25,0.7 24.5,0.7 L20.5,0.7 C20.1,0.7 19.7,1 19.7,1.5 C19.7,2 20.1,2.3 20.5,2.3 Z" id="Shape" fill="#959595"></path>
                    <path d="M25.2,5.8 C25.2,5.4 24.9,5 24.4,5 L15.9,5 C15.5,5 15.1,5.3 15.1,5.8 C15.1,6.2 15.4,6.6 15.9,6.6 L24.4,6.6 C24.8,6.5 25.2,6.2 25.2,5.8 Z" id="Shape" fill="#959595"></path>
                    <path d="M13,5.8 C13,5.4 12.7,5 12.2,5 L9.5,5 C9.1,5 8.7,5.4 8.7,5.8 C8.7,6.2 9,6.6 9.5,6.6 L12.3,6.6 C12.7,6.5 13,6.2 13,5.8 Z" id="Shape" fill="#959595"></path>
                    <path d="M117.6,115.5 C117.6,115.1 117.3,114.7 116.8,114.7 L104.6,114.7 C104.2,114.7 103.8,115 103.8,115.5 C103.8,115.9 104.1,116.3 104.6,116.3 L116.8,116.3 C117.3,116.3 117.6,115.9 117.6,115.5 Z" id="Shape" fill="#959595"></path>
                    <path d="M124.8,114.8 L120.8,114.8 C120.4,114.8 120,115.1 120,115.6 C120,116 120.3,116.4 120.8,116.4 L124.8,116.4 C125.2,116.4 125.6,116.1 125.6,115.6 C125.6,115.1 125.2,114.8 124.8,114.8 Z" id="Shape" fill="#959595"></path>
                    <path d="M124.8,119 L116.3,119 C115.9,119 115.5,119.3 115.5,119.8 C115.5,120.2 115.8,120.6 116.3,120.6 L124.8,120.6 C125.2,120.6 125.6,120.3 125.6,119.8 C125.6,119.3 125.2,119 124.8,119 Z" id="Shape" fill="#959595"></path>
                    <path d="M112.6,119 L109.8,119 C109.4,119 109,119.3 109,119.8 C109,120.2 109.3,120.6 109.8,120.6 L112.6,120.6 C113,120.6 113.4,120.3 113.4,119.8 C113.4,119.3 113.1,119 112.6,119 Z" id="Shape" fill="#959595"></path>
                    <path d="M84,73.6 C88.4,70.5 92.3,67.4 95.7,64.2 C96.6,65.1 97.4,65.9 98.2,66.8 L98.1,66.9 C98.1,67 98,67 98,67.1 C97.8,67.4 97.6,67.6 97.4,67.9 C95.8,70.7 96.7,74.3 99.5,75.9 C99.7,76 100,76.1 100.2,76.2 C100.3,76.2 100.4,76.3 100.5,76.3 C100.7,76.4 100.8,76.4 101,76.5 C101.1,76.5 101.2,76.5 101.3,76.6 C101.4,76.6 101.6,76.7 101.7,76.7 L102.1,76.7 L102.4,76.7 L102.4,76.7 L103,76.7 L103.2,76.7 C103.4,76.7 103.7,76.6 103.9,76.5 L103.9,76.5 C104.4,76.4 104.9,76.1 105.4,75.9 L105.4,75.9 L105.4,75.9 C106.2,75.4 106.9,74.7 107.4,73.8 C109,71 108.1,67.4 105.3,65.8 C103.4,64.7 101.1,64.8 99.3,65.9 C98.5,65 97.6,64.1 96.7,63.2 C106,54 110.3,45 107,39.3 C104.4,34.9 97.7,33.3 88.1,34.8 C85.8,35.2 83.4,35.7 80.9,36.4 C80.8,36.3 80.6,36.3 80.4,36.4 C80.2,36.4 80.1,36.6 80,36.7 C75.4,38 70.6,39.9 65.7,42.1 C60.8,39.8 56.1,38 51.7,36.8 C52,35.6 52.4,34.4 52.7,33.3 L52.9,33.3 L53.1,33.3 C53.4,33.4 53.8,33.4 54.1,33.4 C57.3,33.4 59.9,30.8 59.9,27.6 C59.9,25.5 58.7,23.5 56.8,22.4 L56.8,22.4 L56.8,22.4 C55.9,22 55,21.7 54,21.7 C50.8,21.7 48.2,24.3 48.2,27.5 C48.2,29.7 49.4,31.6 51.3,32.6 C50.9,33.8 50.6,35 50.2,36.2 C37.7,32.8 27.9,33.7 24.6,39.3 C22,43.7 24,50.4 30.2,57.9 C34.5,63.2 40.4,68.5 47.4,73.4 C47.9,78.7 48.7,83.7 49.7,88.1 C48.6,88.4 47.5,88.7 46.4,88.9 C46.4,88.8 46.4,88.8 46.3,88.7 C46.3,88.6 46.3,88.6 46.2,88.5 C46.1,88.2 46,87.9 45.8,87.6 C45,86.2 43.8,85.3 42.2,84.9 C40.7,84.5 39.1,84.7 37.8,85.5 C35.9,86.6 34.8,88.6 34.9,90.7 L34.9,90.7 L34.9,90.7 C34.9,91.7 35.2,92.6 35.7,93.4 C36.5,94.8 37.7,95.7 39.3,96.1 C39.8,96.2 40.3,96.3 40.8,96.3 C41.8,96.3 42.8,96 43.7,95.5 C45.6,94.4 46.7,92.4 46.6,90.3 C47.7,90.1 48.9,89.8 50,89.5 C53.3,102.1 59,110.2 65.5,110.2 C72.1,110.2 77.7,102 81.1,89.4 C81.2,89.3 81.4,89.2 81.4,89 C81.5,88.8 81.4,88.6 81.3,88.4 C82.7,84.1 83.5,79 84,73.6 Z M104.5,67.1 C106.6,68.3 107.3,71 106.1,73 C105.7,73.6 105.2,74.1 104.6,74.5 C104.1,74.8 103.6,75 103.1,75.1 L103,75.1 L102.7,75.1 L102.4,75.1 L102.2,75.1 L101.8,75.1 C101.8,75.1 101.8,75.1 101.7,75.1 C101.1,75 100.6,74.8 100.1,74.6 C98,73.4 97.3,70.7 98.5,68.7 C98.8,68.2 99.1,67.8 99.6,67.5 C101.1,66.3 103,66.2 104.5,67.1 Z M49.9,27.5 C49.9,25.1 51.8,23.2 54.2,23.2 C54.9,23.2 55.6,23.4 56.3,23.7 C57.7,24.5 58.6,25.9 58.6,27.5 C58.6,29.9 56.7,31.8 54.3,31.8 C53.7,31.8 53.2,31.7 52.7,31.5 C51,30.9 49.9,29.3 49.9,27.5 Z M43.2,94.5 C41.1,95.7 38.5,95 37.3,92.9 C36.9,92.3 36.7,91.6 36.7,90.9 C36.7,89.3 37.5,87.8 38.9,87 C39.9,86.4 41.1,86.3 42.2,86.6 C43.3,86.9 44.3,87.6 44.8,88.6 C45.1,89.1 45.3,89.6 45.3,90.1 C45.6,91.8 44.7,93.6 43.2,94.5 Z M80.2,87.9 C76.1,86.7 71.9,85.1 67.6,83.2 C70.2,81.9 72.8,80.6 75.4,79.1 C77.8,77.7 80.2,76.2 82.4,74.7 C81.9,79.5 81.2,83.9 80.2,87.9 Z M48.6,63 C48.6,59.7 48.7,56.5 49,53.4 C51.7,51.5 54.5,49.7 57.4,48.1 C60.2,46.5 62.9,45 65.7,43.7 C68.6,45 71.4,46.5 74.3,48.2 C77.1,49.8 79.9,51.6 82.5,53.4 C82.8,56.6 82.9,59.8 82.9,63.1 C82.9,66.4 82.8,69.7 82.5,72.8 C80,74.5 77.3,76.2 74.6,77.8 C71.7,79.5 68.7,81 65.7,82.4 C62.8,81 60,79.6 57.2,77.9 C54.4,76.3 51.6,74.5 49,72.7 C48.8,69.6 48.6,66.4 48.6,63 Z M84.2,71.6 C84.4,68.8 84.5,66 84.5,63 C84.5,60.1 84.4,57.2 84.2,54.4 C88,57.2 91.6,60.1 94.6,63 C91.5,65.9 88,68.8 84.2,71.6 Z M88.4,36.2 C97.3,34.8 103.6,36.2 105.8,40 C108.7,44.9 104.4,53.4 95.7,62 C92.3,58.8 88.4,55.6 84.1,52.5 C83.6,47.2 82.8,42.2 81.7,37.6 C83.9,37 86.2,36.5 88.4,36.2 Z M80.1,38.1 C81.1,42.2 81.9,46.7 82.3,51.4 C80,49.8 77.6,48.3 75.1,46.9 C72.6,45.4 70,44.1 67.5,42.9 C71.8,40.9 76.1,39.3 80.1,38.1 Z M64,42.9 C61.6,44.1 59.1,45.4 56.7,46.8 C54.1,48.3 51.6,49.9 49.2,51.5 C49.7,46.8 50.4,42.3 51.4,38.3 C55.4,39.4 59.6,40.9 64,42.9 Z M26.1,40.1 C28.9,35.2 38.3,34.7 50,37.8 C48.9,42.3 48.1,47.3 47.6,52.6 C43.3,55.6 39.4,58.8 36.1,62.1 C34.4,60.4 32.9,58.8 31.6,57.1 C25.8,50.1 23.9,43.9 26.1,40.1 Z M37.1,63.1 C40.1,60.2 43.6,57.3 47.4,54.5 C47.2,57.3 47.1,60.1 47.1,63 C47.1,65.9 47.2,68.8 47.4,71.6 C43.6,68.9 40.1,66 37.1,63.1 Z M49.2,74.7 C51.5,76.3 53.9,77.8 56.4,79.2 C58.9,80.6 61.4,82 63.9,83.2 C59.6,85.1 55.4,86.7 51.4,87.8 C50.5,83.8 49.7,79.4 49.2,74.7 Z M65.8,108.9 C60.1,108.9 55,101.1 51.8,89.3 C56.3,88 61,86.2 65.7,84.1 C70.5,86.3 75.2,88.1 79.8,89.4 C76.7,101.2 71.6,108.9 65.8,108.9 Z" id="Shape" fill="#06ACA1"></path>
                    <path d="M58.6,21.1 C58.8,21.1 59,21 59.2,20.8 C59.4,20.6 59.6,20.3 59.9,20.1 C60.2,19.8 60.2,19.3 59.9,19 C59.6,18.7 59.1,18.7 58.8,19 C58.6,19.2 58.3,19.5 58.1,19.8 C57.8,20.1 57.9,20.6 58.2,20.9 C58.2,21 58.4,21.1 58.6,21.1 Z" id="Shape" fill="#06ACA1"></path>
                    <path d="M69.6,17.4 C69.4,17.7 69.5,18.2 69.8,18.4 C70.3,18.7 70.7,19.1 71.2,19.5 C71.3,19.6 71.5,19.7 71.7,19.7 C71.9,19.7 72.1,19.6 72.3,19.5 C72.6,19.2 72.6,18.7 72.2,18.4 C71.7,17.9 71.2,17.5 70.6,17.2 C70.3,17 69.8,17.1 69.6,17.4 Z" id="Shape" fill="#06ACA1"></path>
                    <path d="M78.1,31.2 C78.2,31.5 78.5,31.7 78.8,31.7 L79.1,31.7 C79.5,31.6 79.7,31.1 79.5,30.7 C79.3,30.1 79.1,29.5 78.8,28.9 C78.6,28.5 78.2,28.3 77.8,28.5 C77.4,28.7 77.2,29.1 77.4,29.5 C77.6,30 77.8,30.6 78.1,31.2 Z" id="Shape" fill="#06ACA1"></path>
                    <path d="M62.8,16.3 C62.2,16.5 61.6,16.8 61,17.2 C60.7,17.4 60.6,17.9 60.8,18.2 C60.9,18.4 61.2,18.5 61.4,18.5 C61.5,18.5 61.7,18.5 61.8,18.4 C62.3,18.1 62.8,17.8 63.3,17.6 C63.7,17.4 63.9,17 63.7,16.6 C63.6,16.3 63.2,16.1 62.8,16.3 Z" id="Shape" fill="#06ACA1"></path>
                    <path d="M76.3,26.9 C76.4,27.2 76.7,27.3 77,27.3 C77.1,27.3 77.2,27.3 77.3,27.2 C77.7,27 77.8,26.6 77.7,26.2 C77.4,25.6 77.1,25 76.8,24.5 C76.6,24.1 76.1,24 75.8,24.2 C75.4,24.4 75.3,24.9 75.5,25.2 C75.7,25.8 76,26.4 76.3,26.9 Z" id="Shape" fill="#06ACA1"></path>
                    <path d="M65.8,17.2 C66.3,17.2 66.9,17.3 67.4,17.4 L67.6,17.4 C67.9,17.4 68.2,17.2 68.3,16.8 C68.4,16.4 68.2,16 67.8,15.9 C67.1,15.7 66.4,15.6 65.8,15.6 L65.8,15.6 C65.4,15.6 65,15.9 65,16.3 C65.1,16.9 65.4,17.2 65.8,17.2 Z" id="Shape" fill="#06ACA1"></path>
                    <path d="M74.2,20.6 C73.9,20.3 73.5,20.2 73.1,20.5 C72.8,20.8 72.7,21.2 73,21.6 C73.4,22.1 73.7,22.5 74.1,23.1 C74.2,23.3 74.5,23.4 74.7,23.4 C74.8,23.4 75,23.4 75.1,23.3 C75.4,23.1 75.5,22.6 75.3,22.3 C74.9,21.6 74.5,21.1 74.2,20.6 Z" id="Shape" fill="#06ACA1"></path>
                    <path d="M79.2,34.8 C79.3,35.1 79.6,35.3 79.9,35.3 L80.1,35.3 C80.5,35.2 80.7,34.8 80.6,34.4 C80.5,34.1 80.4,33.7 80.3,33.4 C80.2,33 79.8,32.8 79.4,32.9 C79,33 78.8,33.4 78.9,33.8 C79,34.1 79.1,34.4 79.2,34.8 Z" id="Shape" fill="#06ACA1"></path>
                    <path d="M107.1,77.9 C107,77.5 106.5,77.3 106.1,77.4 C105.7,77.5 105.5,78 105.6,78.4 C105.7,78.7 105.8,79 105.9,79.3 C106,79.6 106.3,79.9 106.6,79.9 L106.8,79.9 C107.2,79.8 107.4,79.4 107.3,79 C107.3,78.6 107.2,78.3 107.1,77.9 Z" id="Shape" fill="#06ACA1"></path>
                    <path d="M93.6,91.8 L93.6,91.8 C94,91.8 94.4,91.5 94.4,91.1 C94.4,90.7 94.1,90.3 93.7,90.3 C93.1,90.3 92.5,90.3 91.9,90.2 C91.5,90.2 91.1,90.5 91.1,90.9 C91.1,91.3 91.4,91.7 91.8,91.7 C92.3,91.7 93,91.8 93.6,91.8 Z" id="Shape" fill="#06ACA1"></path>
                    <path d="M89.1,89.9 C88.5,89.8 87.9,89.7 87.3,89.6 C86.9,89.5 86.5,89.8 86.4,90.2 C86.3,90.6 86.6,91 87,91.1 C87.6,91.2 88.3,91.3 88.9,91.4 L89,91.4 C89.4,91.4 89.7,91.1 89.7,90.8 C89.8,90.3 89.5,90 89.1,89.9 Z" id="Shape" fill="#06ACA1"></path>
                    <path d="M102.4,88.8 C101.9,89 101.4,89.3 100.8,89.5 C100.4,89.6 100.2,90.1 100.3,90.4 C100.4,90.7 100.7,90.9 101,90.9 L101.2,90.9 C101.9,90.7 102.5,90.4 103,90.2 C103.4,90 103.5,89.6 103.3,89.2 C103.2,88.7 102.8,88.6 102.4,88.8 Z" id="Shape" fill="#06ACA1"></path>
                    <path d="M104.5,87.3 C104.2,87.6 104.2,88.1 104.5,88.4 C104.6,88.5 104.8,88.6 105,88.6 C105.2,88.6 105.4,88.5 105.5,88.4 C106,87.9 106.4,87.4 106.8,86.8 C107,86.4 106.9,86 106.5,85.8 C106.1,85.6 105.7,85.7 105.5,86.1 C105.2,86.5 104.9,86.9 104.5,87.3 Z" id="Shape" fill="#06ACA1"></path>
                    <path d="M98.2,90 C97.6,90.1 97,90.1 96.4,90.2 C96,90.2 95.7,90.6 95.7,91 C95.7,91.4 96.1,91.7 96.5,91.7 L96.6,91.7 C97.3,91.7 97.9,91.6 98.5,91.5 C98.9,91.4 99.2,91.1 99.1,90.6 C98.9,90.3 98.6,90 98.2,90 Z" id="Shape" fill="#06ACA1"></path>
                    <path d="M106.9,84.5 L107,84.5 C107.4,84.5 107.7,84.2 107.7,83.9 C107.8,83.4 107.8,83 107.8,82.5 L107.8,81.9 C107.8,81.5 107.4,81.2 107,81.2 C106.6,81.2 106.3,81.6 106.3,82 L106.3,82.5 C106.3,82.9 106.3,83.3 106.2,83.7 C106.2,84.1 106.5,84.4 106.9,84.5 Z" id="Shape" fill="#06ACA1"></path>
                    <path d="M84.4,90.6 C84.7,90.6 85.1,90.4 85.1,90 C85.2,89.6 84.9,89.2 84.5,89.1 C84.2,89 83.9,89 83.5,88.9 C83.1,88.8 82.7,89.1 82.6,89.5 C82.5,89.9 82.8,90.3 83.2,90.4 C83.5,90.5 83.9,90.6 84.2,90.6 L84.4,90.6 Z" id="Shape" fill="#06ACA1"></path>
                    <path d="M31.9,89.5 C31.5,89.4 31.1,89.6 31,90 C30.9,90.4 31.1,90.8 31.5,90.9 C31.8,91 32.2,91.1 32.5,91.1 L32.6,91.1 C33,91.1 33.3,90.9 33.3,90.5 C33.4,90.1 33.1,89.7 32.7,89.6 C32.5,89.7 32.2,89.6 31.9,89.5 Z" id="Shape" fill="#06ACA1"></path>
                    <path d="M28.3,71 C27.9,71.5 27.6,72.1 27.3,72.6 C27.1,73 27.2,73.4 27.5,73.6 C27.6,73.7 27.8,73.7 27.9,73.7 C28.2,73.7 28.4,73.6 28.5,73.3 C28.8,72.8 29.1,72.3 29.5,71.8 C29.7,71.5 29.6,71 29.3,70.8 C29,70.6 28.5,70.7 28.3,71 Z" id="Shape" fill="#06ACA1"></path>
                    <path d="M27.9,87.7 C27.6,87.4 27.1,87.5 26.8,87.8 C26.5,88.1 26.6,88.6 26.9,88.9 C27.4,89.3 28,89.7 28.6,90 C28.8,90 28.9,90 29,90 C29.3,90 29.5,89.8 29.7,89.6 C29.9,89.2 29.7,88.8 29.4,88.6 C28.9,88.4 28.4,88 27.9,87.7 Z" id="Shape" fill="#06ACA1"></path>
                    <path d="M26.9,74.8 C26.5,74.6 26.1,74.8 25.9,75.1 C25.6,75.7 25.3,76.3 25.1,76.9 C24.9,77.3 25.1,77.7 25.5,77.9 C25.6,77.9 25.7,78 25.8,78 C26.1,78 26.4,77.8 26.5,77.5 C26.7,77 27,76.4 27.2,75.8 C27.4,75.4 27.2,75 26.9,74.8 Z" id="Shape" fill="#06ACA1"></path>
                    <path d="M25.7,84.3 C25.6,83.9 25.2,83.7 24.8,83.8 C24.4,83.9 24.2,84.3 24.3,84.7 C24.5,85.4 24.7,86 25.1,86.6 C25.2,86.8 25.5,87 25.8,87 C25.9,87 26.1,87 26.2,86.9 C26.6,86.7 26.7,86.2 26.5,85.9 C26,85.3 25.8,84.8 25.7,84.3 Z" id="Shape" fill="#06ACA1"></path>
                    <path d="M24.2,79.7 C24.1,80.4 24,81 23.9,81.7 C23.9,82.1 24.2,82.5 24.6,82.5 L24.6,82.5 C25,82.5 25.3,82.2 25.4,81.8 C25.4,81.2 25.5,80.7 25.6,80.1 C25.7,79.7 25.4,79.3 25,79.2 C24.7,79 24.3,79.3 24.2,79.7 Z" id="Shape" fill="#06ACA1"></path>
                    <path d="M31.1,67.2 C30.7,67.7 30.3,68.2 29.9,68.7 C29.6,69 29.7,69.5 30,69.8 C30.1,69.9 30.3,70 30.5,70 C30.7,70 30.9,69.9 31.1,69.7 C31.5,69.2 31.9,68.7 32.3,68.3 C32.6,68 32.5,67.5 32.2,67.2 C31.9,66.9 31.4,66.9 31.1,67.2 Z" id="Shape" fill="#06ACA1"></path>
                    <path d="M34.1,66.1 C34.3,65.9 34.5,65.6 34.8,65.4 C35.1,65.1 35.1,64.6 34.8,64.3 C34.5,64 34,64 33.7,64.3 C33.5,64.5 33.2,64.8 33,65 C32.7,65.3 32.7,65.8 33,66.1 C33.1,66.2 33.3,66.3 33.5,66.3 C33.8,66.4 34,66.3 34.1,66.1 Z" id="Shape" fill="#06ACA1"></path>
                    <path d="M68.9,4.4 C99.2,5.9 123.1,29.8 124.6,60.1 C124.6,60.5 125,60.8 125.4,60.8 L125.4,60.8 C125.8,60.8 126.1,60.4 126.1,60 C124.6,29 100,4.4 68.9,2.9 C68.5,2.9 68.1,3.2 68.1,3.6 C68.1,4.1 68.4,4.4 68.9,4.4 Z" id="Shape" fill="#06ACA1"></path>
                    <path d="M63,121.7 C32.8,120.2 8.8,96.2 7.3,66 C7.3,65.6 6.9,65.3 6.5,65.3 C6.1,65.3 5.8,65.7 5.8,66.1 C7.3,97.2 31.9,121.7 62.9,123.2 L62.9,123.2 C63.3,123.2 63.6,122.9 63.7,122.5 C63.8,122 63.5,121.7 63,121.7 Z" id="Shape" fill="#06ACA1"></path>
                    <path d="M61,4.6 L61,4.6 C61.7,4.5 62.4,4.5 63,4.5 C63.4,4.5 63.7,4.1 63.7,3.7 C63.7,3.3 63.3,3 62.9,3 C62.2,3 61.5,3.1 60.9,3.1 C60.5,3.1 60.2,3.5 60.2,3.9 C60.3,4.3 60.6,4.6 61,4.6 Z" id="Shape" fill="#06ACA1"></path>
                    <path d="M22,21.9 C21.7,22.2 21.7,22.7 22,23 C22.1,23.1 22.3,23.2 22.5,23.2 C22.7,23.2 22.9,23.1 23,23 C23.9,22.1 24.8,21.2 25.7,20.3 C26,20 26,19.5 25.7,19.2 C25.4,18.9 24.9,18.9 24.6,19.2 C23.8,20 22.9,20.9 22,21.9 Z" id="Shape" fill="#06ACA1"></path>
                    <path d="M52.4,5.9 L52.6,5.9 C53.8,5.6 55.1,5.4 56.4,5.2 C56.8,5.1 57.1,4.7 57,4.3 C56.9,3.9 56.5,3.6 56.1,3.7 C54.8,3.9 53.5,4.2 52.2,4.5 C51.8,4.6 51.5,5 51.6,5.4 C51.7,5.7 52,5.9 52.4,5.9 Z" id="Shape" fill="#06ACA1"></path>
                    <path d="M44,8.5 C44.1,8.5 44.2,8.5 44.3,8.4 C45.5,7.9 46.7,7.5 47.9,7.1 C48.3,7 48.5,6.5 48.4,6.2 C48.3,5.8 47.8,5.6 47.5,5.7 C46.3,6.1 45,6.5 43.8,7 C43.4,7.2 43.2,7.6 43.4,8 C43.5,8.3 43.7,8.5 44,8.5 Z" id="Shape" fill="#06ACA1"></path>
                    <path d="M18.8,25.6 C18,26.6 17.2,27.7 16.5,28.8 C16.3,29.1 16.3,29.6 16.7,29.8 C16.8,29.9 17,29.9 17.1,29.9 C17.3,29.9 17.6,29.8 17.7,29.6 C18.4,28.6 19.2,27.5 20,26.5 C20.3,26.2 20.2,25.7 19.9,25.4 C19.5,25.2 19.1,25.3 18.8,25.6 Z" id="Shape" fill="#06ACA1"></path>
                    <path d="M36.2,12.3 C36.3,12.3 36.5,12.3 36.6,12.2 C37.7,11.6 38.8,11 40,10.4 C40.4,10.2 40.5,9.8 40.3,9.4 C40.1,9 39.7,8.9 39.3,9.1 C38.1,9.7 37,10.3 35.8,11 C35.4,11.2 35.3,11.7 35.5,12 C35.7,12.2 35.9,12.3 36.2,12.3 Z" id="Shape" fill="#959595"></path>
                    <path d="M8,53.4 C8.2,52.1 8.5,50.9 8.8,49.6 C8.9,49.2 8.6,48.8 8.2,48.7 C7.8,48.6 7.4,48.9 7.3,49.3 C7,50.6 6.7,51.9 6.5,53.2 C6.4,53.6 6.7,54 7.1,54.1 L7.2,54.1 C7.7,54 8,53.7 8,53.4 Z" id="Shape" fill="#06ACA1"></path>
                    <path d="M29,17.2 C29.2,17.2 29.3,17.1 29.5,17 C30.5,16.2 31.5,15.4 32.6,14.7 C32.9,14.5 33,14 32.8,13.7 C32.6,13.4 32.1,13.3 31.8,13.5 C30.7,14.2 29.7,15 28.6,15.8 C28.3,16.1 28.2,16.5 28.5,16.9 C28.5,17.1 28.8,17.2 29,17.2 Z" id="Shape" fill="#06ACA1"></path>
                    <path d="M12.3,37.4 C12.4,37.5 12.5,37.5 12.6,37.5 C12.9,37.5 13.1,37.3 13.3,37.1 C13.9,36 14.5,34.8 15.1,33.7 C15.3,33.3 15.2,32.9 14.8,32.7 C14.4,32.5 14,32.6 13.8,33 C13.1,34.1 12.5,35.3 11.9,36.5 C11.8,36.7 11.9,37.2 12.3,37.4 Z" id="Shape" fill="#06ACA1"></path>
                    <path d="M9.1,45.5 L9.3,45.5 C9.6,45.5 9.9,45.3 10,45 C10.4,43.8 10.8,42.6 11.3,41.4 C11.5,41 11.3,40.6 10.9,40.4 C10.5,40.2 10.1,40.4 9.9,40.8 C9.4,42 9,43.3 8.6,44.5 C8.5,44.9 8.7,45.4 9.1,45.5 Z" id="Shape" fill="#06ACA1"></path>
                    <path d="M6.8,57.3 C6.4,57.3 6,57.6 6,58 C5.9,58.7 5.9,59.4 5.9,60 C5.9,60.4 6.2,60.8 6.6,60.8 L6.6,60.8 C7,60.8 7.3,60.5 7.4,60.1 C7.4,59.4 7.5,58.8 7.5,58.1 C7.5,57.7 7.2,57.4 6.8,57.3 Z" id="Shape" fill="#06ACA1"></path>
                    <path d="M70.8,121.5 C70.1,121.6 69.5,121.6 68.8,121.6 C68.4,121.6 68.1,122 68.1,122.4 C68.1,122.8 68.5,123.1 68.9,123.1 L68.9,123.1 C69.6,123.1 70.3,123 70.9,123 C71.3,123 71.6,122.6 71.6,122.2 C71.6,121.8 71.2,121.5 70.8,121.5 Z" id="Shape" fill="#06ACA1"></path>
                    <path d="M114.2,96.5 C113.5,97.5 112.7,98.6 111.9,99.6 C111.6,99.9 111.7,100.4 112,100.7 C112.1,100.8 112.3,100.9 112.5,100.9 C112.7,100.9 112.9,100.8 113.1,100.6 C113.9,99.6 114.7,98.5 115.4,97.4 C115.6,97.1 115.6,96.6 115.2,96.4 C114.9,96.1 114.4,96.1 114.2,96.5 Z" id="Shape" fill="#06ACA1"></path>
                    <path d="M119.6,88.7 C119.2,88.5 118.8,88.7 118.6,89 C118,90.1 117.4,91.3 116.8,92.4 C116.6,92.8 116.7,93.2 117.1,93.4 C117.2,93.5 117.3,93.5 117.5,93.5 C117.8,93.5 118,93.4 118.2,93.1 C118.9,92 119.5,90.8 120.1,89.6 C120.1,89.4 120,88.9 119.6,88.7 Z" id="Shape" fill="#06ACA1"></path>
                    <path d="M102.4,109 C101.4,109.8 100.4,110.6 99.3,111.3 C99,111.5 98.9,112 99.1,112.3 C99.2,112.5 99.5,112.6 99.7,112.6 C99.8,112.6 100,112.6 100.1,112.5 C101.2,111.8 102.2,111 103.3,110.2 C103.6,109.9 103.7,109.5 103.4,109.1 C103.2,108.8 102.8,108.8 102.4,109 Z" id="Shape" fill="#06ACA1"></path>
                    <path d="M95.3,113.9 C94.2,114.5 93.1,115.1 91.9,115.7 C91.5,115.9 91.4,116.3 91.6,116.7 C91.7,117 92,117.1 92.3,117.1 C92.4,117.1 92.5,117.1 92.6,117 C93.8,116.4 94.9,115.8 96.1,115.1 C96.5,114.9 96.6,114.4 96.4,114.1 C96.1,113.8 95.7,113.7 95.3,113.9 Z" id="Shape" fill="#06ACA1"></path>
                    <path d="M122.8,80.6 C122.4,80.5 122,80.7 121.9,81.1 C121.5,82.3 121.1,83.5 120.6,84.7 C120.4,85.1 120.6,85.5 121,85.7 C121.1,85.7 121.2,85.8 121.3,85.8 C121.6,85.8 121.9,85.6 122,85.3 C122.5,84.1 122.9,82.8 123.3,81.6 C123.4,81.2 123.2,80.7 122.8,80.6 Z" id="Shape" fill="#06ACA1"></path>
                    <path d="M87.6,117.6 C86.4,118.1 85.2,118.5 84,118.9 C83.6,119 83.4,119.5 83.5,119.8 C83.6,120.1 83.9,120.3 84.2,120.3 L84.4,120.3 C85.6,119.9 86.9,119.5 88.1,119 C88.5,118.8 88.7,118.4 88.5,118 C88.4,117.7 88,117.5 87.6,117.6 Z" id="Shape" fill="#06ACA1"></path>
                    <path d="M79.3,120.2 C78.1,120.5 76.8,120.7 75.5,120.9 C75.1,121 74.8,121.4 74.9,121.8 C75,122.2 75.3,122.4 75.6,122.4 L75.7,122.4 C77,122.2 78.3,121.9 79.6,121.6 C80,121.5 80.3,121.1 80.2,120.7 C80.2,120.4 79.8,120.1 79.3,120.2 Z" id="Shape" fill="#06ACA1"></path>
                    <path d="M106.6,107.2 C106.8,107.2 107,107.1 107.1,107 C108.1,106.1 109,105.2 109.9,104.2 C110.2,103.9 110.2,103.4 109.9,103.1 C109.6,102.8 109.1,102.8 108.8,103.1 L106.1,105.8 C105.8,106.1 105.8,106.6 106.1,106.9 C106.2,107.1 106.4,107.2 106.6,107.2 Z" id="Shape" fill="#06ACA1"></path>
                    <path d="M123.7,77.4 L123.9,77.4 C124.2,77.4 124.6,77.2 124.6,76.8 C124.9,75.5 125.2,74.2 125.4,72.9 C125.5,72.5 125.2,72.1 124.8,72 C124.4,71.9 124,72.2 123.9,72.6 C123.7,73.9 123.4,75.1 123.1,76.4 C123,76.9 123.3,77.3 123.7,77.4 Z" id="Shape" fill="#06ACA1"></path>
                    <path d="M125.2,68.8 C125.6,68.8 125.9,68.5 125.9,68.1 C126,67.4 126,66.8 126,66.1 C126,65.7 125.7,65.3 125.3,65.3 C124.9,65.3 124.5,65.6 124.5,66 C124.5,66.7 124.4,67.3 124.4,68 C124.4,68.4 124.7,68.7 125.2,68.8 C125.2,68.7 125.2,68.8 125.2,68.8 Z" id="Shape" fill="#06ACA1"></path>
                    <path d="M65.9,71.6 C70.6,71.6 74.5,67.7 74.5,63 C74.5,58.3 70.6,54.4 65.9,54.4 C61.2,54.4 57.3,58.3 57.3,63 C57.4,67.8 61.2,71.6 65.9,71.6 Z M65.9,56 C69.8,56 73,59.2 73,63.1 C73,67 69.8,70.2 65.9,70.2 C62,70.2 58.8,67 58.8,63.1 C58.9,59.1 62,56 65.9,56 Z" id="Shape" fill="#06ACA1"></path>
                </g>
            </g>
        </g>
    </g>
</svg>