<?xml version="1.0" encoding="UTF-8" standalone="no"?>
<svg width="128px" height="108px" viewBox="0 0 128 108" version="1.1" xmlns="http://www.w3.org/2000/svg" xmlns:xlink="http://www.w3.org/1999/xlink">
    <!-- Generator: Sketch 42 (36781) - http://www.bohemiancoding.com/sketch -->
    <title>Group 14</title>
    <desc>Created with Sketch.</desc>
    <defs>
        <path d="M106.6,52.4 C106,51.2 105.6,49.8 105.3,48.4 L104.8,45.8 C104.6,44.8 104.4,43.8 104.1,42.8 C104.1,42.7 104.1,42.7 104,42.7 L100.4,36.1 C97.3,30.3 92.3,25.9 86.5,23.6 C86.3,23.5 72,17.2 54.6,25.5 L54.6,25.5 L32.4,25.5 L24.3,17.4 L24.2,8.6 C26,8.3 27.4,6.6 27.4,4.7 C27.4,2.5 25.6,0.7 23.4,0.7 C21.2,0.7 19.4,2.5 19.4,4.7 C19.4,6.6 20.8,8.3 22.7,8.6 L22.8,17.7 C22.8,17.9 22.9,18.1 23,18.2 L31.6,26.8 C31.7,26.9 31.9,27 32.1,27 L52,27 C48.7,28.9 45.9,31.8 43.7,35.5 C43.6,35.4 43.4,35.3 43.3,35.3 L29.7,35.3 L17.8,23.4 C17.7,23.3 17.5,23.2 17.3,23.2 L8.5,23.2 C8.2,21.4 6.5,20 4.6,20 C2.4,20 0.6,21.8 0.6,24 C0.6,26.2 2.4,28 4.6,28 C6.5,28 8.2,26.6 8.5,24.8 L17,24.8 L28.9,36.7 C29,36.8 29.2,36.9 29.4,36.9 L42.9,36.9 C42.5,37.7 42.1,38.5 41.7,39.4 C40.9,41.4 40.3,43.4 39.9,45.4 L25.1,45.4 L16.5,36.8 C16.8,36.2 17,35.6 17,34.8 C17,32.6 15.2,30.8 13,30.8 C10.8,30.8 9,32.6 9,34.8 C9,37 10.8,38.8 13,38.8 C13.9,38.8 14.8,38.5 15.5,37.9 L24.2,46.6 C24.3,46.7 24.5,46.8 24.7,46.8 L39.6,46.8 C39.4,48.3 39.4,49.7 39.5,51.2 C39.5,51.3 39.4,52.8 39.5,55.2 C39.4,55.1 39.3,55.1 39.1,55.1 L24.8,55.1 C24.6,55.1 24.4,55.2 24.3,55.3 L15.6,64 C14.9,63.4 14.1,63.1 13.1,63.1 C10.9,63.1 9.1,64.9 9.1,67.1 C9.1,69.3 10.9,71.1 13.1,71.1 C15.3,71.1 17.1,69.3 17.1,67.1 C17.1,66.4 16.9,65.7 16.6,65.2 L25.2,56.6 L39.3,56.6 C39.5,56.6 39.6,56.5 39.7,56.4 C40.2,63.5 42.3,76.6 51.8,86 L48.6,105.4 C48.6,105.4 48.6,105.4 48.6,105.5 C48.6,105.5 48.6,105.5 48.6,105.6 L48.6,105.7 L48.6,105.8 C48.6,105.8 48.6,105.9 48.7,105.9 C48.7,105.9 48.7,106 48.8,106 L48.9,106.1 L49,106.2 C49,106.2 49.1,106.2 49.1,106.3 L49.2,106.3 L49.3,106.3 L49.3,106.3 L70.9,106.3 L70.9,106.3 L70.9,106.3 C71,106.3 71.1,106.3 71.2,106.2 L71.3,106.2 C71.4,106.2 71.4,106.1 71.4,106.1 C71.4,106.1 71.4,106 71.5,106 L71.6,105.9 L71.6,105.8 L71.6,105.7 L73.1,97.4 C73.2,97 72.9,96.6 72.5,96.5 C72.1,96.4 71.7,96.7 71.6,97.1 L70.2,104.8 L50.2,104.8 L53.3,85.9 C53.3,85.7 53.3,85.4 53.1,85.3 C39.7,72.2 41.1,51.6 41.1,51.3 C40.9,47.4 41.6,43.6 43.1,40 C44.7,36.2 47.8,31 53.1,28.1 C70.9,18.4 85.9,24.9 86.1,25 C91.6,27.2 96.3,31.4 99.3,36.8 L102.8,43.3 C103.1,44.2 103.3,45.1 103.4,46 L103.9,48.6 C104.2,50.2 104.7,51.6 105.3,53 L111.6,66.2 C111.8,66.7 111.8,67.2 111.5,67.6 C111.2,68 110.8,68.3 110.3,68.3 L105,68.3 C104.6,68.3 104.3,68.6 104.3,69 L104.3,81 L104.3,81.2 C104.3,81.2 105,83.7 103.7,85.6 C102.9,86.8 101.4,87.6 99.4,87.9 C89.2,89.3 84.8,87 84.7,87 C84.6,87 84.6,87 84.5,86.9 C84.5,86.9 84.5,86.9 84.4,86.9 L84.4,86.9 L84.2,86.9 L84.2,86.9 C84.1,86.9 84,87 84,87 L84,87 L83.9,87.1 L83.8,87.2 L83.8,87.2 L83.8,87.3 C83.8,87.3 83.8,87.4 83.7,87.4 L80.7,105.2 C80.6,105.6 80.9,106 81.3,106 L81.4,106 C81.8,106 82.1,105.7 82.1,105.4 L85,88.5 C86.8,89.2 91.5,90.4 99.6,89.2 C102.1,88.8 103.9,87.8 105,86.2 C106.5,83.9 106,81.3 105.8,80.7 L105.8,69.8 L110.4,69.8 C111.4,69.8 112.3,69.3 112.9,68.4 C113.4,67.5 113.5,66.5 113.1,65.6 L106.6,52.4 Z" id="path-1"></path>
        <path d="M37.7,27.3 C37.7,17.4 33.7,8.7 25.8,1.5 C25.5,1.2 25.2,1 24.8,0.7 C24.1,0.3 23.3,0 22.5,0 C21,0 19.7,0.8 18.9,1.9 C18.1,0.8 16.8,0 15.3,0 C14.5,0 13.7,0.2 13,0.7 L13,0.7 L13,0.7 L13,0.7 L13,0.7 C12.7,0.9 12.4,1.2 12.1,1.4 L12.1,1.4 C4.2,8.6 0.2,17.3 0.2,27.2 C0.2,38.2 7.2,45 13.2,47.5 C13.6,47.7 14,47.8 14.5,48 C14.8,48 15,48.1 15.3,48.1 C16.8,48.1 18.1,47.3 18.9,46.2 C19.7,47.3 21,48.1 22.5,48.1 C22.8,48.1 23,48.1 23.4,48 C23.8,47.9 24.2,47.7 24.6,47.6 C30.7,45.1 37.7,38.3 37.7,27.3 Z" id="path-3"></path>
    </defs>
    <g id="Symbols" stroke="none" stroke-width="1" fill="none" fill-rule="evenodd">
        <g id="Vision-Module" transform="translate(-642.000000, -1553.000000)">
            <g transform="translate(383.000000, 191.000000)" id="Group-14">
                <g transform="translate(259.000000, 1362.000000)">
                    <g id="Rectangle-6" transform="translate(5.000000, 0.000000)">
                        <mask id="mask-2" fill="white">
                            <use xlink:href="#path-1"></use>
                        </mask>
                        <use id="Mask" fill="#FFFFFF" xlink:href="#path-1"></use>
                        <rect fill="#D2DDE9" mask="url(#mask-2)" x="-68" y="-57" width="140" height="223"></rect>
                    </g>
                    <g id="Rectangle-6" transform="translate(57.000000, 33.000000)">
                        <mask id="mask-4" fill="white">
                            <use xlink:href="#path-3"></use>
                        </mask>
                        <use id="Mask" fill="#FFFFFF" xlink:href="#path-3"></use>
                        <rect fill="#D2DDE9" mask="url(#mask-4)" x="-120" y="-90" width="140" height="223"></rect>
                    </g>
                    <g id="Group-11" fill-rule="nonzero">
                        <path d="M123.7,16.9 C123.3,16.9 123,17.2 123,17.6 L123,28 C123,28.4 123.3,28.7 123.7,28.7 C124.1,28.7 124.4,28.4 124.4,28 L124.4,17.6 C124.5,17.2 124.1,16.9 123.7,16.9 Z" id="Shape" fill="#959595"></path>
                        <path d="M123.7,30.7 C123.3,30.7 123,31 123,31.4 L123,34.8 C123,35.2 123.3,35.5 123.7,35.5 C124.1,35.5 124.4,35.2 124.4,34.8 L124.4,31.4 C124.5,31 124.1,30.7 123.7,30.7 Z" id="Shape" fill="#959595"></path>
                        <path d="M1.2,52.9 C0.8,52.9 0.5,53.2 0.5,53.6 L0.5,64 C0.5,64.4 0.8,64.7 1.2,64.7 C1.6,64.7 2,64.4 2,64 L2,53.6 C2,53.2 1.6,52.9 1.2,52.9 Z" id="Shape" fill="#959595"></path>
                        <path d="M1.2,66.7 C0.8,66.7 0.5,67 0.5,67.4 L0.5,70.8 C0.5,71.2 0.8,71.5 1.2,71.5 C1.6,71.5 1.9,71.2 1.9,70.8 L1.9,67.4 C2,67 1.6,66.7 1.2,66.7 Z" id="Shape" fill="#959595"></path>
                        <path d="M106.3,13.4 C108.2,13.4 109.7,11.9 109.7,10 C109.7,8.1 108.2,6.6 106.3,6.6 C104.4,6.6 102.9,8.1 102.9,10 C102.9,11.9 104.4,13.4 106.3,13.4 Z M106.3,8.1 C107.3,8.1 108.2,9 108.2,10 C108.2,11 107.3,11.9 106.3,11.9 C105.3,11.9 104.4,11 104.4,10 C104.4,9 105.2,8.1 106.3,8.1 Z" id="Shape" fill="#959595"></path>
                        <path d="M98.7,100.6 C96.8,100.6 95.3,102.1 95.3,104 C95.3,105.9 96.8,107.4 98.7,107.4 C100.6,107.4 102.1,105.9 102.1,104 C102.1,102.1 100.5,100.6 98.7,100.6 Z M98.7,105.9 C97.7,105.9 96.8,105 96.8,104 C96.8,103 97.7,102.1 98.7,102.1 C99.7,102.1 100.6,103 100.6,104 C100.6,105 99.7,105.9 98.7,105.9 Z" id="Shape" fill="#959595"></path>
                        <path d="M62.3,10 C62.3,10.4 62.6,10.7 63,10.7 L75.5,10.7 C75.9,10.7 76.2,10.4 76.2,10 C76.2,9.6 75.9,9.3 75.5,9.3 L63,9.3 C62.6,9.3 62.3,9.6 62.3,10 Z" id="Shape" fill="#959595"></path>
                        <path d="M54.9,10.8 L58.9,10.8 C59.3,10.8 59.6,10.5 59.6,10.1 C59.6,9.7 59.3,9.4 58.9,9.4 L54.9,9.4 C54.5,9.4 54.2,9.7 54.2,10.1 C54.2,10.4 54.5,10.8 54.9,10.8 Z" id="Shape" fill="#959595"></path>
                        <path d="M54.9,6.5 L63.6,6.5 C64,6.5 64.3,6.2 64.3,5.8 C64.3,5.4 64,5.1 63.6,5.1 L54.9,5.1 C54.5,5.1 54.2,5.4 54.2,5.8 C54.2,6.2 54.5,6.5 54.9,6.5 Z" id="Shape" fill="#959595"></path>
                        <path d="M67.3,6.5 L70.1,6.5 C70.5,6.5 70.8,6.2 70.8,5.8 C70.8,5.4 70.5,5.1 70.1,5.1 L67.3,5.1 C66.9,5.1 66.6,5.4 66.6,5.8 C66.6,6.2 66.9,6.5 67.3,6.5 Z" id="Shape" fill="#959595"></path>
                        <path d="M28.4,98.6 L15.9,98.6 C15.5,98.6 15.2,98.9 15.2,99.3 C15.2,99.7 15.5,100 15.9,100 L28.4,100 C28.8,100 29.1,99.7 29.1,99.3 C29.1,98.9 28.8,98.6 28.4,98.6 Z" id="Shape" fill="#959595"></path>
                        <path d="M11.8,98.6 L7.8,98.6 C7.4,98.6 7.1,98.9 7.1,99.3 C7.1,99.7 7.4,100 7.8,100 L11.8,100 C12.2,100 12.5,99.7 12.5,99.3 C12.6,98.9 12.2,98.6 11.8,98.6 Z" id="Shape" fill="#959595"></path>
                        <path d="M7.8,95.8 L16.5,95.8 C16.9,95.8 17.2,95.5 17.2,95.1 C17.2,94.7 16.9,94.4 16.5,94.4 L7.8,94.4 C7.4,94.4 7.1,94.7 7.1,95.1 C7.1,95.5 7.4,95.8 7.8,95.8 Z" id="Shape" fill="#959595"></path>
                        <path d="M23,95.8 C23.4,95.8 23.7,95.5 23.7,95.1 C23.7,94.7 23.4,94.4 23,94.4 L20.2,94.4 C19.8,94.4 19.5,94.7 19.5,95.1 C19.5,95.5 19.8,95.8 20.2,95.8 L23,95.8 Z" id="Shape" fill="#959595"></path>
                        <path d="M4.5,3.6 C4.6,3.7 4.8,3.8 5,3.8 C5.2,3.8 5.4,3.7 5.5,3.6 C5.8,3.3 5.8,2.8 5.5,2.6 L4.1,1.2 C3.8,0.9 3.3,0.9 3.1,1.2 C2.8,1.5 2.8,2 3.1,2.2 L4.5,3.6 Z" id="Shape" fill="#959595"></path>
                        <path d="M9.1,8.2 C9.2,8.3 9.4,8.4 9.6,8.4 C9.8,8.4 10,8.3 10.1,8.2 C10.4,7.9 10.4,7.4 10.1,7.2 L8.7,5.8 C8.4,5.5 7.9,5.5 7.7,5.8 C7.4,6.1 7.4,6.6 7.7,6.8 L9.1,8.2 Z" id="Shape" fill="#959595"></path>
                        <path d="M5.5,5.7 C5.2,5.4 4.7,5.4 4.5,5.7 L3,7.2 C2.7,7.5 2.7,8 3,8.2 C3.1,8.3 3.3,8.4 3.5,8.4 C3.7,8.4 3.9,8.3 4,8.2 L5.4,6.8 C5.8,6.5 5.8,6 5.5,5.7 Z" id="Shape" fill="#959595"></path>
                        <path d="M8.2,3.8 C8.4,3.8 8.6,3.7 8.7,3.6 L10.1,2.2 C10.4,1.9 10.4,1.4 10.1,1.2 C9.8,0.9 9.3,0.9 9.1,1.2 L7.7,2.6 C7.4,2.9 7.4,3.4 7.7,3.6 C7.8,3.7 8,3.8 8.2,3.8 Z" id="Shape" fill="#959595"></path>
                        <path d="M30.3,75 C30,74.7 29.5,74.7 29.3,75 C29,75.3 29,75.8 29.3,76 L30.7,77.4 C30.8,77.5 31,77.6 31.2,77.6 C31.4,77.6 31.6,77.5 31.7,77.4 C32,77.1 32,76.6 31.7,76.4 L30.3,75 Z" id="Shape" fill="#959595"></path>
                        <path d="M35,79.7 C34.7,79.4 34.2,79.4 34,79.7 C33.7,80 33.7,80.5 34,80.7 L35.4,82.1 C35.5,82.2 35.7,82.3 35.9,82.3 C36.1,82.3 36.3,82.2 36.4,82.1 C36.7,81.8 36.7,81.3 36.4,81.1 L35,79.7 Z" id="Shape" fill="#959595"></path>
                        <path d="M30.7,79.7 L29.3,81.1 C29,81.4 29,81.9 29.3,82.1 C29.4,82.2 29.6,82.3 29.8,82.3 C30,82.3 30.2,82.2 30.3,82.1 L31.7,80.7 C32,80.4 32,79.9 31.7,79.7 C31.5,79.4 31,79.4 30.7,79.7 Z" id="Shape" fill="#959595"></path>
                        <path d="M35.4,75 L34,76.4 C33.7,76.7 33.7,77.2 34,77.4 C34.1,77.5 34.3,77.6 34.5,77.6 C34.7,77.6 34.9,77.5 35,77.4 L36.4,76 C36.7,75.7 36.7,75.2 36.4,75 C36.1,74.7 35.7,74.7 35.4,75 Z" id="Shape" fill="#959595"></path>
                        <path d="M121.2,81.1 C120.9,80.8 120.4,80.8 120.2,81.1 C119.9,81.4 119.9,81.9 120.2,82.1 L121.6,83.5 C121.7,83.6 121.9,83.7 122.1,83.7 C122.3,83.7 122.5,83.6 122.6,83.5 C122.9,83.2 122.9,82.7 122.6,82.5 L121.2,81.1 Z" id="Shape" fill="#959595"></path>
                        <path d="M125.9,85.8 C125.6,85.5 125.1,85.5 124.9,85.8 C124.6,86.1 124.6,86.6 124.9,86.8 L126.3,88.2 C126.4,88.3 126.6,88.4 126.8,88.4 C127,88.4 127.2,88.3 127.3,88.2 C127.6,87.9 127.6,87.4 127.3,87.2 L125.9,85.8 Z" id="Shape" fill="#959595"></path>
                        <path d="M121.6,85.8 L120.2,87.2 C119.9,87.5 119.9,88 120.2,88.2 C120.3,88.3 120.5,88.4 120.7,88.4 C120.9,88.4 121.1,88.3 121.2,88.2 L122.6,86.8 C122.9,86.5 122.9,86 122.6,85.8 C122.4,85.5 121.9,85.5 121.6,85.8 Z" id="Shape" fill="#959595"></path>
                        <path d="M125.3,83.8 C125.5,83.8 125.7,83.7 125.8,83.6 L127.2,82.2 C127.5,81.9 127.5,81.4 127.2,81.2 C126.9,80.9 126.4,80.9 126.2,81.2 L124.8,82.6 C124.5,82.9 124.5,83.4 124.8,83.6 C125,83.7 125.1,83.8 125.3,83.8 Z" id="Shape" fill="#959595"></path>
                        <path d="M111.6,52.4 C111,51.2 110.6,49.8 110.3,48.4 L109.8,45.8 C109.6,44.8 109.4,43.8 109.1,42.8 C109.1,42.7 109.1,42.7 109,42.7 L105.4,36.1 C102.3,30.3 97.3,25.9 91.5,23.6 C91.3,23.5 77,17.2 59.6,25.5 L59.6,25.5 L37.4,25.5 L29.3,17.4 L29.2,8.6 C31,8.3 32.4,6.6 32.4,4.7 C32.4,2.5 30.6,0.7 28.4,0.7 C26.2,0.7 24.4,2.5 24.4,4.7 C24.4,6.6 25.8,8.3 27.7,8.6 L27.8,17.7 C27.8,17.9 27.9,18.1 28,18.2 L36.6,26.8 C36.7,26.9 36.9,27 37.1,27 L57,27 C53.7,28.9 50.9,31.8 48.7,35.5 C48.6,35.4 48.4,35.3 48.3,35.3 L34.7,35.3 L22.8,23.4 C22.7,23.3 22.5,23.2 22.3,23.2 L13.5,23.2 C13.2,21.4 11.5,20 9.6,20 C7.4,20 5.6,21.8 5.6,24 C5.6,26.2 7.4,28 9.6,28 C11.5,28 13.2,26.6 13.5,24.8 L22,24.8 L33.9,36.7 C34,36.8 34.2,36.9 34.4,36.9 L47.9,36.9 C47.5,37.7 47.1,38.5 46.7,39.4 C45.9,41.4 45.3,43.4 44.9,45.4 L30.1,45.4 L21.5,36.8 C21.8,36.2 22,35.6 22,34.8 C22,32.6 20.2,30.8 18,30.8 C15.8,30.8 14,32.6 14,34.8 C14,37 15.8,38.8 18,38.8 C18.9,38.8 19.8,38.5 20.5,37.9 L29.2,46.6 C29.3,46.7 29.5,46.8 29.7,46.8 L44.6,46.8 C44.4,48.3 44.4,49.7 44.5,51.2 C44.5,51.3 44.4,52.8 44.5,55.2 C44.4,55.1 44.3,55.1 44.1,55.1 L29.8,55.1 C29.6,55.1 29.4,55.2 29.3,55.3 L20.6,64 C19.9,63.4 19.1,63.1 18.1,63.1 C15.9,63.1 14.1,64.9 14.1,67.1 C14.1,69.3 15.9,71.1 18.1,71.1 C20.3,71.1 22.1,69.3 22.1,67.1 C22.1,66.4 21.9,65.7 21.6,65.2 L30.2,56.6 L44.3,56.6 C44.5,56.6 44.6,56.5 44.7,56.4 C45.2,63.5 47.3,76.6 56.8,86 L53.6,105.4 C53.6,105.4 53.6,105.4 53.6,105.5 C53.6,105.5 53.6,105.5 53.6,105.6 L53.6,105.7 L53.6,105.8 C53.6,105.8 53.6,105.9 53.7,105.9 C53.7,105.9 53.7,106 53.8,106 L53.9,106.1 L54,106.2 C54,106.2 54.1,106.2 54.1,106.3 L54.2,106.3 L54.3,106.3 L54.3,106.3 L75.9,106.3 L75.9,106.3 L75.9,106.3 C76,106.3 76.1,106.3 76.2,106.2 L76.3,106.2 C76.4,106.2 76.4,106.1 76.4,106.1 C76.4,106.1 76.4,106 76.5,106 L76.6,105.9 L76.6,105.8 L76.6,105.7 L78.1,97.4 C78.2,97 77.9,96.6 77.5,96.5 C77.1,96.4 76.7,96.7 76.6,97.1 L75.2,104.8 L55.2,104.8 L58.3,85.9 C58.3,85.7 58.3,85.4 58.1,85.3 C44.7,72.2 46.1,51.6 46.1,51.3 C45.9,47.4 46.6,43.6 48.1,40 C49.7,36.2 52.8,31 58.1,28.1 C75.9,18.4 90.9,24.9 91.1,25 C96.6,27.2 101.3,31.4 104.3,36.8 L107.8,43.3 C108.1,44.2 108.3,45.1 108.4,46 L108.9,48.6 C109.2,50.2 109.7,51.6 110.3,53 L116.6,66.2 C116.8,66.7 116.8,67.2 116.5,67.6 C116.2,68 115.8,68.3 115.3,68.3 L110,68.3 C109.6,68.3 109.3,68.6 109.3,69 L109.3,81 L109.3,81.2 C109.3,81.2 110,83.7 108.7,85.6 C107.9,86.8 106.4,87.6 104.4,87.9 C94.2,89.3 89.8,87 89.7,87 C89.6,87 89.6,87 89.5,86.9 C89.5,86.9 89.5,86.9 89.4,86.9 L89.4,86.9 L89.2,86.9 L89.2,86.9 C89.1,86.9 89,87 89,87 L89,87 L88.9,87.1 L88.8,87.2 L88.8,87.2 L88.8,87.3 C88.8,87.3 88.8,87.4 88.7,87.4 L85.7,105.2 C85.6,105.6 85.9,106 86.3,106 L86.4,106 C86.8,106 87.1,105.7 87.1,105.4 L90,88.5 C91.8,89.2 96.5,90.4 104.6,89.2 C107.1,88.8 108.9,87.8 110,86.2 C111.5,83.9 111,81.3 110.8,80.7 L110.8,69.8 L115.4,69.8 C116.4,69.8 117.3,69.3 117.9,68.4 C118.4,67.5 118.5,66.5 118.1,65.6 L111.6,52.4 Z M25.9,4.6 C25.9,3.2 27,2.1 28.4,2.1 C29.8,2.1 30.9,3.2 30.9,4.6 C30.9,6 29.8,7.1 28.4,7.1 C27.1,7.2 25.9,6 25.9,4.6 Z M9.6,26.5 C8.2,26.5 7.1,25.4 7.1,24 C7.1,22.6 8.2,21.5 9.6,21.5 C11,21.5 12.1,22.6 12.1,24 C12.1,25.3 11,26.5 9.6,26.5 Z M20.2,36.1 C20.1,36.1 20.1,36.2 20,36.2 C19.9,36.3 19.9,36.4 19.8,36.5 C19.3,36.9 18.7,37.2 18,37.2 C16.6,37.2 15.5,36.1 15.5,34.7 C15.5,33.3 16.6,32.2 18,32.2 C19.4,32.2 20.5,33.3 20.5,34.7 C20.6,35.3 20.5,35.7 20.2,36.1 Z M18.1,69.5 C16.7,69.5 15.6,68.4 15.6,67 C15.6,65.6 16.7,64.5 18.1,64.5 C18.8,64.5 19.4,64.8 19.9,65.2 C19.9,65.3 20,65.4 20.1,65.5 C20.2,65.6 20.2,65.6 20.3,65.6 C20.6,66 20.7,66.5 20.7,67 C20.6,68.4 19.5,69.5 18.1,69.5 Z" id="Shape" fill="#2A6190"></path>
                        <path d="M67.3,74.7 L67.4,74.7 C67.8,74.6 68.1,74.2 68,73.8 C68,73.8 67.6,71.6 68.7,70 C69.3,69.1 70.4,68.5 71.8,68.3 C72.2,68.2 72.5,67.9 72.4,67.5 C72.3,67.1 72,66.8 71.6,66.9 C69.8,67.2 68.4,68 67.6,69.3 C66.1,71.4 66.6,74.1 66.6,74.2 C66.6,74.4 66.9,74.7 67.3,74.7 Z" id="Shape" fill="#2A6190"></path>
                        <path d="M94.7,60.3 C94.7,50.4 90.7,41.7 82.8,34.5 C82.5,34.2 82.2,34 81.8,33.7 C81.1,33.3 80.3,33 79.5,33 C78,33 76.7,33.8 75.9,34.9 C75.1,33.8 73.8,33 72.3,33 C71.5,33 70.7,33.2 70,33.7 L70,33.7 L70,33.7 L70,33.7 L70,33.7 C69.7,33.9 69.4,34.2 69.1,34.4 L69.1,34.4 C61.2,41.6 57.2,50.3 57.2,60.2 C57.2,71.2 64.2,78 70.2,80.5 C70.6,80.7 71,80.8 71.5,81 C71.8,81 72,81.1 72.3,81.1 C73.8,81.1 75.1,80.3 75.9,79.2 C76.7,80.3 78,81.1 79.5,81.1 C79.8,81.1 80,81.1 80.4,81 C80.8,80.9 81.2,80.7 81.6,80.6 C87.7,78.1 94.7,71.3 94.7,60.3 Z M70.6,50.5 C70.7,50.6 70.9,50.6 71,50.6 C71.2,50.6 71.5,50.5 71.6,50.3 C72,49.7 72.5,49.4 73.1,49.3 C73.8,49.2 74.6,49.7 75.1,50.1 L75.1,61.2 C74.2,61.8 72.1,63 69.8,62.8 C68.3,62.6 66.9,61.8 65.8,60.3 C65.6,60.1 65.3,60 65,60.1 C64.7,60.2 64.5,60.5 64.5,60.8 C64.5,60.8 64.3,64.4 62.2,64.8 C61.8,64.9 61.5,65.3 61.6,65.7 C61.7,66 62,66.3 62.3,66.3 L62.4,66.3 C64.4,65.9 65.3,63.9 65.7,62.5 C66.9,63.6 68.2,64.2 69.7,64.4 C71.9,64.7 73.9,63.8 75.2,63.1 L75.2,76.8 C75.2,77 75.2,77.2 75.3,77.5 C75,78.8 73.8,79.8 72.4,79.8 L71.9,79.8 C71.5,79.7 71.2,79.6 70.8,79.4 C65.2,77.1 58.7,70.7 58.7,60.5 C58.7,59.5 58.8,58.5 58.8,57.6 C59.3,57.1 60.9,55.6 63.3,55.4 C65.2,55.3 67.2,56.1 69.1,57.8 C69.4,58.1 69.9,58.1 70.1,57.7 C70.4,57.4 70.3,56.9 70,56.7 C67.8,54.7 65.5,53.8 63.2,53.9 C61.5,54 60,54.7 59,55.4 C59.4,53 60,50.7 60.9,48.4 C61.5,49.6 62.8,51 65,51.4 L65.1,51.4 C65.4,51.4 65.8,51.2 65.8,50.8 C65.9,50.4 65.6,50 65.2,49.9 C62.6,49.4 61.8,47.1 61.6,46.4 C62.7,44.2 64,42.1 65.6,40.1 C65.7,41.2 66.2,42.7 67.3,44.6 C67.4,44.8 67.7,45 67.9,45 C68,45 68.2,45 68.3,44.9 C68.6,44.7 68.8,44.2 68.6,43.9 C66.1,39.7 67.3,38.2 67.4,38.1 L67.4,38.1 C68.2,37.2 69,36.4 69.9,35.6 C70.2,35.4 70.4,35.1 70.7,35 C71.1,34.7 71.7,34.6 72.2,34.6 C73.6,34.6 74.8,35.6 75.1,36.9 C75.1,37.1 75,37.3 75,37.6 L75,48.5 C74.4,48.2 73.7,47.9 72.9,48 C71.9,48.1 71.1,48.6 70.4,49.6 C70.2,49.8 70.3,50.3 70.6,50.5 Z M81.1,79.2 C80.8,79.3 80.4,79.5 80.1,79.6 L79.6,79.6 C78.2,79.6 77,78.6 76.7,77.3 C76.7,77.1 76.8,76.9 76.8,76.6 L76.8,63 C78.1,63.7 80.1,64.5 82.3,64.3 C83.8,64.1 85.1,63.5 86.3,62.4 C86.7,63.8 87.5,65.8 89.6,66.2 L89.7,66.2 C90,66.2 90.4,66 90.4,65.6 C90.5,65.2 90.2,64.8 89.8,64.7 C87.7,64.3 87.5,60.7 87.5,60.7 C87.5,60.4 87.3,60.1 87,60 C86.7,59.9 86.4,60 86.2,60.2 C85.1,61.7 83.7,62.5 82.2,62.7 C79.9,63 77.8,61.7 76.9,61.1 L76.9,50.1 C77.4,49.7 78.2,49.3 78.9,49.3 C79.4,49.3 79.9,49.7 80.4,50.3 C80.5,50.5 80.8,50.6 81,50.6 C81.1,50.6 81.3,50.6 81.4,50.5 C81.7,50.3 81.8,49.8 81.6,49.5 C80.9,48.5 80.1,48 79.1,47.9 C78.3,47.8 77.6,48.1 77,48.4 L77,37.5 C77,37.3 77,37.1 76.9,36.8 C77.2,35.5 78.4,34.5 79.8,34.5 C80.4,34.5 80.9,34.6 81.3,34.9 C81.6,35.1 81.8,35.3 82.1,35.6 C83,36.4 83.8,37.2 84.6,38.1 L84.6,38.1 C84.6,38.1 85.9,39.6 83.4,43.9 C83.2,44.2 83.3,44.7 83.7,44.9 C83.8,45 83.9,45 84.1,45 C84.4,45 84.6,44.9 84.7,44.6 C85.8,42.7 86.3,41.3 86.4,40.1 C88,42.1 89.3,44.2 90.4,46.4 C90.2,47.1 89.5,49.3 86.8,49.9 C86.4,50 86.1,50.4 86.2,50.8 C86.3,51.1 86.6,51.4 86.9,51.4 L87,51.4 C89.3,50.9 90.5,49.5 91.1,48.4 C92,50.6 92.7,53 93,55.4 C92,54.7 90.6,54 88.8,53.9 C86.5,53.7 84.2,54.7 82,56.7 C81.7,57 81.7,57.4 81.9,57.7 C82.2,58 82.6,58 82.9,57.8 C84.8,56.1 86.7,55.3 88.6,55.4 C90.9,55.6 92.6,57.1 93.1,57.6 C93.2,58.6 93.2,59.5 93.2,60.5 C93.2,70.6 86.7,76.9 81.1,79.2 Z" id="Shape" fill="#2A6190"></path>
                        <path d="M80.3,66.9 C79.9,66.8 79.5,67.1 79.5,67.5 C79.4,67.9 79.7,68.3 80.1,68.3 C81.5,68.5 82.5,69.1 83.2,70 C84.3,71.6 83.9,73.7 83.9,73.8 C83.8,74.2 84.1,74.6 84.5,74.7 L84.6,74.7 C84.9,74.7 85.3,74.5 85.3,74.1 C85.3,74 85.8,71.3 84.3,69.2 C83.5,68 82.1,67.2 80.3,66.9 Z" id="Shape" fill="#2A6190"></path>
                    </g>
                </g>
            </g>
        </g>
    </g>
</svg>