<?xml version="1.0" encoding="UTF-8" standalone="no"?>
<svg width="128px" height="118px" viewBox="0 0 128 118" version="1.1" xmlns="http://www.w3.org/2000/svg" xmlns:xlink="http://www.w3.org/1999/xlink">
    <!-- Generator: Sketch 42 (36781) - http://www.bohemiancoding.com/sketch -->
    <title>Group 9</title>
    <desc>Created with Sketch.</desc>
    <defs>
        <path d="M83.5,46.4 C83.5,45.1 82.3,44 80.9,44 L57.7,44 C57.5,43.4 57.3,42.9 57,42.4 C57,42.3 57,42.3 56.9,42.3 L35.5,10.3 L65,10.3 C65.4,10.3 65.7,10 65.7,9.6 L65.7,0.8 C65.7,0.4 65.4,0.1 65,0.1 L22,0.1 L21.9,0.1 C19.1,0.1 16.8,2.4 16.8,5.2 C16.8,7.4 18.1,9.2 20,10 C20,10.1 20,10.1 20.1,10.2 L38.9,44 L3.5,44 C2.1,44 0.9,45.1 0.9,46.4 L0.9,60.5 C0.9,61.8 2.1,62.9 3.5,62.9 L30,62.9 L30,85 L25.4,85 C24.5,85 23.7,85.8 23.7,86.7 L23.7,93.5 C23.7,94.4 24.5,95.2 25.4,95.2 L61.4,95.2 C62.3,95.2 63.1,94.4 63.1,93.5 L63.1,86.7 C63.1,85.8 62.3,85 61.4,85 L53,85 L45.1,73.3 C44.4,72.2 44,70.9 44,69.6 L44,62.9 L80.9,62.9 C82.3,62.9 83.5,61.8 83.5,60.5 L83.5,46.4 Z" id="path-1"></path>
    </defs>
    <g id="Symbols" stroke="none" stroke-width="1" fill="none" fill-rule="evenodd">
        <g id="Vision-Module" transform="translate(-261.000000, -852.000000)">
            <g id="Group-9">
                <g transform="translate(261.000000, 852.000000)">
                    <g id="Rectangle-5" transform="translate(14.000000, 14.000000)">
                        <mask id="mask-2" fill="white">
                            <use xlink:href="#path-1"></use>
                        </mask>
                        <use id="Mask" fill="#FFFFFF" xlink:href="#path-1"></use>
                        <rect fill="#D2DDE9" mask="url(#mask-2)" x="-65" y="-73" width="109" height="217"></rect>
                    </g>
                    <path d="M81.5,14.8 L81.5,23.6 C81.5,24 81.8,24.3 82.2,24.3 L83.7,24.3 C85,24.3 86.4,23.8 87.3,22.8 C87.7,22.4 88,21.9 88.3,21.4 L92.4,21.4 L94.3,29.2 C94.6,30.5 95.8,31.5 97.2,31.5 L97.6,31.5 L116.6,28.4 C118.1,28.2 119.2,26.9 119.2,25.4 L119.2,23.5 C119.2,23.1 118.9,22.8 118.5,22.8 L113,22.8 L112.9,22.8 L99.6,25.2 L98.1,19.2 L99.6,13.2 L112.9,15.6 L113,15.6 L118.5,15.6 C118.9,15.6 119.2,15.3 119.2,14.9 L119.2,13 C119.2,11.5 118.1,10.2 116.6,10 L97.5,6.9 C96,6.7 94.6,7.7 94.2,9.2 L92.3,17 L88.2,17 C87.4,15.3 85.6,14.1 83.6,14.1 L82.1,14.1 C81.8,14 81.5,14.4 81.5,14.8 Z" id="Path" fill="#FFFFFF"></path>
                    <g id="Group-2" fill-rule="nonzero">
                        <path d="M116.1,60.5 C116.5,60.5 116.8,60.2 116.8,59.8 L116.8,47 C116.8,46.6 116.5,46.3 116.1,46.3 C115.7,46.3 115.4,46.6 115.4,47 L115.4,59.8 C115.4,60.2 115.7,60.5 116.1,60.5 Z" id="Shape" fill="#959595"></path>
                        <path d="M115.4,68.2 C115.4,68.6 115.7,68.9 116.1,68.9 C116.5,68.9 116.8,68.6 116.8,68.2 L116.8,64 C116.8,63.6 116.5,63.3 116.1,63.3 C115.7,63.3 115.4,63.6 115.4,64 L115.4,68.2 Z" id="Shape" fill="#959595"></path>
                        <path d="M3.7,20.6 C4.1,20.6 4.4,20.3 4.4,19.9 L4.4,7.1 C4.4,6.7 4.1,6.4 3.7,6.4 C3.3,6.4 3,6.7 3,7.1 L3,19.9 C3,20.3 3.3,20.6 3.7,20.6 Z" id="Shape" fill="#959595"></path>
                        <path d="M3.7,29 C4.1,29 4.4,28.7 4.4,28.3 L4.4,24.2 C4.4,23.8 4.1,23.5 3.7,23.5 C3.3,23.5 3,23.8 3,24.2 L3,28.3 C3,28.6 3.3,29 3.7,29 Z" id="Shape" fill="#959595"></path>
                        <path d="M2.8,74.7 C2.5,74.4 2,74.4 1.8,74.7 C1.5,75 1.5,75.5 1.8,75.7 L3.5,77.4 C3.6,77.5 3.8,77.6 4,77.6 C4.2,77.6 4.4,77.5 4.5,77.4 C4.8,77.1 4.8,76.6 4.5,76.4 L2.8,74.7 Z" id="Shape" fill="#959595"></path>
                        <path d="M8.4,80.3 C8.1,80 7.6,80 7.4,80.3 C7.1,80.6 7.1,81.1 7.4,81.3 L9.1,83 C9.2,83.1 9.4,83.2 9.6,83.2 C9.8,83.2 10,83.1 10.1,83 C10.4,82.7 10.4,82.2 10.1,82 L8.4,80.3 Z" id="Shape" fill="#959595"></path>
                        <path d="M3.4,80.3 L1.7,82 C1.4,82.3 1.4,82.8 1.7,83 C1.8,83.1 2,83.2 2.2,83.2 C2.4,83.2 2.6,83.1 2.7,83 L4.4,81.3 C4.7,81 4.7,80.5 4.4,80.3 C4.2,80 3.7,80 3.4,80.3 Z" id="Shape" fill="#959595"></path>
                        <path d="M9.1,74.7 L7.4,76.4 C7.1,76.7 7.1,77.2 7.4,77.4 C7.5,77.5 7.7,77.6 7.9,77.6 C8.1,77.6 8.3,77.5 8.4,77.4 L10.1,75.7 C10.4,75.4 10.4,74.9 10.1,74.7 C9.8,74.4 9.4,74.4 9.1,74.7 Z" id="Shape" fill="#959595"></path>
                        <path d="M98.4,89.7 C98.1,89.4 97.6,89.4 97.4,89.7 C97.2,90 97.1,90.5 97.4,90.7 L99.1,92.4 C99.2,92.5 99.4,92.6 99.6,92.6 C99.8,92.6 100,92.5 100.1,92.4 C100.4,92.1 100.4,91.6 100.1,91.4 L98.4,89.7 Z" id="Shape" fill="#959595"></path>
                        <path d="M104,95.3 C103.7,95 103.2,95 103,95.3 C102.8,95.6 102.7,96.1 103,96.3 L104.7,98 C104.8,98.1 105,98.2 105.2,98.2 C105.4,98.2 105.6,98.1 105.7,98 C106,97.7 106,97.2 105.7,97 L104,95.3 Z" id="Shape" fill="#959595"></path>
                        <path d="M99.1,95.3 L97.4,97 C97.1,97.3 97.1,97.8 97.4,98 C97.5,98.1 97.7,98.2 97.9,98.2 C98.1,98.2 98.3,98.1 98.4,98 L100.1,96.3 C100.4,96 100.4,95.5 100.1,95.3 C99.8,95.1 99.4,95 99.1,95.3 Z" id="Shape" fill="#959595"></path>
                        <path d="M105.7,89.7 C105.4,89.4 104.9,89.4 104.7,89.7 L103,91.4 C102.7,91.7 102.7,92.2 103,92.4 C103.1,92.5 103.3,92.6 103.5,92.6 C103.7,92.6 103.9,92.5 104,92.4 L105.7,90.7 C106,90.5 106,90 105.7,89.7 Z" id="Shape" fill="#959595"></path>
                        <path d="M79.1,8.3 C81.3,8.3 83.1,6.5 83.1,4.3 C83.1,2.1 81.3,0.3 79.1,0.3 C76.9,0.3 75.1,2.1 75.1,4.3 C75.1,6.5 76.9,8.3 79.1,8.3 Z M79.1,1.7 C80.5,1.7 81.6,2.8 81.6,4.2 C81.6,5.6 80.5,6.7 79.1,6.7 C77.7,6.7 76.6,5.6 76.6,4.2 C76.6,2.8 77.7,1.7 79.1,1.7 Z" id="Shape" fill="#959595"></path>
                        <path d="M15.6,109.3 C13.4,109.3 11.6,111.1 11.6,113.3 C11.6,115.5 13.4,117.3 15.6,117.3 C17.8,117.3 19.6,115.5 19.6,113.3 C19.6,111.1 17.9,109.3 15.6,109.3 Z M15.6,115.9 C14.2,115.9 13.1,114.8 13.1,113.4 C13.1,112 14.2,110.9 15.6,110.9 C17,110.9 18.1,112 18.1,113.4 C18.1,114.8 17,115.9 15.6,115.9 Z" id="Shape" fill="#959595"></path>
                        <path d="M11.2,44 L26.5,44 C26.9,44 27.2,43.7 27.2,43.3 C27.2,42.9 26.9,42.6 26.5,42.6 L11.2,42.6 C10.8,42.6 10.5,42.9 10.5,43.3 C10.5,43.7 10.8,44 11.2,44 Z" id="Shape" fill="#959595"></path>
                        <path d="M1.2,44 L6.1,44 C6.5,44 6.8,43.7 6.8,43.3 C6.8,42.9 6.5,42.6 6.1,42.6 L1.2,42.6 C0.8,42.6 0.5,42.9 0.5,43.3 C0.5,43.7 0.8,44 1.2,44 Z" id="Shape" fill="#959595"></path>
                        <path d="M12.6,48.5 C12.6,48.1 12.3,47.8 11.9,47.8 L1.2,47.8 C0.8,47.8 0.5,48.1 0.5,48.5 C0.5,48.9 0.8,49.2 1.2,49.2 L11.8,49.2 C12.3,49.3 12.6,48.9 12.6,48.5 Z" id="Shape" fill="#959595"></path>
                        <path d="M16.5,47.8 C16.1,47.8 15.8,48.1 15.8,48.5 C15.8,48.9 16.1,49.2 16.5,49.2 L19.9,49.2 C20.3,49.2 20.6,48.9 20.6,48.5 C20.6,48.1 20.3,47.8 19.9,47.8 L16.5,47.8 Z" id="Shape" fill="#959595"></path>
                        <path d="M116.8,116.3 L101.5,116.3 C101.1,116.3 100.8,116.6 100.8,117 C100.8,117.4 101.1,117.7 101.5,117.7 L116.8,117.7 C117.2,117.7 117.5,117.4 117.5,117 C117.5,116.6 117.2,116.3 116.8,116.3 Z" id="Shape" fill="#959595"></path>
                        <path d="M126.8,116.3 L121.9,116.3 C121.5,116.3 121.2,116.6 121.2,117 C121.2,117.4 121.5,117.7 121.9,117.7 L126.8,117.7 C127.2,117.7 127.5,117.4 127.5,117 C127.5,116.6 127.2,116.3 126.8,116.3 Z" id="Shape" fill="#959595"></path>
                        <path d="M115.4,111.8 C115.4,112.2 115.7,112.5 116.1,112.5 L126.7,112.5 C127.1,112.5 127.4,112.2 127.4,111.8 C127.4,111.4 127.1,111.1 126.7,111.1 L116.1,111.1 C115.7,111.1 115.4,111.4 115.4,111.8 Z" id="Shape" fill="#959595"></path>
                        <path d="M108.1,111.1 C107.7,111.1 107.4,111.4 107.4,111.8 C107.4,112.2 107.7,112.5 108.1,112.5 L111.5,112.5 C111.9,112.5 112.2,112.2 112.2,111.8 C112.2,111.4 111.9,111.1 111.5,111.1 L108.1,111.1 Z" id="Shape" fill="#959595"></path>
                        <path d="M81.5,14.8 L81.5,23.6 C81.5,24 81.8,24.3 82.2,24.3 L83.7,24.3 C85,24.3 86.4,23.8 87.3,22.8 C87.7,22.4 88,21.9 88.3,21.4 L92.4,21.4 L94.3,29.2 C94.6,30.5 95.8,31.5 97.2,31.5 L97.6,31.5 L116.6,28.4 C118.1,28.2 119.2,26.9 119.2,25.4 L119.2,23.5 C119.2,23.1 118.9,22.8 118.5,22.8 L113,22.8 L112.9,22.8 L99.6,25.2 L98.1,19.2 L99.6,13.2 L112.9,15.6 L113,15.6 L118.5,15.6 C118.9,15.6 119.2,15.3 119.2,14.9 L119.2,13 C119.2,11.5 118.1,10.2 116.6,10 L97.5,6.9 C96,6.7 94.6,7.7 94.2,9.2 L92.3,17 L88.2,17 C87.4,15.3 85.6,14.1 83.6,14.1 L82.1,14.1 C81.8,14 81.5,14.4 81.5,14.8 Z M93.5,18.8 L95.8,9.4 C96,8.7 96.6,8.2 97.3,8.2 L97.5,8.2 L116.6,11.3 C117.4,11.4 117.9,12 117.9,12.8 L117.9,14 L113,14 L99.1,11.5 C98.7,11.4 98.3,11.7 98.3,12.1 L96.6,19 L96.6,19.3 L98.3,26.2 C98.4,26.6 98.8,26.8 99.1,26.8 L113,24.3 L117.7,24.3 L117.7,25.5 C117.7,26.3 117.1,26.9 116.3,27 L97.3,30.1 C96.5,30.2 95.8,29.7 95.6,29 L93.3,19.6 C93.4,19.3 93.4,19 93.5,18.8 Z M92.1,18.4 L92.1,18.4 C92,18.9 92,19.4 92.1,19.9 L92.1,20 L88.8,20 C88.8,19.7 88.9,19.5 88.9,19.2 C88.9,18.9 88.9,18.7 88.8,18.4 L92.1,18.4 Z M83,15.5 L83.7,15.5 C85.7,15.5 87.4,17.1 87.4,19.2 C87.4,20.2 87,21.1 86.3,21.8 C85.6,22.5 84.7,22.9 83.7,22.9 L83,22.9 L83,15.5 Z" id="Shape" fill="#2A6190"></path>
                        <path d="M38.9,19.2 C38.9,17.7 37.7,16.5 36.2,16.5 C34.7,16.5 33.5,17.7 33.5,19.2 C33.5,20.7 34.7,21.9 36.2,21.9 C37.7,21.9 38.9,20.7 38.9,19.2 Z M35,19.2 C35,18.5 35.6,18 36.2,18 C36.9,18 37.4,18.6 37.4,19.2 C37.4,19.9 36.8,20.4 36.2,20.4 C35.5,20.4 35,19.8 35,19.2 Z" id="Shape" fill="#2A6190"></path>
                        <path d="M63.7,65.8 C66.8,65.8 69.3,63.3 69.3,60.2 C69.3,57.1 66.8,54.6 63.7,54.6 C60.6,54.6 58.1,57.1 58.1,60.2 C58.1,63.3 60.6,65.8 63.7,65.8 Z M63.7,56.1 C66,56.1 67.8,58 67.8,60.2 C67.8,62.5 65.9,64.3 63.7,64.3 C61.4,64.3 59.6,62.4 59.6,60.2 C59.6,57.9 61.5,56.1 63.7,56.1 Z" id="Shape" fill="#2A6190"></path>
                        <path d="M97.5,60.4 C97.5,59.1 96.3,58 94.9,58 L71.7,58 C71.5,57.4 71.3,56.9 71,56.4 C71,56.3 71,56.3 70.9,56.3 L49.5,24.3 L79,24.3 C79.4,24.3 79.7,24 79.7,23.6 L79.7,14.8 C79.7,14.4 79.4,14.1 79,14.1 L36,14.1 L35.9,14.1 C33.1,14.1 30.8,16.4 30.8,19.2 C30.8,21.4 32.1,23.2 34,24 C34,24.1 34,24.1 34.1,24.2 L52.9,58 L17.5,58 C16.1,58 14.9,59.1 14.9,60.4 L14.9,74.5 C14.9,75.8 16.1,76.9 17.5,76.9 L44,76.9 L44,99 L39.4,99 C38.5,99 37.7,99.8 37.7,100.7 L37.7,107.5 C37.7,108.4 38.5,109.2 39.4,109.2 L75.4,109.2 C76.3,109.2 77.1,108.4 77.1,107.5 L77.1,100.7 C77.1,99.8 76.3,99 75.4,99 L67,99 L59.1,87.3 C58.4,86.2 58,84.9 58,83.6 L58,76.9 L94.9,76.9 C96.3,76.9 97.5,75.8 97.5,74.5 L97.5,60.4 Z M69.6,56.9 C69.6,56.9 69.6,57 69.6,56.9 C71.6,60.2 70.6,64.4 67.4,66.3 C65.8,67.3 64,67.5 62.2,67.1 C60.4,66.7 58.9,65.6 58,64 C58,64 58,63.9 57.9,63.9 L36,24.3 L36.1,24.3 L47.8,24.3 L69.6,56.9 Z M32.4,19.2 C32.4,17.2 34,15.5 36.1,15.5 L36.2,15.5 L78.3,15.5 L78.3,22.8 L36.1,22.8 C36.1,22.8 36.1,22.8 36,22.8 C34,22.8 32.4,21.2 32.4,19.2 Z M75.6,100.6 L75.6,107.4 C75.6,107.5 75.5,107.6 75.4,107.6 L39.4,107.6 C39.3,107.6 39.2,107.5 39.2,107.4 L39.2,100.6 C39.2,100.5 39.3,100.4 39.4,100.4 L75.4,100.4 C75.5,100.3 75.6,100.5 75.6,100.6 Z M57.9,88 L65.2,98.8 L45.4,98.8 L45.4,76.8 L56.5,76.8 L56.5,83.5 C56.5,85.1 57,86.7 57.9,88 Z M96,74.4 C96,74.9 95.5,75.3 94.9,75.3 L57.2,75.3 L44.7,75.3 L17.5,75.3 C16.9,75.3 16.4,74.9 16.4,74.4 L16.4,60.4 C16.4,59.9 16.9,59.5 17.5,59.5 L53.7,59.5 L56.7,64.9 L56.8,65 C58.4,67.5 61.1,68.8 63.8,68.8 C65.3,68.8 66.8,68.4 68.1,67.6 C71,65.8 72.4,62.6 72,59.4 L94.8,59.4 C95.4,59.4 95.9,59.8 95.9,60.3 L95.9,74.4 L96,74.4 Z" id="Shape" fill="#2A6190"></path>
                        <path d="M24.7,63.6 C24.3,63.6 24,63.9 24,64.3 L24,70.5 C24,70.9 24.3,71.2 24.7,71.2 C25.1,71.2 25.4,70.9 25.4,70.5 L25.4,64.3 C25.4,63.9 25.1,63.6 24.7,63.6 Z" id="Shape" fill="#2A6190"></path>
                        <path d="M31,63.6 C30.6,63.6 30.3,63.9 30.3,64.3 L30.3,70.5 C30.3,70.9 30.6,71.2 31,71.2 C31.4,71.2 31.7,70.9 31.7,70.5 L31.7,64.3 C31.7,63.9 31.4,63.6 31,63.6 Z" id="Shape" fill="#2A6190"></path>
                        <path d="M37.2,63.6 C36.8,63.6 36.5,63.9 36.5,64.3 L36.5,70.5 C36.5,70.9 36.8,71.2 37.2,71.2 C37.6,71.2 37.9,70.9 37.9,70.5 L37.9,64.3 C38,63.9 37.6,63.6 37.2,63.6 Z" id="Shape" fill="#2A6190"></path>
                        <path d="M43.5,63.6 C43.1,63.6 42.8,63.9 42.8,64.3 L42.8,70.5 C42.8,70.9 43.1,71.2 43.5,71.2 C43.9,71.2 44.2,70.9 44.2,70.5 L44.2,64.3 C44.2,63.9 43.9,63.6 43.5,63.6 Z" id="Shape" fill="#2A6190"></path>
                        <path d="M89.6,64.2 L79.6,64.2 C79.2,64.2 78.9,64.5 78.9,64.9 C78.9,65.3 79.2,65.6 79.6,65.6 L89.6,65.6 C90,65.6 90.3,65.3 90.3,64.9 C90.3,64.5 90,64.2 89.6,64.2 Z" id="Shape" fill="#2A6190"></path>
                        <path d="M89.6,68.5 L79.6,68.5 C79.2,68.5 78.9,68.8 78.9,69.2 C78.9,69.6 79.2,69.9 79.6,69.9 L89.6,69.9 C90,69.9 90.3,69.6 90.3,69.2 C90.3,68.8 90,68.5 89.6,68.5 Z" id="Shape" fill="#2A6190"></path>
                    </g>
                </g>
            </g>
        </g>
    </g>
</svg>