<?xml version="1.0" encoding="UTF-8" standalone="no"?>
<svg width="140px" height="148px" viewBox="0 0 140 148" version="1.1" xmlns="http://www.w3.org/2000/svg" xmlns:xlink="http://www.w3.org/1999/xlink">
    <!-- Generator: Sketch 42 (36781) - http://www.bohemiancoding.com/sketch -->
    <title>Group 6</title>
    <desc>Created with Sketch.</desc>
    <defs>
        <path d="M45.85,0 C33.6,0 22.05,4.78333333 13.4166667,13.4166667 C4.78333333,22.05 0,33.6 0,45.85 C0,58.1 4.78333333,69.65 13.4166667,78.2833333 C13.7666667,78.6333333 14.35,78.6333333 14.5833333,78.2833333 L24.6166667,68.25 C24.7333333,68.1333333 24.85,67.9 24.85,67.6666667 C24.85,67.4333333 24.7333333,67.2 24.6166667,67.0833333 C18.9,61.3666667 15.8666667,53.9 15.8666667,45.85 C15.8666667,37.8 19.0166667,30.3333333 24.6166667,24.6166667 C30.3333333,18.9 37.8,15.8666667 45.85,15.8666667 C51.5666667,15.8666667 57.05,17.5 61.95,20.5333333 L44.2166667,38.6166667 C42.9333333,38.9666667 41.7666667,39.6666667 40.95,40.8333333 C38.85,43.5166667 39.3166667,47.4833333 42.1166667,49.5833333 C43.1666667,50.4 44.5666667,50.8666667 45.9666667,50.8666667 L46.7833333,50.8666667 C48.4166667,50.6333333 49.9333333,49.8166667 50.9833333,48.5333333 C51.8,47.4833333 52.2666667,46.2 52.2666667,44.8 L65.45,23.1 C66.0333333,23.6833333 66.7333333,24.15 67.3166667,24.7333333 C73.0333333,30.45 76.0666667,37.9166667 76.0666667,45.9666667 C76.0666667,54.0166667 72.9166667,61.4833333 67.3166667,67.2 C66.9666667,67.55 66.9666667,68.1333333 67.3166667,68.3666667 L77.35,78.4 C77.4666667,78.5166667 77.7,78.6333333 77.9333333,78.6333333 C78.1666667,78.6333333 78.4,78.5166667 78.5166667,78.4 C87.15,69.7666667 91.9333333,58.2166667 91.9333333,45.9666667 C91.9333333,33.7166667 87.15,22.1666667 78.5166667,13.5333333 C69.65,4.78333333 58.2166667,0 45.85,0 Z" id="path-1"></path>
    </defs>
    <g id="Symbols" stroke="none" stroke-width="1" fill="none" fill-rule="evenodd">
        <g id="Vision-Module" transform="translate(-916.000000, -425.000000)">
            <g id="Group-6">
                <g transform="translate(916.000000, 425.000000)">
                    <path d="M35.8333333,118 L23.8166667,118 C23.35,118 23,118.35 23,118.816667 L23,132.116667 C23,132.583333 23.35,132.933333 23.8166667,132.933333 L35.95,132.933333 C36.4166667,132.933333 36.7666667,132.583333 36.7666667,132.116667 L36.7666667,118.816667 C36.7666667,118.35 36.3,118 35.8333333,118 Z" id="Path" fill="#D2DDE9"></path>
                    <path d="M52.8333333,105 L40.8166667,105 C40.35,105 40,105.35 40,105.816667 L40,132.533333 C40,133 40.35,133.35 40.8166667,133.35 L52.95,133.35 C53.4166667,133.35 53.7666667,133 53.7666667,132.533333 L53.7666667,105.816667 C53.7666667,105.35 53.3,105 52.8333333,105 Z" id="Path" fill="#D2DDE9"></path>
                    <path d="M70.8333333,109 L58.8166667,109 C58.35,109 58,109.35 58,109.816667 L58,132.566667 C58,133.033333 58.35,133.383333 58.8166667,133.383333 L70.95,133.383333 C71.4166667,133.383333 71.7666667,133.033333 71.7666667,132.566667 L71.7666667,109.933333 C71.7666667,109.466667 71.3,109 70.8333333,109 Z" id="Path" fill="#D2DDE9"></path>
                    <g id="Path-2" transform="translate(15.000000, 0.000000)">
                        <mask id="mask-2" fill="white">
                            <use xlink:href="#path-1"></use>
                        </mask>
                        <use id="Mask" fill="#FFFFFF" xlink:href="#path-1"></use>
                        <polygon fill-opacity="0.264011549" fill="#547CAC" mask="url(#mask-2)" points="71 13 95 -16 -30 -13 -27 88 35 91 41 49"></polygon>
                    </g>
                    <g id="Group-5" fill-rule="nonzero">
                        <g id="Group">
                            <path d="M133.633333,37.8166667 C133.633333,37.35 133.283333,37 132.816667,37 C132.35,37 132,37.35 132,37.8166667 L132,48.7833333 C132,49.25 132.35,49.6 132.816667,49.6 C133.283333,49.6 133.633333,49.25 133.633333,48.7833333 L133.633333,37.8166667 Z" id="Shape" fill="#E2E2E2"></path>
                            <path d="M132.816667,53 C132.35,53 132,53.35 132,53.8166667 L132,57.7833333 C132,58.25 132.35,58.6 132.816667,58.6 C133.283333,58.6 133.633333,58.25 133.633333,57.7833333 L133.633333,53.8166667 C133.75,53.35 133.4,53 132.816667,53 Z" id="Shape" fill="#E2E2E2"></path>
                            <path d="M8.81666667,97 C8.35,97 8,97.35 8,97.8166667 L8,108.783333 C8,109.25 8.35,109.6 8.81666667,109.6 C9.28333333,109.6 9.63333333,109.25 9.63333333,108.783333 L9.63333333,97.8166667 C9.63333333,97.4666667 9.28333333,97 8.81666667,97 Z" id="Shape" fill="#E2E2E2"></path>
                            <path d="M8.81666667,114 C8.35,114 8,114.35 8,114.816667 L8,118.783333 C8,119.25 8.35,119.6 8.81666667,119.6 C9.28333333,119.6 9.63333333,119.25 9.63333333,118.783333 L9.63333333,114.816667 C9.63333333,114.35 9.28333333,114 8.81666667,114 Z" id="Shape" fill="#E2E2E2"></path>
                            <path d="M9.2,0 C6.86666667,0 5,1.86666667 5,4.2 C5,6.53333333 6.86666667,8.4 9.2,8.4 C11.5333333,8.4 13.4,6.53333333 13.4,4.2 C13.4,1.86666667 11.5333333,0 9.2,0 Z M9.2,6.76666667 C7.8,6.76666667 6.75,5.6 6.75,4.31666667 C6.75,2.91666667 7.91666667,1.86666667 9.2,1.86666667 C10.6,1.86666667 11.65,3.03333333 11.65,4.31666667 C11.65,5.6 10.6,6.76666667 9.2,6.76666667 Z" id="Shape" fill="#E2E2E2"></path>
                            <path d="M115.2,139 C112.866667,139 111,140.866667 111,143.2 C111,145.533333 112.866667,147.4 115.2,147.4 C117.533333,147.4 119.4,145.533333 119.4,143.2 C119.4,140.866667 117.533333,139 115.2,139 Z M115.2,145.65 C113.8,145.65 112.75,144.483333 112.75,143.2 C112.75,141.8 113.916667,140.75 115.2,140.75 C116.6,140.75 117.65,141.916667 117.65,143.2 C117.766667,144.6 116.6,145.65 115.2,145.65 Z" id="Shape" fill="#E2E2E2"></path>
                            <path d="M139.283333,16.8166667 C139.283333,16.35 138.933333,16 138.466667,16 L124.816667,16 C124.35,16 124,16.35 124,16.8166667 C124,17.2833333 124.35,17.6333333 124.816667,17.6333333 L138.466667,17.6333333 C138.933333,17.6333333 139.283333,17.2833333 139.283333,16.8166667 Z" id="Shape" fill="#E2E2E2"></path>
                            <path d="M115.834799,17.6333333 L120.268132,17.6333333 C120.734799,17.6333333 121.084799,17.2833333 121.084799,16.8166667 C121.084799,16.35 120.734799,16 120.268132,16 L115.834799,16 C115.368132,16 115.018132,16.35 115.018132,16.8166667 C114.901465,17.2833333 115.368132,17.6333333 115.834799,17.6333333 Z" id="Shape" fill="#E2E2E2"></path>
                            <path d="M115.834799,12.6333333 L125.401465,12.6333333 C125.868132,12.6333333 126.218132,12.2833333 126.218132,11.8166667 C126.218132,11.35 125.868132,11 125.401465,11 L115.834799,11 C115.368132,11 115.018132,11.35 115.018132,11.8166667 C114.901465,12.1666667 115.368132,12.6333333 115.834799,12.6333333 Z" id="Shape" fill="#E2E2E2"></path>
                            <path d="M129.816667,12.6333333 L132.966667,12.6333333 C133.433333,12.6333333 133.783333,12.2833333 133.783333,11.8166667 C133.783333,11.35 133.433333,11 132.966667,11 L129.816667,11 C129.35,11 129,11.35 129,11.8166667 C129,12.1666667 129.35,12.6333333 129.816667,12.6333333 Z" id="Shape" fill="#E2E2E2"></path>
                            <path d="M44,90.8390202 C44,91.3056869 44.35,91.6556869 44.8166667,91.6556869 L58.5833333,91.6556869 C59.05,91.6556869 59.4,91.3056869 59.4,90.8390202 C59.4,90.3723535 59.05,90.0223535 58.5833333,90.0223535 L44.8166667,90.0223535 C44.35,89.9056869 44,90.2556869 44,90.8390202 Z" id="Shape" fill="#E2E2E2"></path>
                            <path d="M35.8390202,91.6333333 L40.2723535,91.6333333 C40.7390202,91.6333333 41.0890202,91.2833333 41.0890202,90.8166667 C41.0890202,90.35 40.7390202,90 40.2723535,90 L35.8390202,90 C35.3723535,90 35.0223535,90.35 35.0223535,90.8166667 C34.9056869,91.2833333 35.2556869,91.6333333 35.8390202,91.6333333 Z" id="Shape" fill="#E2E2E2"></path>
                            <path d="M45.3833333,86 L35.8166667,86 C35.35,86 35,86.35 35,86.8166667 C35,87.2833333 35.35,87.6333333 35.8166667,87.6333333 L45.3833333,87.6333333 C45.85,87.6333333 46.2,87.2833333 46.2,86.8166667 C46.3166667,86.35 45.9666667,86 45.3833333,86 Z" id="Shape" fill="#E2E2E2"></path>
                            <path d="M51.9666667,87.6333333 C52.4333333,87.6333333 52.7833333,87.2833333 52.7833333,86.8166667 C52.7833333,86.35 52.4333333,86 51.9666667,86 L48.8166667,86 C48.35,86 48,86.35 48,86.8166667 C48,87.2833333 48.35,87.6333333 48.8166667,87.6333333 L51.9666667,87.6333333 Z" id="Shape" fill="#E2E2E2"></path>
                            <path d="M131.429167,101.2625 C131.079167,100.9125 130.495833,100.9125 130.2625,101.2625 C129.9125,101.6125 129.9125,102.195833 130.2625,102.429167 L132.0125,104.179167 C132.129167,104.295833 132.3625,104.4125 132.595833,104.4125 C132.829167,104.4125 133.0625,104.295833 133.179167,104.179167 C133.529167,103.829167 133.529167,103.245833 133.179167,103.0125 L131.429167,101.2625 Z" id="Shape" fill="#E2E2E2"></path>
                            <path d="M137.429167,107.2625 C137.079167,106.9125 136.495833,106.9125 136.2625,107.2625 C135.9125,107.6125 135.9125,108.195833 136.2625,108.429167 L138.0125,110.179167 C138.129167,110.295833 138.3625,110.4125 138.595833,110.4125 C138.829167,110.4125 139.0625,110.295833 139.179167,110.179167 C139.529167,109.829167 139.529167,109.245833 139.179167,109.0125 L137.429167,107.2625 Z" id="Shape" fill="#E2E2E2"></path>
                            <path d="M132.0125,107.2625 L130.2625,109.0125 C129.9125,109.3625 129.9125,109.945833 130.2625,110.179167 C130.379167,110.295833 130.6125,110.4125 130.845833,110.4125 C131.079167,110.4125 131.3125,110.295833 131.429167,110.179167 L133.179167,108.429167 C133.529167,108.079167 133.529167,107.495833 133.179167,107.2625 C132.945833,106.9125 132.3625,106.9125 132.0125,107.2625 Z" id="Shape" fill="#E2E2E2"></path>
                            <path d="M138.129167,101.2625 L136.2625,103.0125 C135.9125,103.3625 135.9125,103.945833 136.2625,104.179167 C136.379167,104.295833 136.6125,104.4125 136.845833,104.4125 C137.079167,104.4125 137.3125,104.295833 137.429167,104.179167 L139.179167,102.429167 C139.529167,102.079167 139.529167,101.495833 139.179167,101.2625 C138.945833,100.9125 138.3625,100.9125 138.129167,101.2625 Z" id="Shape" fill="#E2E2E2"></path>
                            <path d="M38.3875623,138.2625 C38.0375623,137.9125 37.4542289,137.9125 37.2208956,138.2625 C36.9875623,138.6125 36.8708956,139.195833 37.2208956,139.429167 L38.9708956,141.179167 C39.0875623,141.295833 39.3208956,141.4125 39.5542289,141.4125 C39.7875623,141.4125 40.0208956,141.295833 40.1375623,141.179167 C40.4875623,140.829167 40.4875623,140.245833 40.1375623,140.0125 L38.3875623,138.2625 Z" id="Shape" fill="#E2E2E2"></path>
                            <path d="M44.3875623,144.2625 C44.0375623,143.9125 43.4542289,143.9125 43.2208956,144.2625 C42.9875623,144.6125 42.8708956,145.195833 43.2208956,145.429167 L44.9708956,147.179167 C45.0875623,147.295833 45.3208956,147.4125 45.5542289,147.4125 C45.7875623,147.4125 46.0208956,147.295833 46.1375623,147.179167 C46.4875623,146.829167 46.4875623,146.245833 46.1375623,146.0125 L44.3875623,144.2625 Z" id="Shape" fill="#E2E2E2"></path>
                            <path d="M39.0125,144.2625 L37.2625,146.0125 C36.9125,146.3625 36.9125,146.945833 37.2625,147.179167 C37.3791667,147.295833 37.6125,147.4125 37.8458333,147.4125 C38.0791667,147.4125 38.3125,147.295833 38.4291667,147.179167 L40.1791667,145.429167 C40.5291667,145.079167 40.5291667,144.495833 40.1791667,144.2625 C39.8291667,143.9125 39.3625,143.9125 39.0125,144.2625 Z" id="Shape" fill="#E2E2E2"></path>
                            <path d="M45.0125,138.220896 L43.2625,139.970896 C42.9125,140.320896 42.9125,140.904229 43.2625,141.137562 C43.3791667,141.254229 43.6125,141.370896 43.8458333,141.370896 C44.0791667,141.370896 44.3125,141.254229 44.4291667,141.137562 L46.1791667,139.387562 C46.5291667,139.037562 46.5291667,138.454229 46.1791667,138.220896 C45.8291667,137.987562 45.3625,137.870896 45.0125,138.220896 Z" id="Shape" fill="#E2E2E2"></path>
                            <path d="M1.42916667,65.2625 C1.07916667,64.9125 0.495833333,64.9125 0.2625,65.2625 C-0.0875,65.6125 -0.0875,66.1958333 0.2625,66.4291667 L2.0125,68.1791667 C2.12916667,68.2958333 2.3625,68.4125 2.59583333,68.4125 C2.82916667,68.4125 3.0625,68.2958333 3.17916667,68.1791667 C3.52916667,67.8291667 3.52916667,67.2458333 3.17916667,67.0125 L1.42916667,65.2625 Z" id="Shape" fill="#E2E2E2"></path>
                            <path d="M7.42916667,70.2625 C7.07916667,69.9125 6.49583333,69.9125 6.2625,70.2625 C5.9125,70.6125 5.9125,71.1958333 6.2625,71.4291667 L8.0125,73.1791667 C8.12916667,73.2958333 8.3625,73.4125 8.59583333,73.4125 C8.82916667,73.4125 9.0625,73.2958333 9.17916667,73.1791667 C9.52916667,72.8291667 9.52916667,72.2458333 9.17916667,72.0125 L7.42916667,70.2625 Z" id="Shape" fill="#E2E2E2"></path>
                            <path d="M2.0125,71.2494845 L0.2625,72.9994845 C-0.0875,73.3494845 -0.0875,73.9328179 0.2625,74.1661512 C0.379166667,74.2828179 0.6125,74.3994845 0.845833333,74.3994845 C1.07916667,74.3994845 1.3125,74.2828179 1.42916667,74.1661512 L3.29583333,72.5328179 C3.64583333,72.1828179 3.64583333,71.5994845 3.29583333,71.3661512 C2.94583333,70.8994845 2.3625,70.8994845 2.0125,71.2494845 Z" id="Shape" fill="#E2E2E2"></path>
                            <path d="M8.0125,65.2625 L6.2625,67.0125 C5.9125,67.3625 5.9125,67.9458333 6.2625,68.1791667 C6.37916667,68.2958333 6.6125,68.4125 6.84583333,68.4125 C7.07916667,68.4125 7.3125,68.2958333 7.42916667,68.1791667 L9.17916667,66.4291667 C9.52916667,66.0791667 9.52916667,65.4958333 9.17916667,65.2625 C8.82916667,64.9125 8.24583333,64.9125 8.0125,65.2625 Z" id="Shape" fill="#E2E2E2"></path>
                            <path d="M35.8333333,118 L23.8166667,118 C23.35,118 23,118.35 23,118.816667 L23,132.116667 C23,132.583333 23.35,132.933333 23.8166667,132.933333 L35.95,132.933333 C36.4166667,132.933333 36.7666667,132.583333 36.7666667,132.116667 L36.7666667,118.816667 C36.7666667,118.35 36.3,118 35.8333333,118 Z M35.0166667,131.3 L24.6333333,131.3 L24.6333333,119.633333 L35.0166667,119.633333 L35.0166667,131.3 Z" id="Shape" fill="#547CAC"></path>
                            <path d="M52.8333333,105 L40.8166667,105 C40.35,105 40,105.35 40,105.816667 L40,132.533333 C40,133 40.35,133.35 40.8166667,133.35 L52.95,133.35 C53.4166667,133.35 53.7666667,133 53.7666667,132.533333 L53.7666667,105.816667 C53.7666667,105.35 53.3,105 52.8333333,105 Z M52.0166667,131.6 L41.6333333,131.6 L41.6333333,106.633333 L52.0166667,106.633333 L52.0166667,131.6 Z" id="Shape" fill="#547CAC"></path>
                            <path d="M70.8333333,109 L58.8166667,109 C58.35,109 58,109.35 58,109.816667 L58,132.566667 C58,133.033333 58.35,133.383333 58.8166667,133.383333 L70.95,133.383333 C71.4166667,133.383333 71.7666667,133.033333 71.7666667,132.566667 L71.7666667,109.933333 C71.7666667,109.466667 71.3,109 70.8333333,109 Z M70.0166667,131.75 L59.6333333,131.75 L59.6333333,110.75 L70.0166667,110.75 L70.0166667,131.75 Z" id="Shape" fill="#547CAC"></path>
                            <path d="M87.95,100 L75.8166667,100 C75.35,100 75,100.35 75,100.816667 L75,132.666667 C75,133.133333 75.35,133.483333 75.8166667,133.483333 L87.95,133.483333 C88.4166667,133.483333 88.7666667,133.133333 88.7666667,132.666667 L88.7666667,100.816667 C88.7666667,100.35 88.4166667,100 87.95,100 Z M87.0166667,131.733333 L76.6333333,131.733333 L76.6333333,101.633333 L87.0166667,101.633333 L87.0166667,131.733333 Z" id="Shape" fill="#547CAC"></path>
                            <path d="M122.95,82 L110.816667,82 C110.35,82 110,82.35 110,82.8166667 L110,132.516667 C110,132.983333 110.35,133.333333 110.816667,133.333333 L122.95,133.333333 C123.416667,133.333333 123.766667,132.983333 123.766667,132.516667 L123.766667,82.8166667 C123.766667,82.35 123.416667,82 122.95,82 Z M122.016667,131.583333 L111.633333,131.583333 L111.633333,83.6333333 L122.016667,83.6333333 L122.016667,131.583333 Z" id="Shape" fill="#547CAC"></path>
                            <path d="M105.95,90 L93.8166667,90 C93.35,90 93,90.35 93,90.8166667 L93,131.883333 C93,132.35 93.35,132.7 93.8166667,132.7 L105.95,132.7 C106.416667,132.7 106.766667,132.35 106.766667,131.883333 L106.766667,90.9333333 C106.766667,90.35 106.416667,90 105.95,90 Z M105.016667,131.066667 L94.6333333,131.066667 L94.6333333,91.75 L105.016667,91.75 L105.016667,131.066667 Z" id="Shape" fill="#547CAC"></path>
                            <path d="M60.85,0 C48.6,0 37.05,4.78333333 28.4166667,13.4166667 C19.7833333,22.05 15,33.6 15,45.85 C15,58.1 19.7833333,69.65 28.4166667,78.2833333 C28.7666667,78.6333333 29.35,78.6333333 29.5833333,78.2833333 L39.6166667,68.25 C39.7333333,68.1333333 39.85,67.9 39.85,67.6666667 C39.85,67.4333333 39.7333333,67.2 39.6166667,67.0833333 C33.9,61.3666667 30.8666667,53.9 30.8666667,45.85 C30.8666667,37.8 34.0166667,30.3333333 39.6166667,24.6166667 C45.3333333,18.9 52.8,15.8666667 60.85,15.8666667 C66.5666667,15.8666667 72.05,17.5 76.95,20.5333333 L59.2166667,38.6166667 C57.9333333,38.9666667 56.7666667,39.6666667 55.95,40.8333333 C53.85,43.5166667 54.3166667,47.4833333 57.1166667,49.5833333 C58.1666667,50.4 59.5666667,50.8666667 60.9666667,50.8666667 L61.7833333,50.8666667 C63.4166667,50.6333333 64.9333333,49.8166667 65.9833333,48.5333333 C66.8,47.4833333 67.2666667,46.2 67.2666667,44.8 L80.45,23.1 C81.0333333,23.6833333 81.7333333,24.15 82.3166667,24.7333333 C88.0333333,30.45 91.0666667,37.9166667 91.0666667,45.9666667 C91.0666667,54.0166667 87.9166667,61.4833333 82.3166667,67.2 C81.9666667,67.55 81.9666667,68.1333333 82.3166667,68.3666667 L92.35,78.4 C92.4666667,78.5166667 92.7,78.6333333 92.9333333,78.6333333 C93.1666667,78.6333333 93.4,78.5166667 93.5166667,78.4 C102.15,69.7666667 106.933333,58.2166667 106.933333,45.9666667 C106.933333,33.7166667 102.15,22.1666667 93.5166667,13.5333333 C84.65,4.78333333 73.2166667,0 60.85,0 Z M78.9333333,21 L78.9333333,21 L80.45,19.4833333 L66.6833333,42.2333333 C66.6833333,42.2333333 66.6833333,42.1166667 66.5666667,42.1166667 C66.45,42 66.45,41.8833333 66.3333333,41.65 C66.3333333,41.5333333 66.2166667,41.5333333 66.2166667,41.4166667 C66.1,41.3 66.1,41.1833333 65.9833333,41.0666667 C65.9833333,40.95 65.8666667,40.95 65.8666667,40.8333333 C65.75,40.7166667 65.6333333,40.6 65.5166667,40.4833333 C65.5166667,40.3666667 65.4,40.3666667 65.4,40.25 C65.1666667,40.0166667 65.05,39.9 64.8166667,39.7833333 C64.5833333,39.6666667 64.35,39.4333333 64.2333333,39.3166667 C64.1166667,39.3166667 64.1166667,39.2 64,39.2 C63.8833333,39.0833333 63.65,39.0833333 63.5333333,38.9666667 C63.4166667,38.9666667 63.4166667,38.85 63.3,38.85 C63.1833333,38.85 62.95,38.7333333 62.8333333,38.7333333 C62.7166667,38.7333333 62.6,38.7333333 62.6,38.6166667 C62.4833333,38.6166667 62.25,38.5 62.1333333,38.5 L62.0166667,38.5 L78.9333333,21 Z M64.4666667,47.3666667 C63.7666667,48.3 62.7166667,48.8833333 61.4333333,49.1166667 C60.2666667,49.2333333 59.1,49 58.05,48.1833333 C56.0666667,46.6666667 55.7166667,43.75 57.2333333,41.8833333 C57.9333333,41.0666667 58.75,40.4833333 59.8,40.25 L59.9166667,40.25 C60.2666667,40.1333333 60.6166667,40.1333333 60.85,40.1333333 C61.2,40.1333333 61.4333333,40.1333333 61.7833333,40.25 C61.9,40.25 61.9,40.25 62.0166667,40.3666667 C62.25,40.3666667 62.4833333,40.4833333 62.6,40.6 C62.7166667,40.6 62.7166667,40.7166667 62.8333333,40.7166667 C63.0666667,40.8333333 63.4166667,40.95 63.65,41.1833333 C64.7,42 65.4,43.2833333 65.4,44.6833333 L65.4,44.6833333 C65.4,45.5 65.1666667,46.55 64.4666667,47.3666667 Z M92.7,76.5333333 L83.95,67.7833333 C89.55,61.8333333 92.7,54.1333333 92.7,45.9666667 C92.7,37.45 89.4333333,29.5166667 83.3666667,23.5666667 C82.6666667,22.8666667 81.9666667,22.1666667 81.15,21.5833333 L85.7,14.1166667 C85.9333333,13.7666667 85.8166667,13.3 85.4666667,12.95 C85.1166667,12.7166667 84.65,12.7166667 84.3,13.0666667 L78.2333333,19.25 C73.1,15.8666667 67.15,14.1166667 60.9666667,14.1166667 C52.45,14.1166667 44.5166667,17.3833333 38.5666667,23.45 C32.6166667,29.4 29.2333333,37.45 29.2333333,45.85 C29.2333333,54.0166667 32.2666667,61.7166667 37.9833333,67.6666667 L29.2333333,76.4166667 C21.0666667,68.25 16.75,57.4 16.75,45.9666667 C16.75,34.1833333 21.3,23.1 29.7,14.7 C37.9833333,6.3 49.0666667,1.75 60.85,1.75 C72.75,1.75 83.8333333,6.3 92.1166667,14.7 C100.516667,23.1 105.066667,34.1833333 105.066667,45.9666667 C105.066667,57.4 100.75,68.25 92.7,76.5333333 Z" id="Shape" fill="#547CAC"></path>
                        </g>
                    </g>
                </g>
            </g>
        </g>
    </g>
</svg>