<?xml version="1.0" encoding="UTF-8" standalone="no"?>
<svg width="110px" height="105px" viewBox="0 0 110 105" version="1.1" xmlns="http://www.w3.org/2000/svg" xmlns:xlink="http://www.w3.org/1999/xlink">
    <!-- Generator: Sketch 42 (36781) - http://www.bohemiancoding.com/sketch -->
    <title>Group 14</title>
    <desc>Created with Sketch.</desc>
    <defs>
        <path d="M109.7,37.3 C109.6,36.9 109.2,36.6 108.8,36.7 L101.2,38.5 L101.1,38.5 C101,38.5 101,38.5 101,38.6 L100.9,38.7 L100.8,38.8 C100.8,38.8 100.8,38.9 100.7,39 L100.7,39.1 L99.8,43.4 L86.7,43.4 L82,43.4 L82,23.2 L82,23.1 L82,23 L82,4.4 C82,2 80,0 77.6,0 L4.4,0 C2,0 0,2 0,4.4 L0,99.8 C0,102.2 2,104.2 4.4,104.2 L63.6,104.2 L63.7,104.2 L63.9,104.2 C64,104.2 64.1,104.1 64.2,104 L81.7,86.5 C81.9,86.3 82,86 81.9,85.7 C81.9,85.7 81.9,85.7 81.9,85.6 C82,85.5 82,85.4 82,85.3 L82,72.7 L91.4,72.7 C90.7,73.5 90.2,74.6 90.2,75.8 C90.2,78.3 92.2,80.4 94.8,80.4 C97.3,80.4 99.4,78.4 99.4,75.8 C99.4,73.6 97.8,71.8 95.7,71.3 L96.6,66.6 L96.6,66.6 L96.6,66.6 L102,40 L109.1,38.3 C109.5,38.1 109.8,37.7 109.7,37.3 Z" id="path-1"></path>
    </defs>
    <g id="Symbols" stroke="none" stroke-width="1" fill="none" fill-rule="evenodd">
        <g id="Mystery-Shopper-Module" transform="translate(-968.000000, -469.000000)">
            <g id="Group-14">
                <g transform="translate(968.000000, 469.000000)">
                    <g id="Rectangle">
                        <mask id="mask-2" fill="white">
                            <use xlink:href="#path-1"></use>
                        </mask>
                        <use id="Mask" fill="#FFFFFF" fill-rule="nonzero" xlink:href="#path-1"></use>
                        <g id="Group-11" mask="url(#mask-2)">
                            <g transform="translate(-18.000000, -24.000000)">
                                <rect id="Rectangle" fill-opacity="0.186169611" fill="#EC6B52" x="0" y="0" width="59" height="148"></rect>
                                <g id="Group-2" stroke-width="1" fill="none" transform="translate(4.000000, 12.000000)">
                                    <g id="Group" fill-rule="nonzero" fill="#000000" opacity="0.300000012">
                                        <path d="M103.3,19.1 C103.3,18.7 103,18.3 102.5,18.3 C102.1,18.3 101.7,18.6 101.7,19.1 L101.7,29.7 C101.7,30.1 102,30.5 102.5,30.5 C102.9,30.5 103.3,30.2 103.3,29.7 L103.3,19.1 Z" id="Shape"></path>
                                        <path d="M102.5,32.4 C102.1,32.4 101.7,32.7 101.7,33.2 L101.7,36.6 C101.7,37 102,37.4 102.5,37.4 C102.9,37.4 103.3,37.1 103.3,36.6 L103.3,33.2 C103.3,32.7 102.9,32.4 102.5,32.4 Z" id="Shape"></path>
                                        <path d="M115.4,32.5 L113.8,30.9 C113.5,30.6 113,30.6 112.7,30.9 C112.4,31.2 112.4,31.7 112.7,32 L114.3,33.6 C114.4,33.7 114.6,33.8 114.8,33.8 C115,33.8 115.2,33.7 115.3,33.6 C115.7,33.3 115.7,32.8 115.4,32.5 Z" id="Shape"></path>
                                        <path d="M119,36.1 C118.7,35.8 118.2,35.8 117.9,36.1 C117.6,36.4 117.6,36.9 117.9,37.2 L119.5,38.8 C119.6,38.9 119.8,39 120,39 C120.2,39 120.4,38.9 120.5,38.8 C120.8,38.5 120.8,38 120.5,37.7 L119,36.1 Z" id="Shape"></path>
                                        <path d="M114.3,36.1 L112.7,37.7 C112.4,38 112.4,38.5 112.7,38.8 C112.8,38.9 113,39 113.2,39 C113.4,39 113.6,38.9 113.7,38.8 L115.3,37.2 C115.6,36.9 115.6,36.4 115.3,36.1 C115.1,35.8 114.6,35.8 114.3,36.1 Z" id="Shape"></path>
                                        <path d="M117.9,33.6 C118,33.7 118.2,33.8 118.4,33.8 C118.6,33.8 118.8,33.7 118.9,33.6 L120.5,32 C120.8,31.7 120.8,31.2 120.5,30.9 C120.2,30.6 119.7,30.6 119.4,30.9 L117.8,32.5 C117.6,32.8 117.6,33.3 117.9,33.6 Z" id="Shape"></path>
                                        <path d="M101.6,103.7 C99.6,103.7 98,105.3 98,107.3 C98,109.3 99.6,110.9 101.6,110.9 C103.6,110.9 105.2,109.3 105.2,107.3 C105.3,105.4 103.6,103.7 101.6,103.7 Z M101.6,109.5 C100.4,109.5 99.5,108.5 99.5,107.4 C99.5,106.3 100.5,105.3 101.6,105.3 C102.8,105.3 103.7,106.3 103.7,107.4 C103.7,108.5 102.8,109.5 101.6,109.5 Z" id="Shape"></path>
                                    </g>
                                    <path d="M32.9,46.4 L85.9,46.4 C86.3,46.4 86.7,46.1 86.7,45.6 C86.7,45.2 86.4,44.8 85.9,44.8 L32.9,44.8 C32.5,44.8 32.1,45.1 32.1,45.6 C32.2,46.1 32.5,46.4 32.9,46.4 Z" id="Shape" fill="#EC6B52" fill-rule="nonzero"></path>
                                    <path d="M26.7,42.3 C24.8,42.3 23.3,43.8 23.3,45.7 C23.3,47.6 24.8,49.1 26.7,49.1 C28.6,49.1 30.1,47.6 30.1,45.7 C30.1,43.8 28.5,42.3 26.7,42.3 Z M26.7,47.6 C25.7,47.6 24.8,46.8 24.8,45.7 C24.8,44.7 25.6,43.8 26.7,43.8 C27.7,43.8 28.6,44.6 28.6,45.7 C28.6,46.7 27.7,47.6 26.7,47.6 Z" id="Shape" fill="#EC6B52" fill-rule="nonzero"></path>
                                    <path d="M32.9,59.7 L68.3,59.7 C68.7,59.7 69.1,59.4 69.1,58.9 C69.1,58.5 68.8,58.1 68.3,58.1 L32.9,58.1 C32.5,58.1 32.1,58.4 32.1,58.9 C32.2,59.3 32.5,59.7 32.9,59.7 Z" id="Shape" fill="#EC6B52" fill-rule="nonzero"></path>
                                    <path d="M26.7,55.5 C24.8,55.5 23.3,57 23.3,58.9 C23.3,60.8 24.8,62.3 26.7,62.3 C28.6,62.3 30.1,60.8 30.1,58.9 C30.1,57 28.5,55.5 26.7,55.5 Z M26.7,60.8 C25.7,60.8 24.8,60 24.8,58.9 C24.8,57.9 25.6,57 26.7,57 C27.7,57 28.6,57.8 28.6,58.9 C28.6,60 27.7,60.8 26.7,60.8 Z" id="Shape" fill="#EC6B52" fill-rule="nonzero"></path>
                                    <path d="M32.9,72.9 L64.3,72.9 C64.7,72.9 65.1,72.6 65.1,72.1 C65.1,71.6 64.8,71.3 64.3,71.3 L32.9,71.3 C32.5,71.3 32.1,71.6 32.1,72.1 C32.1,72.6 32.5,72.9 32.9,72.9 Z" id="Shape" fill="#EC6B52" fill-rule="nonzero"></path>
                                    <path d="M26.7,68.7 C24.8,68.7 23.3,70.2 23.3,72.1 C23.3,74 24.8,75.5 26.7,75.5 C28.6,75.5 30.1,74 30.1,72.1 C30.1,70.3 28.5,68.7 26.7,68.7 Z M26.7,74 C25.7,74 24.8,73.2 24.8,72.1 C24.8,71.1 25.6,70.2 26.7,70.2 C27.7,70.2 28.6,71 28.6,72.1 C28.6,73.2 27.7,74 26.7,74 Z" id="Shape" fill="#EC6B52" fill-rule="nonzero"></path>
                                    <path d="M32.9,86.1 L68.3,86.1 C68.7,86.1 69.1,85.8 69.1,85.3 C69.1,84.9 68.8,84.5 68.3,84.5 L32.9,84.5 C32.5,84.5 32.1,84.8 32.1,85.3 C32.2,85.8 32.5,86.1 32.9,86.1 Z" id="Shape" fill="#EC6B52" fill-rule="nonzero"></path>
                                    <path d="M26.7,82 C24.8,82 23.3,83.5 23.3,85.4 C23.3,87.3 24.8,88.8 26.7,88.8 C28.6,88.8 30.1,87.3 30.1,85.4 C30.1,83.5 28.5,82 26.7,82 Z M26.7,87.2 C25.7,87.2 24.8,86.4 24.8,85.3 C24.8,84.3 25.6,83.4 26.7,83.4 C27.7,83.4 28.6,84.2 28.6,85.3 C28.6,86.4 27.7,87.2 26.7,87.2 Z" id="Shape" fill="#EC6B52" fill-rule="nonzero"></path>
                                    <path d="M72.5,97.8 L32.9,97.8 C32.5,97.8 32.1,98.1 32.1,98.6 C32.1,99 32.4,99.4 32.9,99.4 L72.5,99.4 C72.9,99.4 73.3,99.1 73.3,98.6 C73.3,98.2 72.9,97.8 72.5,97.8 Z" id="Shape" fill="#EC6B52" fill-rule="nonzero"></path>
                                    <path d="M26.7,95.2 C24.8,95.2 23.3,96.7 23.3,98.6 C23.3,100.5 24.8,102 26.7,102 C28.6,102 30.1,100.5 30.1,98.6 C30.1,96.7 28.5,95.2 26.7,95.2 Z M26.7,100.5 C25.7,100.5 24.8,99.7 24.8,98.6 C24.8,97.6 25.6,96.7 26.7,96.7 C27.7,96.7 28.6,97.5 28.6,98.6 C28.6,99.6 27.7,100.5 26.7,100.5 Z" id="Shape" fill="#EC6B52" fill-rule="nonzero"></path>
                                    <path d="M49.6,22.2 L85.9,22.2 C86.3,22.2 86.7,21.9 86.7,21.4 C86.7,21 86.4,20.6 85.9,20.6 L49.6,20.6 C49.2,20.6 48.8,20.9 48.8,21.4 C48.9,21.9 49.2,22.2 49.6,22.2 Z" id="Shape" fill="#EC6B52" fill-rule="nonzero"></path>
                                    <path d="M49.6,28.6 L85.9,28.6 C86.3,28.6 86.7,28.3 86.7,27.8 C86.7,27.4 86.4,27 85.9,27 L49.6,27 C49.2,27 48.8,27.3 48.8,27.8 C48.9,28.2 49.2,28.6 49.6,28.6 Z" id="Shape" fill="#EC6B52" fill-rule="nonzero"></path>
                                    <path d="M24.9,26.2 L23.4,30.9 C23.3,31.2 23.4,31.5 23.7,31.7 C24,31.9 24.3,31.9 24.6,31.7 L28.6,28.8 L32.6,31.7 C32.7,31.8 32.9,31.8 33,31.8 C33.1,31.8 33.3,31.8 33.4,31.7 C33.7,31.5 33.8,31.2 33.7,30.9 L32.2,26.2 L36.2,23.3 C36.5,23.1 36.6,22.8 36.5,22.5 C36.4,22.2 36.1,22 35.8,22 L30.8,22 L29.3,17.3 C29.2,17 28.9,16.8 28.6,16.8 C28.3,16.8 28,17 27.9,17.3 L26.3,22 L21.3,22 C21,22 20.7,22.2 20.6,22.5 C20.5,22.8 20.6,23.1 20.9,23.3 L24.9,26.2 Z M26.8,23.5 C27.1,23.5 27.4,23.3 27.5,23 L28.5,20 L29.5,23 C29.6,23.3 29.9,23.5 30.2,23.5 L33.4,23.5 L30.8,25.4 C30.5,25.6 30.4,25.9 30.5,26.2 L31.5,29.2 L29,27.3 C28.9,27.2 28.7,27.2 28.6,27.2 C28.4,27.2 28.3,27.2 28.2,27.3 L25.6,29.2 L26.6,26.2 C26.7,25.9 26.6,25.6 26.3,25.4 L23.7,23.5 L26.8,23.5 Z" id="Shape" fill="#EC6B52" fill-rule="nonzero"></path>
                                    <path d="M123.2,50 C123.1,49.6 122.7,49.3 122.3,49.4 L114.7,51.2 L114.6,51.2 C114.5,51.2 114.5,51.2 114.5,51.3 L114.4,51.4 L114.3,51.5 C114.3,51.5 114.3,51.6 114.2,51.7 L114.2,51.8 L113.3,56.1 L100.2,56.1 L95.5,56.1 L95.5,35.9 L95.5,35.8 L95.5,35.7 L95.5,17.1 C95.5,14.7 93.5,12.7 91.1,12.7 L17.9,12.7 C15.5,12.7 13.5,14.7 13.5,17.1 L13.5,112.5 C13.5,114.9 15.5,116.9 17.9,116.9 L77.1,116.9 L77.2,116.9 L77.4,116.9 C77.5,116.9 77.6,116.8 77.7,116.7 L95.2,99.2 C95.4,99 95.5,98.7 95.4,98.4 C95.4,98.4 95.4,98.4 95.4,98.3 C95.5,98.2 95.5,98.1 95.5,98 L95.5,85.4 L104.9,85.4 C104.2,86.2 103.7,87.3 103.7,88.5 C103.7,91 105.7,93.1 108.3,93.1 C110.8,93.1 112.9,91.1 112.9,88.5 C112.9,86.3 111.3,84.5 109.2,84 L110.1,79.3 L110.1,79.3 L110.1,79.3 L115.5,52.7 L122.6,51 C123,50.8 123.3,50.4 123.2,50 Z M99.3,57.7 L98.8,64.8 L87.8,64.8 L87.3,57.7 L99.3,57.7 L99.3,57.7 Z M88.3,72.1 L87.9,66.3 L98.7,66.3 L98.3,72.1 L88.3,72.1 Z M100.3,66.3 L111.1,66.3 L110,72.1 L99.9,72.1 L100.3,66.3 Z M85.8,57.7 L86.3,64.8 L75.3,64.8 L73.9,57.7 L85.8,57.7 L85.8,57.7 Z M86.4,66.3 L86.8,72.1 L76.7,72.1 L75.6,66.3 L86.4,66.3 Z M86.9,73.6 L87.2,78.4 L78,78.4 L77,73.6 L86.9,73.6 Z M88.7,78.4 L88.4,73.6 L98.3,73.6 L98,78.4 L88.7,78.4 Z M99.8,73.6 L109.7,73.6 L108.8,78.4 L99.6,78.4 L99.8,73.6 Z M111.4,64.8 L100.4,64.8 L100.9,57.7 L112.9,57.7 L111.4,64.8 Z M17.9,14.3 L91,14.3 C92.6,14.3 93.9,15.6 93.9,17.2 L93.9,35 L15.1,35 L15.1,17.1 C15.1,15.6 16.4,14.3 17.9,14.3 Z M77.9,114.3 L77.9,102.7 C77.9,100.8 79.4,99.3 81.3,99.3 L92.9,99.3 L77.9,114.3 Z M93.9,97.9 L81.3,97.9 C78.6,97.9 76.4,100.1 76.4,102.8 L76.4,115.4 L17.9,115.4 C16.3,115.4 15,114.1 15,112.5 L15,36.6 L93.9,36.6 L93.9,56.2 L86.5,56.2 L73,56.2 C72.8,56.2 72.6,56.3 72.4,56.5 C72.3,56.7 72.2,56.9 72.2,57.1 L73.9,65.8 L75.3,73.1 L76.5,79.4 C76.6,79.8 76.9,80 77.2,80 L88,80 L98.7,80 L108.4,80 L107.6,84 L79.6,84 C77.1,84 75,86 75,88.6 C75,91.1 77,93.2 79.6,93.2 C82.1,93.2 84.2,91.2 84.2,88.6 C84.2,87.4 83.7,86.4 83,85.5 L94,85.5 L94,97.9 L93.9,97.9 Z M82.6,88.4 C82.6,90.1 81.2,91.5 79.5,91.5 C77.8,91.5 76.4,90.1 76.4,88.4 C76.4,86.7 77.8,85.3 79.5,85.3 C81.2,85.4 82.6,86.7 82.6,88.4 Z M111.3,88.4 C111.3,90.1 109.9,91.5 108.2,91.5 C106.5,91.5 105.1,90.1 105.1,88.4 C105.1,86.7 106.5,85.3 108.2,85.3 L108.2,85.3 L108.2,85.3 C109.9,85.4 111.3,86.7 111.3,88.4 Z" id="Shape" fill="#EC6B52" fill-rule="nonzero"></path>
                                </g>
                            </g>
                        </g>
                    </g>
                </g>
            </g>
        </g>
    </g>
</svg>