<?xml version="1.0" encoding="UTF-8" standalone="no"?>
<svg width="126px" height="128px" viewBox="0 0 126 128" version="1.1" xmlns="http://www.w3.org/2000/svg" xmlns:xlink="http://www.w3.org/1999/xlink">
    <!-- Generator: Sketch 42 (36781) - http://www.bohemiancoding.com/sketch -->
    <title>Group</title>
    <desc>Created with Sketch.</desc>
    <defs></defs>
    <g id="Symbols" stroke="none" stroke-width="1" fill="none" fill-rule="evenodd">
        <g id="Mystery-Shopper-Module" transform="translate(-247.000000, -1155.000000)" fill-rule="nonzero">
            <g id="Group">
                <g transform="translate(247.000000, 1155.000000)">
                    <path d="M118,90.8 C117.6,90.8 117.2,91.1 117.2,91.6 L117.2,104.6 C117.2,105 117.5,105.4 118,105.4 C118.4,105.4 118.8,105.1 118.8,104.6 L118.8,91.6 C118.8,91.1 118.5,90.8 118,90.8 Z" id="Shape" fill="#959595"></path>
                    <path d="M118,108 C117.6,108 117.2,108.3 117.2,108.8 L117.2,113 C117.2,113.4 117.5,113.8 118,113.8 C118.4,113.8 118.8,113.5 118.8,113 L118.8,108.8 C118.8,108.3 118.5,108 118,108 Z" id="Shape" fill="#959595"></path>
                    <path d="M8.7,41.8 C9.1,41.8 9.5,41.5 9.5,41 L9.5,28 C9.5,27.6 9.2,27.2 8.7,27.2 C8.3,27.2 7.9,27.5 7.9,28 L7.9,41 C7.9,41.5 8.3,41.8 8.7,41.8 Z" id="Shape" fill="#959595"></path>
                    <path d="M8.7,50.3 C9.1,50.3 9.5,50 9.5,49.5 L9.5,45.3 C9.5,44.9 9.2,44.5 8.7,44.5 C8.3,44.5 7.9,44.8 7.9,45.3 L7.9,49.5 C7.9,49.9 8.3,50.3 8.7,50.3 Z" id="Shape" fill="#959595"></path>
                    <path d="M112.5,5.1 C112.6,5.2 112.8,5.3 113,5.3 C113.2,5.3 113.4,5.2 113.5,5.1 C113.8,4.8 113.8,4.3 113.5,4 L111.7,2.2 C111.4,1.9 110.9,1.9 110.6,2.2 C110.3,2.5 110.3,3 110.6,3.3 L112.5,5.1 Z" id="Shape" fill="#959595"></path>
                    <path d="M118.3,10.9 C118.4,11 118.6,11.1 118.8,11.1 C119,11.1 119.2,11 119.3,10.9 C119.6,10.6 119.6,10.1 119.3,9.8 L117.6,8 C117.3,7.7 116.8,7.7 116.5,8 C116.2,8.3 116.2,8.8 116.5,9.1 L118.3,10.9 Z" id="Shape" fill="#959595"></path>
                    <path d="M111.3,11.1 C111.5,11.1 111.7,11 111.8,10.9 L113.6,9.1 C113.9,8.8 113.9,8.3 113.6,8 C113.3,7.7 112.8,7.7 112.5,8 L110.7,9.8 C110.4,10.1 110.4,10.6 110.7,10.9 C110.9,11 111.1,11.1 111.3,11.1 Z" id="Shape" fill="#959595"></path>
                    <path d="M117,5.3 C117.2,5.3 117.4,5.2 117.5,5.1 L119.3,3.3 C119.6,3 119.6,2.5 119.3,2.2 C119,1.9 118.5,1.9 118.2,2.2 L116.5,4 C116.2,4.3 116.2,4.8 116.5,5.1 C116.6,5.2 116.8,5.3 117,5.3 Z" id="Shape" fill="#959595"></path>
                    <path d="M1.7,108.9 C1.4,108.6 0.9,108.6 0.6,108.9 C0.3,109.2 0.3,109.7 0.6,110 L2.4,111.8 C2.5,111.9 2.7,112 2.9,112 C3.1,112 3.3,111.9 3.4,111.8 C3.7,111.5 3.7,111 3.4,110.7 L1.7,108.9 Z" id="Shape" fill="#959595"></path>
                    <path d="M7.5,114.7 C7.2,114.4 6.7,114.4 6.4,114.7 C6.1,115 6.1,115.5 6.4,115.8 L8.2,117.6 C8.3,117.7 8.5,117.8 8.7,117.8 C8.9,117.8 9.1,117.7 9.2,117.6 C9.5,117.3 9.5,116.8 9.2,116.5 L7.5,114.7 Z" id="Shape" fill="#959595"></path>
                    <path d="M2.4,114.7 L0.6,116.5 C0.3,116.8 0.3,117.3 0.6,117.6 C0.7,117.7 0.9,117.8 1.1,117.8 C1.3,117.8 1.5,117.7 1.6,117.6 L3.4,115.8 C3.7,115.5 3.7,115 3.4,114.7 C3.2,114.4 2.7,114.4 2.4,114.7 Z" id="Shape" fill="#959595"></path>
                    <path d="M8.2,108.9 L6.4,110.7 C6.1,111 6.1,111.5 6.4,111.8 C6.5,111.9 6.7,112 6.9,112 C7.1,112 7.3,111.9 7.4,111.8 L9.2,110 C9.5,109.7 9.5,109.2 9.2,108.9 C8.9,108.7 8.5,108.7 8.2,108.9 Z" id="Shape" fill="#959595"></path>
                    <path d="M120.4,60.4 C118.3,60.4 116.6,62.1 116.6,64.2 C116.6,66.3 118.3,68 120.4,68 C122.5,68 124.2,66.3 124.2,64.2 C124.2,62.1 122.5,60.4 120.4,60.4 Z M120.4,66.4 C119.1,66.4 118.1,65.4 118.1,64.1 C118.1,62.8 119.1,61.8 120.4,61.8 C121.7,61.8 122.7,62.8 122.7,64.1 C122.7,65.4 121.7,66.4 120.4,66.4 Z" id="Shape" fill="#959595"></path>
                    <path d="M6.9,77 C4.8,77 3.1,78.7 3.1,80.8 C3.1,82.9 4.8,84.6 6.9,84.6 C9,84.6 10.7,82.9 10.7,80.8 C10.7,78.7 9,77 6.9,77 Z M6.9,83 C5.6,83 4.6,82 4.6,80.7 C4.6,79.4 5.6,78.4 6.9,78.4 C8.2,78.4 9.2,79.4 9.2,80.7 C9.2,82 8.2,83 6.9,83 Z" id="Shape" fill="#959595"></path>
                    <path d="M72.3,12.7 C74.4,12.7 76.1,11 76.1,8.9 C76.1,6.8 74.4,5.1 72.3,5.1 C70.2,5.1 68.5,6.8 68.5,8.9 C68.5,11 70.2,12.7 72.3,12.7 Z M72.3,6.6 C73.6,6.6 74.6,7.6 74.6,8.9 C74.6,10.2 73.6,11.2 72.3,11.2 C71,11.2 70,10.2 70,8.9 C70,7.6 71,6.6 72.3,6.6 Z" id="Shape" fill="#959595"></path>
                    <path d="M100.9,38.8 C100.9,39.2 101.2,39.6 101.7,39.6 L115.8,39.6 C116.2,39.6 116.6,39.3 116.6,38.8 C116.6,38.3 116.3,38 115.8,38 L101.7,38 C101.2,38.1 100.9,38.4 100.9,38.8 Z" id="Shape" fill="#959595"></path>
                    <path d="M120.3,39.6 L124.8,39.6 C125.2,39.6 125.6,39.3 125.6,38.8 C125.6,38.3 125.3,38 124.8,38 L120.3,38 C119.9,38 119.5,38.3 119.5,38.8 C119.5,39.3 119.9,39.6 120.3,39.6 Z" id="Shape" fill="#959595"></path>
                    <path d="M124.8,42.9 L115,42.9 C114.6,42.9 114.2,43.2 114.2,43.7 C114.2,44.2 114.5,44.5 115,44.5 L124.8,44.5 C125.2,44.5 125.6,44.2 125.6,43.7 C125.6,43.2 125.3,42.9 124.8,42.9 Z" id="Shape" fill="#959595"></path>
                    <path d="M110.8,42.9 L107.6,42.9 C107.2,42.9 106.8,43.2 106.8,43.7 C106.8,44.2 107.1,44.5 107.6,44.5 L110.8,44.5 C111.2,44.5 111.6,44.2 111.6,43.7 C111.6,43.2 111.2,42.9 110.8,42.9 Z" id="Shape" fill="#959595"></path>
                    <path d="M23.1,2 L37.2,2 C37.6,2 38,1.7 38,1.2 C38,0.7 37.7,0.4 37.2,0.4 L23.1,0.4 C22.7,0.4 22.3,0.7 22.3,1.2 C22.3,1.7 22.7,2 23.1,2 Z" id="Shape" fill="#959595"></path>
                    <path d="M41.8,2 L46.3,2 C46.7,2 47.1,1.7 47.1,1.2 C47.1,0.7 46.8,0.4 46.3,0.4 L41.8,0.4 C41.4,0.4 41,0.7 41,1.2 C41,1.7 41.4,2 41.8,2 Z" id="Shape" fill="#959595"></path>
                    <path d="M46.3,5.3 L36.5,5.3 C36.1,5.3 35.7,5.6 35.7,6.1 C35.7,6.6 36,6.9 36.5,6.9 L46.3,6.9 C46.7,6.9 47.1,6.6 47.1,6.1 C47.1,5.6 46.8,5.3 46.3,5.3 Z" id="Shape" fill="#959595"></path>
                    <path d="M29.2,5.3 C28.8,5.3 28.4,5.6 28.4,6.1 C28.4,6.6 28.7,6.9 29.2,6.9 L32.4,6.9 C32.8,6.9 33.2,6.6 33.2,6.1 C33.2,5.6 32.9,5.3 32.4,5.3 L29.2,5.3 Z" id="Shape" fill="#959595"></path>
                    <path d="M111.2,103.9 L111.2,103.9 L111.2,62.3 L111.2,62.1 L111.2,61.6 L106.4,51 C106.2,50.5 105.3,50.5 105,51 L100.2,61.6 C100.1,61.8 100.1,61.9 100.2,62.1 L100.2,62.3 L100.2,119.4 C100.2,121.8 102.1,123.7 104.5,123.7 L106.9,123.7 C109.3,123.7 111.2,121.8 111.2,119.4 L111.2,112.8 L111.2,112.8 L111.2,112.8 L111.2,108.3 L111.2,108.3 L111.2,108.3 L111.2,103.9 L111.2,103.9 Z M105.7,53.2 L109.4,61.6 L102,61.6 L105.7,53.2 Z M109.7,119.4 C109.7,120.9 108.5,122.2 106.9,122.2 L104.5,122.2 C103,122.2 101.7,121 101.7,119.4 L101.7,113.5 L109.7,113.5 L109.7,119.4 Z M109.7,112.1 L101.7,112.1 L101.7,109.1 L109.7,109.1 L109.7,112.1 Z M109.7,107.6 L101.7,107.6 L101.7,104.6 L109.7,104.6 L109.7,107.6 Z M109.7,103.1 L101.7,103.1 L101.7,63 L109.7,63 L109.7,103.1 Z" id="Shape" fill="#EC6B52"></path>
                    <path d="M105.7,98 C106.1,98 106.5,97.7 106.5,97.2 L106.5,93.2 C106.5,92.8 106.2,92.4 105.7,92.4 C105.3,92.4 104.9,92.7 104.9,93.2 L104.9,97.2 C105,97.7 105.3,98 105.7,98 Z" id="Shape" fill="#EC6B52"></path>
                    <path d="M105.7,77.9 C106.1,77.9 106.5,77.6 106.5,77.1 L106.5,73.1 C106.5,72.7 106.2,72.3 105.7,72.3 C105.3,72.3 104.9,72.6 104.9,73.1 L104.9,77.1 C105,77.6 105.3,77.9 105.7,77.9 Z" id="Shape" fill="#EC6B52"></path>
                    <path d="M105.7,88 C106.1,88 106.5,87.7 106.5,87.2 L106.5,83.2 C106.5,82.8 106.2,82.4 105.7,82.4 C105.3,82.4 104.9,82.7 104.9,83.2 L104.9,87.2 C105,87.6 105.3,88 105.7,88 Z" id="Shape" fill="#EC6B52"></path>
                    <path d="M110.5,27.9 L110.5,27.8 C110.6,27.7 110.7,27.6 110.8,27.4 C111.1,26.5 111.2,25.5 111.2,24.5 C111.2,19.2 106.9,14.9 101.6,14.9 L92.9,14.9 L92.9,14.9 L26.3,14.9 L26.3,14.9 L25.2,14.9 L25,14.9 C19.3,14.9 14.6,19.6 14.6,25.3 L14.6,25.3 L14.6,25.3 L14.6,123 C14.6,123.4 14.9,123.8 15.4,123.8 L93,123.8 C93.4,123.8 93.8,123.5 93.8,123 L93.8,28.7 L109.9,28.7 C110.2,28.7 110.5,28.3 110.5,27.9 Z M92.2,122.2 L16.1,122.2 L16.1,25.4 L16.1,25.4 L16.1,25.4 C16.1,20.5 20.1,16.5 25,16.5 C29.9,16.5 33.9,20.5 33.9,25.4 C33.9,26.1 33.8,27.1 33.6,27.7 C33.5,28.1 33.8,28.5 34.2,28.6 L34.4,28.6 L34.4,28.6 C34.5,28.6 34.6,28.7 34.7,28.7 L92.1,28.7 L92.1,122.2 L92.2,122.2 Z M109.3,27 L109.3,27.2 L35.3,27.2 C35.4,26.6 35.5,26 35.5,25.4 C35.5,21.6 33.4,18.3 30.4,16.4 L101.7,16.4 C106.2,16.4 109.8,20 109.8,24.5 C109.7,25.4 109.6,26.2 109.3,27 Z" id="Shape" fill="#EC6B52"></path>
                    <path d="M29.9,56.3 L29.9,56.4 L30,56.5 L30.1,56.6 L30.2,56.7 L30.3,56.8 L30.3,56.8 L30.5,56.8 L30.5,56.8 L44.7,56.8 L44.7,56.8 L44.9,56.8 L44.9,56.8 C45,56.8 45,56.8 45,56.7 C45,56.7 45.1,56.7 45.1,56.6 L45.2,56.5 L45.3,56.4 L45.3,56.3 L45.3,56.1 L45.3,56.1 L45.3,56 L45.3,55.9 C45.1,55.3 44.9,54.6 44.7,54.1 C44.2,52.4 42.6,51.4 40.7,51.6 L40.2,51.6 C40.2,51.5 40.3,51.4 40.3,51.3 L40.3,50.3 C40.7,49.8 41.1,49.3 41.4,48.6 C41.9,48.3 42.3,47.6 42.3,46.7 C42.3,46 42.1,45.5 41.8,45.1 C41.8,44.7 41.9,44.4 41.9,44 C42,41.7 41.3,41.3 40.1,40.9 L40,40.8 C39.1,40.5 38.3,40.5 37.7,40.5 C37.1,40.5 36.2,40.6 35.4,40.8 L35.2,40.9 C34.1,41.3 33.3,41.7 33.4,44 C33.4,44.3 33.5,44.7 33.5,45.1 C33.1,45.4 33,46 33,46.6 C33,47.5 33.3,48.3 33.9,48.5 C34.2,49.2 34.5,49.7 35,50.2 L35,51.2 C35,51.3 35,51.4 35.1,51.5 L34.6,51.5 C32.7,51.3 31.1,52.3 30.6,54 C30.4,54.6 30.2,55.2 30,55.9 L30,56 L30,56.1 L30,56.1 C29.9,56.2 29.9,56.2 29.9,56.3 Z M34.7,47.2 C34.6,47.2 34.6,47.2 34.5,47.1 C34.5,47 34.4,46.8 34.4,46.6 C34.4,46.3 34.5,46.1 34.5,46 C34.7,45.9 34.9,45.6 34.9,45.4 L34.9,45.1 C34.8,44.7 34.8,44.2 34.8,43.8 C34.7,42.5 34.8,42.5 35.5,42.2 L35.7,42.1 C36.2,41.9 36.9,41.8 37.6,41.8 C38.3,41.8 38.9,41.9 39.5,42.1 L39.7,42.2 C40.4,42.4 40.5,42.5 40.4,43.8 C40.4,44.2 40.3,44.6 40.3,45.1 L40.3,45.4 C40.3,45.6 40.5,45.8 40.7,45.9 C40.7,46 40.8,46.2 40.8,46.5 C40.8,46.7 40.8,46.9 40.7,47 C40.6,47 40.6,47 40.5,47.1 C40.3,47.2 40.2,47.4 40.1,47.6 C39.7,49 38.7,49.9 37.5,49.9 C36.4,49.9 35.4,49 34.9,47.6 C35.1,47.4 34.9,47.3 34.7,47.2 Z M31.9,54.4 C32.2,53.4 33.1,52.8 34.4,52.9 C34.8,52.9 35.1,52.9 35.5,53 C35.9,53 36.3,52.7 36.3,52.3 C36.3,52.1 36.2,52 36.2,51.8 C36.4,51.7 36.6,51.4 36.6,51.2 L36.6,51.2 C37,51.3 37.4,51.4 37.9,51.4 C38.3,51.4 38.8,51.3 39.2,51.2 L39.2,51.2 C39.2,51.5 39.3,51.7 39.5,51.8 C39.4,51.9 39.3,52.1 39.3,52.3 C39.3,52.7 39.7,53 40.1,53 C40.5,53 40.8,53 41.2,52.9 C42.4,52.8 43.4,53.4 43.7,54.4 C43.8,54.7 43.9,55 44,55.3 L31.6,55.3 C31.7,55 31.8,54.7 31.9,54.4 Z" id="Shape" fill="#EC6B52"></path>
                    <path d="M23.1,50.3 C23.1,58.4 29.7,64.9 37.7,64.9 C45.8,64.9 52.3,58.3 52.3,50.3 C52.3,42.2 45.7,35.7 37.7,35.7 C29.6,35.7 23.1,42.2 23.1,50.3 Z M37.7,37.2 C44.9,37.2 50.8,43.1 50.8,50.3 C50.8,57.5 44.9,63.4 37.7,63.4 C30.5,63.4 24.6,57.5 24.6,50.3 C24.6,43 30.5,37.2 37.7,37.2 Z" id="Shape" fill="#EC6B52"></path>
                    <path d="M57.5,44.5 L77,44.5 C77.4,44.5 77.8,44.2 77.8,43.7 C77.8,43.3 77.5,42.9 77,42.9 L57.5,42.9 C57.1,42.9 56.7,43.2 56.7,43.7 C56.8,44.1 57.1,44.5 57.5,44.5 Z" id="Shape" fill="#EC6B52"></path>
                    <path d="M57.5,49.3 L82.4,49.3 C82.8,49.3 83.2,49 83.2,48.5 C83.2,48.1 82.9,47.7 82.4,47.7 L57.5,47.7 C57.1,47.7 56.7,48 56.7,48.5 C56.8,48.9 57.1,49.3 57.5,49.3 Z" id="Shape" fill="#EC6B52"></path>
                    <path d="M57.5,54.1 L85.8,54.1 C86.2,54.1 86.6,53.8 86.6,53.3 C86.6,52.8 86.3,52.5 85.8,52.5 L57.5,52.5 C57.1,52.5 56.7,52.8 56.7,53.3 C56.7,53.8 57.1,54.1 57.5,54.1 Z" id="Shape" fill="#EC6B52"></path>
                    <path d="M23.8,76.1 L50.2,76.1 C50.6,76.1 51,75.8 51,75.3 C51,74.9 50.7,74.5 50.2,74.5 L23.8,74.5 C23.4,74.5 23,74.8 23,75.3 C23.1,75.8 23.4,76.1 23.8,76.1 Z" id="Shape" fill="#EC6B52"></path>
                    <path d="M57.5,76.1 L83.8,76.1 C84.2,76.1 84.6,75.8 84.6,75.3 C84.6,74.9 84.3,74.5 83.8,74.5 L57.5,74.5 C57.1,74.5 56.7,74.8 56.7,75.3 C56.8,75.8 57.1,76.1 57.5,76.1 Z" id="Shape" fill="#EC6B52"></path>
                    <path d="M23.8,81.5 L62.5,81.5 C62.9,81.5 63.3,81.2 63.3,80.7 C63.3,80.3 63,79.9 62.5,79.9 L23.8,79.9 C23.4,79.9 23,80.2 23,80.7 C23.1,81.2 23.4,81.5 23.8,81.5 Z" id="Shape" fill="#EC6B52"></path>
                    <path d="M83.8,80 L69.2,80 C68.8,80 68.4,80.3 68.4,80.8 C68.4,81.2 68.7,81.6 69.2,81.6 L83.8,81.6 C84.2,81.6 84.6,81.3 84.6,80.8 C84.6,80.3 84.3,80 83.8,80 Z" id="Shape" fill="#EC6B52"></path>
                    <path d="M83.8,101.5 L45.2,101.5 C44.8,101.5 44.4,101.8 44.4,102.3 C44.4,102.7 44.7,103.1 45.2,103.1 L83.9,103.1 C84.3,103.1 84.7,102.8 84.7,102.3 C84.6,101.8 84.3,101.5 83.8,101.5 Z" id="Shape" fill="#EC6B52"></path>
                    <path d="M23.8,103 L38.4,103 C38.8,103 39.2,102.7 39.2,102.2 C39.2,101.8 38.9,101.4 38.4,101.4 L23.8,101.4 C23.4,101.4 23,101.7 23,102.2 C23.1,102.7 23.4,103 23.8,103 Z" id="Shape" fill="#EC6B52"></path>
                    <path d="M83.8,85.4 L66,85.4 L57.5,85.4 L23.8,85.4 C23.4,85.4 23,85.7 23,86.2 C23,86.6 23.3,87 23.8,87 L57.5,87 L66,87 L83.8,87 C84.2,87 84.6,86.7 84.6,86.2 C84.6,85.7 84.3,85.4 83.8,85.4 Z" id="Shape" fill="#EC6B52"></path>
                    <path d="M23.8,92.2 L33.7,92.2 C34.1,92.2 34.5,91.9 34.5,91.4 C34.5,91 34.2,90.6 33.7,90.6 L23.8,90.6 C23.4,90.6 23,90.9 23,91.4 C23.1,91.9 23.4,92.2 23.8,92.2 Z" id="Shape" fill="#EC6B52"></path>
                    <path d="M83.8,90.7 L40.6,90.7 C40.2,90.7 39.8,91 39.8,91.5 C39.8,91.9 40.1,92.3 40.6,92.3 L83.8,92.3 C84.2,92.3 84.6,92 84.6,91.5 C84.6,91.1 84.3,90.7 83.8,90.7 Z" id="Shape" fill="#EC6B52"></path>
                    <path d="M23.8,97.6 L39,97.6 C39.4,97.6 39.8,97.3 39.8,96.8 C39.8,96.4 39.5,96 39,96 L23.8,96 C23.4,96 23,96.3 23,96.8 C23.1,97.3 23.4,97.6 23.8,97.6 Z" id="Shape" fill="#EC6B52"></path>
                    <path d="M61.7,97.6 C62.1,97.6 62.5,97.3 62.5,96.8 C62.5,96.4 62.2,96 61.7,96 L46.5,96 C46.1,96 45.7,96.3 45.7,96.8 C45.7,97.2 46,97.6 46.5,97.6 L61.7,97.6 Z" id="Shape" fill="#EC6B52"></path>
                    <path d="M83.8,96.1 L68,96.1 C67.6,96.1 67.2,96.4 67.2,96.9 C67.2,97.3 67.5,97.7 68,97.7 L83.9,97.7 C84.3,97.7 84.7,97.4 84.7,96.9 C84.6,96.5 84.3,96.1 83.8,96.1 Z" id="Shape" fill="#EC6B52"></path>
                    <path d="M83.8,106.9 L23.8,106.9 C23.4,106.9 23,107.2 23,107.7 C23,108.1 23.3,108.5 23.8,108.5 L83.8,108.5 C84.2,108.5 84.6,108.2 84.6,107.7 C84.6,107.2 84.3,106.9 83.8,106.9 Z" id="Shape" fill="#EC6B52"></path>
                    <path d="M68.5,112.2 L23.8,112.2 C23.4,112.2 23,112.5 23,113 C23,113.4 23.3,113.8 23.8,113.8 L68.5,113.8 C68.9,113.8 69.3,113.5 69.3,113 C69.3,112.6 68.9,112.2 68.5,112.2 Z" id="Shape" fill="#EC6B52"></path>
                    <path d="M83.8,112.2 L74.8,112.2 C74.4,112.2 74,112.5 74,113 C74,113.4 74.3,113.8 74.8,113.8 L83.8,113.8 C84.2,113.8 84.6,113.5 84.6,113 C84.6,112.6 84.3,112.2 83.8,112.2 Z" id="Shape" fill="#EC6B52"></path>
                    <path d="M85.8,126 L15.3,126 C14.9,126 14.5,126.3 14.5,126.8 C14.5,127.2 14.8,127.6 15.3,127.6 L85.8,127.6 C86.2,127.6 86.6,127.3 86.6,126.8 C86.6,126.3 86.2,126 85.8,126 Z" id="Shape" fill="#EC6B52"></path>
                </g>
            </g>
        </g>
    </g>
</svg>