<?xml version="1.0" encoding="UTF-8" standalone="no"?>
<svg width="166px" height="43px" viewBox="0 0 166 43" version="1.1" xmlns="http://www.w3.org/2000/svg" xmlns:xlink="http://www.w3.org/1999/xlink">
    <!-- Generator: Sketch 42 (36781) - http://www.bohemiancoding.com/sketch -->
    <title>Page 1</title>
    <desc>Created with Sketch.</desc>
    <defs>
        <polygon id="path-1" points="22.67025 31 0.15525 31 0.15525 0.318123077 22.67025 0.318123077 22.67025 31"></polygon>
    </defs>
    <g id="Symbols" stroke="none" stroke-width="1" fill="none" fill-rule="evenodd">
        <g id="Mystery-Shopper-Module" transform="translate(-226.000000, -1547.000000)">
            <g id="Page-1">
                <g transform="translate(226.000000, 1547.000000)">
                    <g id="Group-3" transform="translate(0.000000, 11.000000)" fill="#58595B">
                        <path d="M28.9137,4.01894615 L17.1285333,29.5660231 C16.6428667,30.4037154 15.73095,31.0002538 14.6407833,31.0002538 C13.54545,31.0002538 12.87895,30.4037154 12.3907,29.5660231 L0.3627,4.01894615 C0.181866667,3.66102308 0.00103333333,3.24217692 0.00103333333,2.76748462 C0.00103333333,1.39417692 1.2152,0.317869231 2.7342,0.317869231 C3.88636667,0.317869231 4.79828333,1.03371538 5.28653333,1.92979231 L14.6407833,22.2831769 L23.9950333,1.92979231 C24.4781167,1.03371538 25.3926167,0.317869231 26.5447833,0.317869231 C28.0637833,0.317869231 29.2805333,1.39417692 29.2805333,2.76748462 C29.2805333,3.24217692 29.0945333,3.66102308 28.9137,4.01894615" id="Fill-1"></path>
                    </g>
                    <path d="M40.001226,0 C41.6734777,0 43,1.32760736 43,3.00122699 C43,4.67239264 41.6734777,6 40.001226,6 C38.3265223,6 37,4.67239264 37,3.00122699 C37,1.32760736 38.3265223,0 40.001226,0" id="Fill-4" fill="#3E5A80"></path>
                    <path d="M37,14.7160586 C37,13.2079921 38.112949,12 39.5023629,12 C40.889414,12 42,13.2079921 42,14.7160586 L42,40.2865062 C42,41.7945727 40.889414,43 39.5023629,43 C38.112949,43 37,41.7945727 37,40.2865062 L37,14.7160586 Z" id="Fill-6" fill="#58595B"></path>
                    <g id="Group-10" transform="translate(52.000000, 11.000000)">
                        <mask id="mask-2" fill="white">
                            <use xlink:href="#path-1"></use>
                        </mask>
                        <g id="Clip-9"></g>
                        <path d="M20.55275,3.89989231 C20.96525,4.37712308 21.43775,5.15389231 21.43775,6.16927692 C21.43775,7.24050769 20.67025,8.43612308 19.08275,8.43612308 C18.08525,8.43612308 17.55525,7.89796923 16.96775,7.42327692 C16.14275,6.46627692 14.55775,5.03458462 11.67775,5.03458462 C7.62025,5.03458462 6.44525,7.24050769 6.44525,8.79404615 C6.44525,14.8812769 22.67025,10.9415846 22.67025,22.3443538 C22.67025,26.5226615 18.96525,31.0005077 11.67775,31.0005077 C4.27025,31.0005077 1.39025,26.5226615 0.91775,26.1038154 C0.56775,25.6291231 0.15525,25.0909692 0.15525,24.2558154 C0.15525,22.8825077 1.09525,21.8671231 2.62525,21.8671231 C3.32775,21.8671231 4.09275,22.2250462 4.56275,22.8825077 C4.85775,23.2378923 6.74025,26.2815077 11.67775,26.2815077 C14.91025,26.2815077 17.20275,24.7888923 17.20275,22.3443538 C17.20275,16.3155077 0.97775,19.7779692 0.97775,8.79404615 C0.97775,4.79596923 4.44775,0.318123077 11.67775,0.318123077 C16.79025,0.318123077 19.61275,2.76773846 20.55275,3.89989231" id="Fill-8" fill="#58595B" mask="url(#mask-2)"></path>
                    </g>
                    <path d="M87,0 C88.6729354,0 90,1.32760736 90,3.00122699 C90,4.67239264 88.6729354,6 87,6 C85.3270646,6 84,4.67239264 84,3.00122699 C84,1.32760736 85.3270646,0 87,0" id="Fill-11" fill="#3E5A80"></path>
                    <path d="M84,14.7160586 C84,13.2079921 85.1124232,12 86.5011809,12 C87.8875768,12 89,13.2079921 89,14.7160586 L89,40.2865062 C89,41.7945727 87.8875768,43 86.5011809,43 C85.1124232,43 84,41.7945727 84,40.2865062 L84,14.7160586 Z" id="Fill-13" fill="#58595B"></path>
                    <path d="M114.498737,37.9858232 C119.963829,37.9858232 124.236904,33.6347206 124.236904,27.5308407 C124.236904,21.4295308 119.963829,17.0167468 114.498737,17.0167468 C109.036171,17.0167468 104.763096,21.4295308 104.763096,27.5308407 C104.763096,33.6347206 109.036171,37.9858232 114.498737,37.9858232 M114.498737,12 C123.171161,12 130,18.5870502 130,27.5308407 C130,36.4746311 123.171161,43 114.498737,43 C105.828839,43 99,36.4746311 99,27.5308407 C99,18.5870502 105.828839,12 114.498737,12" id="Fill-15" fill="#58595B"></path>
                    <path d="M139,14.7160586 C139,13.2079921 140.188616,12 141.672493,12 C143.153846,12 144.342462,13.2079921 144.342462,14.7160586 L144.342462,16.5241996 C146.477428,13.7517167 149.6824,12 153.836246,12 C161.608935,12 166,17.1884669 166,27.4987176 L166,40.2865062 C166,41.7945727 164.813908,43 163.332554,43 C161.848677,43 160.660062,41.7945727 160.660062,40.2865062 L160.660062,27.4987176 C160.660062,20.0225035 158.287877,17.0089352 153.005982,17.0089352 C147.547434,17.0089352 144.342462,21.6511128 144.342462,27.4987176 L144.342462,40.2865062 C144.342462,41.7945727 143.153846,43 141.672493,43 C140.188616,43 139,41.7945727 139,40.2865062 L139,14.7160586 Z" id="Fill-17" fill="#58595B"></path>
                </g>
            </g>
        </g>
    </g>
</svg>