<?xml version="1.0" encoding="UTF-8"?>
<svg width="181px" height="177px" viewBox="0 0 181 177" version="1.1" xmlns="http://www.w3.org/2000/svg" xmlns:xlink="http://www.w3.org/1999/xlink">
    <!-- Generator: Sketch 45.1 (43504) - http://www.bohemiancoding.com/sketch -->
    <title>Group 3</title>
    <desc>Created with Sketch.</desc>
    <defs></defs>
    <g id="The-Vantage" stroke="none" stroke-width="1" fill="none" fill-rule="evenodd">
        <g id="7-desktop-option-a-vantage-listing--" transform="translate(-325.000000, -440.000000)">
            <g id="Live-Support-Modal-Copy" transform="translate(263.000000, 362.000000)">
                <g id="Group-3" transform="translate(62.000000, 78.000000)">
                    <circle id="Oval-3" fill="#F2F9FF" cx="88.5" cy="88.5" r="88.5"></circle>
                    <path d="M116.227069,133.979828 C117.475172,135.227931 119.19931,136 121.103448,136 C124.911724,136 128,132.911724 128,129.103448 L128,78.0689655 C128,76.5448276 126.765517,75.3103448 125.241379,75.3103448 L114.206897,75.3103448 L114.206897,82.2068966 L114.206897,58.7586207 C114.206897,57.2344828 112.972414,56 111.448276,56 L50.7586207,56 C49.2344828,56 48,57.2344828 48,58.7586207 L48,129.103448 C48,132.911724 51.0882759,136 54.8965517,136 L121.103448,136 C119.19931,136 117.475172,135.227931 116.227069,133.979828 Z" id="Combined-Shape" fill="#FFFFFF"></path>
                    <g id="Group-4" transform="translate(2.000000, 36.000000)">
                        <path d="M25.7881356,37.1724138 C26.1673729,37.1724138 26.5466102,36.8423269 26.5466102,36.2921822 L26.5466102,23.6388523 C26.5466102,23.1987365 26.2621822,22.7586207 25.7881356,22.7586207 C25.314089,22.7586207 25.029661,23.0887076 25.029661,23.6388523 L25.029661,36.2921822 C25.029661,36.732298 25.4088983,37.1724138 25.7881356,37.1724138 Z" id="Shape" fill="#000000" fill-rule="nonzero"></path>
                        <path d="M25.029661,44.6011711 C25.029661,45.0592062 25.314089,45.5172414 25.7881356,45.5172414 C26.2621822,45.5172414 26.5466102,45.173715 26.5466102,44.6011711 L26.5466102,40.3643461 C26.5466102,39.906311 26.2621822,39.4482759 25.7881356,39.4482759 C25.314089,39.4482759 25.029661,39.906311 25.029661,40.3643461 L25.029661,44.6011711 Z" id="Shape" fill="#000000" fill-rule="nonzero"></path>
                        <path d="M119.734366,100.137931 L119.734366,100.137931 C115.907129,100.137931 112.803477,97.0336813 112.803477,93.2057075 L112.803477,39.1343639 L123.892899,39.1343639 C125.424625,39.1343639 126.665254,40.3752319 126.665254,41.9072533 L126.665254,93.2057075 C126.665254,97.0336813 123.561602,100.137931 119.734366,100.137931 L119.734366,100.137931 Z" id="Shape" stroke="#000000" stroke-width="2"></path>
                        <path d="M112.803477,93.2057075 L112.803477,86.2734839 L112.803477,52.9988109 L112.803477,22.4970273 C112.803477,20.9650059 111.562848,19.7241379 110.031122,19.7241379 L49.0393045,19.7241379 C47.5075782,19.7241379 46.2669492,20.9650059 46.2669492,22.4970273 L46.2669492,93.2057075 C46.2669492,97.0336813 49.370601,100.137931 53.1978375,100.137931 L119.734366,100.137931 C115.907129,100.137931 112.803477,97.0336813 112.803477,93.2057075 L112.803477,93.2057075 Z" id="Shape" stroke="#000000" stroke-width="2"></path>
                        <path d="M171.415254,84.9655172 C171.794492,84.9655172 172.173729,84.6328912 172.173729,84.0785146 L172.173729,71.4387268 C172.173729,70.9952255 171.889301,70.5517241 171.415254,70.5517241 C171.036017,70.5517241 170.65678,70.8843501 170.65678,71.4387268 L170.65678,84.1893899 C170.751589,84.6328912 171.036017,84.9655172 171.415254,84.9655172 Z" id="Shape" fill="#000000" fill-rule="nonzero"></path>
                        <path d="M170.65678,92.3942746 C170.65678,92.8523097 170.941208,93.3103448 171.415254,93.3103448 C171.794492,93.3103448 172.173729,92.9668185 172.173729,92.3942746 L172.173729,88.1574496 C172.173729,87.6994144 171.889301,87.2413793 171.415254,87.2413793 C171.036017,87.2413793 170.65678,87.5849057 170.65678,88.1574496 L170.65678,92.3942746 Z" id="Shape" fill="#000000" fill-rule="nonzero"></path>
                        <path d="M94.1810334,8.11667099 C94.2942386,8.23074929 94.5206489,8.34482759 94.7470592,8.34482759 C94.9734695,8.34482759 95.1998798,8.23074929 95.313085,8.11667099 C95.6527005,7.77443609 95.6527005,7.20404459 95.313085,6.8618097 L93.2753921,4.80840031 C92.9357766,4.46616541 92.3697508,4.46616541 92.0301353,4.80840031 C91.6905199,5.15063521 91.6905199,5.7210267 92.0301353,6.0632616 L94.1810334,8.11667099 Z" id="Shape" fill="#000000" fill-rule="nonzero"></path>
                        <path d="M101.007305,14.1856365 C101.12051,14.2997148 101.34692,14.4137931 101.57333,14.4137931 C101.799741,14.4137931 102.026151,14.2997148 102.139356,14.1856365 C102.478972,13.8434016 102.478972,13.2730101 102.139356,12.9307752 L100.101663,10.8773658 C99.7620478,10.5351309 99.196022,10.5351309 98.8564065,10.8773658 C98.516791,11.2196007 98.516791,11.7899922 98.8564065,12.1322271 L101.007305,14.1856365 Z" id="Shape" fill="#000000" fill-rule="nonzero"></path>
                        <path d="M93.4678409,14.4137931 C93.6942512,14.4137931 93.9206615,14.2997148 94.0338667,14.1856365 L96.0715596,12.1322271 C96.4111751,11.7899922 96.4111751,11.2196007 96.0715596,10.8773658 C95.7319441,10.5351309 95.1659183,10.5351309 94.8263028,10.8773658 L92.7886099,12.9307752 C92.4489944,13.2730101 92.4489944,13.8434016 92.7886099,14.1856365 C93.0150202,14.4137931 93.2414306,14.4137931 93.4678409,14.4137931 Z" id="Shape" fill="#000000" fill-rule="nonzero"></path>
                        <path d="M100.20616,8.34482759 C100.439537,8.34482759 100.672914,8.23074929 100.789602,8.11667099 L102.889993,6.0632616 C103.240059,5.7210267 103.240059,5.15063521 102.889993,4.80840031 C102.539928,4.46616541 101.956486,4.46616541 101.606421,4.80840031 L99.6227184,6.8618097 C99.2726532,7.20404459 99.2726532,7.77443609 99.6227184,8.11667099 C99.7394068,8.23074929 99.9727836,8.34482759 100.20616,8.34482759 Z" id="Shape" fill="#000000" fill-rule="nonzero"></path>
                        <path d="M141.913001,79.1532279 C141.551823,78.810993 140.949859,78.810993 140.58868,79.1532279 C140.227502,79.4954628 140.227502,80.0658543 140.58868,80.4080892 L142.635358,82.4614986 C142.755751,82.5755769 142.996536,82.6896552 143.237322,82.6896552 C143.478107,82.6896552 143.718893,82.5755769 143.839286,82.4614986 C144.200464,82.1192637 144.200464,81.5488722 143.839286,81.2066373 L141.913001,79.1532279 Z" id="Shape" fill="#000000" fill-rule="nonzero"></path>
                        <path d="M148.690189,85.2221934 C148.340124,84.8799585 147.756682,84.8799585 147.406617,85.2221934 C147.056551,85.5644283 147.056551,86.1348198 147.406617,86.4770547 L149.507008,88.5304641 C149.623696,88.6445424 149.857073,88.7586207 150.09045,88.7586207 C150.323827,88.7586207 150.557203,88.6445424 150.673892,88.5304641 C151.023957,88.1882292 151.023957,87.6178377 150.673892,87.2756028 L148.690189,85.2221934 Z" id="Shape" fill="#000000" fill-rule="nonzero"></path>
                        <path d="M143.393832,85.2221934 L141.347155,87.2756028 C140.985977,87.6178377 140.985977,88.1882292 141.347155,88.5304641 C141.467548,88.6445424 141.708333,88.7586207 141.949119,88.7586207 C142.189904,88.7586207 142.43069,88.6445424 142.551083,88.5304641 L144.59776,86.4770547 C144.958939,86.1348198 144.958939,85.5644283 144.59776,85.2221934 C144.356975,84.8799585 143.755011,84.8799585 143.393832,85.2221934 Z" id="Shape" fill="#000000" fill-rule="nonzero"></path>
                        <path d="M149.507008,79.1768585 L147.406617,81.1674433 C147.056551,81.5187229 147.056551,82.1041891 147.406617,82.4554687 C147.523305,82.5725619 147.756682,82.6896552 147.990059,82.6896552 C148.223435,82.6896552 148.456812,82.5725619 148.573501,82.4554687 L150.673892,80.3477907 C151.023957,79.996511 151.023957,79.4110449 150.673892,79.0597653 C150.440515,78.8255788 149.857073,78.8255788 149.507008,79.1768585 Z" id="Shape" fill="#000000" fill-rule="nonzero"></path>
                        <path d="M12.6315189,70.5859476 L10.6478162,68.5325382 C10.297751,68.1903033 9.714309,68.1903033 9.36424381,68.5325382 C9.01417862,68.8747731 9.01417862,69.4451646 9.36424381,69.7873995 L11.4646349,71.8408089 C11.5813233,71.9548872 11.8147001,72.0689655 12.0480769,72.0689655 C12.2814537,72.0689655 12.5148305,71.9548872 12.6315189,71.8408089 C12.9815841,71.498574 12.9815841,70.9281825 12.6315189,70.5859476 Z" id="Shape" fill="#000000" fill-rule="nonzero"></path>
                        <path d="M16.7156128,74.6015038 C16.3655476,74.2592689 15.7821056,74.2592689 15.4320404,74.6015038 C15.0819752,74.9437387 15.0819752,75.5141302 15.4320404,75.8563651 L17.5324316,77.9097744 C17.6491199,78.0238527 17.8824967,78.137931 18.1158735,78.137931 C18.3492503,78.137931 18.5826271,78.0238527 18.6993155,77.9097744 C19.0493807,77.5675395 19.0493807,76.997148 18.6993155,76.6549131 L16.7156128,74.6015038 Z" id="Shape" fill="#000000" fill-rule="nonzero"></path>
                        <path d="M11.4646349,74.6015038 L9.36424381,76.6549131 C9.01417862,76.997148 9.01417862,77.5675395 9.36424381,77.9097744 C9.4809322,78.0238527 9.714309,78.137931 9.94768579,78.137931 C10.1810626,78.137931 10.4144394,78.0238527 10.5311278,77.9097744 L12.6315189,75.8563651 C12.9815841,75.5141302 12.9815841,74.9437387 12.6315189,74.6015038 C12.2814537,74.2592689 11.8147001,74.2592689 11.4646349,74.6015038 Z" id="Shape" fill="#000000" fill-rule="nonzero"></path>
                        <path d="M18.7189732,68.5325382 C18.378223,68.1903033 17.8103059,68.1903033 17.4695557,68.5325382 L15.4250542,70.5859476 C15.084304,70.9281825 15.084304,71.498574 15.4250542,71.8408089 C15.5386376,71.9548872 15.7658045,72.0689655 15.9929713,72.0689655 C16.2201381,72.0689655 16.4473049,71.9548872 16.5608884,71.8408089 L18.6053898,69.7873995 C19.0597235,69.4451646 19.0597235,68.8747731 18.7189732,68.5325382 Z" id="Shape" fill="#000000" fill-rule="nonzero"></path>
                        <path d="M146.006356,11.3793103 C148.26128,11.3793103 150.177966,9.5750233 150.177966,7.20689655 C150.177966,4.95153774 148.374027,3.03448276 146.006356,3.03448276 C143.751432,3.03448276 141.834746,4.8387698 141.834746,7.20689655 C141.947492,9.46225536 143.751432,11.3793103 146.006356,11.3793103 Z M146.006356,4.8387698 C147.359311,4.8387698 148.374027,5.96644921 148.374027,7.20689655 C148.374027,8.56011184 147.246564,9.5750233 146.006356,9.5750233 C144.653401,9.5750233 143.638685,8.4473439 143.638685,7.20689655 C143.638685,5.85368127 144.766148,4.8387698 146.006356,4.8387698 Z" id="Shape" fill="#000000" fill-rule="nonzero"></path>
                        <path d="M10.9978814,106.965517 C13.2528058,106.965517 15.1694915,105.16123 15.1694915,102.793103 C15.1694915,100.537745 13.365552,98.6206897 10.9978814,98.6206897 C8.74295694,98.6206897 6.82627119,100.424977 6.82627119,102.793103 C6.82627119,105.16123 8.74295694,106.965517 10.9978814,106.965517 Z M10.9978814,100.424977 C12.350836,100.424977 13.365552,101.552656 13.365552,102.793103 C13.365552,104.146319 12.2380898,105.16123 10.9978814,105.16123 C9.64492671,105.16123 8.63021072,104.033551 8.63021072,102.793103 C8.63021072,101.552656 9.64492671,100.424977 10.9978814,100.424977 Z" id="Shape" fill="#000000" fill-rule="nonzero"></path>
                        <path d="M9.86016949,6.06896552 C9.86016949,6.44827586 10.2000055,6.82758621 10.7663989,6.82758621 L26.3988554,6.82758621 C26.8519701,6.82758621 27.3050847,6.54310345 27.3050847,6.06896552 C27.3050847,5.68965517 26.9652487,5.31034483 26.3988554,5.31034483 L10.6531202,5.31034483 C10.2000055,5.40517241 9.86016949,5.68965517 9.86016949,6.06896552 Z" id="Shape" fill="#000000" fill-rule="nonzero"></path>
                        <path d="M0.89524868,6.82758621 L5.93102251,6.82758621 C6.37864685,6.82758621 6.82627119,6.54310345 6.82627119,6.06896552 C6.82627119,5.68965517 6.49055293,5.31034483 5.93102251,5.31034483 L0.89524868,5.31034483 C0.44762434,5.31034483 0,5.59482759 0,6.06896552 C0.111906085,6.44827586 0.44762434,6.82758621 0.89524868,6.82758621 Z" id="Shape" fill="#000000" fill-rule="nonzero"></path>
                        <path d="M0.866828087,1.51724138 L11.2687651,1.51724138 C11.7021792,1.51724138 12.1355932,1.2137931 12.1355932,0.708045977 C12.1355932,0.202298851 11.8105327,0 11.3771186,0 L0.866828087,0 C0.433414044,0 0,0.303448276 0,0.809195402 C0,1.31494253 0.433414044,1.51724138 0.866828087,1.51724138 Z" id="Shape" fill="#000000" fill-rule="nonzero"></path>
                        <path d="M16.0732059,1.51724138 L19.5750992,1.51724138 C20.0269564,1.51724138 20.4788136,1.2137931 20.4788136,0.708045977 C20.4788136,0.202298851 20.0269564,0 19.5750992,0 L16.0732059,0 C15.6213487,0 15.1694915,0.303448276 15.1694915,0.809195402 C15.1694915,1.31494253 15.6213487,1.51724138 16.0732059,1.51724138 Z" id="Shape" fill="#000000" fill-rule="nonzero"></path>
                        <path d="M169.139831,103.931034 C169.139831,103.551724 168.799994,103.172414 168.233601,103.172414 L152.601145,103.172414 C152.14803,103.172414 151.694915,103.456897 151.694915,103.931034 C151.694915,104.310345 152.034751,104.689655 152.601145,104.689655 L168.233601,104.689655 C168.799994,104.689655 169.139831,104.310345 169.139831,103.931034 Z" id="Shape" fill="#000000" fill-rule="nonzero"></path>
                        <path d="M172.173729,103.931034 C172.173729,104.310345 172.509447,104.689655 173.068977,104.689655 L178.104751,104.689655 C178.552376,104.689655 179,104.405172 179,103.931034 C179,103.551724 178.664282,103.172414 178.104751,103.172414 L173.068977,103.172414 C172.621353,103.267241 172.173729,103.551724 172.173729,103.931034 Z" id="Shape" fill="#000000" fill-rule="nonzero"></path>
                        <path d="M178.133172,108.482759 L167.731235,108.482759 C167.297821,108.482759 166.864407,108.767241 166.864407,109.241379 C166.864407,109.62069 167.189467,110 167.731235,110 L178.133172,110 C178.566586,110 179,109.715517 179,109.241379 C179,108.767241 178.674939,108.482759 178.133172,108.482759 Z" id="Shape" fill="#000000" fill-rule="nonzero"></path>
                        <path d="M162.926794,108.482759 L159.424901,108.482759 C158.973044,108.482759 158.521186,108.767241 158.521186,109.241379 C158.521186,109.62069 158.860079,110 159.424901,110 L162.926794,110 C163.378651,110 163.830508,109.715517 163.830508,109.241379 C163.717544,108.767241 163.378651,108.482759 162.926794,108.482759 Z" id="Shape" fill="#000000" fill-rule="nonzero"></path>
                        <polygon id="Shape" stroke="#000000" stroke-width="2" points="53.1978375 34.9750297 105.872589 34.9750297 105.872589 26.6563615 53.1978375 26.6563615"></polygon>
                        <path d="M105.872589,41.9072533 L53.1978375,41.9072533" id="Shape" stroke="#000000" stroke-width="2"></path>
                        <path d="M118.348188,82.1141498 L112.803477,82.1141498" id="Shape" stroke="#000000" stroke-width="2"></path>
                        <path d="M121.120544,76.568371 L112.803477,76.568371" id="Shape" stroke="#000000" stroke-width="2"></path>
                        <path d="M118.348188,93.2057075 L112.803477,93.2057075" id="Shape" stroke="#000000" stroke-width="2"></path>
                        <path d="M121.120544,87.6599287 L112.803477,87.6599287" id="Shape" stroke="#000000" stroke-width="2"></path>
                        <path d="M118.348188,59.9310345 L112.803477,59.9310345" id="Shape" stroke="#000000" stroke-width="2"></path>
                        <path d="M121.120544,54.3852556 L112.803477,54.3852556" id="Shape" stroke="#000000" stroke-width="2"></path>
                        <path d="M118.348188,71.0225922 L112.803477,71.0225922" id="Shape" stroke="#000000" stroke-width="2"></path>
                        <path d="M121.120544,65.4768133 L112.803477,65.4768133" id="Shape" stroke="#000000" stroke-width="2"></path>
                        <polygon id="Shape" stroke="#000000" stroke-width="2" points="57.3563705 62.7230568 57.3563705 62.7230568 57.3563705 53.0179439"></polygon>
                        <polygon id="Shape" stroke="#000000" stroke-width="2" points="65.6734366 62.7230568 65.6734366 62.7230568 65.6734366 53.0179439"></polygon>
                        <polyline id="Shape" stroke="#000000" stroke-width="2" points="53.1978375 57.177278 61.5149036 48.8586098 69.8319696 57.177278"></polyline>
                        <polygon id="Shape" stroke="#000000" stroke-width="2" points="101.714056 87.6599287 101.714056 87.6599287 101.714056 77.9548157"></polygon>
                        <polygon id="Shape" stroke="#000000" stroke-width="2" points="93.3969901 87.6599287 93.3969901 87.6599287 93.3969901 77.9548157"></polygon>
                        <polyline id="Shape" stroke="#000000" stroke-width="2" points="105.872589 82.1141498 97.5555231 73.7954816 89.238457 82.1141498"></polyline>
                        <path d="M76.762858,48.8778813 L93.3969901,48.8390609" id="Shape" stroke="#000000" stroke-width="2"></path>
                        <path d="M98.9417008,48.8394768 L105.872589,48.8394768" id="Shape" stroke="#000000" stroke-width="2"></path>
                        <path d="M80.921391,55.7717004 L76.762858,55.7911106" id="Shape" stroke="#000000" stroke-width="2"></path>
                        <path d="M105.872451,55.7717004 L86.4659631,55.7717004" id="Shape" stroke="#000000" stroke-width="2"></path>
                        <path d="M98.9418394,62.7039239 L105.872728,62.6845137" id="Shape" stroke="#000000" stroke-width="2"></path>
                        <path d="M76.762858,62.7039239 L93.3969901,62.7039239" id="Shape" stroke="#000000" stroke-width="2"></path>
                        <path d="M53.1978375,73.8146145 L71.2181473,73.7952043" id="Shape" stroke="#000000" stroke-width="2"></path>
                        <path d="M76.762858,73.7954816 L82.3075687,73.7954816" id="Shape" stroke="#000000" stroke-width="2"></path>
                        <path d="M58.7425482,80.7277051 L53.1978375,80.7277051" id="Shape" stroke="#000000" stroke-width="2"></path>
                        <path d="M82.3074301,80.7277051 L64.2871203,80.7277051" id="Shape" stroke="#000000" stroke-width="2"></path>
                        <path d="M76.7629966,87.6407957 L82.3077073,87.6407957" id="Shape" stroke="#000000" stroke-width="2"></path>
                        <path d="M53.1978375,87.6407957 L71.2181473,87.6407957" id="Shape" stroke="#000000" stroke-width="2"></path>
                    </g>
                </g>
            </g>
        </g>
    </g>
</svg>