<?xml version="1.0" encoding="UTF-8" standalone="no"?>
<svg width="116px" height="128px" viewBox="0 0 116 128" version="1.1" xmlns="http://www.w3.org/2000/svg" xmlns:xlink="http://www.w3.org/1999/xlink">
    <!-- Generator: Sketch 42 (36781) - http://www.bohemiancoding.com/sketch -->
    <title>Group</title>
    <desc>Created with Sketch.</desc>
    <defs></defs>
    <g id="Symbols" stroke="none" stroke-width="1" fill="none" fill-rule="evenodd">
        <g id="Courseware-Module" transform="translate(-918.000000, -1280.000000)" fill-rule="nonzero">
            <g id="Group">
                <g transform="translate(918.000000, 1280.000000)">
                    <path d="M111.2,82.6 C111.6,82.6 112,82.3 112,81.8 L112,71.7 C112,71.3 111.7,70.9 111.2,70.9 C110.8,70.9 110.4,71.2 110.4,71.7 L110.4,81.9 C110.5,82.3 110.8,82.6 111.2,82.6 Z" id="Shape" fill="#959595"></path>
                    <path d="M110.5,88.6 C110.5,89 110.8,89.4 111.3,89.4 C111.7,89.4 112.1,89.1 112.1,88.6 L112.1,85.3 C112.1,84.9 111.8,84.5 111.3,84.5 C110.9,84.5 110.5,84.8 110.5,85.3 L110.5,88.6 Z" id="Shape" fill="#959595"></path>
                    <path d="M8.1,84.5 C7.7,84.5 7.3,84.8 7.3,85.3 L7.3,95.5 C7.3,95.9 7.6,96.3 8.1,96.3 C8.5,96.3 8.9,96 8.9,95.5 L8.9,85.2 C8.9,84.8 8.5,84.5 8.1,84.5 Z" id="Shape" fill="#959595"></path>
                    <path d="M8.1,98.1 C7.7,98.1 7.3,98.4 7.3,98.9 L7.3,102.2 C7.3,102.6 7.6,103 8.1,103 C8.5,103 8.9,102.7 8.9,102.2 L8.9,98.9 C8.9,98.4 8.5,98.1 8.1,98.1 Z" id="Shape" fill="#959595"></path>
                    <path d="M30.5,27.2 L29.1,25.8 C28.8,25.5 28.3,25.5 28,25.8 C27.7,26.1 27.7,26.6 28,26.9 L29.4,28.3 C29.5,28.4 29.7,28.5 29.9,28.5 C30.1,28.5 30.3,28.4 30.4,28.3 C30.8,27.9 30.8,27.5 30.5,27.2 Z" id="Shape" fill="#959595"></path>
                    <path d="M33.6,30.3 C33.3,30 32.8,30 32.5,30.3 C32.2,30.6 32.2,31.1 32.5,31.4 L33.9,32.8 C34,32.9 34.2,33 34.4,33 C34.6,33 34.8,32.9 34.9,32.8 C35.2,32.5 35.2,32 34.9,31.7 L33.6,30.3 Z" id="Shape" fill="#959595"></path>
                    <path d="M29.4,30.3 L28,31.7 C27.7,32 27.7,32.5 28,32.8 C28.1,32.9 28.3,33 28.5,33 C28.7,33 28.9,32.9 29,32.8 L30.4,31.4 C30.7,31.1 30.7,30.6 30.4,30.3 C30.2,30 29.7,30 29.4,30.3 Z" id="Shape" fill="#959595"></path>
                    <path d="M32.6,28.2 C32.7,28.3 32.9,28.4 33.1,28.4 C33.3,28.4 33.5,28.3 33.6,28.2 L35,26.8 C35.3,26.5 35.3,26 35,25.7 C34.7,25.4 34.2,25.4 33.9,25.7 L32.5,27.1 C32.3,27.5 32.3,27.9 32.6,28.2 Z" id="Shape" fill="#959595"></path>
                    <path d="M103.4,51.1 C103.1,50.8 102.6,50.8 102.3,51.1 C102,51.4 102,51.9 102.3,52.2 L103.7,53.6 C103.8,53.7 104,53.8 104.2,53.8 C104.4,53.8 104.6,53.7 104.7,53.6 C105,53.3 105,52.8 104.7,52.5 L103.4,51.1 Z" id="Shape" fill="#959595"></path>
                    <path d="M108.8,58.3 C109,58.3 109.2,58.2 109.3,58.1 C109.6,57.8 109.6,57.3 109.3,57 L107.9,55.6 C107.6,55.3 107.1,55.3 106.8,55.6 C106.5,55.9 106.5,56.4 106.8,56.7 L108.2,58.1 C108.5,58.2 108.7,58.3 108.8,58.3 Z" id="Shape" fill="#959595"></path>
                    <path d="M103.8,55.6 L102.4,57 C102.1,57.3 102.1,57.8 102.4,58.1 C102.5,58.2 102.7,58.3 102.9,58.3 C103.1,58.3 103.3,58.2 103.4,58.1 L104.8,56.7 C105.1,56.4 105.1,55.9 104.8,55.6 C104.5,55.3 104.1,55.3 103.8,55.6 Z" id="Shape" fill="#959595"></path>
                    <path d="M107.4,53.8 C107.6,53.8 107.8,53.7 107.9,53.6 L109.3,52.2 C109.6,51.9 109.6,51.4 109.3,51.1 C109,50.8 108.5,50.8 108.2,51.1 L106.8,52.5 C106.5,52.8 106.5,53.3 106.8,53.6 C107.1,53.7 107.2,53.8 107.4,53.8 Z" id="Shape" fill="#959595"></path>
                    <path d="M5.5,61.3 L4.1,59.9 C3.8,59.6 3.3,59.6 3,59.9 C2.7,60.2 2.7,60.7 3,61 L4.4,62.4 C4.5,62.5 4.7,62.6 4.9,62.6 C5.1,62.6 5.3,62.5 5.4,62.4 C5.8,62.1 5.8,61.6 5.5,61.3 Z" id="Shape" fill="#959595"></path>
                    <path d="M8.7,64.5 C8.4,64.2 7.9,64.2 7.6,64.5 C7.3,64.8 7.3,65.3 7.6,65.6 L9,67 C9.1,67.1 9.3,67.2 9.5,67.2 C9.7,67.2 9.9,67.1 10,67 C10.3,66.7 10.3,66.2 10,65.9 L8.7,64.5 Z" id="Shape" fill="#959595"></path>
                    <path d="M4.5,64.5 L3.1,65.9 C2.8,66.2 2.8,66.7 3.1,67 C3.2,67.1 3.4,67.2 3.6,67.2 C3.8,67.2 4,67.1 4.1,67 L5.5,65.6 C5.8,65.3 5.8,64.8 5.5,64.5 C5.2,64.2 4.8,64.2 4.5,64.5 Z" id="Shape" fill="#959595"></path>
                    <path d="M9,59.9 L7.6,61.3 C7.3,61.6 7.3,62.1 7.6,62.4 C7.7,62.5 7.9,62.6 8.1,62.6 C8.3,62.6 8.5,62.5 8.6,62.4 L10,61 C10.3,60.7 10.3,60.2 10,59.9 C9.8,59.6 9.3,59.6 9,59.9 Z" id="Shape" fill="#959595"></path>
                    <path d="M30,7.6 C31.7,7.6 33.1,6.2 33.1,4.5 C33.1,2.8 31.7,1.3 30,1.3 C28.3,1.3 26.9,2.7 26.9,4.4 C26.9,6.1 28.2,7.6 30,7.6 Z M30,2.8 C30.9,2.8 31.6,3.5 31.6,4.4 C31.6,5.3 30.9,6 30,6 C29.1,6 28.4,5.3 28.4,4.4 C28.3,3.5 29.1,2.8 30,2.8 Z" id="Shape" fill="#959595"></path>
                    <path d="M111.2,106.6 C109.5,106.6 108.1,108 108.1,109.7 C108.1,111.4 109.5,112.8 111.2,112.8 C112.9,112.8 114.3,111.4 114.3,109.7 C114.3,108 113,106.6 111.2,106.6 Z M111.2,111.4 C110.3,111.4 109.6,110.7 109.6,109.8 C109.6,108.9 110.3,108.2 111.2,108.2 C112.1,108.2 112.8,108.9 112.8,109.8 C112.9,110.7 112.1,111.4 111.2,111.4 Z" id="Shape" fill="#959595"></path>
                    <path d="M111.2,26.1 C109.5,26.1 108.1,27.5 108.1,29.2 C108.1,30.9 109.5,32.3 111.2,32.3 C112.9,32.3 114.3,30.9 114.3,29.2 C114.4,27.5 113,26.1 111.2,26.1 Z M111.2,30.9 C110.3,30.9 109.6,30.2 109.6,29.3 C109.6,28.4 110.3,27.7 111.2,27.7 C112.1,27.7 112.8,28.4 112.8,29.3 C112.9,30.2 112.1,30.9 111.2,30.9 Z" id="Shape" fill="#959595"></path>
                    <path d="M4.4,109.1 C2.1,109.1 0.2,111 0.2,113.3 C0.2,115.6 2.1,117.5 4.4,117.5 C6.7,117.5 8.6,115.6 8.6,113.3 C8.5,111 6.7,109.1 4.4,109.1 Z M4.4,116 C2.9,116 1.7,114.8 1.7,113.3 C1.7,111.8 2.9,110.6 4.4,110.6 C5.9,110.6 7.1,111.8 7.1,113.3 C7,114.8 5.8,116 4.4,116 Z" id="Shape" fill="#959595"></path>
                    <path d="M91.8,41.9 L102.9,41.9 C103.3,41.9 103.7,41.6 103.7,41.1 C103.7,40.7 103.4,40.3 102.9,40.3 L91.8,40.3 C91.4,40.3 91,40.6 91,41.1 C91.1,41.6 91.4,41.9 91.8,41.9 Z" id="Shape" fill="#959595"></path>
                    <path d="M84.6,40.4 C84.2,40.4 83.8,40.7 83.8,41.2 C83.8,41.6 84.1,42 84.6,42 L88.2,42 C88.6,42 89,41.7 89,41.2 C89,40.8 88.7,40.4 88.2,40.4 L84.6,40.4 Z" id="Shape" fill="#959595"></path>
                    <path d="M93.1,37.4 C93.1,37 92.8,36.6 92.3,36.6 L84.6,36.6 C84.2,36.6 83.8,36.9 83.8,37.4 C83.8,37.8 84.1,38.2 84.6,38.2 L92.3,38.2 C92.7,38.1 93.1,37.8 93.1,37.4 Z" id="Shape" fill="#959595"></path>
                    <path d="M98.1,38.1 C98.5,38.1 98.9,37.8 98.9,37.3 C98.9,36.9 98.6,36.5 98.1,36.5 L95.6,36.5 C95.2,36.5 94.8,36.8 94.8,37.3 C94.8,37.7 95.1,38.1 95.6,38.1 L98.1,38.1 Z" id="Shape" fill="#959595"></path>
                    <path d="M10.2,16.1 C10.2,16.5 10.5,16.9 11,16.9 L22,16.9 C22.4,16.9 22.8,16.6 22.8,16.1 C22.8,15.7 22.5,15.3 22,15.3 L10.9,15.3 C10.5,15.3 10.2,15.7 10.2,16.1 Z" id="Shape" fill="#959595"></path>
                    <path d="M3.7,16.8 L7.3,16.8 C7.7,16.8 8.1,16.5 8.1,16 C8.1,15.6 7.8,15.2 7.3,15.2 L3.7,15.2 C3.3,15.2 2.9,15.5 2.9,16 C3,16.5 3.3,16.8 3.7,16.8 Z" id="Shape" fill="#959595"></path>
                    <path d="M3.7,13 L11.4,13 C11.8,13 12.2,12.7 12.2,12.2 C12.2,11.8 11.9,11.4 11.4,11.4 L3.7,11.4 C3.3,11.4 2.9,11.7 2.9,12.2 C3,12.7 3.3,13 3.7,13 Z" id="Shape" fill="#959595"></path>
                    <path d="M14.7,13 L17.2,13 C17.6,13 18,12.7 18,12.2 C18,11.8 17.7,11.4 17.2,11.4 L14.7,11.4 C14.3,11.4 13.9,11.7 13.9,12.2 C14,12.7 14.3,13 14.7,13 Z" id="Shape" fill="#959595"></path>
                    <path d="M6.8,52.4 L24.5,52.4 C27.1,52.4 29.1,50.3 29.1,47.8 C29.1,45.2 27,43.2 24.5,43.2 L23.3,43.2 L23.3,42.9 C23.3,40.6 21.4,38.7 19.1,38.7 C18,38.7 17,39.1 16.2,39.9 C15.9,38.9 15.4,38.2 15,37.7 C14,36.5 12.4,35.9 10.7,35.9 C7.6,35.9 5,38.5 5,41.6 C5,42.3 5.1,42.9 5.3,43.5 C3.5,44.1 2.2,45.9 2.2,47.9 C2.2,50.3 4.2,52.4 6.8,52.4 Z M6.5,44.6 C6.8,44.6 7,44.4 7.1,44.2 C7.2,44 7.2,43.7 7.1,43.5 C6.7,42.9 6.5,42.2 6.5,41.4 C6.5,39.1 8.4,37.2 10.7,37.2 C12,37.2 13.1,37.7 13.9,38.5 C14.7,39.4 15.1,40.6 15,42.1 L15,42.7 C15,43.1 15.3,43.4 15.7,43.5 C16.1,43.5 16.4,43.2 16.5,42.8 L16.5,42.3 C16.7,41 17.8,40.1 19.1,40.1 C20.6,40.1 21.8,41.3 21.8,42.8 C21.8,43.1 21.8,43.4 21.7,43.6 C21.6,43.8 21.7,44.1 21.8,44.3 C21.9,44.5 22.2,44.6 22.4,44.6 L24.6,44.6 C26.3,44.6 27.7,46 27.7,47.7 C27.7,49.4 26.3,50.8 24.6,50.8 L6.8,50.8 C5.1,50.8 3.7,49.4 3.7,47.7 C3.7,46.1 4.9,44.8 6.5,44.6 Z" id="Shape" fill="#959595"></path>
                    <path d="M8.6,42.3 L8.7,42.3 C9.1,42.2 9.4,41.8 9.3,41.4 C9.2,41 9.4,40.7 9.6,40.5 C9.9,40.2 10.4,40 10.9,40.1 C11.3,40.1 11.7,39.8 11.7,39.4 C11.7,39 11.4,38.6 11,38.6 C10,38.5 9.1,38.8 8.5,39.5 C7.9,40.1 7.7,40.9 7.9,41.7 C7.9,42.1 8.2,42.3 8.6,42.3 Z" id="Shape" fill="#959595"></path>
                    <path d="M88,21.6 L110.2,21.6 C113.3,21.6 115.8,19.1 115.8,16 C115.8,13.5 114.1,11.3 111.8,10.6 C112.1,9.8 112.3,8.9 112.3,8.1 C112.3,4.3 109.2,1.1 105.3,1.1 C103.2,1.1 101.3,1.9 100.1,3.3 C99.5,4 98.9,4.9 98.5,6.3 C97.6,5.3 96.2,4.7 94.8,4.7 C92,4.7 89.7,7 89.7,9.8 L89.7,10.4 L88,10.4 C84.9,10.4 82.4,12.9 82.4,16 C82.4,19.1 84.9,21.6 88,21.6 Z M88,11.9 L90.7,11.9 C90.9,11.9 91.2,11.8 91.3,11.6 C91.4,11.4 91.5,11.2 91.4,10.9 C91.3,10.5 91.2,10.2 91.2,9.8 C91.2,7.8 92.8,6.2 94.7,6.2 C96.5,6.2 97.9,7.5 98.2,9.2 C98.2,9.4 98.2,9.6 98.3,9.9 C98.3,10.3 98.7,10.6 99.1,10.6 C99.5,10.6 99.8,10.2 99.8,9.8 C99.8,9.5 99.8,9.3 99.7,9 C99.6,7.1 100.1,5.4 101.1,4.3 C102.1,3.2 103.6,2.6 105.2,2.6 C108.2,2.6 110.7,5 110.7,8.1 C110.7,9.1 110.4,10 110,10.8 C109.9,11 109.9,11.3 110,11.5 C110.1,11.7 110.3,11.9 110.6,11.9 C112.7,12.1 114.3,13.9 114.3,16 C114.3,18.3 112.5,20.1 110.2,20.1 L88,20.1 C85.7,20.1 83.9,18.3 83.9,16 C83.9,13.8 85.8,11.9 88,11.9 Z" id="Shape" fill="#959595"></path>
                    <path d="M105,5.9 C106.5,5.9 107.7,7.1 107.7,8.6 C107.7,9 108,9.4 108.5,9.4 C108.9,9.4 109.3,9.1 109.3,8.6 C109.3,6.3 107.4,4.4 105.1,4.4 C104.7,4.4 104.3,4.7 104.3,5.2 C104.2,5.6 104.6,5.9 105,5.9 Z" id="Shape" fill="#959595"></path>
                    <g id="Group-10" transform="translate(14.000000, 0.000000)" fill="#4D4D4D">
                        <path d="M34.4,70.8 C34,70.8 33.6,71.1 33.6,71.6 L33.6,75.6 C33.6,76 33.9,76.4 34.4,76.4 C34.8,76.4 35.2,76.1 35.2,75.6 L35.2,71.6 C35.2,71.2 34.8,70.8 34.4,70.8 Z" id="Shape"></path>
                        <path d="M34.4,79.9 C34,79.9 33.6,80.2 33.6,80.7 L33.6,84.7 C33.6,85.1 33.9,85.5 34.4,85.5 C34.8,85.5 35.2,85.2 35.2,84.7 L35.2,80.7 C35.2,80.2 34.8,79.9 34.4,79.9 Z" id="Shape"></path>
                        <path d="M34.4,52.8 C34,52.8 33.6,53.1 33.6,53.6 L33.6,57.6 C33.6,58 33.9,58.4 34.4,58.4 C34.8,58.4 35.2,58.1 35.2,57.6 L35.2,53.6 C35.2,53.1 34.8,52.8 34.4,52.8 Z" id="Shape"></path>
                        <path d="M34.4,88.9 C34,88.9 33.6,89.2 33.6,89.7 L33.6,93.7 C33.6,94.1 33.9,94.5 34.4,94.5 C34.8,94.5 35.2,94.2 35.2,93.7 L35.2,89.7 C35.2,89.2 34.8,88.9 34.4,88.9 Z" id="Shape"></path>
                        <path d="M34.4,61.8 C34,61.8 33.6,62.1 33.6,62.6 L33.6,66.6 C33.6,67 33.9,67.4 34.4,67.4 C34.8,67.4 35.2,67.1 35.2,66.6 L35.2,62.6 C35.2,62.1 34.8,61.8 34.4,61.8 Z" id="Shape"></path>
                        <path d="M34.4,97.9 C34,97.9 33.6,98.2 33.6,98.7 L33.6,102.7 C33.6,103.1 33.9,103.5 34.4,103.5 C34.8,103.5 35.2,103.2 35.2,102.7 L35.2,98.7 C35.2,98.3 34.8,97.9 34.4,97.9 Z" id="Shape"></path>
                        <path d="M34.4,43.7 C34,43.7 33.6,44 33.6,44.5 L33.6,48.5 C33.6,48.9 33.9,49.3 34.4,49.3 C34.8,49.3 35.2,49 35.2,48.5 L35.2,44.5 C35.2,44.1 34.8,43.7 34.4,43.7 Z" id="Shape"></path>
                        <path d="M34.4,116 C34,116 33.6,116.3 33.6,116.8 L33.6,120.2 C33.6,120.6 33.9,121 34.4,121 C34.8,121 35.2,120.7 35.2,120.2 L35.2,116.8 C35.2,116.4 34.8,116 34.4,116 Z" id="Shape"></path>
                        <path d="M34.4,107 C34,107 33.6,107.3 33.6,107.8 L33.6,111.8 C33.6,112.2 33.9,112.6 34.4,112.6 C34.8,112.6 35.2,112.3 35.2,111.8 L35.2,107.8 C35.2,107.3 34.8,107 34.4,107 Z" id="Shape"></path>
                        <path d="M41.5,43.7 C41.1,43.7 40.7,44 40.7,44.5 L40.7,48.5 C40.7,48.9 41,49.3 41.5,49.3 C41.9,49.3 42.3,49 42.3,48.5 L42.3,44.5 C42.3,44.1 42,43.7 41.5,43.7 Z" id="Shape"></path>
                        <path d="M41.5,61.8 C41.1,61.8 40.7,62.1 40.7,62.6 L40.7,66.6 C40.7,67 41,67.4 41.5,67.4 C41.9,67.4 42.3,67.1 42.3,66.6 L42.3,62.6 C42.3,62.1 42,61.8 41.5,61.8 Z" id="Shape"></path>
                        <path d="M41.5,70.8 C41.1,70.8 40.7,71.1 40.7,71.6 L40.7,75.6 C40.7,76 41,76.4 41.5,76.4 C41.9,76.4 42.3,76.1 42.3,75.6 L42.3,71.6 C42.3,71.2 42,70.8 41.5,70.8 Z" id="Shape"></path>
                        <path d="M41.5,52.8 C41.1,52.8 40.7,53.1 40.7,53.6 L40.7,57.6 C40.7,58 41,58.4 41.5,58.4 C41.9,58.4 42.3,58.1 42.3,57.6 L42.3,53.6 C42.3,53.1 42,52.8 41.5,52.8 Z" id="Shape"></path>
                        <path d="M41.5,116 C41.1,116 40.7,116.3 40.7,116.8 L40.7,120.2 C40.7,120.6 41,121 41.5,121 C41.9,121 42.3,120.7 42.3,120.2 L42.3,116.8 C42.3,116.4 42,116 41.5,116 Z" id="Shape"></path>
                        <path d="M41.5,79.9 C41.1,79.9 40.7,80.2 40.7,80.7 L40.7,84.7 C40.7,85.1 41,85.5 41.5,85.5 C41.9,85.5 42.3,85.2 42.3,84.7 L42.3,80.7 C42.3,80.2 42,79.9 41.5,79.9 Z" id="Shape"></path>
                        <path d="M41.5,107 C41.1,107 40.7,107.3 40.7,107.8 L40.7,111.8 C40.7,112.2 41,112.6 41.5,112.6 C41.9,112.6 42.3,112.3 42.3,111.8 L42.3,107.8 C42.3,107.3 42,107 41.5,107 Z" id="Shape"></path>
                        <path d="M41.5,88.9 C41.1,88.9 40.7,89.2 40.7,89.7 L40.7,93.7 C40.7,94.1 41,94.5 41.5,94.5 C41.9,94.5 42.3,94.2 42.3,93.7 L42.3,89.7 C42.3,89.2 42,88.9 41.5,88.9 Z" id="Shape"></path>
                        <path d="M41.5,97.9 C41.1,97.9 40.7,98.2 40.7,98.7 L40.7,102.7 C40.7,103.1 41,103.5 41.5,103.5 C41.9,103.5 42.3,103.2 42.3,102.7 L42.3,98.7 C42.3,98.3 42,97.9 41.5,97.9 Z" id="Shape"></path>
                        <path d="M48.6,61.8 C48.2,61.8 47.8,62.1 47.8,62.6 L47.8,66.6 C47.8,67 48.1,67.4 48.6,67.4 C49,67.4 49.4,67.1 49.4,66.6 L49.4,62.6 C49.4,62.1 49.1,61.8 48.6,61.8 Z" id="Shape"></path>
                        <path d="M48.6,79.9 C48.2,79.9 47.8,80.2 47.8,80.7 L47.8,84.7 C47.8,85.1 48.1,85.5 48.6,85.5 C49,85.5 49.4,85.2 49.4,84.7 L49.4,80.7 C49.4,80.2 49.1,79.9 48.6,79.9 Z" id="Shape"></path>
                        <path d="M48.6,70.8 C48.2,70.8 47.8,71.1 47.8,71.6 L47.8,75.6 C47.8,76 48.1,76.4 48.6,76.4 C49,76.4 49.4,76.1 49.4,75.6 L49.4,71.6 C49.4,71.2 49.1,70.8 48.6,70.8 Z" id="Shape"></path>
                        <path d="M48.6,88.9 C48.2,88.9 47.8,89.2 47.8,89.7 L47.8,93.7 C47.8,94.1 48.1,94.5 48.6,94.5 C49,94.5 49.4,94.2 49.4,93.7 L49.4,89.7 C49.4,89.2 49.1,88.9 48.6,88.9 Z" id="Shape"></path>
                        <path d="M48.6,52.8 C48.2,52.8 47.8,53.1 47.8,53.6 L47.8,57.6 C47.8,58 48.1,58.4 48.6,58.4 C49,58.4 49.4,58.1 49.4,57.6 L49.4,53.6 C49.4,53.1 49.1,52.8 48.6,52.8 Z" id="Shape"></path>
                        <path d="M48.6,43.7 C48.2,43.7 47.8,44 47.8,44.5 L47.8,48.5 C47.8,48.9 48.1,49.3 48.6,49.3 C49,49.3 49.4,49 49.4,48.5 L49.4,44.5 C49.4,44.1 49.1,43.7 48.6,43.7 Z" id="Shape"></path>
                        <path d="M48.6,97.9 C48.2,97.9 47.8,98.2 47.8,98.7 L47.8,102.7 C47.8,103.1 48.1,103.5 48.6,103.5 C49,103.5 49.4,103.2 49.4,102.7 L49.4,98.7 C49.4,98.3 49.1,97.9 48.6,97.9 Z" id="Shape"></path>
                        <path d="M48.6,116 C48.2,116 47.8,116.3 47.8,116.8 L47.8,120.2 C47.8,120.6 48.1,121 48.6,121 C49,121 49.4,120.7 49.4,120.2 L49.4,116.8 C49.4,116.4 49.1,116 48.6,116 Z" id="Shape"></path>
                        <path d="M48.6,107 C48.2,107 47.8,107.3 47.8,107.8 L47.8,111.8 C47.8,112.2 48.1,112.6 48.6,112.6 C49,112.6 49.4,112.3 49.4,111.8 L49.4,107.8 C49.4,107.3 49.1,107 48.6,107 Z" id="Shape"></path>
                        <path d="M55.8,88.9 C55.4,88.9 55,89.2 55,89.7 L55,93.7 C55,94.1 55.3,94.5 55.8,94.5 C56.2,94.5 56.6,94.2 56.6,93.7 L56.6,89.7 C56.5,89.2 56.2,88.9 55.8,88.9 Z" id="Shape"></path>
                        <path d="M55.8,79.9 C55.4,79.9 55,80.2 55,80.7 L55,84.7 C55,85.1 55.3,85.5 55.8,85.5 C56.2,85.5 56.6,85.2 56.6,84.7 L56.6,80.7 C56.5,80.2 56.2,79.9 55.8,79.9 Z" id="Shape"></path>
                        <path d="M55.8,97.9 C55.4,97.9 55,98.2 55,98.7 L55,102.7 C55,103.1 55.3,103.5 55.8,103.5 C56.2,103.5 56.6,103.2 56.6,102.7 L56.6,98.7 C56.5,98.3 56.2,97.9 55.8,97.9 Z" id="Shape"></path>
                        <path d="M55.8,52.8 C55.4,52.8 55,53.1 55,53.6 L55,57.6 C55,58 55.3,58.4 55.8,58.4 C56.2,58.4 56.6,58.1 56.6,57.6 L56.6,53.6 C56.5,53.1 56.2,52.8 55.8,52.8 Z" id="Shape"></path>
                        <path d="M55.8,107 C55.4,107 55,107.3 55,107.8 L55,111.8 C55,112.2 55.3,112.6 55.8,112.6 C56.2,112.6 56.6,112.3 56.6,111.8 L56.6,107.8 C56.5,107.3 56.2,107 55.8,107 Z" id="Shape"></path>
                        <path d="M55.8,43.7 C55.4,43.7 55,44 55,44.5 L55,48.5 C55,48.9 55.3,49.3 55.8,49.3 C56.2,49.3 56.6,49 56.6,48.5 L56.6,44.5 C56.5,44.1 56.2,43.7 55.8,43.7 Z" id="Shape"></path>
                        <path d="M55.8,61.8 C55.4,61.8 55,62.1 55,62.6 L55,66.6 C55,67 55.3,67.4 55.8,67.4 C56.2,67.4 56.6,67.1 56.6,66.6 L56.6,62.6 C56.5,62.1 56.2,61.8 55.8,61.8 Z" id="Shape"></path>
                        <path d="M55.8,116 C55.4,116 55,116.3 55,116.8 L55,120.2 C55,120.6 55.3,121 55.8,121 C56.2,121 56.6,120.7 56.6,120.2 L56.6,116.8 C56.5,116.4 56.2,116 55.8,116 Z" id="Shape"></path>
                        <path d="M55.8,70.8 C55.4,70.8 55,71.1 55,71.6 L55,75.6 C55,76 55.3,76.4 55.8,76.4 C56.2,76.4 56.6,76.1 56.6,75.6 L56.6,71.6 C56.5,71.2 56.2,70.8 55.8,70.8 Z" id="Shape"></path>
                        <path d="M72.6,72.4 C72.2,72.4 71.8,72.7 71.8,73.2 L71.8,77.2 C71.8,77.6 72.1,78 72.6,78 C73,78 73.4,77.7 73.4,77.2 L73.4,73.2 C73.4,72.7 73.1,72.4 72.6,72.4 Z" id="Shape"></path>
                        <path d="M72.6,108.5 C72.2,108.5 71.8,108.8 71.8,109.3 L71.8,113.3 C71.8,113.7 72.1,114.1 72.6,114.1 C73,114.1 73.4,113.8 73.4,113.3 L73.4,109.3 C73.4,108.9 73.1,108.5 72.6,108.5 Z" id="Shape"></path>
                        <path d="M72.6,117.6 C72.2,117.6 71.8,117.9 71.8,118.4 L71.8,122.4 C71.8,122.8 72.1,123.2 72.6,123.2 C73,123.2 73.4,122.9 73.4,122.4 L73.4,118.4 C73.4,117.9 73.1,117.6 72.6,117.6 Z" id="Shape"></path>
                        <path d="M72.6,99.5 C72.2,99.5 71.8,99.8 71.8,100.3 L71.8,104.3 C71.8,104.7 72.1,105.1 72.6,105.1 C73,105.1 73.4,104.8 73.4,104.3 L73.4,100.3 C73.4,99.8 73.1,99.5 72.6,99.5 Z" id="Shape"></path>
                        <path d="M72.6,90.4 C72.2,90.4 71.8,90.7 71.8,91.2 L71.8,95.2 C71.8,95.6 72.1,96 72.6,96 C73,96 73.4,95.7 73.4,95.2 L73.4,91.2 C73.4,90.8 73.1,90.4 72.6,90.4 Z" id="Shape"></path>
                        <path d="M72.6,81.4 C72.2,81.4 71.8,81.7 71.8,82.2 L71.8,86.2 C71.8,86.6 72.1,87 72.6,87 C73,87 73.4,86.7 73.4,86.2 L73.4,82.2 C73.4,81.7 73.1,81.4 72.6,81.4 Z" id="Shape"></path>
                        <path d="M79.7,99.5 C79.3,99.5 78.9,99.8 78.9,100.3 L78.9,104.3 C78.9,104.7 79.2,105.1 79.7,105.1 C80.1,105.1 80.5,104.8 80.5,104.3 L80.5,100.3 C80.5,99.8 80.2,99.5 79.7,99.5 Z" id="Shape"></path>
                        <path d="M79.7,90.4 C79.3,90.4 78.9,90.7 78.9,91.2 L78.9,95.2 C78.9,95.6 79.2,96 79.7,96 C80.1,96 80.5,95.7 80.5,95.2 L80.5,91.2 C80.5,90.8 80.2,90.4 79.7,90.4 Z" id="Shape"></path>
                        <path d="M79.7,117.6 C79.3,117.6 78.9,117.9 78.9,118.4 L78.9,122.4 C78.9,122.8 79.2,123.2 79.7,123.2 C80.1,123.2 80.5,122.9 80.5,122.4 L80.5,118.4 C80.5,117.9 80.2,117.6 79.7,117.6 Z" id="Shape"></path>
                        <path d="M79.7,81.4 C79.3,81.4 78.9,81.7 78.9,82.2 L78.9,86.2 C78.9,86.6 79.2,87 79.7,87 C80.1,87 80.5,86.7 80.5,86.2 L80.5,82.2 C80.5,81.7 80.2,81.4 79.7,81.4 Z" id="Shape"></path>
                        <path d="M79.7,72.4 C79.3,72.4 78.9,72.7 78.9,73.2 L78.9,77.2 C78.9,77.6 79.2,78 79.7,78 C80.1,78 80.5,77.7 80.5,77.2 L80.5,73.2 C80.5,72.7 80.2,72.4 79.7,72.4 Z" id="Shape"></path>
                        <path d="M79.7,108.5 C79.3,108.5 78.9,108.8 78.9,109.3 L78.9,113.3 C78.9,113.7 79.2,114.1 79.7,114.1 C80.1,114.1 80.5,113.8 80.5,113.3 L80.5,109.3 C80.5,108.9 80.2,108.5 79.7,108.5 Z" id="Shape"></path>
                        <path d="M10.4,123.1 C10.8,123.1 11.2,122.8 11.2,122.3 L11.2,118.3 C11.2,117.9 10.9,117.5 10.4,117.5 C10,117.5 9.6,117.8 9.6,118.3 L9.6,122.3 C9.7,122.7 10,123.1 10.4,123.1 Z" id="Shape"></path>
                        <path d="M10.4,114 C10.8,114 11.2,113.7 11.2,113.2 L11.2,109.2 C11.2,108.8 10.9,108.4 10.4,108.4 C10,108.4 9.6,108.7 9.6,109.2 L9.6,113.2 C9.7,113.7 10,114 10.4,114 Z" id="Shape"></path>
                        <path d="M10.4,77.9 C10.8,77.9 11.2,77.6 11.2,77.1 L11.2,73.1 C11.2,72.7 10.9,72.3 10.4,72.3 C10,72.3 9.6,72.6 9.6,73.1 L9.6,77.1 C9.7,77.6 10,77.9 10.4,77.9 Z" id="Shape"></path>
                        <path d="M10.4,86.9 C10.8,86.9 11.2,86.6 11.2,86.1 L11.2,82.1 C11.2,81.7 10.9,81.3 10.4,81.3 C10,81.3 9.6,81.6 9.6,82.1 L9.6,86.1 C9.7,86.6 10,86.9 10.4,86.9 Z" id="Shape"></path>
                        <path d="M10.4,105 C10.8,105 11.2,104.7 11.2,104.2 L11.2,100.2 C11.2,99.8 10.9,99.4 10.4,99.4 C10,99.4 9.6,99.7 9.6,100.2 L9.6,104.2 C9.7,104.7 10,105 10.4,105 Z" id="Shape"></path>
                        <path d="M10.4,96 C10.8,96 11.2,95.7 11.2,95.2 L11.2,91.2 C11.2,90.8 10.9,90.4 10.4,90.4 C10,90.4 9.6,90.7 9.6,91.2 L9.6,95.2 C9.7,95.6 10,96 10.4,96 Z" id="Shape"></path>
                        <path d="M17.5,123.1 C17.9,123.1 18.3,122.8 18.3,122.3 L18.3,118.3 C18.3,117.9 18,117.5 17.5,117.5 C17.1,117.5 16.7,117.8 16.7,118.3 L16.7,122.3 C16.8,122.7 17.1,123.1 17.5,123.1 Z" id="Shape"></path>
                        <path d="M17.5,105 C17.9,105 18.3,104.7 18.3,104.2 L18.3,100.2 C18.3,99.8 18,99.4 17.5,99.4 C17.1,99.4 16.7,99.7 16.7,100.2 L16.7,104.2 C16.8,104.7 17.1,105 17.5,105 Z" id="Shape"></path>
                        <path d="M17.5,114 C17.9,114 18.3,113.7 18.3,113.2 L18.3,109.2 C18.3,108.8 18,108.4 17.5,108.4 C17.1,108.4 16.7,108.7 16.7,109.2 L16.7,113.2 C16.8,113.7 17.1,114 17.5,114 Z" id="Shape"></path>
                        <path d="M17.5,96 C17.9,96 18.3,95.7 18.3,95.2 L18.3,91.2 C18.3,90.8 18,90.4 17.5,90.4 C17.1,90.4 16.7,90.7 16.7,91.2 L16.7,95.2 C16.8,95.6 17.1,96 17.5,96 Z" id="Shape"></path>
                        <path d="M17.5,86.9 C17.9,86.9 18.3,86.6 18.3,86.1 L18.3,82.1 C18.3,81.7 18,81.3 17.5,81.3 C17.1,81.3 16.7,81.6 16.7,82.1 L16.7,86.1 C16.8,86.6 17.1,86.9 17.5,86.9 Z" id="Shape"></path>
                        <path d="M17.5,77.9 C17.9,77.9 18.3,77.6 18.3,77.1 L18.3,73.1 C18.3,72.7 18,72.3 17.5,72.3 C17.1,72.3 16.7,72.6 16.7,73.1 L16.7,77.1 C16.8,77.6 17.1,77.9 17.5,77.9 Z" id="Shape"></path>
                        <path d="M85.1,67.3 L64.5,67.3 L64.5,40.2 C64.5,37.7 62.5,35.7 60,35.7 L56.5,35.7 L56.5,11.6 C56.5,11.2 56.2,10.8 55.7,10.8 C55.3,10.8 54.9,11.1 54.9,11.6 L54.9,35.7 L49.3,35.7 L49.3,25.8 C49.3,25.4 49,25 48.5,25 C48.1,25 47.7,25.3 47.7,25.8 L47.7,35.7 L42.1,35.7 L42.1,7.1 C42.1,6.9 42,6.7 41.8,6.5 L34.7,0.6 C34.5,0.4 34.2,0.4 33.9,0.5 C33.6,0.6 33.5,0.9 33.5,1.2 L33.5,35.6 L30,35.6 C27.5,35.6 25.5,37.6 25.5,40.1 L25.5,67.2 L5.1,67.2 C2.8,67.2 0.8,69.1 0.8,71.5 L0.8,126.7 C0.8,127.1 1.1,127.5 1.6,127.5 L26.5,127.5 L63.8,127.5 L88.7,127.5 C89.1,127.5 89.5,127.2 89.5,126.7 L89.5,71.6 C89.4,69.2 87.5,67.3 85.1,67.3 Z M25.7,126 L2.3,126 L2.3,71.6 C2.3,70.1 3.5,68.8 5.1,68.8 L25.7,68.8 L25.7,126 Z M35.2,2.9 L40.8,7.5 L40.8,35.7 L35.2,35.7 L35.2,2.9 Z M63,68.1 L63,126 L27.2,126 L27.2,68.1 L27.2,40.2 C27.2,38.5 28.6,37.2 30.2,37.2 L34.4,37.2 L41.5,37.2 L60,37.2 C61.7,37.2 63,38.6 63,40.2 L63,68.1 Z M87.9,126 L64.5,126 L64.5,68.8 L85.1,68.8 C86.6,68.8 87.9,70 87.9,71.6 L87.9,126 L87.9,126 Z" id="Shape"></path>
                    </g>
                </g>
            </g>
        </g>
    </g>
</svg>