<?xml version="1.0" encoding="UTF-8" standalone="no"?>
<svg width="128px" height="124px" viewBox="0 0 128 124" version="1.1" xmlns="http://www.w3.org/2000/svg" xmlns:xlink="http://www.w3.org/1999/xlink">
    <!-- Generator: Sketch 42 (36781) - http://www.bohemiancoding.com/sketch -->
    <title>Group</title>
    <desc>Created with Sketch.</desc>
    <defs></defs>
    <g id="Symbols" stroke="none" stroke-width="1" fill="none" fill-rule="evenodd">
        <g id="Courseware-Module" transform="translate(-247.000000, -157.000000)" fill-rule="nonzero">
            <g id="Group">
                <g transform="translate(247.000000, 157.000000)">
                    <path d="M105.2,1.9 L116.4,1.9 C116.8,1.9 117.2,1.6 117.2,1.1 C117.2,0.6 116.9,0.3 116.4,0.3 L105.2,0.3 C104.8,0.3 104.4,0.6 104.4,1.1 C104.4,1.6 104.8,1.9 105.2,1.9 Z" id="Shape" fill="#959595"></path>
                    <path d="M97.9,1.9 L101.5,1.9 C101.9,1.9 102.3,1.6 102.3,1.1 C102.3,0.6 102,0.3 101.5,0.3 L97.9,0.3 C97.5,0.3 97.1,0.6 97.1,1.1 C97.1,1.6 97.5,1.9 97.9,1.9 Z" id="Shape" fill="#959595"></path>
                    <path d="M97.9,5.8 L105.7,5.8 C106.1,5.8 106.5,5.5 106.5,5 C106.5,4.6 106.2,4.2 105.7,4.2 L97.9,4.2 C97.5,4.2 97.1,4.5 97.1,5 C97.1,5.5 97.5,5.8 97.9,5.8 Z" id="Shape" fill="#959595"></path>
                    <path d="M112.4,5.1 C112.4,4.7 112.1,4.3 111.6,4.3 L109.1,4.3 C108.7,4.3 108.3,4.6 108.3,5.1 C108.3,5.5 108.6,5.9 109.1,5.9 L111.6,5.9 C112,5.8 112.4,5.5 112.4,5.1 Z" id="Shape" fill="#959595"></path>
                    <path d="M107.7,121.9 L96.5,121.9 C96.1,121.9 95.7,122.2 95.7,122.7 C95.7,123.2 96,123.5 96.5,123.5 L107.7,123.5 C108.1,123.5 108.5,123.2 108.5,122.7 C108.5,122.2 108.1,121.9 107.7,121.9 Z" id="Shape" fill="#959595"></path>
                    <path d="M115,121.9 L111.4,121.9 C111,121.9 110.6,122.2 110.6,122.7 C110.6,123.2 110.9,123.5 111.4,123.5 L115,123.5 C115.4,123.5 115.8,123.2 115.8,122.7 C115.8,122.2 115.4,121.9 115,121.9 Z" id="Shape" fill="#959595"></path>
                    <path d="M115,118.1 L107.2,118.1 C106.8,118.1 106.4,118.4 106.4,118.9 C106.4,119.4 106.7,119.7 107.2,119.7 L115,119.7 C115.4,119.7 115.8,119.4 115.8,118.9 C115.8,118.4 115.4,118.1 115,118.1 Z" id="Shape" fill="#959595"></path>
                    <path d="M103.8,119.6 C104.2,119.6 104.6,119.3 104.6,118.8 C104.6,118.3 104.3,118 103.8,118 L101.3,118 C100.9,118 100.5,118.3 100.5,118.8 C100.5,119.3 100.8,119.6 101.3,119.6 L103.8,119.6 Z" id="Shape" fill="#959595"></path>
                    <path d="M19.4,16.7 C19.8,16.7 20.2,16.4 20.2,15.9 L20.2,6.3 C20.2,5.9 19.9,5.5 19.4,5.5 C19,5.5 18.6,5.8 18.6,6.3 L18.6,15.9 C18.6,16.3 18.9,16.7 19.4,16.7 Z" id="Shape" fill="#959595"></path>
                    <path d="M19.4,22.9 C19.8,22.9 20.2,22.6 20.2,22.1 L20.2,19 C20.2,18.6 19.9,18.2 19.4,18.2 C19,18.2 18.6,18.5 18.6,19 L18.6,22.1 C18.6,22.6 18.9,22.9 19.4,22.9 Z" id="Shape" fill="#959595"></path>
                    <path d="M5.4,99.1 C5,99.1 4.6,99.4 4.6,99.9 L4.6,109.5 C4.6,109.9 4.9,110.3 5.4,110.3 C5.8,110.3 6.2,110 6.2,109.5 L6.2,99.9 C6.2,99.4 5.8,99.1 5.4,99.1 Z" id="Shape" fill="#959595"></path>
                    <path d="M5.4,111.8 C5,111.8 4.6,112.1 4.6,112.6 L4.6,115.7 C4.6,116.1 4.9,116.5 5.4,116.5 C5.8,116.5 6.2,116.2 6.2,115.7 L6.2,112.6 C6.2,112.1 5.8,111.8 5.4,111.8 Z" id="Shape" fill="#959595"></path>
                    <path d="M81.8,4.2 C81.9,4.3 82.1,4.4 82.3,4.4 C82.5,4.4 82.7,4.3 82.8,4.2 C83.1,3.9 83.1,3.4 82.8,3.1 L81.6,1.9 C81.3,1.6 80.8,1.6 80.5,1.9 C80.2,2.2 80.2,2.7 80.5,3 L81.8,4.2 Z" id="Shape" fill="#959595"></path>
                    <path d="M85.8,8.2 C85.9,8.3 86.1,8.4 86.3,8.4 C86.5,8.4 86.7,8.3 86.8,8.2 C87.1,7.9 87.1,7.4 86.8,7.1 L85.6,5.9 C85.3,5.6 84.8,5.6 84.5,5.9 C84.2,6.2 84.2,6.7 84.5,7 L85.8,8.2 Z" id="Shape" fill="#959595"></path>
                    <path d="M81.1,8.4 C81.3,8.4 81.5,8.3 81.6,8.2 L82.8,7 C83.1,6.7 83.1,6.2 82.8,5.9 C82.5,5.6 82,5.6 81.7,5.9 L80.5,7.1 C80.2,7.4 80.2,7.9 80.5,8.2 C80.7,8.4 80.9,8.4 81.1,8.4 Z" id="Shape" fill="#959595"></path>
                    <path d="M85.1,4.4 C85.3,4.4 85.5,4.3 85.6,4.2 L86.8,3 C87.1,2.7 87.1,2.2 86.8,1.9 C86.5,1.6 86,1.6 85.7,1.9 L84.5,3.1 C84.2,3.4 84.2,3.9 84.5,4.2 C84.7,4.3 84.9,4.4 85.1,4.4 Z" id="Shape" fill="#959595"></path>
                    <path d="M122,69.3 C121.7,69 121.2,69 120.9,69.3 C120.6,69.6 120.6,70.1 120.9,70.4 L122.1,71.6 C122.2,71.7 122.4,71.8 122.6,71.8 C122.8,71.8 123,71.7 123.1,71.6 C123.4,71.3 123.4,70.8 123.1,70.5 L122,69.3 Z" id="Shape" fill="#959595"></path>
                    <path d="M126,73.3 C125.7,73 125.2,73 124.9,73.3 C124.6,73.6 124.6,74.1 124.9,74.4 L126.1,75.6 C126.2,75.7 126.4,75.8 126.6,75.8 C126.8,75.8 127,75.7 127.1,75.6 C127.4,75.3 127.4,74.8 127.1,74.5 L126,73.3 Z" id="Shape" fill="#959595"></path>
                    <path d="M122.2,73.3 L121,74.5 C120.7,74.8 120.7,75.3 121,75.6 C121.1,75.7 121.3,75.8 121.5,75.8 C121.7,75.8 121.9,75.7 122,75.6 L123.2,74.4 C123.5,74.1 123.5,73.6 123.2,73.3 C122.9,73 122.5,73 122.2,73.3 Z" id="Shape" fill="#959595"></path>
                    <path d="M125,71.6 C125.1,71.7 125.3,71.8 125.5,71.8 C125.7,71.8 125.9,71.7 126,71.6 L127.2,70.4 C127.5,70.1 127.5,69.6 127.2,69.3 C126.9,69 126.4,69 126.1,69.3 L124.9,70.5 C124.7,70.8 124.7,71.3 125,71.6 Z" id="Shape" fill="#959595"></path>
                    <path d="M29.9,117 C29.6,116.7 29.1,116.7 28.8,117 C28.5,117.3 28.5,117.8 28.8,118.1 L30,119.3 C30.1,119.4 30.3,119.5 30.5,119.5 C30.7,119.5 30.9,119.4 31,119.3 C31.3,119 31.3,118.5 31,118.2 L29.9,117 Z" id="Shape" fill="#959595"></path>
                    <path d="M33.9,121 C33.6,120.7 33.1,120.7 32.8,121 C32.5,121.3 32.5,121.8 32.8,122.1 L34,123.3 C34.1,123.4 34.3,123.5 34.5,123.5 C34.7,123.5 34.9,123.4 35,123.3 C35.3,123 35.3,122.5 35,122.2 L33.9,121 Z" id="Shape" fill="#959595"></path>
                    <path d="M30.1,121 L28.9,122.2 C28.6,122.5 28.6,123 28.9,123.3 C29,123.4 29.2,123.5 29.4,123.5 C29.6,123.5 29.8,123.4 29.9,123.3 L31.1,122.1 C31.4,121.8 31.4,121.3 31.1,121 C30.9,120.7 30.4,120.7 30.1,121 Z" id="Shape" fill="#959595"></path>
                    <path d="M34.1,117 L32.9,118.2 C32.6,118.5 32.6,119 32.9,119.3 C33,119.4 33.2,119.5 33.4,119.5 C33.6,119.5 33.8,119.4 33.9,119.3 L35.1,118.1 C35.4,117.8 35.4,117.3 35.1,117 C34.9,116.7 34.4,116.7 34.1,117 Z" id="Shape" fill="#959595"></path>
                    <path d="M31.5,8.1 C31.6,8.2 31.8,8.3 32,8.3 C32.2,8.3 32.4,8.2 32.5,8.1 C32.8,7.8 32.8,7.3 32.5,7 L31.3,5.8 C31,5.5 30.5,5.5 30.2,5.8 C29.9,6.1 29.9,6.6 30.2,6.9 L31.5,8.1 Z" id="Shape" fill="#959595"></path>
                    <path d="M35.5,12.1 C35.6,12.2 35.8,12.3 36,12.3 C36.2,12.3 36.4,12.2 36.5,12.1 C36.8,11.8 36.8,11.3 36.5,11 L35.3,9.8 C35,9.5 34.5,9.5 34.2,9.8 C33.9,10.1 33.9,10.6 34.2,10.9 L35.5,12.1 Z" id="Shape" fill="#959595"></path>
                    <path d="M30.8,12.4 C31,12.4 31.2,12.3 31.3,12.2 L32.5,11 C32.8,10.7 32.8,10.2 32.5,9.9 C32.2,9.6 31.7,9.6 31.4,9.9 L30.2,11.1 C29.9,11.4 29.9,11.9 30.2,12.2 C30.4,12.3 30.6,12.4 30.8,12.4 Z" id="Shape" fill="#959595"></path>
                    <path d="M34.8,8.3 C35,8.3 35.2,8.2 35.3,8.1 L36.5,6.9 C36.8,6.6 36.8,6.1 36.5,5.8 C36.2,5.5 35.7,5.5 35.4,5.8 L34.3,7 C34,7.3 34,7.8 34.3,8.1 C34.4,8.3 34.6,8.3 34.8,8.3 Z" id="Shape" fill="#959595"></path>
                    <path d="M103.1,19.1 C103.1,21.4 104.9,23.2 107.2,23.2 C109.5,23.2 111.3,21.4 111.3,19.1 C111.3,16.8 109.5,15 107.2,15 C104.9,15 103.1,16.8 103.1,19.1 Z M109.8,19.1 C109.8,20.5 108.6,21.7 107.2,21.7 C105.8,21.7 104.6,20.5 104.6,19.1 C104.6,17.7 105.8,16.5 107.2,16.5 C108.6,16.5 109.8,17.6 109.8,19.1 Z" id="Shape" fill="#959595"></path>
                    <path d="M4.4,78.7 C2.3,78.7 0.5,80.4 0.5,82.6 C0.5,84.7 2.2,86.5 4.4,86.5 C6.5,86.5 8.3,84.8 8.3,82.6 C8.3,80.5 6.5,78.7 4.4,78.7 Z M4.4,85 C3.1,85 2,83.9 2,82.6 C2,81.3 3.1,80.2 4.4,80.2 C5.7,80.2 6.8,81.3 6.8,82.6 C6.8,83.9 5.7,85 4.4,85 Z" id="Shape" fill="#959595"></path>
                    <path d="M125.1,58.8 C125.3,58.8 125.6,58.7 125.7,58.5 C125.8,58.3 125.9,58 125.8,57.8 L115.3,28.6 C115.2,28.3 114.9,28.1 114.6,28.1 L89,28.1 L89,21.1 L91.2,22.8 C91.3,22.9 91.5,23 91.7,23 C91.9,23 92.2,22.9 92.3,22.7 C92.6,22.4 92.5,21.9 92.2,21.6 L64.7,0.6 C64.4,0.4 64.1,0.4 63.8,0.6 L36.3,21.6 C36,21.9 35.9,22.3 36.2,22.7 C36.5,23 36.9,23.1 37.3,22.8 L39.5,21.1 L39.5,28.1 L13.7,28.1 C13.4,28.1 13.1,28.3 13,28.6 L2.5,57.8 C2.4,58 2.5,58.3 2.6,58.5 C2.7,58.7 3,58.8 3.2,58.8 L11.2,58.8 L11.2,113.7 C11.2,114.1 11.5,114.5 12,114.5 L55.6,114.5 L72.9,114.5 L116.5,114.5 C116.9,114.5 117.3,114.2 117.3,113.7 L117.3,58.8 L125.1,58.8 Z M114.1,29.7 L124,57.4 L116.4,57.4 L89,57.4 L89,29.7 L114.1,29.7 Z M64.1,2.1 L87.5,20 L87.5,20.2 L87.5,57.3 L40.8,57.3 L40.8,20.2 L40.8,20 L64.1,2.1 Z M14.2,29.7 L39.3,29.7 L39.3,57.4 L11.9,57.4 L4.3,57.4 L14.2,29.7 Z M56.3,113 L56.3,87.6 C56.3,87 56.8,86.6 57.3,86.6 L71,86.6 C71.6,86.6 72,87.1 72,87.6 L72,113 L56.3,113 Z M115.6,113 L73.5,113 L73.5,87.6 C73.5,86.2 72.4,85.1 71,85.1 L57.3,85.1 C55.9,85.1 54.8,86.2 54.8,87.6 L54.8,113 L12.6,113 L12.6,58.8 L40,58.8 L88.3,58.8 L115.7,58.8 L115.7,113 L115.6,113 Z" id="Shape" fill="#4D4D4D"></path>
                    <path d="M93.5,35 L110.2,35 L116.4,53.4 C116.5,53.7 116.8,53.9 117.1,53.9 L117.3,53.9 C117.7,53.8 117.9,53.3 117.8,52.9 L111.5,33.9 C111.4,33.6 111.1,33.4 110.8,33.4 L93.5,33.4 C93.1,33.4 92.7,33.7 92.7,34.2 C92.7,34.7 93,35 93.5,35 Z" id="Shape" fill="#4D4D4D"></path>
                    <path d="M34.1,35 C34.5,35 34.9,34.7 34.9,34.2 C34.9,33.7 34.6,33.4 34.1,33.4 L16.9,33.4 C16.6,33.4 16.3,33.6 16.2,33.9 L9.9,53 C9.8,53.4 10,53.8 10.4,54 L10.6,54 C10.9,54 11.2,53.8 11.3,53.5 L17.5,35 L34.1,35 Z" id="Shape" fill="#4D4D4D"></path>
                    <path d="M64.1,35.9 C69.7,35.9 74.3,31.3 74.3,25.7 C74.3,20.1 69.7,15.5 64.1,15.5 C58.5,15.5 53.9,20.1 53.9,25.7 C53.9,31.3 58.5,35.9 64.1,35.9 Z M64.1,16.9 C68.9,16.9 72.8,20.8 72.8,25.6 C72.8,30.4 68.9,34.3 64.1,34.3 C59.3,34.3 55.4,30.4 55.4,25.6 C55.4,20.8 59.3,16.9 64.1,16.9 Z" id="Shape" fill="#4D4D4D"></path>
                    <path d="M64.1,26.4 L68.7,26.4 C69.1,26.4 69.5,26.1 69.5,25.6 C69.5,25.2 69.2,24.8 68.7,24.8 L64.9,24.8 L64.9,18.8 C64.9,18.4 64.6,18 64.1,18 C63.7,18 63.3,18.3 63.3,18.8 L63.3,25.6 C63.4,26.1 63.7,26.4 64.1,26.4 Z" id="Shape" fill="#4D4D4D"></path>
                    <path d="M65.5,96.8 C65.1,96.8 64.7,97.1 64.7,97.6 L64.7,101.9 C64.7,102.3 65,102.7 65.5,102.7 C65.9,102.7 66.3,102.4 66.3,101.9 L66.3,97.6 C66.3,97.1 65.9,96.8 65.5,96.8 Z" id="Shape" fill="#4D4D4D"></path>
                    <path d="M62.8,96.8 C62.4,96.8 62,97.1 62,97.6 L62,101.9 C62,102.3 62.3,102.7 62.8,102.7 C63.2,102.7 63.6,102.4 63.6,101.9 L63.6,97.6 C63.5,97.1 63.2,96.8 62.8,96.8 Z" id="Shape" fill="#4D4D4D"></path>
                    <path d="M79.5,85.9 L79.5,95.9 L79.5,105.9 C79.5,106.3 79.8,106.7 80.3,106.7 L94.6,106.7 L108.9,106.7 C109.3,106.7 109.7,106.4 109.7,105.9 L109.7,95.9 L109.7,85.9 C109.7,85.5 109.4,85.1 108.9,85.1 L94.6,85.1 L80.3,85.1 C79.8,85.1 79.5,85.5 79.5,85.9 Z M81,96.7 L93.8,96.7 L93.8,105.2 L81,105.2 L81,96.7 Z M108.2,105.2 L95.3,105.2 L95.3,96.7 L108.1,96.7 L108.1,105.2 L108.2,105.2 Z M108.2,95.2 L95.3,95.2 L95.3,86.7 L108.1,86.7 L108.1,95.2 L108.2,95.2 Z M81,86.7 L93.8,86.7 L93.8,95.2 L81,95.2 L81,86.7 Z" id="Shape" fill="#4D4D4D"></path>
                    <path d="M48,85.1 L33.7,85.1 L19.4,85.1 C19,85.1 18.6,85.4 18.6,85.9 L18.6,95.9 L18.6,105.9 C18.6,106.3 18.9,106.7 19.4,106.7 L33.7,106.7 L48,106.7 C48.4,106.7 48.8,106.4 48.8,105.9 L48.8,95.9 L48.8,85.9 C48.8,85.5 48.4,85.1 48,85.1 Z M47.3,95.2 L34.4,95.2 L34.4,86.7 L47.2,86.7 L47.2,95.2 L47.3,95.2 Z M20.1,86.7 L32.9,86.7 L32.9,95.2 L20.1,95.2 L20.1,86.7 Z M20.1,96.7 L32.9,96.7 L32.9,105.2 L20.1,105.2 L20.1,96.7 Z M47.3,105.2 L34.4,105.2 L34.4,96.7 L47.2,96.7 L47.2,105.2 L47.3,105.2 Z" id="Shape" fill="#4D4D4D"></path>
                    <path d="M97.6,81.6 L108.9,81.6 C109.3,81.6 109.7,81.3 109.7,80.8 L109.7,69.3 C109.7,66 107,63.3 103.7,63.3 L102.9,63.3 C99.6,63.3 96.9,66 96.9,69.3 L96.9,80.8 C96.9,81.2 97.2,81.6 97.6,81.6 Z M98.4,75.3 L102.5,75.3 L102.5,80 L98.4,80 L98.4,75.3 Z M104,80 L104,75.3 L108.1,75.3 L108.1,80 L104,80 Z M108.2,69.3 L108.2,73.8 L104,73.8 L104,64.8 C106.3,65 108.2,67 108.2,69.3 Z M102.5,64.9 L102.5,73.9 L98.4,73.9 L98.4,69.4 C98.4,67 100.2,65 102.5,64.9 Z" id="Shape" fill="#4D4D4D"></path>
                    <path d="M83.3,63.3 C80,63.3 77.3,66 77.3,69.3 L77.3,80.8 C77.3,81.2 77.6,81.6 78.1,81.6 L89.4,81.6 C89.8,81.6 90.2,81.3 90.2,80.8 L90.2,69.3 C90.2,66 87.5,63.3 84.2,63.3 L83.3,63.3 Z M83,64.9 L83,73.9 L78.9,73.9 L78.9,69.4 C78.8,67 80.7,65 83,64.9 Z M78.8,75.3 L83,75.3 L83,80 L78.9,80 L78.9,75.3 L78.8,75.3 Z M84.5,80 L84.5,75.3 L88.6,75.3 L88.6,80 L84.5,80 Z M88.6,69.3 L88.6,73.8 L84.5,73.8 L84.5,64.8 C86.8,65 88.6,67 88.6,69.3 Z" id="Shape" fill="#4D4D4D"></path>
                    <path d="M64.5,63.3 L63.7,63.3 C60.4,63.3 57.7,66 57.7,69.3 L57.7,80.8 C57.7,81.2 58,81.6 58.5,81.6 L69.8,81.6 C70.2,81.6 70.6,81.3 70.6,80.8 L70.6,69.3 C70.5,66 67.8,63.3 64.5,63.3 Z M63.4,64.9 L63.4,73.9 L59.3,73.9 L59.3,69.4 C59.3,67 61.1,65 63.4,64.9 Z M59.3,75.3 L63.4,75.3 L63.4,80 L59.3,80 L59.3,75.3 Z M64.9,80 L64.9,75.3 L69,75.3 L69,80 L64.9,80 Z M69,73.8 L64.9,73.8 L64.9,64.8 C67.2,65 69,67 69,69.3 L69,73.8 Z" id="Shape" fill="#4D4D4D"></path>
                    <path d="M45,63.3 L44.2,63.3 C40.9,63.3 38.2,66 38.2,69.3 L38.2,80.8 C38.2,81.2 38.5,81.6 39,81.6 L50.3,81.6 C50.7,81.6 51.1,81.3 51.1,80.8 L51.1,69.3 C50.9,66 48.3,63.3 45,63.3 Z M43.8,64.9 L43.8,73.9 L39.7,73.9 L39.7,69.4 C39.7,67 41.5,65 43.8,64.9 Z M39.7,75.3 L43.8,75.3 L43.8,80 L39.7,80 L39.7,75.3 Z M45.3,80 L45.3,75.3 L49.4,75.3 L49.4,80 L45.3,80 Z M49.4,73.8 L45.3,73.8 L45.3,64.8 C47.6,65 49.4,66.9 49.4,69.2 L49.4,73.8 Z" id="Shape" fill="#4D4D4D"></path>
                    <path d="M19.4,81.6 L30.7,81.6 C31.1,81.6 31.5,81.3 31.5,80.8 L31.5,69.3 C31.5,66 28.8,63.3 25.5,63.3 L24.7,63.3 C21.4,63.3 18.7,66 18.7,69.3 L18.7,80.8 C18.6,81.2 18.9,81.6 19.4,81.6 Z M20.1,75.3 L24.2,75.3 L24.2,80 L20.1,80 L20.1,75.3 Z M25.7,80 L25.7,75.3 L29.8,75.3 L29.8,80 L25.7,80 Z M29.9,69.3 L29.9,73.8 L25.8,73.8 L25.8,64.8 C28,65 29.9,67 29.9,69.3 Z M24.2,64.9 L24.2,73.9 L20.1,73.9 L20.1,69.4 C20.1,67 21.9,65 24.2,64.9 Z" id="Shape" fill="#4D4D4D"></path>
                    <path d="M109.7,52.5 L93.5,52.5 C93.1,52.5 92.7,52.8 92.7,53.3 C92.7,53.8 93,54 93.5,54 L109.8,54 C110.2,54 110.6,53.7 110.6,53.2 C110.6,52.7 110.2,52.5 109.7,52.5 Z" id="Shape" fill="#4D4D4D"></path>
                    <path d="M93.5,48.6 L107.2,48.6 C107.6,48.6 108,48.3 108,47.8 C108,47.4 107.7,47 107.2,47 L93.5,47 C93.1,47 92.7,47.3 92.7,47.8 C92.7,48.2 93,48.6 93.5,48.6 Z" id="Shape" fill="#4D4D4D"></path>
                    <path d="M34.1,52.5 L17.8,52.5 C17.4,52.5 17,52.8 17,53.3 C17,53.8 17.3,54.1 17.8,54.1 L34.1,54.1 C34.5,54.1 34.9,53.8 34.9,53.3 C34.9,52.8 34.5,52.5 34.1,52.5 Z" id="Shape" fill="#4D4D4D"></path>
                    <path d="M34.1,47.1 L20.4,47.1 C20,47.1 19.6,47.4 19.6,47.9 C19.6,48.3 19.9,48.7 20.4,48.7 L34.1,48.7 C34.5,48.7 34.9,48.4 34.9,47.9 C34.9,47.4 34.5,47.1 34.1,47.1 Z" id="Shape" fill="#4D4D4D"></path>
                    <path d="M50.3,50.7 L77.9,50.7 C79.6,50.7 81,49.3 81,47.6 L81,47.2 C81,45.5 79.6,44.1 77.9,44.1 L50.3,44.1 C48.6,44.1 47.2,45.5 47.2,47.2 L47.2,47.6 C47.3,49.4 48.6,50.7 50.3,50.7 Z M48.8,47.3 C48.8,46.4 49.5,45.7 50.4,45.7 L78,45.7 C78.9,45.7 79.6,46.4 79.6,47.3 L79.6,47.7 C79.6,48.6 78.9,49.3 78,49.3 L50.3,49.3 C49.4,49.3 48.7,48.6 48.7,47.7 L48.7,47.3 L48.8,47.3 Z" id="Shape" fill="#4D4D4D"></path>
                </g>
            </g>
        </g>
    </g>
</svg>