<?xml version="1.0" encoding="UTF-8" standalone="no"?>
<svg width="128px" height="117px" viewBox="0 0 128 117" version="1.1" xmlns="http://www.w3.org/2000/svg" xmlns:xlink="http://www.w3.org/1999/xlink">
    <!-- Generator: Sketch 42 (36781) - http://www.bohemiancoding.com/sketch -->
    <title>Group</title>
    <desc>Created with Sketch.</desc>
    <defs></defs>
    <g id="Symbols" stroke="none" stroke-width="1" fill="none" fill-rule="evenodd">
        <g id="Courseware-Module" transform="translate(-246.000000, -1688.000000)" fill-rule="nonzero">
            <g id="Group">
                <g transform="translate(246.000000, 1688.000000)">
                    <path d="M111.4,75.3 C111.8,75.3 112.2,75 112.2,74.5 L112.2,64 C112.2,63.6 111.9,63.2 111.4,63.2 C111,63.2 110.6,63.5 110.6,64 L110.6,74.6 C110.7,75 111,75.3 111.4,75.3 Z" id="Shape" fill="#959595"></path>
                    <path d="M110.7,81.5 C110.7,81.9 111,82.3 111.5,82.3 C111.9,82.3 112.3,82 112.3,81.5 L112.3,78.1 C112.3,77.7 112,77.3 111.5,77.3 C111.1,77.3 110.7,77.6 110.7,78.1 L110.7,81.5 Z" id="Shape" fill="#959595"></path>
                    <path d="M49.6,14.7 C50,14.7 50.4,14.4 50.4,13.9 L50.4,3.3 C50.4,2.9 50.1,2.5 49.6,2.5 C49.2,2.5 48.8,2.8 48.8,3.3 L48.8,14 C48.9,14.4 49.2,14.7 49.6,14.7 Z" id="Shape" fill="#959595"></path>
                    <path d="M49.6,21.6 C50,21.6 50.4,21.3 50.4,20.8 L50.4,17.4 C50.4,17 50.1,16.6 49.6,16.6 C49.2,16.6 48.8,16.9 48.8,17.4 L48.8,20.8 C48.9,21.3 49.2,21.6 49.6,21.6 Z" id="Shape" fill="#959595"></path>
                    <path d="M64.4,24.6 C64.5,24.7 64.7,24.8 64.9,24.8 C65.1,24.8 65.3,24.7 65.4,24.6 C65.7,24.3 65.7,23.8 65.4,23.5 L63.9,22 C63.6,21.7 63.1,21.7 62.8,22 C62.5,22.3 62.5,22.8 62.8,23.1 L64.4,24.6 Z" id="Shape" fill="#959595"></path>
                    <path d="M69,27 C68.7,26.7 68.2,26.7 67.9,27 C67.6,27.3 67.6,27.8 67.9,28.1 L69.5,29.7 C69.6,29.8 69.8,29.9 70,29.9 C70.2,29.9 70.4,29.8 70.5,29.7 C70.8,29.4 70.8,28.9 70.5,28.6 L69,27 Z" id="Shape" fill="#959595"></path>
                    <path d="M63.4,29.9 C63.6,29.9 63.8,29.8 63.9,29.7 L65.5,28.1 C65.8,27.8 65.8,27.3 65.5,27 C65.2,26.7 64.7,26.7 64.4,27 L62.8,28.6 C62.5,28.9 62.5,29.4 62.8,29.7 C63,29.8 63.2,29.9 63.4,29.9 Z" id="Shape" fill="#959595"></path>
                    <path d="M70.6,22 C70.3,21.7 69.8,21.7 69.5,22 L67.9,23.6 C67.6,23.9 67.6,24.4 67.9,24.7 C68,24.8 68.2,24.9 68.4,24.9 C68.6,24.9 68.8,24.8 68.9,24.7 L70.5,23.1 C70.9,22.7 70.9,22.3 70.6,22 Z" id="Shape" fill="#959595"></path>
                    <path d="M114.8,44.8 L113.2,43.2 C112.9,42.9 112.4,42.9 112.1,43.2 C111.8,43.5 111.8,44 112.1,44.3 L113.7,45.9 C113.8,46 114,46.1 114.2,46.1 C114.4,46.1 114.6,46 114.7,45.9 C115.1,45.6 115.1,45.1 114.8,44.8 Z" id="Shape" fill="#959595"></path>
                    <path d="M117.2,49.4 L118.8,51 C118.9,51.1 119.1,51.2 119.3,51.2 C119.5,51.2 119.7,51.1 119.8,51 C120.1,50.7 120.1,50.2 119.8,49.9 L118.2,48.3 C117.9,48 117.4,48 117.1,48.3 C116.9,48.6 116.9,49.1 117.2,49.4 Z" id="Shape" fill="#959595"></path>
                    <path d="M114.8,48.3 C114.5,48 114,48 113.7,48.3 L112.1,49.9 C111.8,50.2 111.8,50.7 112.1,51 C112.2,51.1 112.4,51.2 112.6,51.2 C112.8,51.2 113,51.1 113.1,51 L114.7,49.4 C115.1,49.1 115.1,48.6 114.8,48.3 Z" id="Shape" fill="#959595"></path>
                    <path d="M117.7,46.1 C117.9,46.1 118.1,46 118.2,45.9 L119.8,44.3 C120.1,44 120.1,43.5 119.8,43.2 C119.5,42.9 119,42.9 118.7,43.2 L117.1,44.8 C116.8,45.1 116.8,45.6 117.1,45.9 C117.4,46 117.5,46.1 117.7,46.1 Z" id="Shape" fill="#959595"></path>
                    <path d="M1.8,52.9 C1.5,52.6 1,52.6 0.7,52.9 C0.4,53.2 0.4,53.7 0.7,54 L2.3,55.6 C2.4,55.7 2.6,55.8 2.8,55.8 C3,55.8 3.2,55.7 3.3,55.6 C3.6,55.3 3.6,54.8 3.3,54.5 L1.8,52.9 Z" id="Shape" fill="#959595"></path>
                    <path d="M6.8,57.9 C6.5,57.6 6,57.6 5.7,57.9 C5.4,58.2 5.4,58.7 5.7,59 L7.3,60.6 C7.4,60.7 7.6,60.8 7.8,60.8 C8,60.8 8.2,60.7 8.3,60.6 C8.6,60.3 8.6,59.8 8.3,59.5 L6.8,57.9 Z" id="Shape" fill="#959595"></path>
                    <path d="M2.3,57.9 L0.7,59.5 C0.4,59.8 0.4,60.3 0.7,60.6 C0.8,60.7 1,60.8 1.2,60.8 C1.4,60.8 1.6,60.7 1.7,60.6 L3.3,59 C3.6,58.7 3.6,58.2 3.3,57.9 C3.1,57.6 2.6,57.6 2.3,57.9 Z" id="Shape" fill="#959595"></path>
                    <path d="M8.4,52.9 C8.1,52.6 7.6,52.6 7.3,52.9 L5.7,54.5 C5.4,54.8 5.4,55.3 5.7,55.6 C5.8,55.7 6,55.8 6.2,55.8 C6.4,55.8 6.6,55.7 6.7,55.6 L8.3,54 C8.7,53.6 8.7,53.2 8.4,52.9 Z" id="Shape" fill="#959595"></path>
                    <path d="M92.8,106.4 C92.5,106.1 92,106.1 91.7,106.4 C91.4,106.7 91.4,107.2 91.7,107.5 L93.3,109.1 C93.4,109.2 93.6,109.3 93.8,109.3 C94,109.3 94.2,109.2 94.3,109.1 C94.6,108.8 94.6,108.3 94.3,108 L92.8,106.4 Z" id="Shape" fill="#959595"></path>
                    <path d="M97.9,111.4 C97.6,111.1 97.1,111.1 96.8,111.4 C96.5,111.7 96.5,112.2 96.8,112.5 L98.4,114.1 C98.5,114.2 98.7,114.3 98.9,114.3 C99.1,114.3 99.3,114.2 99.4,114.1 C99.7,113.8 99.7,113.3 99.4,113 L97.9,111.4 Z" id="Shape" fill="#959595"></path>
                    <path d="M93.3,111.4 L91.7,113 C91.4,113.3 91.4,113.8 91.7,114.1 C91.8,114.2 92,114.3 92.2,114.3 C92.4,114.3 92.6,114.2 92.7,114.1 L94.3,112.5 C94.6,112.2 94.6,111.7 94.3,111.4 C94.1,111.1 93.6,111.1 93.3,111.4 Z" id="Shape" fill="#959595"></path>
                    <path d="M98.4,106.4 L96.8,108 C96.5,108.3 96.5,108.8 96.8,109.1 C96.9,109.2 97.1,109.3 97.3,109.3 C97.5,109.3 97.7,109.2 97.8,109.1 L99.4,107.5 C99.7,107.2 99.7,106.7 99.4,106.4 C99.1,106.1 98.7,106.1 98.4,106.4 Z" id="Shape" fill="#959595"></path>
                    <path d="M100.3,55.6 C98.2,55.6 96.5,57.3 96.5,59.4 C96.5,61.5 98.2,63.2 100.3,63.2 C102.4,63.2 104.1,61.5 104.1,59.4 C104.1,57.3 102.4,55.6 100.3,55.6 Z M100.3,61.8 C99,61.8 98,60.8 98,59.5 C98,58.2 99,57.2 100.3,57.2 C101.6,57.2 102.6,58.2 102.6,59.5 C102.6,60.7 101.6,61.8 100.3,61.8 Z" id="Shape" fill="#959595"></path>
                    <path d="M8.5,100.6 C6.4,100.6 4.7,102.3 4.7,104.4 C4.7,106.5 6.4,108.2 8.5,108.2 C10.6,108.2 12.3,106.5 12.3,104.4 C12.3,102.4 10.6,100.6 8.5,100.6 Z M8.5,106.8 C7.2,106.8 6.2,105.8 6.2,104.5 C6.2,103.2 7.2,102.2 8.5,102.2 C9.8,102.2 10.8,103.2 10.8,104.5 C10.8,105.7 9.8,106.8 8.5,106.8 Z" id="Shape" fill="#959595"></path>
                    <path d="M75.4,5.6 L88.7,5.6 C89.1,5.6 89.5,5.3 89.5,4.8 C89.5,4.3 89.2,4 88.7,4 L75.4,4 C75,4 74.6,4.3 74.6,4.8 C74.6,5.3 75,5.6 75.4,5.6 Z" id="Shape" fill="#959595"></path>
                    <path d="M66.7,5.6 L71,5.6 C71.4,5.6 71.8,5.3 71.8,4.8 C71.8,4.3 71.5,4 71,4 L66.7,4 C66.3,4 65.9,4.3 65.9,4.8 C65.9,5.3 66.3,5.6 66.7,5.6 Z" id="Shape" fill="#959595"></path>
                    <path d="M66.7,10.2 L76,10.2 C76.4,10.2 76.8,9.9 76.8,9.4 C76.8,8.9 76.5,8.6 76,8.6 L66.7,8.6 C66.3,8.6 65.9,8.9 65.9,9.4 C65.9,9.9 66.3,10.2 66.7,10.2 Z" id="Shape" fill="#959595"></path>
                    <path d="M80,8.7 C79.6,8.7 79.2,9 79.2,9.5 C79.2,10 79.5,10.3 80,10.3 L83,10.3 C83.4,10.3 83.8,10 83.8,9.5 C83.8,9 83.5,8.7 83,8.7 L80,8.7 Z" id="Shape" fill="#959595"></path>
                    <path d="M118.1,98.5 L104.8,98.5 C104.4,98.5 104,98.8 104,99.3 C104,99.7 104.3,100.1 104.8,100.1 L118.1,100.1 C118.5,100.1 118.9,99.8 118.9,99.3 C118.8,98.8 118.5,98.5 118.1,98.5 Z" id="Shape" fill="#959595"></path>
                    <path d="M126.7,98.5 L122.4,98.5 C122,98.5 121.6,98.8 121.6,99.3 C121.6,99.7 121.9,100.1 122.4,100.1 L126.7,100.1 C127.1,100.1 127.5,99.8 127.5,99.3 C127.5,98.8 127.2,98.5 126.7,98.5 Z" id="Shape" fill="#959595"></path>
                    <path d="M116.7,94.7 C116.7,95.1 117,95.5 117.5,95.5 L126.8,95.5 C127.2,95.5 127.6,95.2 127.6,94.7 C127.6,94.2 127.3,93.9 126.8,93.9 L117.5,93.9 C117,93.9 116.7,94.3 116.7,94.7 Z" id="Shape" fill="#959595"></path>
                    <path d="M109.7,94.7 C109.7,95.1 110,95.5 110.5,95.5 L113.5,95.5 C113.9,95.5 114.3,95.2 114.3,94.7 C114.3,94.2 114,93.9 113.5,93.9 L110.5,93.9 C110.1,93.9 109.7,94.3 109.7,94.7 Z" id="Shape" fill="#959595"></path>
                    <path d="M84.4,54 C84.2,53.7 83.7,53.6 83.4,53.8 C83.1,54 83,54.5 83.2,54.8 C84.6,56.9 85.9,59.2 86.8,61.6 C88.7,66.2 89.6,71.1 89.7,76 C89.7,81.1 88.7,86.2 86.7,90.9 L86.6,91.1 C86.5,91.2 86.5,91.4 86.4,91.5 L86.4,91.5 L86.4,91.5 C85.8,92.9 85.1,94.2 84.4,95.4 C82.9,98.1 81,100.6 78.8,102.8 C78.6,103 78.4,103.3 78.1,103.5 C77.3,104.3 76.5,105 75.7,105.7 C72.7,108.2 69.4,110.1 65.9,111.6 C61.3,113.5 56.5,114.4 51.5,114.5 C46.4,114.5 41.4,113.5 36.6,111.5 C31.8,109.5 27.6,106.6 24,103 C20.5,99.5 17.8,95.3 15.9,90.7 C14,86 13,81.2 13,76.2 C13,71.1 14,66.1 16,61.3 C17.5,57.8 19.4,54.6 21.8,51.8 C22.6,50.7 23.6,49.7 24.6,48.7 C26.8,46.5 29.3,44.6 32,43.1 C33.2,42.4 34.6,41.7 35.9,41.1 L35.9,41.1 L35.9,41.1 C36.2,41 36.5,40.8 36.8,40.7 C41.4,38.8 46.3,37.9 51.2,37.9 C56.3,37.9 61.3,38.9 66.1,40.9 C70.7,42.8 74.8,45.6 78.4,49.1 L71.9,55.6 C69.2,52.9 66.1,50.8 62.6,49.4 C59,47.9 55.2,47.1 51.3,47.1 C48.8,47.1 46.3,47.5 43.8,48.1 L43.8,48.1 L43.8,48.1 L43.8,48.1 L43.8,48.1 C42.7,48.4 41.6,48.8 40.3,49.3 C39.9,49.5 39.6,49.6 39.2,49.8 C36.2,51.2 33.5,53 31.1,55.3 L31,55.4 C30,56.4 29,57.5 28.2,58.6 C26.7,60.6 25.5,62.7 24.5,65 C23,68.6 22.2,72.4 22.2,76.3 C22.2,80.1 22.9,83.8 24.4,87.2 C25.8,90.7 27.9,93.8 30.5,96.5 C33.2,99.3 36.4,101.5 40,103 C43.6,104.5 47.3,105.3 51.2,105.3 L51.3,105.3 C55.1,105.3 58.7,104.6 62.2,103.1 C64.6,102.1 66.8,100.8 68.8,99.3 C69.7,98.6 70.6,97.9 71.5,97 C71.7,96.8 71.9,96.6 72.1,96.4 C74.4,94.1 76.2,91.3 77.6,88.3 C77.7,88 77.9,87.7 78,87.4 C78.5,86.2 78.9,84.9 79.3,83.7 L79.3,83.7 C80,81.2 80.3,78.6 80.3,76.1 C80.3,72.3 79.6,68.7 78.1,65.2 C77.8,64.5 77.5,63.9 77.2,63.3 C76.9,62.8 76.6,62.2 76.3,61.7 L76,61.8 L75.1,62.3 C75.4,62.8 75.7,63.3 75.9,63.8 C76.2,64.4 76.5,65 76.7,65.6 C78.1,68.9 78.7,72.4 78.8,76 C78.8,78.4 78.5,80.9 77.8,83.2 L77.8,83.2 L77.8,83.2 C77.5,84.4 77.1,85.6 76.6,86.7 C76.5,87 76.4,87.2 76.2,87.5 C74.9,90.4 73.1,92.9 71,95.2 C70.8,95.4 70.6,95.6 70.4,95.8 C69.5,96.6 68.7,97.3 67.8,98 C65.9,99.5 63.8,100.7 61.5,101.6 C58.2,103 54.7,103.6 51.1,103.7 C47.4,103.7 43.8,103 40.4,101.5 C37,100.1 33.9,98 31.3,95.3 C28.8,92.8 26.9,89.8 25.5,86.5 C24.1,83.2 23.4,79.7 23.4,76.1 C23.4,72.4 24.1,68.8 25.6,65.4 C26.5,63.2 27.7,61.2 29.1,59.3 C29.9,58.2 30.8,57.2 31.8,56.3 L31.9,56.2 C34.1,54 36.7,52.3 39.6,51 C39.9,50.8 40.3,50.7 40.6,50.5 C41.7,50 42.8,49.7 43.9,49.4 L43.9,49.4 L43.9,49.4 C46.2,48.8 48.6,48.5 51,48.4 C54.7,48.4 58.3,49.1 61.7,50.6 C65,52 68,54 70.5,56.5 L64.6,62.4 C62.8,60.6 60.8,59.2 58.4,58.3 C56.5,57.5 54.5,57 52.5,56.9 L52.5,56.9 C52,56.9 51.5,56.8 50.8,56.8 L50.8,56.8 C49.3,56.8 47.9,57 46.6,57.3 C45.6,57.5 44.6,57.8 43.6,58.2 C41.4,59.1 39.4,60.4 37.6,62.1 L37.4,62.3 C36.4,63.3 35.5,64.4 34.8,65.5 C34.2,66.5 33.6,67.5 33.2,68.6 C32.2,71 31.7,73.5 31.7,76.1 C31.7,78.6 32.2,81 33.1,83.3 C34,85.6 35.4,87.7 37.1,89.5 C38.9,91.3 41,92.8 43.4,93.8 C45.8,94.8 48.3,95.3 50.8,95.3 C53.3,95.3 55.8,94.8 58.1,93.9 C59.2,93.4 60.3,92.9 61.3,92.2 C61.3,92.2 61.4,92.2 61.4,92.1 C62.5,91.4 63.4,90.6 64.3,89.8 L64.8,89.3 C66.4,87.6 67.7,85.7 68.6,83.5 C69,82.5 69.4,81.4 69.6,80.3 C69.9,78.9 70.1,77.4 70.1,76 C70.1,75.5 70.1,75 70,74.5 L70,74.5 L70,74.5 C69.8,72.5 69.4,70.6 68.6,68.8 C68.4,68.4 68,68.2 67.6,68.4 C67.2,68.6 67,69 67.2,69.4 C67.9,71 68.3,72.8 68.5,74.7 C68.5,75.2 68.6,75.6 68.6,76.1 C68.6,77.4 68.4,78.8 68.1,80.1 C67.9,81.1 67.6,82.1 67.2,83 C66.4,85 65.2,86.8 63.7,88.4 C63.6,88.6 63.4,88.7 63.2,88.9 C62.4,89.7 61.5,90.4 60.6,91 L60.5,91 C59.6,91.6 58.6,92.1 57.5,92.6 C55.3,93.5 53,93.9 50.7,93.9 C48.4,93.9 46.1,93.4 43.9,92.5 C41.7,91.6 39.7,90.2 38.1,88.5 C36.5,86.8 35.2,84.9 34.4,82.8 C33.5,80.6 33.1,78.4 33.1,76.1 C33.1,73.7 33.6,71.4 34.5,69.2 C34.9,68.2 35.4,67.2 36,66.3 C36.7,65.3 37.5,64.3 38.4,63.3 L38.6,63.1 C40.2,61.6 42,60.4 44.1,59.6 C45,59.2 45.9,58.9 46.9,58.7 C48.1,58.4 49.4,58.3 50.8,58.2 C51.4,58.2 51.9,58.2 52.3,58.3 L52.3,58.3 L52.3,58.3 C54.1,58.4 55.9,58.9 57.7,59.6 C59.8,60.5 61.7,61.8 63.4,63.4 L56.2,70.6 C55.2,69.7 53.9,69.1 52.6,68.8 L52.6,68.8 C48.5,67.9 44.5,70.1 43,73.9 C42.6,74.9 42.4,75.9 42.4,77 C42.4,81.6 46.2,85.4 50.8,85.4 C51.9,85.4 52.9,85.2 53.9,84.8 L53.9,84.8 L53.9,84.8 L53.9,84.8 L53.9,84.8 C56.5,83.8 58.4,81.5 59,78.7 C59.1,78.3 58.8,77.9 58.4,77.8 C58,77.7 57.6,78 57.5,78.4 C57,80.7 55.5,82.6 53.3,83.4 L53.3,83.4 L53.3,83.4 C52.5,83.7 51.6,83.9 50.8,83.9 C47,83.9 43.9,80.8 43.9,77 C43.9,76.1 44.1,75.3 44.4,74.5 C45.6,71.4 48.9,69.6 52.3,70.3 L52.3,70.3 L52.3,70.3 C53.3,70.5 54.3,71 55.1,71.7 L50.3,76.5 C50,76.8 50,77.3 50.3,77.6 C50.4,77.7 50.6,77.8 50.8,77.8 C51,77.8 51.2,77.7 51.3,77.6 L92.5,37 L102.6,39 L102.7,39 C102.9,39 103.1,38.9 103.2,38.8 L119.7,22.3 C119.9,22.1 120,21.8 119.9,21.5 C119.8,21.2 119.6,21 119.3,21 L109.3,19 L107.3,9 C107.2,8.7 107,8.5 106.8,8.4 C106.5,8.3 106.2,8.4 106,8.6 L89.7,25.2 C89.5,25.4 89.4,25.6 89.5,25.9 L91.5,36 L79.5,48 C75.8,44.3 71.5,41.5 66.8,39.4 C61.8,37.3 56.6,36.3 51.3,36.3 C46.2,36.3 41.1,37.3 36.3,39.3 C36,39.4 35.6,39.6 35.3,39.7 L35.3,39.7 L35.3,39.7 L35.3,39.7 L35.3,39.7 C33.9,40.3 32.5,41 31.2,41.8 C28.4,43.4 25.9,45.4 23.5,47.7 C22.4,48.7 21.5,49.8 20.6,50.9 C18.2,53.8 16.2,57.2 14.6,60.8 C12.5,65.8 11.5,71 11.5,76.3 C11.5,81.4 12.5,86.5 14.5,91.3 C16.5,96.1 19.3,100.4 22.9,104.1 C26.6,107.9 31,110.9 36,113 C40.9,115.1 46.1,116.1 51.4,116.1 L51.5,116.1 C56.7,116.1 61.7,115.1 66.5,113.1 C70.2,111.6 73.6,109.5 76.7,107 C77.6,106.3 78.4,105.6 79.2,104.7 C79.4,104.5 79.7,104.2 79.9,104 C82.2,101.7 84.1,99.1 85.7,96.4 C86.4,95.2 87.1,93.8 87.8,92.3 L87.8,92.3 L87.8,92.3 L87.8,92.3 L87.8,92.3 C87.9,92.1 87.9,92 88,91.8 L88.1,91.6 C90.2,86.7 91.2,81.4 91.2,76.1 C91.2,71 90.2,65.9 88.2,61.1 C87.2,58.6 85.9,56.2 84.4,54 Z M106.3,10.7 L108.1,19.8 C108.2,20.1 108.4,20.3 108.7,20.4 L117.8,22.2 L102.5,37.5 L92.9,35.6 L91,26 L106.3,10.7 Z" id="Shape" fill="#4D4D4D"></path>
                    <polygon id="Shape" fill="#4D4D4D" points="75.8 62 76 61.8 76.5 61.6"></polygon>
                    <path d="M15.8,33.7 L14.7,37.8 C14.6,38.2 14.8,38.6 15.2,38.7 L15.4,38.7 C15.7,38.7 16,38.5 16.1,38.1 L17.1,34 C18.1,34.2 19.1,34.3 20,34.3 C22.5,34.3 24.9,33.7 27,32.6 L29.2,36.3 C29.3,36.5 29.6,36.7 29.8,36.7 C29.9,36.7 30.1,36.7 30.2,36.6 C30.6,36.4 30.7,35.9 30.5,35.6 L28.3,31.9 C31.1,30 33.3,27.3 34.3,23.9 L38.4,25 L38.6,25 C38.9,25 39.2,24.8 39.3,24.4 C39.4,24 39.2,23.6 38.8,23.5 L34.7,22.4 C35.4,19 34.9,15.5 33.3,12.5 L37,10.3 C37.4,10.1 37.5,9.6 37.3,9.3 C37.1,8.9 36.6,8.8 36.3,9 L32.6,11.2 C30.7,8.3 27.9,6.2 24.6,5.2 L25.7,1 C25.8,0.6 25.6,0.2 25.2,0.1 C24.8,1.4560575e-13 24.4,0.2 24.3,0.6 L23.2,4.7 C19.7,4 16.2,4.6 13.3,6.1 L11,2.5 C10.8,2.1 10.3,2 10,2.2 C9.6,2.4 9.5,2.9 9.7,3.2 L11.9,6.9 C9.1,8.8 6.9,11.5 5.9,14.9 L1.8,13.8 C1.4,13.7 1,13.9 0.9,14.3 C0.8,14.7 1,15.1 1.4,15.2 L5.5,16.3 C4.8,19.8 5.4,23.3 6.9,26.2 L3.2,28.4 C2.8,28.6 2.7,29.1 2.9,29.4 C3,29.6 3.3,29.8 3.5,29.8 C3.6,29.8 3.8,29.8 3.9,29.7 L7.6,27.5 C9.6,30.4 12.4,32.6 15.8,33.7 Z M7.2,16.1 C8.7,10 14.2,6 20.2,6 C21.3,6 22.4,6.1 23.5,6.4 C27,7.3 29.9,9.5 31.7,12.6 C33.5,15.7 34.1,19.3 33.2,22.8 C31.4,30 24,34.4 16.9,32.5 C9.7,30.6 5.3,23.3 7.2,16.1 Z" id="Shape" fill="#4D4D4D"></path>
                    <path d="M18.1,27.7 C18.8,27.9 19.5,28 20.2,28 C21.7,28 23.2,27.6 24.6,26.8 C26.6,25.6 28,23.7 28.5,21.5 C29.7,16.9 26.9,12.2 22.3,11 C20.1,10.4 17.8,10.8 15.8,11.9 C13.8,13.1 12.4,15 11.9,17.2 C11.3,19.4 11.7,21.7 12.8,23.7 C14,25.8 15.8,27.2 18.1,27.7 Z M13.3,17.6 C13.8,15.8 14.9,14.2 16.6,13.2 C17.7,12.5 19,12.2 20.2,12.2 C20.8,12.2 21.4,12.3 22,12.4 C25.8,13.4 28.1,17.2 27.1,21 C26.6,22.8 25.5,24.4 23.8,25.4 C22.2,26.4 20.3,26.6 18.4,26.2 C16.6,25.7 15,24.6 14,22.9 C13.1,21.4 12.8,19.5 13.3,17.6 Z" id="Shape" fill="#4D4D4D"></path>
                </g>
            </g>
        </g>
    </g>
</svg>