<?xml version="1.0" encoding="UTF-8" standalone="no"?>
<svg width="128px" height="114px" viewBox="0 0 128 114" version="1.1" xmlns="http://www.w3.org/2000/svg" xmlns:xlink="http://www.w3.org/1999/xlink">
    <!-- Generator: Sketch 42 (36781) - http://www.bohemiancoding.com/sketch -->
    <title>Group</title>
    <desc>Created with Sketch.</desc>
    <defs></defs>
    <g id="Symbols" stroke="none" stroke-width="1" fill="none" fill-rule="evenodd">
        <g id="Courseware-Module" transform="translate(-914.000000, -549.000000)" fill-rule="nonzero">
            <g id="Group">
                <g transform="translate(914.000000, 549.000000)">
                    <path d="M110.2,5.6 C110.3,5.7 110.5,5.8 110.7,5.8 C110.9,5.8 111.1,5.7 111.2,5.6 C111.5,5.3 111.5,4.8 111.2,4.5 L109.6,2.9 C109.3,2.6 108.8,2.6 108.5,2.9 C108.2,3.2 108.2,3.7 108.5,4 L110.2,5.6 Z" id="Shape" fill="#959595"></path>
                    <path d="M115.3,10.7 C115.4,10.8 115.6,10.9 115.8,10.9 C116,10.9 116.2,10.8 116.3,10.7 C116.6,10.4 116.6,9.9 116.3,9.6 L114.7,8 C114.4,7.7 113.9,7.7 113.6,8 C113.3,8.3 113.3,8.8 113.6,9.1 L115.3,10.7 Z" id="Shape" fill="#959595"></path>
                    <path d="M109.1,10.9 C109.3,10.9 109.5,10.8 109.6,10.7 L111.2,9.1 C111.5,8.8 111.5,8.3 111.2,8 C110.9,7.7 110.4,7.7 110.1,8 L108.5,9.6 C108.2,9.9 108.2,10.4 108.5,10.7 C108.7,10.9 108.9,10.9 109.1,10.9 Z" id="Shape" fill="#959595"></path>
                    <path d="M114.2,5.8 C114.4,5.8 114.6,5.7 114.7,5.6 L116.3,4 C116.6,3.7 116.6,3.2 116.3,2.9 C116,2.6 115.5,2.6 115.2,2.9 L113.6,4.5 C113.3,4.8 113.3,5.3 113.6,5.6 C113.8,5.7 114,5.8 114.2,5.8 Z" id="Shape" fill="#959595"></path>
                    <path d="M3.9,104.5 C3.6,104.2 3.1,104.2 2.8,104.5 C2.5,104.8 2.5,105.3 2.8,105.6 L4.4,107.2 C4.5,107.3 4.7,107.4 4.9,107.4 C5.1,107.4 5.3,107.3 5.4,107.2 C5.7,106.9 5.7,106.4 5.4,106.1 L3.9,104.5 Z" id="Shape" fill="#959595"></path>
                    <path d="M9,109.6 C8.7,109.3 8.2,109.3 7.9,109.6 C7.6,109.9 7.6,110.4 7.9,110.7 L9.5,112.3 C9.6,112.4 9.8,112.5 10,112.5 C10.2,112.5 10.4,112.4 10.5,112.3 C10.8,112 10.8,111.5 10.5,111.2 L9,109.6 Z" id="Shape" fill="#959595"></path>
                    <path d="M4.4,109.6 L2.8,111.2 C2.5,111.5 2.5,112 2.8,112.3 C2.9,112.4 3.1,112.5 3.3,112.5 C3.5,112.5 3.7,112.4 3.8,112.3 L5.4,110.7 C5.7,110.4 5.7,109.9 5.4,109.6 C5.1,109.3 4.7,109.3 4.4,109.6 Z" id="Shape" fill="#959595"></path>
                    <path d="M9.5,104.5 L7.9,106.1 C7.6,106.4 7.6,106.9 7.9,107.2 C8,107.3 8.2,107.4 8.4,107.4 C8.6,107.4 8.8,107.3 8.9,107.2 L10.5,105.6 C10.8,105.3 10.8,104.8 10.5,104.5 C10.2,104.2 9.8,104.2 9.5,104.5 Z" id="Shape" fill="#959595"></path>
                    <path d="M6.7,21 C6.3,21 5.9,21.3 5.9,21.8 L5.9,33.4 C5.9,33.8 6.2,34.2 6.7,34.2 C7.2,34.2 7.5,33.9 7.5,33.4 L7.5,21.8 C7.4,21.4 7.1,21 6.7,21 Z" id="Shape" fill="#959595"></path>
                    <path d="M6.7,38.1 C6.3,38.1 5.9,38.4 5.9,38.9 L5.9,43 C5.9,43.4 6.2,43.8 6.7,43.8 C7.2,43.8 7.5,43.5 7.5,43 L7.5,38.9 C7.4,38.4 7.1,38.1 6.7,38.1 Z" id="Shape" fill="#959595"></path>
                    <path d="M122.1,59.8 C122.1,59.4 121.8,59 121.3,59 C120.9,59 120.5,59.3 120.5,59.8 L120.5,71.4 C120.5,71.8 120.8,72.2 121.3,72.2 C121.7,72.2 122.1,71.9 122.1,71.4 L122.1,59.8 Z" id="Shape" fill="#959595"></path>
                    <path d="M121.4,76.1 C121,76.1 120.6,76.4 120.6,76.9 L120.6,81 C120.6,81.4 120.9,81.8 121.4,81.8 C121.8,81.8 122.2,81.5 122.2,81 L122.2,76.9 C122.1,76.4 121.8,76.1 121.4,76.1 Z" id="Shape" fill="#959595"></path>
                    <path d="M121.4,28.2 C123.3,28.2 124.9,26.6 124.9,24.7 C124.9,22.8 123.3,21.2 121.4,21.2 C119.5,21.2 117.9,22.8 117.9,24.7 C117.9,26.6 119.5,28.2 121.4,28.2 Z M121.4,22.8 C122.5,22.8 123.4,23.7 123.4,24.8 C123.4,25.9 122.5,26.8 121.4,26.8 C120.3,26.8 119.4,25.9 119.4,24.8 C119.4,23.7 120.3,22.8 121.4,22.8 Z" id="Shape" fill="#959595"></path>
                    <path d="M50,103.7 C48.1,103.7 46.5,105.3 46.5,107.2 C46.5,109.1 48.1,110.7 50,110.7 C51.9,110.7 53.5,109.1 53.5,107.2 C53.5,105.3 51.9,103.7 50,103.7 Z M50,109.1 C48.9,109.1 48,108.2 48,107.1 C48,106 48.9,105.1 50,105.1 C51.1,105.1 52,106 52,107.1 C52,108.2 51.1,109.1 50,109.1 Z" id="Shape" fill="#959595"></path>
                    <path d="M4,70.4 C2.1,70.4 0.5,72 0.5,73.9 C0.5,75.8 2.1,77.4 4,77.4 C5.9,77.4 7.5,75.8 7.5,73.9 C7.4,72 5.9,70.4 4,70.4 Z M4,75.9 C2.9,75.9 2,75 2,73.9 C2,72.8 2.9,71.9 4,71.9 C5.1,71.9 6,72.8 6,73.9 C6,75 5,75.9 4,75.9 Z" id="Shape" fill="#959595"></path>
                    <path d="M19.9,6.8 C19.9,7.2 20.2,7.6 20.7,7.6 L35.9,7.6 C36.3,7.6 36.7,7.3 36.7,6.8 C36.7,6.3 36.4,6 35.9,6 L20.6,6 C20.2,6.1 19.9,6.4 19.9,6.8 Z" id="Shape" fill="#959595"></path>
                    <path d="M10.7,7.6 L15.6,7.6 C16,7.6 16.4,7.3 16.4,6.8 C16.4,6.3 16.1,6 15.6,6 L10.7,6 C10.3,6 9.9,6.3 9.9,6.8 C9.9,7.3 10.3,7.6 10.7,7.6 Z" id="Shape" fill="#959595"></path>
                    <path d="M10.7,2.4 L21.3,2.4 C21.7,2.4 22.1,2.1 22.1,1.6 C22.1,1.1 21.8,0.8 21.3,0.8 L10.7,0.8 C10.3,0.8 9.9,1.1 9.9,1.6 C9.9,2.1 10.3,2.4 10.7,2.4 Z" id="Shape" fill="#959595"></path>
                    <path d="M25.9,2.4 L29.3,2.4 C29.7,2.4 30,2 30,1.6 C30,1.2 29.7,0.8 29.2,0.8 L25.8,0.8 C25.4,0.8 25,1.1 25,1.6 C25,2.1 25.4,2.4 25.9,2.4 Z" id="Shape" fill="#959595"></path>
                    <path d="M117.6,107.2 C117.6,106.8 117.3,106.4 116.8,106.4 L101.6,106.4 C101.2,106.4 100.8,106.7 100.8,107.2 C100.8,107.6 101.1,108 101.6,108 L116.8,108 C117.3,107.9 117.6,107.6 117.6,107.2 Z" id="Shape" fill="#959595"></path>
                    <path d="M121.1,107.2 C121.1,107.6 121.4,108 121.9,108 L126.8,108 C127.2,108 127.6,107.7 127.6,107.2 C127.6,106.8 127.3,106.4 126.8,106.4 L121.9,106.4 C121.4,106.4 121.1,106.8 121.1,107.2 Z" id="Shape" fill="#959595"></path>
                    <path d="M126.7,111.6 L116.1,111.6 C115.7,111.6 115.3,111.9 115.3,112.4 C115.3,112.8 115.6,113.2 116.1,113.2 L126.7,113.2 C127.1,113.2 127.5,112.9 127.5,112.4 C127.5,112 127.2,111.6 126.7,111.6 Z" id="Shape" fill="#959595"></path>
                    <path d="M111.6,111.6 L108.2,111.6 C107.8,111.6 107.4,111.9 107.4,112.4 C107.4,112.8 107.7,113.2 108.2,113.2 L111.6,113.2 C112,113.2 112.4,112.9 112.4,112.4 C112.4,112 112,111.6 111.6,111.6 Z" id="Shape" fill="#959595"></path>
                    <g id="Group-12" transform="translate(8.000000, 13.000000)" fill="#4D4D4D">
                        <path d="M60.2,11.5 C60.3,11.5 60.4,11.5 60.5,11.4 C60.6,11.3 73.2,6.3 85.2,10.9 C85.6,11 86,10.9 86.2,10.5 C86.4,10.1 86.2,9.7 85.8,9.5 C73.3,4.6 60.5,9.8 60,10 C59.6,10.2 59.4,10.6 59.6,11 C59.7,11.3 59.9,11.5 60.2,11.5 Z" id="Shape"></path>
                        <path d="M60.2,17.1 C60.3,17.1 60.4,17.1 60.5,17 C60.6,16.9 73.2,11.9 85.2,16.5 C85.6,16.6 86,16.5 86.2,16.1 C86.4,15.7 86.2,15.3 85.8,15.1 C73.3,10.2 60.5,15.4 60,15.6 C59.6,15.8 59.4,16.2 59.6,16.6 C59.7,16.9 59.9,17.1 60.2,17.1 Z" id="Shape"></path>
                        <path d="M60.2,22.7 C60.3,22.7 60.4,22.7 60.5,22.6 C60.6,22.6 68.9,19.2 78.4,20.4 C78.8,20.4 79.2,20.2 79.2,19.7 C79.3,19.3 79,18.9 78.5,18.9 C68.6,17.7 60.2,21 59.9,21.2 C59.5,21.4 59.3,21.8 59.5,22.2 C59.7,22.5 59.9,22.7 60.2,22.7 Z" id="Shape"></path>
                        <path d="M60.2,34 C60.3,34 60.4,34 60.5,33.9 C60.6,33.8 73.2,28.8 85.2,33.4 C85.6,33.5 86,33.4 86.2,33 C86.4,32.6 86.2,32.2 85.8,32 C73.3,27.1 60.5,32.3 60,32.5 C59.6,32.7 59.4,33.1 59.6,33.5 C59.7,33.8 59.9,34 60.2,34 Z" id="Shape"></path>
                        <path d="M60.2,39.3 C60.3,39.3 60.4,39.3 60.5,39.2 C60.6,39.1 73.2,34.1 85.2,38.7 C85.6,38.8 86,38.7 86.2,38.3 C86.4,37.9 86.2,37.5 85.8,37.3 C73.3,32.4 60.5,37.6 60,37.8 C59.6,38 59.4,38.4 59.6,38.8 C59.7,39.1 59.9,39.3 60.2,39.3 Z" id="Shape"></path>
                        <path d="M26.2,3.2 C24.8,3.1 23.3,3.4 22.4,4.3 C21.7,4.9 21.4,5.6 21.4,6.3 L21.4,18.6 L15.3,18.6 C12.4,18.6 10,21 10,23.9 L10,74.3 C10,74.7 10.3,75.1 10.8,75.1 L104.5,75.1 C104.9,75.1 105.3,74.8 105.3,74.3 L105.3,23.9 C105.3,21 102.9,18.6 100,18.6 L93.9,18.6 L93.9,6.3 C93.9,5.6 93.5,4.8 92.9,4.3 C91.9,3.5 90.5,3.1 89.1,3.2 C79.1,-0.9 67.7,-0.7 57.7,3.7 C47.6,-0.6 36.2,-0.8 26.2,3.2 Z M22.8,6.3 C22.8,5.9 23.1,5.6 23.3,5.4 C23.9,4.9 24.7,4.6 25.6,4.6 L25.6,4.6 L25.6,50.4 C24.5,50.8 23.5,51.3 22.8,51.7 L22.8,6.3 Z M100,20.1 C102.1,20.1 103.7,21.8 103.7,23.8 L103.7,73.4 L11.5,73.4 L11.5,23.9 C11.5,21.8 13.2,20.2 15.2,20.2 L21.3,20.2 L21.3,53.3 C21.3,53.6 21.5,53.8 21.7,54 L22.1,54 C22.3,54 22.4,53.9 22.5,53.9 C23.8,53 25.3,52.2 26.6,51.9 L26.6,51.9 L26.7,51.9 C36,48.3 47.2,49 57.3,53.9 L57.3,53.9 C57.4,53.9 57.5,54 57.6,54 C57.7,54 57.8,54 57.9,53.9 L57.9,53.9 C62,52 66.2,50.7 70.4,50.1 L72.9,56.5 C73,56.8 73.3,57 73.6,57 C73.9,57 74.2,56.8 74.3,56.6 L75.8,53.5 L83.9,61.6 C84,61.7 84.2,61.8 84.4,61.8 C84.6,61.8 84.8,61.7 84.9,61.6 L88.6,57.9 C88.7,57.8 88.8,57.6 88.8,57.4 C88.8,57.2 88.7,57 88.6,56.9 L82.2,50 C84.4,50.4 86.5,51 88.5,51.7 L88.6,51.7 L88.6,51.7 C89.9,52 91.4,52.8 92.7,53.7 C92.8,53.8 93,53.8 93.1,53.8 C93.2,53.8 93.3,53.8 93.4,53.7 C93.7,53.6 93.8,53.3 93.8,53 L93.8,20.1 L100,20.1 Z M79,47.6 C78.8,47.7 78.6,47.9 78.6,48.2 C78.6,48.4 78.6,48.7 78.8,48.9 L87.1,57.2 L84.5,59.8 L76.2,51.5 C76.1,51.4 75.9,51.3 75.7,51.3 L75.6,51.3 C75.4,51.3 75.2,51.5 75,51.7 L73.8,54.2 L68.8,41.4 L81.6,46.4 L79,47.6 Z M91.8,5.4 C92,5.6 92.3,5.9 92.3,6.3 L92.3,51.8 C91.5,51.3 90.6,50.8 89.5,50.5 L89.5,4.7 C90.4,4.7 91.3,5 91.8,5.4 Z M88,4.5 L88,50 C85.7,49.2 83.4,48.7 81,48.3 L83.4,47.1 C83.7,47 83.8,46.7 83.8,46.4 L83.8,46.1 C83.8,45.8 83.6,45.5 83.3,45.4 L67.7,39.3 C67.4,39.2 67.1,39.3 66.9,39.5 C66.7,39.7 66.6,40 66.7,40.3 L69.9,48.4 C66,49 62.1,50.1 58.4,51.8 L58.4,5.1 C67.8,0.9 78.5,0.7 88,4.5 Z M56.8,51.9 C51.1,49.3 45.1,48 39.2,48 C35,48 31,48.7 27.2,50 L27.2,4.5 C36.7,0.8 47.4,1 56.9,5.1 L56.9,51.9 L56.8,51.9 Z" id="Shape"></path>
                        <path d="M29.4,9.5 C29,9.7 28.8,10.1 29,10.5 C29.2,10.9 29.6,11.1 30,10.9 C41.9,6.3 54.6,11.3 54.7,11.4 C54.8,11.4 54.9,11.5 55,11.5 C55.3,11.5 55.6,11.3 55.7,11 C55.9,10.6 55.7,10.2 55.3,10 C54.7,9.8 41.9,4.7 29.4,9.5 Z" id="Shape"></path>
                        <path d="M55.2,15.6 C54.7,15.4 41.9,10.2 29.4,15.1 C29,15.3 28.8,15.7 29,16.1 C29.2,16.5 29.6,16.7 30,16.5 C41.9,11.9 54.5,17 54.7,17 C54.8,17 54.9,17.1 55,17.1 C55.3,17.1 55.6,16.9 55.7,16.6 C55.8,16.2 55.6,15.8 55.2,15.6 Z" id="Shape"></path>
                        <path d="M55.2,21.2 C54.8,21.1 46.4,17.7 36.6,18.9 C36.2,19 35.9,19.3 35.9,19.7 C36,20.1 36.3,20.4 36.7,20.4 C46.2,19.2 54.5,22.6 54.6,22.6 C54.7,22.6 54.8,22.7 54.9,22.7 C55.2,22.7 55.5,22.5 55.6,22.2 C55.8,21.8 55.6,21.4 55.2,21.2 Z" id="Shape"></path>
                        <path d="M55.2,32.5 C54.7,32.3 41.9,27.1 29.4,32 C29,32.2 28.8,32.6 29,33 C29.2,33.4 29.6,33.6 30,33.4 C41.9,28.8 54.6,33.8 54.7,33.9 C54.8,33.9 54.9,34 55,34 C55.3,34 55.6,33.8 55.7,33.5 C55.8,33.1 55.6,32.7 55.2,32.5 Z" id="Shape"></path>
                        <path d="M55.2,37.8 C54.7,37.6 41.9,32.4 29.4,37.3 C29,37.5 28.8,37.9 29,38.3 C29.2,38.7 29.6,38.9 30,38.7 C41.9,34.1 54.6,39.1 54.7,39.2 C54.8,39.2 54.9,39.3 55,39.3 C55.3,39.3 55.6,39.1 55.7,38.8 C55.8,38.4 55.6,38 55.2,37.8 Z" id="Shape"></path>
                        <path d="M50.4,42.5 C45,40.7 40.2,40.6 34.9,41.9 C34.5,42 34.3,42.4 34.4,42.8 C34.5,43.2 34.9,43.4 35.3,43.3 C40.3,42 44.7,42.2 49.9,43.8 L50.1,43.8 C50.4,43.8 50.7,43.6 50.8,43.3 C51,43.1 50.8,42.7 50.4,42.5 Z" id="Shape"></path>
                        <path d="M113.9,81.8 L115,80 C115.2,79.6 115.3,79.1 115,78.7 C114.8,78.3 114.3,78 113.9,78 L1.3,78 C0.8,78 0.4,78.3 0.2,78.7 C-7.27633231e-13,79.1 -7.27633231e-13,79.6 0.2,80 L1.3,81.8 C3.2,85 6.7,86.9 10.4,86.9 L104.8,86.9 C108.5,86.9 112,85 113.9,81.8 Z M2.6,81 L1.7,79.5 L113.5,79.5 L112.6,81 C111,83.7 108,85.4 104.8,85.4 L10.4,85.4 C7.2,85.4 4.2,83.7 2.6,81 Z" id="Shape"></path>
                    </g>
                </g>
            </g>
        </g>
    </g>
</svg>