<?xml version="1.0" encoding="UTF-8" standalone="no"?>
<svg width="128px" height="114px" viewBox="0 0 128 114" version="1.1" xmlns="http://www.w3.org/2000/svg" xmlns:xlink="http://www.w3.org/1999/xlink">
    <!-- Generator: Sketch 42 (36781) - http://www.bohemiancoding.com/sketch -->
    <title>Group</title>
    <desc>Created with Sketch.</desc>
    <defs></defs>
    <g id="Symbols" stroke="none" stroke-width="1" fill="none" fill-rule="evenodd">
        <g id="Courseware-Module" transform="translate(-248.000000, -895.000000)" fill-rule="nonzero">
            <g id="Group">
                <g transform="translate(248.000000, 895.000000)">
                    <path d="M5.9,28 L5.9,38.1 C5.9,38.5 6.2,38.9 6.7,38.9 C7.2,38.9 7.5,38.6 7.5,38.1 L7.5,28 C7.5,27.6 7.2,27.2 6.7,27.2 C6.2,27.2 5.9,27.6 5.9,28 Z" id="Shape" fill="#959595"></path>
                    <path d="M6.7,40.6 C6.3,40.6 5.9,40.9 5.9,41.4 L5.9,44.7 C5.9,45.1 6.2,45.5 6.7,45.5 C7.2,45.5 7.5,45.2 7.5,44.7 L7.5,41.4 C7.4,40.9 7.1,40.6 6.7,40.6 Z" id="Shape" fill="#959595"></path>
                    <path d="M117.6,12.4 C118,12.4 118.4,12.1 118.4,11.6 L118.4,1.5 C118.4,1.1 118.1,0.7 117.6,0.7 C117.2,0.7 116.8,1 116.8,1.5 L116.8,11.6 C116.9,12 117.2,12.4 117.6,12.4 Z" id="Shape" fill="#959595"></path>
                    <path d="M117.6,18.9 C118,18.9 118.4,18.6 118.4,18.1 L118.4,14.8 C118.4,14.4 118.1,14 117.6,14 C117.2,14 116.8,14.3 116.8,14.8 L116.8,18.1 C116.9,18.6 117.2,18.9 117.6,18.9 Z" id="Shape" fill="#959595"></path>
                    <path d="M51,12 C51.1,12.1 51.3,12.2 51.5,12.2 C51.7,12.2 51.9,12.1 52,12 C52.3,11.7 52.3,11.2 52,10.9 L50.4,9.3 C50.1,9 49.6,9 49.3,9.3 C49,9.6 49,10.1 49.3,10.4 L51,12 Z" id="Shape" fill="#959595"></path>
                    <path d="M56.1,17.1 C56.2,17.2 56.4,17.3 56.6,17.3 C56.8,17.3 57,17.2 57.1,17.1 C57.4,16.8 57.4,16.3 57.1,16 L55.5,14.4 C55.2,14.1 54.7,14.1 54.4,14.4 C54.1,14.7 54.1,15.2 54.4,15.5 L56.1,17.1 Z" id="Shape" fill="#959595"></path>
                    <path d="M49.9,17.4 C50.1,17.4 50.3,17.3 50.4,17.2 L52,15.6 C52.3,15.3 52.3,14.8 52,14.5 C51.7,14.2 51.2,14.2 50.9,14.5 L49.3,16.1 C49,16.4 49,16.9 49.3,17.2 C49.5,17.3 49.7,17.4 49.9,17.4 Z" id="Shape" fill="#959595"></path>
                    <path d="M55.1,12.2 C55.3,12.2 55.5,12.1 55.6,12 L57.2,10.4 C57.5,10.1 57.5,9.6 57.2,9.3 C56.9,9 56.4,9 56.1,9.3 L54.5,10.9 C54.2,11.2 54.2,11.7 54.5,12 C54.7,12.1 54.9,12.2 55.1,12.2 Z" id="Shape" fill="#959595"></path>
                    <path d="M5.9,5.1 C6,5.2 6.2,5.3 6.4,5.3 C6.6,5.3 6.8,5.2 6.9,5.1 C7.2,4.8 7.2,4.3 6.9,4 L5.4,2.5 C5.1,2.2 4.6,2.2 4.3,2.5 C4,2.8 4,3.3 4.3,3.6 L5.9,5.1 Z" id="Shape" fill="#959595"></path>
                    <path d="M11,10.3 C11.1,10.4 11.3,10.5 11.5,10.5 C11.7,10.5 11.9,10.4 12,10.3 C12.3,10 12.3,9.5 12,9.2 L10.4,7.6 C10.1,7.3 9.6,7.3 9.3,7.6 C9,7.9 9,8.4 9.3,8.7 L11,10.3 Z" id="Shape" fill="#959595"></path>
                    <path d="M4.8,10.5 C5,10.5 5.2,10.4 5.3,10.3 L6.9,8.7 C7.2,8.4 7.2,7.9 6.9,7.6 C6.6,7.3 6.1,7.3 5.8,7.6 L4.2,9.2 C4,9.5 4,10 4.3,10.3 C4.4,10.4 4.6,10.5 4.8,10.5 Z" id="Shape" fill="#959595"></path>
                    <path d="M10,5.4 C10.2,5.4 10.4,5.3 10.5,5.2 L12.1,3.6 C12.4,3.3 12.4,2.8 12.1,2.5 C11.8,2.2 11.3,2.2 11,2.5 L9.4,4.1 C9.1,4.4 9.1,4.9 9.4,5.2 C9.6,5.3 9.8,5.4 10,5.4 Z" id="Shape" fill="#959595"></path>
                    <path d="M102.5,7 C102.6,7.1 102.8,7.2 103,7.2 C103.2,7.2 103.4,7.1 103.5,7 C103.8,6.7 103.8,6.2 103.5,5.9 L101.9,4.3 C101.6,4 101.1,4 100.8,4.3 C100.5,4.6 100.5,5.1 100.8,5.4 L102.5,7 Z" id="Shape" fill="#959595"></path>
                    <path d="M107.7,12.2 C107.8,12.3 108,12.4 108.2,12.4 C108.4,12.4 108.6,12.3 108.7,12.2 C109,11.9 109,11.4 108.7,11.1 L107.1,9.5 C106.8,9.2 106.3,9.2 106,9.5 C105.7,9.8 105.7,10.3 106,10.6 L107.7,12.2 Z" id="Shape" fill="#959595"></path>
                    <path d="M101.5,12.4 C101.7,12.4 101.9,12.3 102,12.2 L103.6,10.6 C103.9,10.3 103.9,9.8 103.6,9.5 C103.3,9.2 102.8,9.2 102.5,9.5 L100.9,11.1 C100.6,11.4 100.6,11.9 100.9,12.2 C101.1,12.3 101.3,12.4 101.5,12.4 Z" id="Shape" fill="#959595"></path>
                    <path d="M106.6,7.2 C106.8,7.2 107,7.1 107.1,7 L108.7,5.4 C109,5.1 109,4.6 108.7,4.3 C108.4,4 107.9,4 107.6,4.3 L106,5.9 C105.7,6.2 105.7,6.7 106,7 C106.2,7.2 106.4,7.2 106.6,7.2 Z" id="Shape" fill="#959595"></path>
                    <path d="M36.4,105.2 C36.1,104.9 35.6,104.9 35.3,105.2 C35,105.5 35,106 35.3,106.3 L36.9,107.9 C37,108 37.2,108.1 37.4,108.1 C37.6,108.1 37.8,108 37.9,107.9 C38.2,107.6 38.2,107.1 37.9,106.8 L36.4,105.2 Z" id="Shape" fill="#959595"></path>
                    <path d="M41.6,110.3 C41.3,110 40.8,110 40.5,110.3 C40.2,110.6 40.2,111.1 40.5,111.4 L42.1,113 C42.2,113.1 42.4,113.2 42.6,113.2 C42.8,113.2 43,113.1 43.1,113 C43.4,112.7 43.4,112.2 43.1,111.9 L41.6,110.3 Z" id="Shape" fill="#959595"></path>
                    <path d="M37,110.3 L35.4,111.9 C35.1,112.2 35.1,112.7 35.4,113 C35.5,113.1 35.7,113.2 35.9,113.2 C36.1,113.2 36.3,113.1 36.4,113 L38,111.4 C38.3,111.1 38.3,110.6 38,110.3 C37.7,110 37.2,110 37,110.3 Z" id="Shape" fill="#959595"></path>
                    <path d="M42.1,105.2 L40.5,106.8 C40.2,107.1 40.2,107.6 40.5,107.9 C40.6,108 40.8,108.1 41,108.1 C41.2,108.1 41.4,108 41.5,107.9 L43.1,106.3 C43.4,106 43.4,105.5 43.1,105.2 C42.9,104.9 42.4,104.9 42.1,105.2 Z" id="Shape" fill="#959595"></path>
                    <path d="M120.5,71.8 C120.2,71.5 119.7,71.5 119.4,71.8 C119.1,72.1 119.1,72.6 119.4,72.9 L121,74.5 C121.1,74.6 121.3,74.7 121.5,74.7 C121.7,74.7 121.9,74.6 122,74.5 C122.3,74.2 122.3,73.7 122,73.4 L120.5,71.8 Z" id="Shape" fill="#959595"></path>
                    <path d="M125.7,77 C125.4,76.7 124.9,76.7 124.6,77 C124.3,77.3 124.3,77.8 124.6,78.1 L126.2,79.7 C126.3,79.8 126.5,79.9 126.7,79.9 C126.9,79.9 127.1,79.8 127.2,79.7 C127.5,79.4 127.5,78.9 127.2,78.6 L125.7,77 Z" id="Shape" fill="#959595"></path>
                    <path d="M121.1,77 L119.5,78.6 C119.2,78.9 119.2,79.4 119.5,79.7 C119.6,79.8 119.8,79.9 120,79.9 C120.2,79.9 120.4,79.8 120.5,79.7 L122.1,78.1 C122.4,77.8 122.4,77.3 122.1,77 C121.8,76.7 121.4,76.7 121.1,77 Z" id="Shape" fill="#959595"></path>
                    <path d="M125.2,74.7 C125.4,74.7 125.6,74.6 125.7,74.5 L127.3,72.9 C127.6,72.6 127.6,72.1 127.3,71.8 C127,71.5 126.5,71.5 126.2,71.8 L124.6,73.4 C124.3,73.7 124.3,74.2 124.6,74.5 C124.8,74.6 125,74.7 125.2,74.7 Z" id="Shape" fill="#959595"></path>
                    <path d="M74.8,63.6 C74.9,63.7 75.1,63.8 75.3,63.8 C75.5,63.8 75.7,63.7 75.8,63.6 C76.1,63.3 76.1,62.8 75.8,62.5 L74.2,61 C73.9,60.7 73.4,60.7 73.1,61 C72.8,61.3 72.8,61.8 73.1,62.1 L74.8,63.6 Z" id="Shape" fill="#959595"></path>
                    <path d="M79.9,68.8 C80,68.9 80.2,69 80.4,69 C80.6,69 80.8,68.9 80.9,68.8 C81.2,68.5 81.2,68 80.9,67.7 L79.3,66.1 C79,65.8 78.5,65.8 78.2,66.1 C77.9,66.4 77.9,66.9 78.2,67.2 L79.9,68.8 Z" id="Shape" fill="#959595"></path>
                    <path d="M73.7,69 C73.9,69 74.1,68.9 74.2,68.8 L75.8,67.2 C76.1,66.9 76.1,66.4 75.8,66.1 C75.5,65.8 75,65.8 74.7,66.1 L73.1,67.7 C72.8,68 72.8,68.5 73.1,68.8 C73.3,68.9 73.5,69 73.7,69 Z" id="Shape" fill="#959595"></path>
                    <path d="M78.9,63.8 C79.1,63.8 79.3,63.7 79.4,63.6 L81,62 C81.3,61.7 81.3,61.2 81,60.9 C80.7,60.6 80.2,60.6 79.9,60.9 L78.3,62.5 C78,62.8 78,63.3 78.3,63.6 C78.5,63.8 78.7,63.8 78.9,63.8 Z" id="Shape" fill="#959595"></path>
                    <path d="M86.3,34.2 C88.4,34.2 90.1,32.5 90.1,30.4 C90.1,28.3 88.4,26.6 86.3,26.6 C84.2,26.6 82.5,28.3 82.5,30.4 C82.5,32.5 84.2,34.2 86.3,34.2 Z M86.3,28.2 C87.5,28.2 88.6,29.2 88.6,30.5 C88.6,31.7 87.6,32.8 86.3,32.8 C85.1,32.8 84,31.8 84,30.5 C84,29.2 85,28.2 86.3,28.2 Z" id="Shape" fill="#959595"></path>
                    <path d="M117.6,104.4 C115.5,104.4 113.8,106.1 113.8,108.2 C113.8,110.3 115.5,112 117.6,112 C119.7,112 121.4,110.3 121.4,108.2 C121.4,106.1 119.7,104.4 117.6,104.4 Z M117.6,110.5 C116.4,110.5 115.3,109.5 115.3,108.2 C115.3,107 116.3,105.9 117.6,105.9 C118.8,105.9 119.9,106.9 119.9,108.2 C119.9,109.4 118.9,110.5 117.6,110.5 Z" id="Shape" fill="#959595"></path>
                    <path d="M20.6,5.3 L31.5,5.3 C31.9,5.3 32.3,5 32.3,4.5 C32.3,4 32,3.7 31.5,3.7 L20.6,3.7 C20.2,3.7 19.8,4 19.8,4.5 C19.8,5 20.1,5.3 20.6,5.3 Z" id="Shape" fill="#959595"></path>
                    <path d="M35,5.3 L38.5,5.3 C38.9,5.3 39.3,5 39.3,4.5 C39.3,4 39,3.7 38.5,3.7 L35,3.7 C34.6,3.7 34.2,4 34.2,4.5 C34.2,5 34.6,5.3 35,5.3 Z" id="Shape" fill="#959595"></path>
                    <path d="M38.6,7.5 L31,7.5 C30.6,7.5 30.2,7.8 30.2,8.3 C30.2,8.8 30.6,9 31,9 L38.6,9 C39,9 39.4,8.7 39.4,8.2 C39.4,7.7 39,7.5 38.6,7.5 Z" id="Shape" fill="#959595"></path>
                    <path d="M25.2,7.5 C24.8,7.5 24.4,7.8 24.4,8.3 C24.4,8.8 24.7,9.1 25.2,9.1 L27.7,9.1 C28.1,9.1 28.5,8.8 28.5,8.3 C28.5,7.8 28.2,7.5 27.7,7.5 L25.2,7.5 Z" id="Shape" fill="#959595"></path>
                    <path d="M23.1,103.9 L12.1,103.9 C11.7,103.9 11.3,104.2 11.3,104.7 C11.3,105.2 11.6,105.5 12.1,105.5 L23,105.5 C23.4,105.5 23.8,105.2 23.8,104.7 C23.8,104.2 23.5,103.9 23.1,103.9 Z" id="Shape" fill="#959595"></path>
                    <path d="M5,105.4 L8.5,105.4 C8.9,105.4 9.3,105.1 9.3,104.6 C9.3,104.1 9,103.8 8.5,103.8 L5,103.8 C4.6,103.8 4.2,104.1 4.2,104.6 C4.2,105.1 4.6,105.4 5,105.4 Z" id="Shape" fill="#959595"></path>
                    <path d="M12.6,107.6 L5,107.6 C4.6,107.6 4.2,107.9 4.2,108.4 C4.2,108.8 4.5,109.2 5,109.2 L12.6,109.2 C13,109.2 13.4,108.9 13.4,108.4 C13.4,108 13.1,107.6 12.6,107.6 Z" id="Shape" fill="#959595"></path>
                    <path d="M18.4,107.6 L15.9,107.6 C15.5,107.6 15.1,107.9 15.1,108.4 C15.1,108.8 15.4,109.2 15.9,109.2 L18.4,109.2 C18.8,109.2 19.2,108.9 19.2,108.4 C19.1,108 18.8,107.6 18.4,107.6 Z" id="Shape" fill="#959595"></path>
                    <path d="M91.2,107.6 L80.3,107.6 C79.9,107.6 79.5,107.9 79.5,108.4 C79.5,108.8 79.8,109.2 80.3,109.2 L91.2,109.2 C91.6,109.2 92,108.9 92,108.4 C91.9,108 91.6,107.6 91.2,107.6 Z" id="Shape" fill="#959595"></path>
                    <path d="M98.3,107.6 L94.8,107.6 C94.4,107.6 94,107.9 94,108.4 C94,108.8 94.3,109.2 94.8,109.2 L98.3,109.2 C98.7,109.2 99.1,108.9 99.1,108.4 C99,108 98.7,107.6 98.3,107.6 Z" id="Shape" fill="#959595"></path>
                    <path d="M98.3,103.9 L90.7,103.9 C90.3,103.9 89.9,104.2 89.9,104.7 C89.9,105.2 90.2,105.5 90.7,105.5 L98.3,105.5 C98.7,105.5 99.1,105.2 99.1,104.7 C99.1,104.2 98.7,103.9 98.3,103.9 Z" id="Shape" fill="#959595"></path>
                    <path d="M85,105.4 L87.5,105.4 C87.9,105.4 88.3,105.1 88.3,104.6 C88.3,104.1 88,103.8 87.5,103.8 L85,103.8 C84.6,103.8 84.2,104.1 84.2,104.6 C84.2,105.1 84.5,105.4 85,105.4 Z" id="Shape" fill="#959595"></path>
                    <path d="M114.2,76.5 C114.5,76.5 114.8,76.3 114.9,76 L121.7,52.8 C121.8,52.4 121.6,52 121.2,51.9 C120.8,51.8 120.4,52 120.3,52.4 L113.5,75.6 C113.4,76 113.6,76.4 114,76.5 L114.2,76.5 Z" id="Shape" fill="#959595"></path>
                    <g id="Group-11" transform="translate(0.000000, 14.000000)" fill="#4D4D4D">
                        <path d="M26.3,13.2 L23,13.2 C22.6,13.2 22.2,13.5 22.2,14 C22.2,14.4 22.5,14.8 23,14.8 L26.3,14.8 C26.7,14.8 27.1,14.5 27.1,14 C27,13.6 26.7,13.2 26.3,13.2 Z" id="Shape"></path>
                        <path d="M24.6,4.5 L16.8,4.5 C16.4,4.5 16,4.8 16,5.3 C16,5.7 16.3,6.1 16.8,6.1 L24.6,6.1 C25,6.1 25.4,5.8 25.4,5.3 C25.4,4.8 25,4.5 24.6,4.5 Z" id="Shape"></path>
                        <path d="M26.3,23.9 L23,23.9 C22.6,23.9 22.2,24.2 22.2,24.7 C22.2,25.2 22.5,25.5 23,25.5 L26.3,25.5 C26.7,25.5 27.1,25.2 27.1,24.7 C27.1,24.2 26.7,23.9 26.3,23.9 Z" id="Shape"></path>
                        <path d="M26.3,34.6 L23,34.6 C22.6,34.6 22.2,34.9 22.2,35.4 C22.2,35.9 22.5,36.2 23,36.2 L26.3,36.2 C26.7,36.2 27.1,35.9 27.1,35.4 C27.1,34.9 26.7,34.6 26.3,34.6 Z" id="Shape"></path>
                        <path d="M23,20.1 L25.1,20.1 C25.5,20.1 25.9,19.8 25.9,19.3 C25.9,18.9 25.6,18.5 25.1,18.5 L23,18.5 C22.6,18.5 22.2,18.8 22.2,19.3 C22.2,19.7 22.5,20.1 23,20.1 Z" id="Shape"></path>
                        <path d="M23,30.7 L25.1,30.7 C25.5,30.7 25.9,30.4 25.9,29.9 C25.9,29.4 25.6,29.1 25.1,29.1 L23,29.1 C22.6,29.1 22.2,29.4 22.2,29.9 C22.2,30.4 22.5,30.7 23,30.7 Z" id="Shape"></path>
                        <path d="M45.9,59.5 C45.9,56.9 43.8,54.8 41.2,54.8 C38.6,54.8 36.5,56.9 36.5,59.5 C36.5,62.1 38.6,64.2 41.2,64.2 C43.8,64.2 45.9,62.1 45.9,59.5 Z M41.2,62.7 C39.4,62.7 38,61.3 38,59.5 C38,57.7 39.4,56.3 41.2,56.3 C43,56.3 44.4,57.7 44.4,59.5 C44.4,61.2 43,62.7 41.2,62.7 Z" id="Shape"></path>
                        <path d="M33.8,69 C31.5,69 29.5,70.9 29.5,73.3 C29.5,75.6 31.4,77.6 33.8,77.6 C36.1,77.6 38.1,75.7 38.1,73.3 C38,70.9 36.1,69 33.8,69 Z M33.8,76 C32.3,76 31,74.8 31,73.2 C31,71.7 32.2,70.4 33.8,70.4 C35.4,70.4 36.6,71.6 36.6,73.2 C36.5,74.8 35.3,76 33.8,76 Z" id="Shape"></path>
                        <path d="M13.6,43.6 C8,47 2.9,57.9 7.9,69.2 C8,69.5 8.3,69.6 8.6,69.6 C8.7,69.6 8.8,69.6 8.9,69.5 C9.3,69.3 9.5,68.9 9.3,68.5 C4.7,58.1 9.5,47.9 14.5,44.8 C14.9,44.6 15,44.1 14.7,43.8 C14.5,43.4 14,43.3 13.6,43.6 Z" id="Shape"></path>
                        <path d="M65.6,68.3 C63.6,68.3 61.9,70 61.9,72 C61.9,74 63.6,75.7 65.6,75.7 C67.6,75.7 69.3,74 69.3,72 C69.3,70 67.7,68.3 65.6,68.3 Z M65.6,74.2 C64.4,74.2 63.4,73.2 63.4,72 C63.4,70.8 64.4,69.8 65.6,69.8 C66.8,69.8 67.8,70.8 67.8,72 C67.8,73.3 66.8,74.2 65.6,74.2 Z" id="Shape"></path>
                        <path d="M56.2,74.8 C54.4,74.8 53,76.2 53,78 C53,79.8 54.4,81.2 56.2,81.2 C58,81.2 59.4,79.8 59.4,78 C59.3,76.2 57.9,74.8 56.2,74.8 Z M56.2,79.7 C55.3,79.7 54.5,78.9 54.5,78 C54.5,77.1 55.3,76.3 56.2,76.3 C57.1,76.3 57.9,77.1 57.9,78 C57.8,78.9 57.1,79.7 56.2,79.7 Z" id="Shape"></path>
                        <path d="M79.7,80.1 L64.9,50.7 L64.9,17.2 C66.8,16.9 68.3,15.2 68.3,13.2 C68.3,12.1 67.9,11.1 67.1,10.3 C66.3,9.5 65.3,9.1 64.2,9.1 L47.9,9.1 C45.7,9.1 43.9,10.9 43.9,13.2 C43.9,14.3 44.3,15.3 45.1,16.1 C45.7,16.7 46.5,17.1 47.3,17.2 L47.3,44.7 C46.9,44.2 46.6,43.7 46.2,43.2 C42.9,39.2 38.6,36.4 33.7,34.9 L33.7,9.7 L36.9,9.7 C39.7,9.7 41.9,7.7 41.9,5.2 C41.9,4 41.4,2.8 40.4,2 C39.5,1.2 38.2,0.7 36.9,0.7 L15.7,0.7 C12.9,0.7 10.7,2.7 10.7,5.2 C10.7,6.4 11.2,7.6 12.2,8.4 C13.1,9.2 14.4,9.7 15.7,9.7 L18.9,9.7 L18.9,35 C11.2,37.3 4.9,43.2 2.1,50.8 C1.1,53.6 0.5,56.6 0.5,59.7 C0.5,73.9 12.1,85.5 26.3,85.5 L76.4,85.5 C77.7,85.5 78.9,84.8 79.6,83.7 C80.2,82.6 80.3,81.2 79.7,80.1 Z M46.1,15 C45.6,14.5 45.4,13.9 45.4,13.2 C45.4,11.8 46.5,10.6 47.9,10.6 L64.3,10.6 C65,10.6 65.6,10.9 66.1,11.4 C66.6,11.9 66.9,12.5 66.9,13.2 C66.9,14.6 65.8,15.7 64.4,15.7 L64.3,15.7 C63.9,15.7 63.5,16 63.5,16.5 L63.5,50.1 L50.2,50.1 C49.8,49 49.3,48 48.7,47 L48.7,46.8 L48.7,16.5 C48.7,16.1 48.4,15.7 47.9,15.7 L47.8,15.7 C47.2,15.8 46.6,15.5 46.1,15 Z M15.7,8.2 C14.8,8.2 13.9,7.9 13.2,7.3 C12.6,6.7 12.2,6 12.2,5.2 C12.2,3.6 13.8,2.2 15.7,2.2 L36.8,2.2 C37.7,2.2 38.6,2.5 39.3,3.1 C39.9,3.7 40.3,4.4 40.3,5.2 C40.3,6.9 38.7,8.2 36.8,8.2 L15.7,8.2 Z M2,59.7 C2,56.8 2.5,54 3.5,51.3 C6.2,44 12.3,38.4 19.8,36.3 C20.1,36.2 20.4,35.9 20.4,35.6 L20.4,9.7 L32.2,9.7 L32.2,35.5 C32.2,35.8 32.4,36.1 32.8,36.2 C37.6,37.5 41.9,40.3 45,44.1 C46.8,46.2 48.1,48.6 49.1,51.2 C50.1,53.9 50.6,56.7 50.6,59.6 C50.6,65.2 48.7,70.5 45.2,74.8 C40.6,80.6 33.7,83.8 26.3,83.8 C12.9,83.9 2,73.1 2,59.7 Z M78.2,82.9 C77.8,83.6 77.1,83.9 76.3,83.9 L35,83.9 C39.4,82.3 43.3,79.6 46.4,75.8 C50,71.3 52,65.5 52,59.7 C52,56.9 51.5,54.2 50.7,51.7 L63.6,51.7 L78.3,80.8 C78.7,81.4 78.7,82.2 78.2,82.9 Z" id="Shape"></path>
                        <path d="M60.2,44.2 C60.6,44.2 61,43.9 61,43.4 L61,21.1 C61,20.7 60.7,20.3 60.2,20.3 C59.8,20.3 59.4,20.6 59.4,21.1 L59.4,43.4 C59.4,43.8 59.8,44.2 60.2,44.2 Z" id="Shape"></path>
                        <path d="M117.1,81.2 L117.8,70.7 L117.8,70.7 C117.9,69.5 117.4,68.2 116.6,67.3 C115.8,66.4 114.6,65.9 113.4,65.9 C113,65.8 112.2,65.7 111.9,65.6 C110.8,65.3 110.1,64.6 109.7,63.5 C109.5,62.9 109.4,62.3 109.4,61.8 C109.4,60.4 108.3,59.3 106.9,59.3 L96.5,59.3 C95.1,59.3 94,60.4 94,61.8 C94,62.4 93.9,63 93.7,63.5 C93.3,64.6 92.6,65.2 91.5,65.6 C91.2,65.7 90.5,65.8 90,65.9 C88.8,65.9 87.6,66.4 86.8,67.3 C85.9,68.2 85.5,69.5 85.6,70.7 L86.3,81.2 C86.5,83.6 88.4,85.4 90.8,85.4 L112.6,85.4 C115,85.4 116.9,83.6 117.1,81.2 Z M112.6,83.9 L90.7,83.9 C89.1,83.9 87.8,82.7 87.7,81.1 L87,70.6 C86.9,69.8 87.2,69 87.8,68.3 C88.4,67.7 89.2,67.3 90,67.3 L90.1,67.3 C90.2,67.3 91.3,67.1 91.9,66.9 C93.4,66.4 94.5,65.4 95,63.9 C95.3,63.2 95.4,62.4 95.4,61.6 C95.4,61.1 95.8,60.7 96.3,60.7 L106.7,60.7 C107.2,60.7 107.6,61.1 107.6,61.6 C107.6,62.4 107.8,63.2 108,63.9 C108.6,65.4 109.6,66.4 111.1,66.9 C111.6,67.1 112.8,67.3 112.9,67.3 L113,67.3 C113.8,67.3 114.6,67.6 115.2,68.3 C115.8,68.9 116.1,69.7 116,70.6 L115.3,81.1 C115.5,82.7 114.2,83.9 112.6,83.9 Z" id="Shape"></path>
                        <path d="M108.3,71.2 L95,71.2 C92.8,71.2 91,73 91,75.2 L91,76.2 C91,78.4 92.8,80.2 95,80.2 L108.3,80.2 C110.5,80.2 112.3,78.4 112.3,76.2 L112.3,75.2 C112.3,73 110.5,71.2 108.3,71.2 Z M110.8,76.3 C110.8,77.7 109.7,78.8 108.3,78.8 L95,78.8 C93.6,78.8 92.5,77.7 92.5,76.3 L92.5,75.3 C92.5,73.9 93.6,72.8 95,72.8 L108.3,72.8 C109.7,72.8 110.8,73.9 110.8,75.3 L110.8,76.3 Z" id="Shape"></path>
                        <path d="M102.2,56.8 C102.3,56.7 105,53.9 105,50.5 C105,47.1 102.4,44.3 102.2,44.2 C102.1,44.1 101.9,44 101.7,44 C101.5,44 101.3,44.1 101.2,44.2 C101.1,44.3 98.4,47.1 98.4,50.5 C98.4,53.9 101,56.7 101.2,56.8 C101.3,56.9 101.5,57 101.7,57 C101.9,57 102,56.9 102.2,56.8 Z M99.9,50.5 C99.9,48.5 101,46.8 101.7,45.9 C102.4,46.8 103.5,48.6 103.5,50.5 C103.5,52.4 102.4,54.2 101.7,55.1 C101,54.2 99.9,52.4 99.9,50.5 Z" id="Shape"></path>
                        <path d="M123.4,27 L79.9,27 C79.5,27 79.1,27.3 79.1,27.8 C79.1,34.9 89.2,40.7 101.6,40.7 C114,40.7 124.1,34.9 124.1,27.8 C124.1,27.3 123.8,27 123.4,27 Z M101.7,39.1 C90.6,39.1 81.5,34.4 80.8,28.4 L122.7,28.4 C121.9,34.4 112.8,39.1 101.7,39.1 Z" id="Shape"></path>
                        <path d="M89.1,62.5 L89.3,62.5 C89.7,62.4 89.9,62 89.8,61.6 L83,38.4 C82.9,38 82.5,37.8 82.1,37.9 C81.7,38 81.5,38.4 81.6,38.8 L88.4,62 C88.5,62.3 88.8,62.5 89.1,62.5 Z" id="Shape"></path>
                        <path d="M101.7,20.9 C100.7,21.6 99.5,22.4 99.5,24.1 C99.5,24.5 99.8,24.9 100.3,24.9 C100.7,24.9 101.1,24.6 101.1,24.1 C101.1,23.3 101.7,22.8 102.6,22.2 C103.6,21.5 104.8,20.7 104.8,19 C104.8,17.3 103.6,16.5 102.6,15.8 C101.6,15.1 101,14.7 101,13.9 C101,13.1 101.6,12.6 102.5,12 C103.5,11.3 104.7,10.5 104.7,8.8 C104.7,8.4 104.4,8 103.9,8 C103.5,8 103.1,8.3 103.1,8.8 C103.1,9.6 102.5,10.1 101.6,10.7 C100.6,11.4 99.4,12.2 99.4,13.9 C99.4,15.6 100.6,16.4 101.6,17.1 C102.6,17.8 103.1,18.2 103.1,19 C103.2,19.8 102.6,20.3 101.7,20.9 Z" id="Shape"></path>
                        <path d="M106.2,24.1 C106.2,24.5 106.5,24.9 107,24.9 C107.4,24.9 107.8,24.6 107.8,24.1 C107.8,23 108.6,22.4 109.8,21.6 C111,20.8 112.4,19.8 112.4,17.8 C112.4,17.4 112.1,17 111.6,17 C111.2,17 110.8,17.3 110.8,17.8 C110.8,18.9 110,19.5 108.8,20.3 C107.6,21.1 106.2,22.1 106.2,24.1 Z" id="Shape"></path>
                    </g>
                </g>
            </g>
        </g>
    </g>
</svg>